<svg id="Layer_1" data-name="Layer 1" xmlns="http://www.w3.org/2000/svg" viewBox="0 0 300 300"><defs><style>.cls-1{fill:#fff;}.cls-2{fill:#d85c26;}</style></defs><title>bowie</title><circle class="cls-1" cx="127.93" cy="132.87" r="1.15"/><circle class="cls-2" cx="171.08" cy="132.87" r="4.02"/><path class="cls-2" d="M147.6,151.38a1.87,1.87,0,1,0-1.87,1.86A1.87,1.87,0,0,0,147.6,151.38Z"/><path class="cls-2" d="M155.49,151.38a1.87,1.87,0,1,0-1.86,1.86A1.87,1.87,0,0,0,155.49,151.38Z"/><path class="cls-2" d="M163.53,166.75a9,9,0,0,1-1.73.53,13.45,13.45,0,0,1-2.55,0c-.45,0-.9,0-1.32,0H141.86c-.43,0-.87,0-1.32,0a13.56,13.56,0,0,1-2.56,0,9.14,9.14,0,0,1-1.72-.53,6.59,6.59,0,0,0-3.38-.62l.15,1.05a5.67,5.67,0,0,1,2.85.56,9.48,9.48,0,0,0,1.94.58,3.26,3.26,0,0,0,.45.05v1.77h4.59v-1.81h1.44v1.81h4.59v-1.81h2v1.72h4.59v-1.72h1.44v1.72h4.59v-1.68a3.44,3.44,0,0,0,.45-.05,9.67,9.67,0,0,0,1.94-.58,5.65,5.65,0,0,1,2.85-.56l.14-1.05A6.57,6.57,0,0,0,163.53,166.75Z"/><path class="cls-2" d="M209.55,87.65c-3.38-6.66-15.49-10.61-21.72-16C173.72,59.46,165.42,59.39,150,60.53c-15.42-1.14-23.72-1.07-37.83,11.13C105.94,77,93.83,81,90.45,87.65c-3.57,7,0,23.87.91,31.25,1.13,9.75,6.49,18.63,8.44,28.73,1.85,9.61,6.9,19,10.49,27.88.9,2.23,3.31,10.15,4.85,12.26,1.23,1.68,2.79,2.2,3.73,2.92,0,.93,0,1.86,0,2.81,0,21.05-3.67,37.24,2.31,37.24,1.09,0,2.52,0,4.12,0,0,3.19,0,6.27-.09,9.05l1.06,0c.16-4.63.13-10.08-.06-15.56,0-1.53,0-3.17,0-5l.07,0,.07,0c-.29-5-.74-10.07-1.38-14.62a62.32,62.32,0,0,0-2.53-11.57c-.07-.18-.14-.36-.2-.54a79.22,79.22,0,0,0-1.56-9c-4.09-14.49-3.62-8.64-5.17-18.84-3.12-20.41-6.36-35.21.9-55,3.4-9.24,3.58-12.59,12.83-12.93L117,156l2.92-2.26h0l5.27-4.06-3.9,20,2.63-1.49L162.6,120.8l-10.48,8-26.07,18,44.6-49.93c9.36.31,9.53,3.65,12.94,12.93,7.26,19.74,4,34.54.9,55-1.55,10.2-1.08,4.35-5.17,18.84a37.42,37.42,0,0,0-.91,7.26c-.29.76-.58,1.51-.85,2.28A62.32,62.32,0,0,0,175,204.75c-.64,4.55-1.09,9.6-1.38,14.62l.07,0,.07,0c0,4.54,0,8.18.13,11.42l1.1,0a44.88,44.88,0,0,0,1.41,9.3l1-.27a44.2,44.2,0,0,1-1.37-9l2.73,0c6,0,2.31-16.19,2.31-37.24,0-.95,0-1.88,0-2.81.94-.72,2.5-1.24,3.73-2.92,1.54-2.11,3.95-10,4.85-12.26,3.59-8.91,8.64-18.27,10.49-27.88,2-10.1,7.31-19,8.44-28.73C209.5,111.52,213.12,94.66,209.55,87.65ZM131.1,136.39a4,4,0,1,1,4-4A4,4,0,0,1,131.1,136.39Z"/></svg>