<svg id="Layer_1" data-name="Layer 1" xmlns="http://www.w3.org/2000/svg" viewBox="0 0 300 300"><defs><style>.cls-1{fill:#f9c2c4;}.cls-2{fill:#dd4132;}</style></defs><title>bowie-mono</title><path class="cls-1" d="M115.68,66.07l1.18-1.17A4.69,4.69,0,0,0,115.68,66.07Z"/><path class="cls-1" d="M117.13,64.65l-.27.27a10.13,10.13,0,0,1,1.69-1v-.71Z"/><path class="cls-1" d="M177.8,64.9,179,66.07A4.82,4.82,0,0,0,177.8,64.9Z"/><path class="cls-1" d="M177.55,64.65l-1.44-1.45v.72a9.09,9.09,0,0,1,1.69,1Z"/><path class="cls-2" d="M90.75,153.27l-9.06-6.56c1.43-.14,2.63-.06,3.82-.07s2.44,0,3.65,0h3.75l3.44-10.46.18,0L100,146.61h11l.08.19a24.07,24.07,0,0,1-2.15,1.61c-.74.56-1.5,1.09-2.26,1.63l-2.17,1.58-2.28,1.65c1.14,3.51,2.26,7,3.39,10.41l-.15.14c-1.49-1-3-2.13-4.45-3.2l-4.48-3.24-9,6.46-.15-.1C88.47,160.27,89.6,156.8,90.75,153.27Z"/><path class="cls-2" d="M214,163.79l-8.9-6.42-8.92,6.43-.17-.12,9-27.47h.22q4.5,13.74,9,27.48Z"/><path class="cls-2" d="M241,153.32l3.4,10.45c-.66-.2-13.73-9.55-14.75-10.55q2.76-8.46,5.55-17h.2c1.13,3.46,2.27,6.92,3.43,10.44H250a13.89,13.89,0,0,1-2.28,1.79c-.74.57-1.5,1.1-2.25,1.64l-2.18,1.57Z"/><path class="cls-2" d="M128.53,158.43,131.92,148l-8.85-6.4.07-.17h28.94a.32.32,0,0,1,0,.09s0,.07,0,.08a3.47,3.47,0,0,1-.36.31l-23,16.64Z"/><path class="cls-2" d="M182,141.53l-9,6.5q1.71,5.24,3.4,10.45l-.14.13-23.57-17C153.5,141.36,180.75,141.32,182,141.53Z"/><path class="cls-2" d="M55.78,136.15q4.5,13.8,9,27.6l-.15.1L50,153.27c1.87-5.73,3.73-11.41,5.58-17.09Z"/></svg>