<svg id="Layer_1" data-name="Layer 1" xmlns="http://www.w3.org/2000/svg" xmlns:xlink="http://www.w3.org/1999/xlink" viewBox="0 0 600 600"><defs><style>.cls-1{fill:none;}.cls-2{fill:#d85c26;}.cls-3{clip-path:url(#clip-path);}.cls-4{fill:#fcfaf8;}</style><clipPath id="clip-path"><rect class="cls-1" x="10" y="10" width="580" height="580"/></clipPath></defs><title>gadget</title><rect class="cls-2" width="600" height="600"/><g class="cls-3"><path class="cls-4" d="M343.11,218.93a28.2,28.2,0,1,0,28.17,28.23v0A28.23,28.23,0,0,0,343.11,218.93Zm0,49.33a21.14,21.14,0,1,1,21.14-21.14h0A21.13,21.13,0,0,1,343.11,268.26Z"/><circle class="cls-4" cx="343.31" cy="247.12" r="8.83"/><path class="cls-4" d="M278.15,255.57l-8.41-8.45,8.41-8.41a9.93,9.93,0,1,0-14-14.05l-8.41,8.41-8.41-8.41A10,10,0,0,0,232.54,238a8.36,8.36,0,0,0,.66.67l8.45,8.41-8.45,8.45a9.93,9.93,0,0,0,14.08,14l8.41-8.41,8.41,8.41a9.93,9.93,0,0,0,14.32-13.75Z"/><path class="cls-4" d="M239.1,300.71a2.9,2.9,0,0,0-2.9,2.8v19.75a2.9,2.9,0,0,0,5.8,0V303.51A2.87,2.87,0,0,0,239.1,300.71Z"/><path class="cls-4" d="M247.8,300.71a2.9,2.9,0,0,0-2.9,2.8v19.75a2.9,2.9,0,0,0,5.8,0V303.51A2.87,2.87,0,0,0,247.8,300.71Z"/><path class="cls-4" d="M263.75,300.71c-1.58,0-1.45,1.26-1.45,2.8v19.75c0,1.55,0,2.81,1.45,2.81s1.45-1.26,1.45-2.81V303.51C265.2,302,265.33,300.71,263.75,300.71Z"/><path class="cls-4" d="M272.45,300.71c-1.55,0-1.45,1.26-1.45,2.8v19.75c0,1.55,0,2.81,1.45,2.81s1.45-1.26,1.45-2.81V303.51C273.9,302,274,300.71,272.45,300.71Z"/><path class="cls-4" d="M284.05,300.71c-1.58,0-7.25,1.26-7.25,2.8v19.75c0,1.55,5.67,2.81,7.25,2.81s7.25-1.26,7.25-2.81V303.51C291.3,302,285.6,300.71,284.05,300.71Z"/><path class="cls-4" d="M295.65,300.71c-1.58,0-1.45,1.26-1.45,2.8v19.75c0,1.55,0,2.81,1.45,2.81s1.45-1.26,1.45-2.81V303.51C297.1,302,297.23,300.71,295.65,300.71Z"/><path class="cls-4" d="M302.9,300.71a2.9,2.9,0,0,0-2.9,2.8v19.75a2.9,2.9,0,0,0,5.8,0V303.51A2.9,2.9,0,0,0,302.9,300.71Z"/><path class="cls-4" d="M314.5,300.71c-1.55,0-5.8,1.26-5.8,2.8v19.75c0,1.55,4.25,2.81,5.8,2.81s5.8-1.26,5.8-2.81V303.51C320.3,302,316.11,300.71,314.5,300.71Z"/><path class="cls-4" d="M327.55,300.71c-1.55,0-1.45,1.26-1.45,2.8v19.75c0,1.55,0,2.81,1.45,2.81s1.45-1.26,1.45-2.81V303.51C329,302,329,300.71,327.55,300.71Z"/><path class="cls-4" d="M334.8,300.71a2.87,2.87,0,0,0-2.9,2.8v19.75a2.9,2.9,0,1,0,5.8,0V303.51A2.87,2.87,0,0,0,334.8,300.71Z"/><path class="cls-4" d="M352.2,300.71a2.87,2.87,0,0,0-2.9,2.8v19.75a2.9,2.9,0,0,0,5.8,0V303.51A2.87,2.87,0,0,0,352.2,300.71Z"/><path class="cls-4" d="M360.9,300.71a2.9,2.9,0,0,0-2.9,2.8v19.75a2.9,2.9,0,0,0,5.8,0V303.51A2.9,2.9,0,0,0,360.9,300.71Z"/><path class="cls-4" d="M468.2,244.32l-26.1-14.11V162.54c0-15.6-12.89-30.74-28.52-30.74h-86l-2.8-8.7h24c4.67,0,8.44-6.93,8.44-11.6s-3.77-11.6-8.44-11.6H321.94l-3.22-11.6h1.87c4.67,0,8.47-5.48,8.47-10.15S325.26,68,320.59,68h-4.67l-1-7.73C315,44.7,316.43,17,300.87,17s-14.08,28.26-14.08,43.82L285.85,68h-4.7c-4.7,0-8.47,5.48-8.47,10.15s3.77,10.15,8.47,10.15H283L279.8,99.9H253c-4.67,0-8.44,6.93-8.44,11.6s3.77,11.6,8.44,11.6h24l-2.8,8.7H188c-15.6,0-30.13,15.14-30.13,30.74v67.67l-29,14.11v56.39l29,14.08V388.1c0,15.56,14.53,27.9,30.13,27.9H413.58a28.23,28.23,0,0,0,28.52-27.9V314.79l26.1-14.08Zm-55.1-28.23V359.9c0,15.6-12.15,30-27.71,30H216.22c-15.56,0-32.22-14.4-32.22-30V190.73c0-15.56,16.66-27,32.22-27H385.39a26.84,26.84,0,0,1,27.7,26c0,.36,0,.71,0,1.07Z"/><path class="cls-4" d="M90,460a42.34,42.34,0,1,0,.13,0Z"/><path class="cls-4" d="M99.8,569.7H80.28a37.22,37.22,0,0,0-35.45,35.83v71.76c0,19.11,17.5,34.51,35.45,34.51H99.8c18,0,29-15.4,29-34.51V605.53C128.9,586.39,117.75,569.7,99.8,569.7Z"/><path class="cls-4" d="M511.57,544.6a42.31,42.31,0,1,0-42.31-42.31,42.31,42.31,0,0,0,42.31,42.31Z"/><path class="cls-4" d="M521.33,569.7H501.81c-17.95,0-33.61,16.69-33.61,35.83v71.76a34.45,34.45,0,0,0,33.61,34.51h19.52a34.65,34.65,0,0,0,33.87-34.51V605.53C555.2,586.39,539.31,569.7,521.33,569.7Z"/><path class="cls-4" d="M415.68,450.8H187.93c-7.51,0-15.72.81-20.62,5.7s-9.41,9.48-9.41,17V701.23a32.89,32.89,0,0,0,9.41,21.07,32.38,32.38,0,0,0,20.62,9.83H415.68c7.47,0,13.92-4.93,18.82-9.83a31.5,31.5,0,0,0,7.6-21.07V473.48a21.94,21.94,0,0,0-7.6-17C429.6,451.61,423.15,450.8,415.68,450.8Z"/></g></svg>