<svg id="Layer_1" data-name="Layer 1" xmlns="http://www.w3.org/2000/svg" viewBox="0 0 300 300"><defs><style>.cls-1{fill:#545e7d;}</style></defs><title>moods</title><path class="cls-1" d="M219.75,127.05a3.6,3.6,0,1,0,3.6,3.6A3.6,3.6,0,0,0,219.75,127.05Z"/><path class="cls-1" d="M180.6,215.82a8.5,8.5,0,1,0,8.5,8.5A8.51,8.51,0,0,0,180.6,215.82Zm0,13.5a5,5,0,1,1,5-5A5,5,0,0,1,180.6,229.32Z"/><path class="cls-1" d="M200.4,215.82a8.5,8.5,0,1,0,8.5,8.5A8.51,8.51,0,0,0,200.4,215.82Zm0,13.5a5,5,0,1,1,5-5A5,5,0,0,1,200.4,229.32Z"/><path class="cls-1" d="M235.5,60.5H64.5a6.25,6.25,0,0,0-6.25,6.25v171A6.25,6.25,0,0,0,64.5,244h171a6.25,6.25,0,0,0,6.25-6.25v-171A6.25,6.25,0,0,0,235.5,60.5Zm2.75,177.25a2.75,2.75,0,0,1-2.75,2.75H64.5a2.75,2.75,0,0,1-2.75-2.75v-171A2.75,2.75,0,0,1,64.5,64h171a2.75,2.75,0,0,1,2.75,2.75Z"/><path class="cls-1" d="M226.5,69.57H73.5a6.26,6.26,0,0,0-6.25,6.25v36a6.25,6.25,0,0,0,6.25,6.25h153a6.25,6.25,0,0,0,6.25-6.25v-36A6.26,6.26,0,0,0,226.5,69.57ZM70.75,83.82C74.58,84.2,79,88.31,82,91.13l.81.76c-.77.34-1.52.75-2.26,1.16A15.1,15.1,0,0,1,77.7,94.4a11.41,11.41,0,0,1-3,.28,11.06,11.06,0,0,0-3.8.5l.62,1.64a9.41,9.41,0,0,1,3.2-.39,13,13,0,0,0,3.41-.34,16.37,16.37,0,0,0,3.22-1.51,25.18,25.18,0,0,1,2.86-1.41c1.67,1.46,3.52,2.92,5.68,4.51-.76.33-1.52.68-2.3,1-5.8,2.6-11.79,5.27-16.88,5Zm35.86,13.65c4.77,2.7,9.27,5.26,16.26,5.26h0a31.64,31.64,0,0,0,7.76-1c.55.18,1.11.35,1.69.48,1.71.39,3.46.68,5.21.92-11.69,4.08-27.53,6.17-41.87-3.52l-2.18-1.49a38.22,38.22,0,0,1,4.56-1.58l.65-.18c1.27-.34,2.59-.69,3.92-1C104,96,105.32,96.74,106.61,97.47Zm-1.36-2.77c4.4-.89,8.88-1.22,12.84.31a31.69,31.69,0,0,1,5.72,3.12c1.29.82,2.6,1.65,4,2.38a29.24,29.24,0,0,1-5,.47h0c-6.53,0-10.83-2.45-15.39-5C106.75,95.53,106,95.12,105.25,94.7Zm49,.21c-2.52,1.49-4.89,2.9-6.91,3.94-1.82.94-3.92,1.93-6.24,2.88a65.14,65.14,0,0,1-7.17-1c2.95-1,5.81-2.25,8.63-3.49,5.58-2.46,10.94-4.8,16.75-5.25C157.55,93,155.86,94,154.25,94.91Zm8.68-3a25.25,25.25,0,0,1,2.69.32,40.93,40.93,0,0,1,11.9,4.45c-1.62.54-3.21,1.16-4.76,1.77-4.17,1.63-8.11,3.17-12.56,3.39a152.3,152.3,0,0,1-15.32.13c1.08-.5,2.17-1,3.26-1.59,2.06-1.06,4.46-2.49,7-4S160.2,93.41,162.93,91.94ZM98.24,94.62l-.64.17a47,47,0,0,0-5.8,2.08c-2.07-1.49-3.86-2.87-5.47-4.22a23.71,23.71,0,0,1,12.06.8c.59.21,1.15.44,1.7.68Zm131,17.2a2.75,2.75,0,0,1-2.75,2.75H73.5a2.75,2.75,0,0,1-2.75-2.75v-6.38c.26,0,.52,0,.78,0,5.3,0,11.14-2.62,16.81-5.17l3.25-1.43c1,.69,2,1.4,3.1,2.14a42.53,42.53,0,0,0,24.19,7.24,60,60,0,0,0,22.51-4.74,137.48,137.48,0,0,0,18.9.11c4.73-.24,9-1.9,13.1-3.51,2-.8,4.11-1.61,6.24-2.24,1.83,1,3.63,2.13,5.42,3.21,6.65,4,13.53,8.22,21.44,9.29a63.15,63.15,0,0,0,8,.55,36.86,36.86,0,0,0,6.78-.56,15.54,15.54,0,0,0,5.1-2.32,15.67,15.67,0,0,1,2.83-1.5Zm0-7.1a14.1,14.1,0,0,0-3.75,1.83,14,14,0,0,1-4.51,2.09,47.39,47.39,0,0,1-14.26,0c-7.56-1-14.28-5.1-20.77-9-1.29-.78-2.59-1.57-3.91-2.34.5-.11,1-.21,1.5-.29a34.76,34.76,0,0,1,16.91,2c9.4,3.41,17.54,5.09,28.79,3Zm0-4.59c-9.78,1.92-17.19,1.18-28.19-2.82a36.51,36.51,0,0,0-17.79-2.08,30,30,0,0,0-3.41.76,45.28,45.28,0,0,0-13.93-5.45l-.26,0c8.11-4.07,16.7-6.83,23-3,1.94,1.18,3.69,2.4,5.39,3.58,4.47,3.13,8.7,6.08,15.1,7.06l.27,0c3.73.57,10,1.53,13.81.43a13.86,13.86,0,0,0,4.5-2.66c.55-.42,1.06-.8,1.56-1.13Zm0-6.29-.5-.84a20.66,20.66,0,0,0-2.13,1.52,12.43,12.43,0,0,1-3.91,2.36c-3.47,1-9.48.07-13.07-.48l-.26,0c-6-.92-9.88-3.62-14.37-6.76-1.72-1.2-3.49-2.44-5.48-3.64-7.59-4.59-17.83-.71-27,4.2-7.5-.35-14.19,2.58-20.69,5.44a80.37,80.37,0,0,1-11.16,4.25,31.21,31.21,0,0,1-5.94-3.2,34.31,34.31,0,0,0-6-3.28c-5-1.92-10.7-1.14-15.9.08A38.36,38.36,0,0,0,99,91.8a25.84,25.84,0,0,0-14.33-.59l-1.47-1.36c-3.23-3-8-7.44-12.44-7.78V75.82a2.75,2.75,0,0,1,2.75-2.75h153a2.75,2.75,0,0,1,2.75,2.75Z"/><circle class="cls-1" cx="75.69" cy="130.2" r="1.13"/><circle class="cls-1" cx="75.69" cy="134.7" r="1.13"/><circle class="cls-1" cx="80.19" cy="130.2" r="1.13"/><circle class="cls-1" cx="80.19" cy="134.7" r="1.13"/><circle class="cls-1" cx="85.01" cy="130.2" r="1.13"/><circle class="cls-1" cx="85.01" cy="134.7" r="1.13"/><circle class="cls-1" cx="89.51" cy="130.2" r="1.13"/><circle class="cls-1" cx="89.51" cy="134.7" r="1.13"/><circle class="cls-1" cx="94.01" cy="130.2" r="1.13"/><circle class="cls-1" cx="94.01" cy="134.7" r="1.13"/><circle class="cls-1" cx="98.51" cy="130.2" r="1.13"/><circle class="cls-1" cx="98.51" cy="134.7" r="1.13"/><circle class="cls-1" cx="103.33" cy="130.2" r="1.13"/><circle class="cls-1" cx="103.33" cy="134.7" r="1.13"/><circle class="cls-1" cx="107.83" cy="130.2" r="1.13"/><circle class="cls-1" cx="107.83" cy="134.7" r="1.13"/><circle class="cls-1" cx="112.49" cy="130.2" r="1.13"/><circle class="cls-1" cx="112.49" cy="134.7" r="1.13"/><circle class="cls-1" cx="116.99" cy="130.2" r="1.13"/><circle class="cls-1" cx="116.99" cy="134.7" r="1.13"/><circle class="cls-1" cx="121.81" cy="130.2" r="1.13"/><circle class="cls-1" cx="121.81" cy="134.7" r="1.13"/><circle class="cls-1" cx="126.31" cy="130.2" r="1.13"/><circle class="cls-1" cx="126.31" cy="134.7" r="1.13"/><circle class="cls-1" cx="130.81" cy="130.2" r="1.13"/><circle class="cls-1" cx="130.81" cy="134.7" r="1.13"/><circle class="cls-1" cx="135.31" cy="130.2" r="1.13"/><circle class="cls-1" cx="135.31" cy="134.7" r="1.13"/><circle class="cls-1" cx="140.14" cy="130.2" r="1.13"/><circle class="cls-1" cx="140.14" cy="134.7" r="1.13"/><circle class="cls-1" cx="144.64" cy="130.2" r="1.13"/><circle class="cls-1" cx="144.64" cy="134.7" r="1.13"/><circle class="cls-1" cx="75.71" cy="139.65" r="1.13"/><circle class="cls-1" cx="75.71" cy="144.15" r="1.13"/><circle class="cls-1" cx="80.21" cy="139.65" r="1.13"/><circle class="cls-1" cx="80.21" cy="144.15" r="1.13"/><circle class="cls-1" cx="85.03" cy="139.65" r="1.13"/><circle class="cls-1" cx="85.03" cy="144.15" r="1.13"/><circle class="cls-1" cx="89.53" cy="139.65" r="1.13"/><circle class="cls-1" cx="89.53" cy="144.15" r="1.13"/><circle class="cls-1" cx="94.03" cy="139.65" r="1.13"/><circle class="cls-1" cx="94.03" cy="144.15" r="1.13"/><circle class="cls-1" cx="98.53" cy="139.65" r="1.13"/><circle class="cls-1" cx="98.53" cy="144.15" r="1.13"/><circle class="cls-1" cx="103.35" cy="139.65" r="1.13"/><circle class="cls-1" cx="103.35" cy="144.15" r="1.13"/><circle class="cls-1" cx="107.85" cy="139.65" r="1.13"/><circle class="cls-1" cx="107.85" cy="144.15" r="1.13"/><circle class="cls-1" cx="112.51" cy="139.65" r="1.13"/><circle class="cls-1" cx="112.51" cy="144.15" r="1.13"/><circle class="cls-1" cx="117.01" cy="139.65" r="1.13"/><circle class="cls-1" cx="117.01" cy="144.15" r="1.13"/><circle class="cls-1" cx="121.83" cy="139.65" r="1.13"/><circle class="cls-1" cx="121.83" cy="144.15" r="1.13"/><circle class="cls-1" cx="126.33" cy="139.65" r="1.13"/><circle class="cls-1" cx="126.33" cy="144.15" r="1.13"/><circle class="cls-1" cx="130.83" cy="139.65" r="1.13"/><circle class="cls-1" cx="130.83" cy="144.15" r="1.13"/><circle class="cls-1" cx="135.33" cy="139.65" r="1.13"/><circle class="cls-1" cx="135.33" cy="144.15" r="1.13"/><circle class="cls-1" cx="140.15" cy="139.65" r="1.13"/><circle class="cls-1" cx="140.15" cy="144.15" r="1.13"/><circle class="cls-1" cx="144.65" cy="139.65" r="1.13"/><circle class="cls-1" cx="144.65" cy="144.15" r="1.13"/><circle class="cls-1" cx="75.39" cy="148.88" r="1.13"/><circle class="cls-1" cx="75.39" cy="153.38" r="1.13"/><circle class="cls-1" cx="79.89" cy="148.88" r="1.13"/><circle class="cls-1" cx="79.89" cy="153.38" r="1.13"/><circle class="cls-1" cx="84.72" cy="148.88" r="1.13"/><circle class="cls-1" cx="84.72" cy="153.38" r="1.13"/><circle class="cls-1" cx="89.22" cy="148.88" r="1.13"/><circle class="cls-1" cx="89.22" cy="153.38" r="1.13"/><circle class="cls-1" cx="93.72" cy="148.88" r="1.13"/><circle class="cls-1" cx="93.72" cy="153.38" r="1.13"/><circle class="cls-1" cx="98.22" cy="148.88" r="1.13"/><circle class="cls-1" cx="98.22" cy="153.38" r="1.13"/><circle class="cls-1" cx="103.04" cy="148.88" r="1.13"/><circle class="cls-1" cx="103.04" cy="153.38" r="1.13"/><circle class="cls-1" cx="107.54" cy="148.88" r="1.13"/><circle class="cls-1" cx="107.54" cy="153.38" r="1.13"/><circle class="cls-1" cx="112.2" cy="148.88" r="1.13"/><circle class="cls-1" cx="112.2" cy="153.38" r="1.13"/><circle class="cls-1" cx="116.7" cy="148.88" r="1.13"/><circle class="cls-1" cx="116.7" cy="153.38" r="1.13"/><circle class="cls-1" cx="121.52" cy="148.88" r="1.13"/><circle class="cls-1" cx="121.52" cy="153.38" r="1.13"/><circle class="cls-1" cx="126.02" cy="148.88" r="1.13"/><circle class="cls-1" cx="126.02" cy="153.38" r="1.13"/><circle class="cls-1" cx="130.52" cy="148.88" r="1.13"/><circle class="cls-1" cx="130.52" cy="153.38" r="1.13"/><circle class="cls-1" cx="135.02" cy="148.88" r="1.13"/><circle class="cls-1" cx="135.02" cy="153.38" r="1.13"/><circle class="cls-1" cx="139.84" cy="148.88" r="1.13"/><circle class="cls-1" cx="139.84" cy="153.38" r="1.13"/><circle class="cls-1" cx="144.34" cy="148.88" r="1.13"/><circle class="cls-1" cx="144.34" cy="153.38" r="1.13"/><circle class="cls-1" cx="75.41" cy="158.33" r="1.13"/><circle class="cls-1" cx="75.41" cy="162.83" r="1.13"/><circle class="cls-1" cx="79.91" cy="158.33" r="1.13"/><circle class="cls-1" cx="79.91" cy="162.83" r="1.13"/><circle class="cls-1" cx="84.73" cy="158.33" r="1.13"/><circle class="cls-1" cx="84.73" cy="162.83" r="1.13"/><circle class="cls-1" cx="89.23" cy="158.33" r="1.13"/><circle class="cls-1" cx="89.23" cy="162.83" r="1.13"/><circle class="cls-1" cx="93.73" cy="158.33" r="1.13"/><circle class="cls-1" cx="93.73" cy="162.83" r="1.13"/><circle class="cls-1" cx="98.23" cy="158.33" r="1.13"/><circle class="cls-1" cx="98.23" cy="162.83" r="1.13"/><circle class="cls-1" cx="103.06" cy="158.33" r="1.13"/><circle class="cls-1" cx="103.06" cy="162.83" r="1.13"/><circle class="cls-1" cx="107.56" cy="158.33" r="1.13"/><circle class="cls-1" cx="107.56" cy="162.83" r="1.13"/><circle class="cls-1" cx="112.21" cy="158.33" r="1.13"/><circle class="cls-1" cx="112.21" cy="162.83" r="1.13"/><circle class="cls-1" cx="116.71" cy="158.33" r="1.13"/><circle class="cls-1" cx="116.71" cy="162.83" r="1.13"/><circle class="cls-1" cx="121.54" cy="158.33" r="1.13"/><circle class="cls-1" cx="121.54" cy="162.83" r="1.13"/><circle class="cls-1" cx="126.04" cy="158.33" r="1.13"/><circle class="cls-1" cx="126.04" cy="162.83" r="1.13"/><circle class="cls-1" cx="130.54" cy="158.33" r="1.13"/><circle class="cls-1" cx="130.54" cy="162.83" r="1.13"/><circle class="cls-1" cx="135.04" cy="158.33" r="1.13"/><circle class="cls-1" cx="135.04" cy="162.83" r="1.13"/><circle class="cls-1" cx="139.86" cy="158.33" r="1.13"/><circle class="cls-1" cx="139.86" cy="162.83" r="1.13"/><circle class="cls-1" cx="144.36" cy="158.33" r="1.13"/><circle class="cls-1" cx="144.36" cy="162.83" r="1.13"/><circle class="cls-1" cx="75.09" cy="167.78" r="1.13"/><circle class="cls-1" cx="75.09" cy="172.28" r="1.13"/><circle class="cls-1" cx="79.59" cy="167.78" r="1.13"/><circle class="cls-1" cx="79.59" cy="172.28" r="1.13"/><circle class="cls-1" cx="84.41" cy="167.78" r="1.13"/><circle class="cls-1" cx="84.41" cy="172.28" r="1.13"/><circle class="cls-1" cx="88.91" cy="167.78" r="1.13"/><circle class="cls-1" cx="88.91" cy="172.28" r="1.13"/><circle class="cls-1" cx="93.41" cy="167.78" r="1.13"/><circle class="cls-1" cx="93.41" cy="172.28" r="1.13"/><circle class="cls-1" cx="97.91" cy="167.78" r="1.13"/><circle class="cls-1" cx="97.91" cy="172.28" r="1.13"/><circle class="cls-1" cx="102.74" cy="167.78" r="1.13"/><circle class="cls-1" cx="102.74" cy="172.28" r="1.13"/><circle class="cls-1" cx="107.24" cy="167.78" r="1.13"/><circle class="cls-1" cx="107.24" cy="172.28" r="1.13"/><circle class="cls-1" cx="111.89" cy="167.78" r="1.13"/><circle class="cls-1" cx="111.89" cy="172.28" r="1.13"/><circle class="cls-1" cx="116.39" cy="167.78" r="1.13"/><circle class="cls-1" cx="116.39" cy="172.28" r="1.13"/><circle class="cls-1" cx="121.22" cy="167.78" r="1.13"/><circle class="cls-1" cx="121.22" cy="172.28" r="1.13"/><circle class="cls-1" cx="125.72" cy="167.78" r="1.13"/><circle class="cls-1" cx="125.72" cy="172.28" r="1.13"/><circle class="cls-1" cx="130.22" cy="167.78" r="1.13"/><circle class="cls-1" cx="130.22" cy="172.28" r="1.13"/><circle class="cls-1" cx="134.72" cy="167.78" r="1.13"/><circle class="cls-1" cx="134.72" cy="172.28" r="1.13"/><circle class="cls-1" cx="139.54" cy="167.78" r="1.13"/><circle class="cls-1" cx="139.54" cy="172.28" r="1.13"/><circle class="cls-1" cx="144.04" cy="167.78" r="1.13"/><circle class="cls-1" cx="144.04" cy="172.28" r="1.13"/><circle class="cls-1" cx="75.11" cy="177.22" r="1.13"/><circle class="cls-1" cx="75.11" cy="181.72" r="1.13"/><circle class="cls-1" cx="79.61" cy="177.22" r="1.13"/><circle class="cls-1" cx="79.61" cy="181.72" r="1.13"/><circle class="cls-1" cx="84.43" cy="177.22" r="1.13"/><circle class="cls-1" cx="84.43" cy="181.72" r="1.13"/><circle class="cls-1" cx="88.93" cy="177.22" r="1.13"/><circle class="cls-1" cx="88.93" cy="181.72" r="1.13"/><circle class="cls-1" cx="93.43" cy="177.22" r="1.13"/><circle class="cls-1" cx="93.43" cy="181.72" r="1.13"/><circle class="cls-1" cx="97.93" cy="177.22" r="1.13"/><circle class="cls-1" cx="97.93" cy="181.72" r="1.13"/><circle class="cls-1" cx="102.76" cy="177.22" r="1.13"/><circle class="cls-1" cx="102.76" cy="181.72" r="1.13"/><circle class="cls-1" cx="107.26" cy="177.22" r="1.13"/><circle class="cls-1" cx="107.26" cy="181.72" r="1.13"/><circle class="cls-1" cx="111.91" cy="177.22" r="1.13"/><circle class="cls-1" cx="111.91" cy="181.72" r="1.13"/><circle class="cls-1" cx="116.41" cy="177.22" r="1.13"/><circle class="cls-1" cx="116.41" cy="181.72" r="1.13"/><circle class="cls-1" cx="121.23" cy="177.22" r="1.13"/><circle class="cls-1" cx="121.23" cy="181.72" r="1.13"/><circle class="cls-1" cx="125.73" cy="177.22" r="1.13"/><circle class="cls-1" cx="125.73" cy="181.72" r="1.13"/><circle class="cls-1" cx="130.23" cy="177.22" r="1.13"/><circle class="cls-1" cx="130.23" cy="181.72" r="1.13"/><circle class="cls-1" cx="134.73" cy="177.22" r="1.13"/><circle class="cls-1" cx="134.73" cy="181.72" r="1.13"/><circle class="cls-1" cx="139.56" cy="177.22" r="1.13"/><circle class="cls-1" cx="139.56" cy="181.72" r="1.13"/><circle class="cls-1" cx="144.06" cy="177.22" r="1.13"/><circle class="cls-1" cx="144.06" cy="181.72" r="1.13"/><circle class="cls-1" cx="74.8" cy="186.45" r="1.13"/><circle class="cls-1" cx="74.8" cy="190.95" r="1.13"/><circle class="cls-1" cx="79.3" cy="186.45" r="1.13"/><circle class="cls-1" cx="79.3" cy="190.95" r="1.13"/><circle class="cls-1" cx="84.12" cy="186.45" r="1.13"/><circle class="cls-1" cx="84.12" cy="190.95" r="1.13"/><circle class="cls-1" cx="88.62" cy="186.45" r="1.13"/><circle class="cls-1" cx="88.62" cy="190.95" r="1.13"/><circle class="cls-1" cx="93.12" cy="186.45" r="1.13"/><circle class="cls-1" cx="93.12" cy="190.95" r="1.13"/><circle class="cls-1" cx="97.62" cy="186.45" r="1.13"/><circle class="cls-1" cx="97.62" cy="190.95" r="1.13"/><circle class="cls-1" cx="102.44" cy="186.45" r="1.13"/><circle class="cls-1" cx="102.44" cy="190.95" r="1.13"/><circle class="cls-1" cx="106.94" cy="186.45" r="1.13"/><circle class="cls-1" cx="106.94" cy="190.95" r="1.13"/><circle class="cls-1" cx="111.6" cy="186.45" r="1.13"/><circle class="cls-1" cx="111.6" cy="190.95" r="1.13"/><circle class="cls-1" cx="116.1" cy="186.45" r="1.13"/><circle class="cls-1" cx="116.1" cy="190.95" r="1.13"/><circle class="cls-1" cx="120.92" cy="186.45" r="1.13"/><circle class="cls-1" cx="120.92" cy="190.95" r="1.13"/><circle class="cls-1" cx="125.42" cy="186.45" r="1.13"/><circle class="cls-1" cx="125.42" cy="190.95" r="1.13"/><circle class="cls-1" cx="129.92" cy="186.45" r="1.13"/><circle class="cls-1" cx="129.92" cy="190.95" r="1.13"/><circle class="cls-1" cx="134.42" cy="186.45" r="1.13"/><circle class="cls-1" cx="134.42" cy="190.95" r="1.13"/><circle class="cls-1" cx="139.24" cy="186.45" r="1.13"/><circle class="cls-1" cx="139.24" cy="190.95" r="1.13"/><circle class="cls-1" cx="143.74" cy="186.45" r="1.13"/><circle class="cls-1" cx="143.74" cy="190.95" r="1.13"/><circle class="cls-1" cx="74.81" cy="195.9" r="1.13"/><circle class="cls-1" cx="74.81" cy="200.4" r="1.13"/><circle class="cls-1" cx="79.31" cy="195.9" r="1.13"/><circle class="cls-1" cx="79.31" cy="200.4" r="1.13"/><circle class="cls-1" cx="84.14" cy="195.9" r="1.13"/><circle class="cls-1" cx="84.14" cy="200.4" r="1.13"/><circle class="cls-1" cx="88.64" cy="195.9" r="1.13"/><circle class="cls-1" cx="88.64" cy="200.4" r="1.13"/><circle class="cls-1" cx="93.14" cy="195.9" r="1.13"/><circle class="cls-1" cx="93.14" cy="200.4" r="1.13"/><circle class="cls-1" cx="97.64" cy="195.9" r="1.13"/><circle class="cls-1" cx="97.64" cy="200.4" r="1.13"/><circle class="cls-1" cx="102.46" cy="195.9" r="1.13"/><circle class="cls-1" cx="102.46" cy="200.4" r="1.13"/><circle class="cls-1" cx="106.96" cy="195.9" r="1.13"/><circle class="cls-1" cx="106.96" cy="200.4" r="1.13"/><circle class="cls-1" cx="111.62" cy="195.9" r="1.13"/><circle class="cls-1" cx="111.62" cy="200.4" r="1.13"/><circle class="cls-1" cx="116.12" cy="195.9" r="1.13"/><circle class="cls-1" cx="116.12" cy="200.4" r="1.13"/><circle class="cls-1" cx="120.94" cy="195.9" r="1.13"/><circle class="cls-1" cx="120.94" cy="200.4" r="1.13"/><circle class="cls-1" cx="125.44" cy="195.9" r="1.13"/><circle class="cls-1" cx="125.44" cy="200.4" r="1.13"/><circle class="cls-1" cx="129.94" cy="195.9" r="1.13"/><circle class="cls-1" cx="129.94" cy="200.4" r="1.13"/><circle class="cls-1" cx="134.44" cy="195.9" r="1.13"/><circle class="cls-1" cx="134.44" cy="200.4" r="1.13"/><circle class="cls-1" cx="139.26" cy="195.9" r="1.13"/><circle class="cls-1" cx="139.26" cy="200.4" r="1.13"/><circle class="cls-1" cx="143.76" cy="195.9" r="1.13"/><circle class="cls-1" cx="143.76" cy="200.4" r="1.13"/><circle class="cls-1" cx="74.64" cy="204.52" r="1.13"/><circle class="cls-1" cx="74.64" cy="209.02" r="1.13"/><circle class="cls-1" cx="79.14" cy="204.52" r="1.13"/><circle class="cls-1" cx="79.14" cy="209.02" r="1.13"/><circle class="cls-1" cx="83.96" cy="204.52" r="1.13"/><circle class="cls-1" cx="83.96" cy="209.02" r="1.13"/><circle class="cls-1" cx="88.46" cy="204.52" r="1.13"/><circle class="cls-1" cx="88.46" cy="209.02" r="1.13"/><circle class="cls-1" cx="92.96" cy="204.52" r="1.13"/><circle class="cls-1" cx="92.96" cy="209.02" r="1.13"/><circle class="cls-1" cx="97.46" cy="204.52" r="1.13"/><circle class="cls-1" cx="97.46" cy="209.02" r="1.13"/><circle class="cls-1" cx="102.29" cy="204.52" r="1.13"/><circle class="cls-1" cx="102.29" cy="209.02" r="1.13"/><circle class="cls-1" cx="106.79" cy="204.52" r="1.13"/><circle class="cls-1" cx="106.79" cy="209.02" r="1.13"/><circle class="cls-1" cx="111.44" cy="204.52" r="1.13"/><circle class="cls-1" cx="111.44" cy="209.02" r="1.13"/><circle class="cls-1" cx="115.94" cy="204.52" r="1.13"/><circle class="cls-1" cx="115.94" cy="209.02" r="1.13"/><circle class="cls-1" cx="120.77" cy="204.52" r="1.13"/><circle class="cls-1" cx="120.77" cy="209.02" r="1.13"/><circle class="cls-1" cx="125.27" cy="204.52" r="1.13"/><circle class="cls-1" cx="125.27" cy="209.02" r="1.13"/><circle class="cls-1" cx="129.77" cy="204.52" r="1.13"/><circle class="cls-1" cx="129.77" cy="209.02" r="1.13"/><circle class="cls-1" cx="134.27" cy="204.52" r="1.13"/><circle class="cls-1" cx="134.27" cy="209.02" r="1.13"/><circle class="cls-1" cx="139.09" cy="204.52" r="1.13"/><circle class="cls-1" cx="139.09" cy="209.02" r="1.13"/><circle class="cls-1" cx="143.59" cy="204.52" r="1.13"/><circle class="cls-1" cx="143.59" cy="209.02" r="1.13"/><circle class="cls-1" cx="74.66" cy="213.97" r="1.13"/><circle class="cls-1" cx="74.66" cy="218.47" r="1.13"/><circle class="cls-1" cx="79.16" cy="213.97" r="1.13"/><circle class="cls-1" cx="79.16" cy="218.47" r="1.13"/><circle class="cls-1" cx="83.98" cy="213.97" r="1.13"/><circle class="cls-1" cx="83.98" cy="218.47" r="1.13"/><circle class="cls-1" cx="88.48" cy="213.97" r="1.13"/><circle class="cls-1" cx="88.48" cy="218.47" r="1.13"/><circle class="cls-1" cx="92.98" cy="213.97" r="1.13"/><circle class="cls-1" cx="92.98" cy="218.47" r="1.13"/><circle class="cls-1" cx="97.48" cy="213.97" r="1.13"/><circle class="cls-1" cx="97.48" cy="218.47" r="1.13"/><circle class="cls-1" cx="102.3" cy="213.97" r="1.13"/><circle class="cls-1" cx="102.3" cy="218.47" r="1.13"/><circle class="cls-1" cx="106.8" cy="213.97" r="1.13"/><circle class="cls-1" cx="106.8" cy="218.47" r="1.13"/><circle class="cls-1" cx="111.46" cy="213.97" r="1.13"/><circle class="cls-1" cx="111.46" cy="218.47" r="1.13"/><circle class="cls-1" cx="115.96" cy="213.97" r="1.13"/><circle class="cls-1" cx="115.96" cy="218.47" r="1.13"/><circle class="cls-1" cx="120.78" cy="213.97" r="1.13"/><circle class="cls-1" cx="120.78" cy="218.47" r="1.13"/><circle class="cls-1" cx="125.28" cy="213.97" r="1.13"/><circle class="cls-1" cx="125.28" cy="218.47" r="1.13"/><circle class="cls-1" cx="129.78" cy="213.97" r="1.13"/><circle class="cls-1" cx="129.78" cy="218.47" r="1.13"/><circle class="cls-1" cx="134.28" cy="213.97" r="1.13"/><circle class="cls-1" cx="134.28" cy="218.47" r="1.13"/><circle class="cls-1" cx="139.11" cy="213.97" r="1.13"/><circle class="cls-1" cx="139.11" cy="218.47" r="1.13"/><circle class="cls-1" cx="143.61" cy="213.97" r="1.13"/><circle class="cls-1" cx="143.61" cy="218.47" r="1.13"/><circle class="cls-1" cx="74.35" cy="223.19" r="1.13"/><circle class="cls-1" cx="74.35" cy="227.69" r="1.13"/><circle class="cls-1" cx="78.85" cy="223.19" r="1.13"/><circle class="cls-1" cx="78.85" cy="227.69" r="1.13"/><circle class="cls-1" cx="83.67" cy="223.19" r="1.13"/><circle class="cls-1" cx="83.67" cy="227.69" r="1.13"/><circle class="cls-1" cx="88.17" cy="223.19" r="1.13"/><circle class="cls-1" cx="88.17" cy="227.69" r="1.13"/><circle class="cls-1" cx="92.67" cy="223.19" r="1.13"/><circle class="cls-1" cx="92.67" cy="227.69" r="1.13"/><circle class="cls-1" cx="97.17" cy="223.19" r="1.13"/><circle class="cls-1" cx="97.17" cy="227.69" r="1.13"/><circle class="cls-1" cx="101.99" cy="223.19" r="1.13"/><circle class="cls-1" cx="101.99" cy="227.69" r="1.13"/><circle class="cls-1" cx="106.49" cy="223.19" r="1.13"/><circle class="cls-1" cx="106.49" cy="227.69" r="1.13"/><circle class="cls-1" cx="111.15" cy="223.19" r="1.13"/><circle class="cls-1" cx="111.15" cy="227.69" r="1.13"/><circle class="cls-1" cx="115.65" cy="223.19" r="1.13"/><circle class="cls-1" cx="115.65" cy="227.69" r="1.13"/><circle class="cls-1" cx="120.47" cy="223.19" r="1.13"/><circle class="cls-1" cx="120.47" cy="227.69" r="1.13"/><circle class="cls-1" cx="124.97" cy="223.19" r="1.13"/><circle class="cls-1" cx="124.97" cy="227.69" r="1.13"/><circle class="cls-1" cx="129.47" cy="223.19" r="1.13"/><circle class="cls-1" cx="129.47" cy="227.69" r="1.13"/><circle class="cls-1" cx="133.97" cy="223.19" r="1.13"/><circle class="cls-1" cx="133.97" cy="227.69" r="1.13"/><circle class="cls-1" cx="138.8" cy="223.19" r="1.13"/><circle class="cls-1" cx="138.8" cy="227.69" r="1.13"/><circle class="cls-1" cx="143.3" cy="223.19" r="1.13"/><circle class="cls-1" cx="143.3" cy="227.69" r="1.13"/><path class="cls-1" d="M162.6,127.2a3.6,3.6,0,1,0,3.6,3.6A3.6,3.6,0,0,0,162.6,127.2Z"/><path class="cls-1" d="M180.6,130.8a3.6,3.6,0,1,0-3.6,3.6A3.6,3.6,0,0,0,180.6,130.8Z"/><path class="cls-1" d="M195,130.8a3.6,3.6,0,1,0-3.6,3.6A3.6,3.6,0,0,0,195,130.8Z"/><path class="cls-1" d="M205.8,127.2a3.6,3.6,0,1,0,3.6,3.6A3.6,3.6,0,0,0,205.8,127.2Z"/><path class="cls-1" d="M191.4,149.55a18,18,0,1,0,18,18A18,18,0,0,0,191.4,149.55Zm1.12,12.79h-2.25v-9h2.25Z"/><path class="cls-1" d="M197.7,206.54a4.5,4.5,0,1,0-4.34-5.62h-11v2.25h11A4.48,4.48,0,0,0,197.7,206.54Z"/></svg>