<svg id="Layer_1" data-name="Layer 1" xmlns="http://www.w3.org/2000/svg" viewBox="0 0 300 300"><defs><style>.cls-1{fill:#54abc7;}</style></defs><title>watsonml</title><path class="cls-1" d="M241.49,156.3a25.72,25.72,0,0,0-13.63-13.63l-1.72-.73a25.62,25.62,0,0,0-27-41.42,25.58,25.58,0,0,0-7.44-16.43,25.56,25.56,0,0,0-41.15,7,25.57,25.57,0,0,0-41.15-7,25.58,25.58,0,0,0-7.44,16.43,25.61,25.61,0,0,0-27,41.42l-1.72.73A25.63,25.63,0,0,0,71,188.81,25.61,25.61,0,0,0,113,216l.88-.54a25.56,25.56,0,0,0,35.6-.47,1,1,0,0,0,.92.74h0a1,1,0,0,0,1-1v-.08a.82.82,0,0,0,.16.25,25.57,25.57,0,0,0,35.67.53l.88.54a25.62,25.62,0,0,0,42-27.18,25.64,25.64,0,0,0,11.44-32.51ZM148.92,94.41l.47,119.07a1,1,0,0,0-1.25.08,23.67,23.67,0,0,1-33.48,0,1,1,0,0,0-1.18-.15l-1.63,1-.18.14a23.69,23.69,0,0,1-39-24.88l.45.2a1,1,0,0,0,.86-1.73l-1.28-.75a.92.92,0,0,0-.58-.13,23.69,23.69,0,0,1,1.75-42.8l3-1.27a.94.94,0,0,0,.57-.7,1,1,0,0,0-.26-.87A23.67,23.67,0,0,1,94,101.19a23.42,23.42,0,0,1,8,1.38,1,1,0,0,0,.22.33,1,1,0,0,0,.72.26l.72,0a1,1,0,0,0,.9-.8,1,1,0,0,0-.57-1.06l-.12,0A23.68,23.68,0,0,1,149.27,93a.92.92,0,0,0,.47.48A1,1,0,0,0,148.92,94.41Zm90.79,81.07a23.88,23.88,0,0,1-10.85,11.77.92.92,0,0,0-.58.13l-1.28.75a1,1,0,0,0,.86,1.73l.45-.2a23.67,23.67,0,0,1-39,24.88l-.18-.14-1.63-1a1,1,0,0,0-1.18.15,23.66,23.66,0,0,1-33.48,0,1,1,0,0,0-1.37,0,1.1,1.1,0,0,0-.17.25L150.85,94.4a1,1,0,0,0-.55-.86.65.65,0,0,0,.2,0,1,1,0,0,0,1.23-.52,23.67,23.67,0,0,1,45.47,8.25l-.12,0a1,1,0,0,0-.57,1.06,1,1,0,0,0,.9.8l.72,0a1,1,0,0,0,.72-.26,1,1,0,0,0,.22-.33,23.69,23.69,0,0,1,29.8,31.51,23.72,23.72,0,0,1-5.08,7.53,1,1,0,0,0-.26.87.94.94,0,0,0,.57.7l3,1.27a23.7,23.7,0,0,1,12.6,31Z"/><path class="cls-1" d="M232.14,163.88a2.87,2.87,0,0,0-1,3.93,3.33,3.33,0,0,1-1.16,4.56,2.86,2.86,0,1,0,3.93,1,3.33,3.33,0,0,1,1.16-4.56,2.87,2.87,0,0,0-2.93-4.93Z"/><path class="cls-1" d="M225.4,179.05a3,3,0,0,1-3.75-2,2.74,2.74,0,0,0-.55-1,2.86,2.86,0,1,0-.88,4.38h0a3,3,0,0,1,4,1.29h0a2,2,0,0,0,.23.36,1.91,1.91,0,1,0,.9-3.06Z"/><path class="cls-1" d="M156.25,138.64h0a2.25,2.25,0,0,1,2.54-1.91h0a1.53,1.53,0,0,0,.3,0,2.12,2.12,0,1,0-2.1-2.3h0a2.24,2.24,0,0,1-2.45,2h0l-.18,0a1.91,1.91,0,1,0,1.88,2.17Z"/><path class="cls-1" d="M187.52,185.69l0,0a4.58,4.58,0,1,0,4.81-5.8v0a6,6,0,0,1-5.39-6.53h0c0-.3,0-.6,0-.9a9.57,9.57,0,1,0-6.9,9.17h0A6,6,0,0,1,187.52,185.69Z"/><path class="cls-1" d="M159.1,143.12a6,6,0,0,0,8.12,5.61h0a6.12,6.12,0,0,1,7.87,3.58h0a7.06,7.06,0,1,0,6.6-9.54,7.16,7.16,0,0,0-3,.69h0a6.13,6.13,0,0,1-8.15-2.91h0a6,6,0,0,0-11.42,2.57Z"/><path class="cls-1" d="M160.67,196.3a6,6,0,0,0,4.7-4.7,2.73,2.73,0,0,1,3.22-2.13,3,3,0,0,0,1.15,0,2.87,2.87,0,1,0-2.88-4.49h0a2.74,2.74,0,0,1-3.83.6h0a6,6,0,1,0-2.36,10.72Z"/><path class="cls-1" d="M169.34,199.6a4.55,4.55,0,0,0-3.42,1.56v0a5.33,5.33,0,0,1-7.52.42h0A2.07,2.07,0,0,0,157,201a2.12,2.12,0,0,0,0,4.23,2.16,2.16,0,0,0,1.13-.32h0a5.32,5.32,0,0,1,7.34,1.7v0a4.58,4.58,0,1,0,3.89-7Z"/><path class="cls-1" d="M196.11,135.81h0a6.84,6.84,0,0,1-1.18,8,3.79,3.79,0,0,1-1.29-3.78h0a2.63,2.63,0,0,0,.06-.48,2.12,2.12,0,1,0-3.26,1.78h0a3.83,3.83,0,0,1,1.16,5.27h0a4.59,4.59,0,1,0,8.44,2.48,4.73,4.73,0,0,0-.09-.93,6.84,6.84,0,0,1,5.31-8.07,8.47,8.47,0,1,0-9.16-4.31Z"/><path class="cls-1" d="M222.29,160.77a6,6,0,0,0-5.94,5.16h0a2.82,2.82,0,0,1-3.19,2.39h0c-.14,0-.27,0-.41,0a2.87,2.87,0,1,0,2.41,4.4h0a2.82,2.82,0,0,1,3.89-.86h0a5.94,5.94,0,0,0,3.23,1,6,6,0,0,0,0-12Z"/><path class="cls-1" d="M212.76,160.41a6,6,0,1,0-12,0,5.69,5.69,0,0,0,0,.72h0a5.12,5.12,0,0,1-4.47,5.68l0,0a4.56,4.56,0,0,0-.08,9.06l0,0a3.7,3.7,0,0,1,3.15,4.17h0a5.69,5.69,0,0,0-.07.83,6,6,0,1,0,6-6h-.11a3.7,3.7,0,0,1-3.76-3.54,5.11,5.11,0,0,1,5.18-4.94h.11A6,6,0,0,0,212.76,160.41Z"/><path class="cls-1" d="M176.4,119.11a6,6,0,0,0-3.67,10.74h0a4,4,0,0,1,.7,5.63h0a3.31,3.31,0,1,0,5.33.15h0a4,4,0,0,1,.22-4.82,4.56,4.56,0,0,1,4.41,3.45h0a3.1,3.1,0,1,0,3.22-3.83h0a4.58,4.58,0,0,1-4.25-4.89h0c0-.14,0-.28,0-.43A6,6,0,0,0,176.4,119.11Z"/><path class="cls-1" d="M184,203.83a3.8,3.8,0,0,0-3.78,3.46l0,0a2.22,2.22,0,0,1-2.44,2h0l-.21,0a1.91,1.91,0,1,0,1.7,2.78h0a2.22,2.22,0,0,1,3-1v0a3.74,3.74,0,0,0,1.76.45,3.82,3.82,0,0,0,0-7.64Z"/><path class="cls-1" d="M203.68,201h0a3.09,3.09,0,0,0-.11.75,2.83,2.83,0,1,0,3.55-2.71h0a5.22,5.22,0,0,1-3.67-6.42h0a2.82,2.82,0,1,0-5.42,0h0a4.64,4.64,0,0,1-3.15,5.75h0a4.62,4.62,0,1,0,5.27,2.21h0a4.62,4.62,0,0,1,.94-5.58A5.22,5.22,0,0,1,203.68,201Z"/><path class="cls-1" d="M193,194a2.85,2.85,0,0,0-4.65-2.23v0a2.66,2.66,0,0,1-3.75-.43h0a6,6,0,1,0,.66,6.41h0a2.68,2.68,0,0,1,3.59-1.19h0a2.92,2.92,0,0,0,1.29.31A2.86,2.86,0,0,0,193,194Z"/><path class="cls-1" d="M210.32,144.76v0a2.58,2.58,0,0,0-.4,0,2.82,2.82,0,0,0,0,5.64,2.76,2.76,0,0,0,.51,0h0a3.88,3.88,0,0,1,4.51,3.13v0a4.58,4.58,0,0,0,4.5,3.79,4.53,4.53,0,0,0,2.23-.6v0a4,4,0,0,1,5.46,1.59h0a2.11,2.11,0,1,0,1.86-3.13,1.5,1.5,0,0,0-.37,0h0a4,4,0,0,1-4.65-3.28v0a4.59,4.59,0,0,0-4.52-3.83,4.48,4.48,0,0,0-1.83.39h0a3.87,3.87,0,0,1-4.8-1.46,2.16,2.16,0,0,1,2.07-1.66h0a2.12,2.12,0,1,0-2.11-2.39h0A2.18,2.18,0,0,1,210.32,144.76Z"/><path class="cls-1" d="M154.66,121.66a5.58,5.58,0,1,0,11-1.37h0a4.74,4.74,0,0,1,3.44-5.76h0a3.87,3.87,0,0,0-.93-7.63,3.83,3.83,0,0,0-2.38.84v0a3.9,3.9,0,0,1-5.49-.69h0a2.11,2.11,0,1,0-.84,3.23h0a3.91,3.91,0,0,1,4.81,1.46,4.73,4.73,0,0,1-4.39,4.37h0A5.57,5.57,0,0,0,154.66,121.66Z"/><path class="cls-1" d="M166.67,157.16h0a2.86,2.86,0,1,0,.33-3.74h0a3.16,3.16,0,0,1-4.47-.1h0a2.07,2.07,0,0,0-1.53-.66,2.12,2.12,0,1,0,0,4.23,2.08,2.08,0,0,0,1.25-.41h0A3.15,3.15,0,0,1,166.67,157.16Z"/><path class="cls-1" d="M192.49,121.73a1.23,1.23,0,0,0,0,.19h0a2,2,0,0,1-1.81,2.15h0a2.11,2.11,0,1,0,2.29,2.1,1.23,1.23,0,0,0,0-.19h0a2,2,0,0,1,1.81-2.15h0a2.11,2.11,0,1,0-2.29-2.1Z"/><path class="cls-1" d="M179.58,99.7a4.56,4.56,0,0,0,.7,2.42h0a4.14,4.14,0,0,1-1.33,5.69h0a4.59,4.59,0,1,0,6.29,1.48h0a4.12,4.12,0,0,1,1.34-5.68h0a4.5,4.5,0,0,0,.45-.31l0,0a1.94,1.94,0,0,1,2.71.33h0a2.39,2.39,0,1,0,1.88-3.85,2.59,2.59,0,0,0-.63.09h0a1.92,1.92,0,0,1-2.36-1.36v0a4.58,4.58,0,0,0-9,1.17Z"/><path class="cls-1" d="M214.78,129.52h0a1.82,1.82,0,0,1,1.2,2.28l0,0a3.82,3.82,0,0,0-.19,1.13,3.71,3.71,0,1,0,4.09-3.68h0a1.82,1.82,0,0,1-1.61-2h0a2.73,2.73,0,1,0-4.64,1.62A2.68,2.68,0,0,0,214.78,129.52Z"/><path class="cls-1" d="M176.75,97.72a1.9,1.9,0,0,0,1.91-1.91,2.08,2.08,0,0,0-.12-.66h0a1.79,1.79,0,0,1,1.06-2.29h0a2.12,2.12,0,1,0-2.84-2,2.11,2.11,0,0,0,.18.84h0a1.79,1.79,0,0,1-.94,2.35h0a1.91,1.91,0,0,0,.75,3.66Z"/><path class="cls-1" d="M158.4,103.17a3.81,3.81,0,0,0,3.56-2.49h0A3,3,0,0,1,165.81,99h0a6,6,0,0,0,2.13.39,5.66,5.66,0,0,0,1-.09h0a3.13,3.13,0,0,1,3.61,2.56h0a2.11,2.11,0,1,0,2.82-2.33h0a3.13,3.13,0,0,1-1.83-4h0A6,6,0,1,0,162,92.83h0a3,3,0,0,1-3.23,2.71l0,0c-.12,0-.23,0-.34,0a3.83,3.83,0,0,0,0,7.65Z"/><path class="cls-1" d="M191.37,111.39a2.85,2.85,0,0,0-2.25,4.62h0a1.7,1.7,0,0,1-.31,2.39h0a1.92,1.92,0,1,0,2.89.72h0a1.69,1.69,0,0,1,.85-2.25h0a2.86,2.86,0,0,0-1.17-5.47Z"/><path class="cls-1" d="M220.52,183.92a2.12,2.12,0,0,0-2,1.32h0a3.39,3.39,0,0,1-4.42,1.86h0a4.58,4.58,0,0,0-6.33,4.24,4.58,4.58,0,0,0,9.16.11h0a3.4,3.4,0,0,1,3.48-3.3h.05a2.12,2.12,0,0,0,0-4.24Z"/><path class="cls-1" d="M212.05,206.3a2.08,2.08,0,0,0-1.88,1.18h0a2.94,2.94,0,0,1-4,1.3v0a3.26,3.26,0,1,0,1.66,3.73v0a3,3,0,0,1,3.62-2.07h0a2.61,2.61,0,0,0,.56.08,2.12,2.12,0,0,0,0-4.24Z"/><path class="cls-1" d="M165.21,164.44a2.12,2.12,0,0,0-4.24,0,2.06,2.06,0,0,0,.16.79h0a2.13,2.13,0,0,1-2,2.92H159a4.13,4.13,0,1,0,3.3,1.67l0,0a2.13,2.13,0,0,1,1.25-3.33h0A2.12,2.12,0,0,0,165.21,164.44Z"/><path class="cls-1" d="M201.31,117.85a4.17,4.17,0,0,0,.71-.08l0,0a1.84,1.84,0,0,1,2.09,1.54h0a1.41,1.41,0,1,0,2-1.48h0a1.37,1.37,0,1,1,1.35-2.1h0a2.2,2.2,0,1,0,1.34-3.94,2.25,2.25,0,0,0-1,.27h0a1.87,1.87,0,0,1-2.53-.77v0a4.45,4.45,0,1,0-3.93,6.52Z"/><path class="cls-1" d="M217.76,119.91h0a2.52,2.52,0,0,1,2.11,2.87h0a3,3,0,0,0,0,.43,2.82,2.82,0,1,0,3.6-2.7h0a2.51,2.51,0,0,1-1.7-3.13h0a3.53,3.53,0,0,0,.17-1,3.61,3.61,0,1,0-4.12,3.55Z"/><path class="cls-1" d="M184.27,161.39a3.82,3.82,0,0,0,7.17,1.63v0a2.83,2.83,0,0,1,3.85-1.12h0a2.21,2.21,0,0,0,1,.27,2.12,2.12,0,1,0-1.48-3.63h0a2.83,2.83,0,0,1-2.19.8l-.07-.36a3.88,3.88,0,0,1-.23.33,2.82,2.82,0,0,1-1.53-.8v0a3.75,3.75,0,0,0-2.91-1.16A3.82,3.82,0,0,0,184.27,161.39Z"/><path class="cls-1" d="M70.77,159.35a2.12,2.12,0,0,0,1.85-1.1h0a4,4,0,0,1,5.47-1.59l0,0a4.55,4.55,0,0,0,6.74-3.19v0a3.88,3.88,0,0,1,4.51-3.13h0a2.94,2.94,0,0,0,.51,0,2.82,2.82,0,1,0,0-5.64,2.58,2.58,0,0,0-.4,0v0A2.16,2.16,0,0,1,87,142.91h0a2.11,2.11,0,1,0-2.12,2.39h0A2.17,2.17,0,0,1,86.94,147a3.89,3.89,0,0,1-4.81,1.46h0a4.56,4.56,0,0,0-6.35,3.44v0a4,4,0,0,1-4.65,3.28h0a1.47,1.47,0,0,0-.36,0,2.12,2.12,0,1,0,0,4.23Z"/><path class="cls-1" d="M142.78,201a2.11,2.11,0,0,0-1.41.55h0a5.33,5.33,0,0,1-7.52-.42v0a4.57,4.57,0,1,0,.47,5.44v0a5.32,5.32,0,0,1,7.34-1.7h0a2.12,2.12,0,1,0,1.12-3.91Z"/><path class="cls-1" d="M145.4,136.47l-.19,0h0a2.25,2.25,0,0,1-2.45-2h0a2.11,2.11,0,1,0-2.1,2.3,1.55,1.55,0,0,0,.31,0h0a2.26,2.26,0,0,1,2.55,1.91h0a1.91,1.91,0,1,0,1.89-2.17Z"/><path class="cls-1" d="M69.78,172.37a3.33,3.33,0,0,1-1.16-4.56,2.87,2.87,0,1,0-3.93,1,3.32,3.32,0,0,1,1.17,4.56,2.86,2.86,0,1,0,5.24.76A2.9,2.9,0,0,0,69.78,172.37Z"/><path class="cls-1" d="M131.86,172.42a9.55,9.55,0,1,0-19.1,0c0,.3,0,.6,0,.9h0a6,6,0,0,1-5.4,6.53l0,0a4.58,4.58,0,1,0,4.81,5.8v0a6,6,0,0,1,7.42-4.1h0a9.77,9.77,0,0,0,2.66.38A9.56,9.56,0,0,0,131.86,172.42Z"/><path class="cls-1" d="M134.66,137.12a6,6,0,0,0-5.42,3.43h0a6.12,6.12,0,0,1-8.14,2.91h0a7.06,7.06,0,1,0,3.58,8.85h0a6.12,6.12,0,0,1,7.87-3.58h0a6,6,0,1,0,2.11-11.61Z"/><path class="cls-1" d="M141.47,184.53a6,6,0,0,0-4.73,1.05h0a2.75,2.75,0,0,1-3.83-.6h0a2.86,2.86,0,1,0-2.88,4.49,2.92,2.92,0,0,0,1.14,0,2.74,2.74,0,0,1,3.23,2.13,6,6,0,1,0,7.07-7.07Z"/><path class="cls-1" d="M114.47,197.7h0a6,6,0,1,0,.67-6.41h0a2.67,2.67,0,0,1-3.76.43v0a2.85,2.85,0,0,0-1.78-.64,2.87,2.87,0,1,0,0,5.73,3,3,0,0,0,1.29-.31h0A2.68,2.68,0,0,1,114.47,197.7Z"/><path class="cls-1" d="M103.52,175.9l0,0a4.56,4.56,0,0,0-.09-9.06l0,0A5.1,5.1,0,0,1,99,161.12h0a5.68,5.68,0,0,0,.05-.72,6,6,0,1,0-6,6h.1a5.11,5.11,0,0,1,5.18,4.94,3.68,3.68,0,0,1-3.75,3.54h-.12a6,6,0,1,0,6,6,7.54,7.54,0,0,0-.06-.83h0A3.71,3.71,0,0,1,103.52,175.9Z"/><path class="cls-1" d="M124.39,99.48h0a2.12,2.12,0,1,0,2.82,2.33h0a3.13,3.13,0,0,1,3.61-2.56h0a5.69,5.69,0,0,0,1,.09A6,6,0,0,0,134,99h0a3,3,0,0,1,3.83,1.73h0a3.82,3.82,0,1,0,3.57-5.16c-.12,0-.23,0-.34,0v0a3,3,0,0,1-3.22-2.71h0a6,6,0,1,0-11.58,2.63h0A3.13,3.13,0,0,1,124.39,99.48Z"/><path class="cls-1" d="M94.5,140.12a6.85,6.85,0,0,1,5.31,8.07,4.73,4.73,0,0,0-.1.93,4.59,4.59,0,1,0,8.45-2.48h0a3.81,3.81,0,0,1,1.16-5.27h0a2.12,2.12,0,1,0-3.25-1.78,2,2,0,0,0,.06.48h0a3.77,3.77,0,0,1-1.29,3.78,6.84,6.84,0,0,1-1.17-8h0a8.48,8.48,0,1,0-9.16,4.31Z"/><path class="cls-1" d="M77.48,172.77a5.91,5.91,0,0,0,3.22-1h0a2.82,2.82,0,0,1,3.89.86h0a2.86,2.86,0,1,0,2.42-4.4c-.14,0-.28,0-.41,0h0a2.81,2.81,0,0,1-3.18-2.39h0a6,6,0,1,0-5.93,6.84Z"/><path class="cls-1" d="M104.85,198.38h0a4.65,4.65,0,0,1-3.16-5.75h0a2.82,2.82,0,1,0-5.41,0h0A5.23,5.23,0,0,1,92.62,199h0a2.82,2.82,0,1,0,3.55,2.71,2.67,2.67,0,0,0-.11-.75h0A5.22,5.22,0,0,1,98.62,195a4.62,4.62,0,0,1,.94,5.58h0a4.49,4.49,0,0,0-.58,2.18,4.59,4.59,0,1,0,5.84-4.39Z"/><path class="cls-1" d="M92,191.33a4.57,4.57,0,0,0-6.33-4.24h0a3.39,3.39,0,0,1-4.42-1.86h0a2.12,2.12,0,1,0-2,2.92h.06a3.39,3.39,0,0,1,3.47,3.3h0a4.59,4.59,0,0,0,9.17-.11Z"/><path class="cls-1" d="M107.43,159.32a4,4,0,0,1-.24-.33l-.06.36a2.81,2.81,0,0,1-2.19-.8h0a2.14,2.14,0,0,0-1.49-.61,2.12,2.12,0,1,0,0,4.24,2.18,2.18,0,0,0,1-.27h0a2.84,2.84,0,0,1,3.86,1.12v0a3.81,3.81,0,1,0,3.53-5.63,3.77,3.77,0,0,0-2.91,1.16v0A2.79,2.79,0,0,1,107.43,159.32Z"/><path class="cls-1" d="M110.23,133.52a3.1,3.1,0,0,0,6.12.74h0a4.56,4.56,0,0,1,4.41-3.45,4,4,0,0,1,.22,4.82h0a3.31,3.31,0,1,0,5.33-.15h0a4,4,0,0,1,.71-5.63h0a6,6,0,1,0-9.68-4.74c0,.15,0,.29,0,.43h0a4.59,4.59,0,0,1-4.25,4.89h0A3.11,3.11,0,0,0,110.23,133.52Z"/><path class="cls-1" d="M145.11,121.66a5.57,5.57,0,0,0-5.21-5.56h0a4.72,4.72,0,0,1-4.39-4.37,3.91,3.91,0,0,1,4.81-1.46h0a2.05,2.05,0,0,0,.83.17,2.12,2.12,0,1,0-1.67-3.4h0a3.91,3.91,0,0,1-5.49.69v0a3.84,3.84,0,0,0-2.39-.84,3.87,3.87,0,0,0-.93,7.63h0a4.74,4.74,0,0,1,3.44,5.76h0a5.57,5.57,0,1,0,11,1.37Z"/><path class="cls-1" d="M79.54,180.46h0a2.87,2.87,0,1,0-1.42-3.38,3,3,0,0,1-3.75,2,1.91,1.91,0,1,0,.89,3.06,2.05,2.05,0,0,0,.24-.36h0A3,3,0,0,1,79.54,180.46Z"/><path class="cls-1" d="M105,123.83h0a2,2,0,0,1,1.81,2.15h0c0,.06,0,.13,0,.19a2.12,2.12,0,1,0,2.29-2.1h0a2,2,0,0,1-1.8-2.15h0a1.23,1.23,0,0,0,0-.19,2.12,2.12,0,1,0-2.29,2.1Z"/><path class="cls-1" d="M80.26,136.63A3.72,3.72,0,0,0,84,132.92a3.53,3.53,0,0,0-.2-1.13l0,0A1.82,1.82,0,0,1,85,129.53h0a2.74,2.74,0,1,0-3.51-2.29h0a1.82,1.82,0,0,1-1.6,2h0a3.7,3.7,0,0,0,.38,7.39Z"/><path class="cls-1" d="M91,116.21a2.16,2.16,0,0,0,1.34-.47h0a1.86,1.86,0,0,1,2.32,0,1.83,1.83,0,0,1-1,2.06h0a1.41,1.41,0,0,0,.62,2.67,1.42,1.42,0,0,0,1.4-1.19h0a1.85,1.85,0,0,1,2.1-1.54l0,0a4.29,4.29,0,0,0,.71.08,4.46,4.46,0,1,0-3.93-6.52v0a1.87,1.87,0,0,1-2.53.77h0a2.26,2.26,0,0,0-1-.27,2.21,2.21,0,0,0,0,4.41Z"/><path class="cls-1" d="M122.18,209.22l-.2,0h0a2.22,2.22,0,0,1-2.44-2v0a3.81,3.81,0,1,0-3.78,4.18,3.74,3.74,0,0,0,1.76-.45l0,0a2.22,2.22,0,0,1,3,1h0a1.91,1.91,0,1,0,1.69-2.78Z"/><path class="cls-1" d="M120.17,92.86h0a1.78,1.78,0,0,1,1.06,2.29h0a1.85,1.85,0,0,0-.13.66,1.91,1.91,0,1,0,2.67-1.75h0a1.78,1.78,0,0,1-.93-2.35h0a2.12,2.12,0,1,0-2.67,1.15Z"/><path class="cls-1" d="M108.19,104.56a2.36,2.36,0,0,0,1.87-.93h0a1.92,1.92,0,0,1,2.7-.33v0a4.37,4.37,0,0,0,.44.31h0a4.12,4.12,0,0,1,1.34,5.68h0a4.54,4.54,0,0,0-.71,2.42,4.59,4.59,0,1,0,7-3.9h0a4.14,4.14,0,0,1-1.34-5.69h0a4.58,4.58,0,1,0-8.3-3.59v0a1.92,1.92,0,0,1-2.36,1.36h0a2.58,2.58,0,0,0-.62-.09,2.39,2.39,0,0,0,0,4.78Z"/><path class="cls-1" d="M107.22,116.86h0a1.71,1.71,0,0,1,.85,2.25h0a1.91,1.91,0,1,0,2.89-.72h0a1.71,1.71,0,0,1-.31-2.39h0a2.91,2.91,0,0,0,.61-1.76,2.87,2.87,0,1,0-4,2.61Z"/><path class="cls-1" d="M95,208.42a3.18,3.18,0,0,0-1.48.37v0a3,3,0,0,1-4-1.3h0a2.12,2.12,0,1,0-1.89,3.06,2.52,2.52,0,0,0,.56-.08h0a3,3,0,0,1,3.62,2.07v0a3.26,3.26,0,1,0,3.15-4.1Z"/><path class="cls-1" d="M140.78,176.36a4.11,4.11,0,1,0,0-8.21h-.11a2.13,2.13,0,0,1-2-2.92h0a2.06,2.06,0,0,0,.15-.79,2.12,2.12,0,1,0-2.57,2.07h0a2.13,2.13,0,0,1,1.25,3.33l0,0a4,4,0,0,0-.81,2.43A4.1,4.1,0,0,0,140.78,176.36Z"/><path class="cls-1" d="M138.75,152.65a2.1,2.1,0,0,0-1.53.66h0a3.15,3.15,0,0,1-4.46.1h0a2.81,2.81,0,0,0-2-.8,2.87,2.87,0,1,0,2.31,4.54h0a3.15,3.15,0,0,1,4.41-.68h0a2.08,2.08,0,0,0,1.25.41,2.12,2.12,0,1,0,0-4.23Z"/><path class="cls-1" d="M80,123.21a2,2,0,0,0,0-.43h0A2.51,2.51,0,0,1,82,119.92h0a3.6,3.6,0,1,0-4.13-3.55,3.53,3.53,0,0,0,.17,1h0a2.53,2.53,0,0,1-1.7,3.13h0a2.82,2.82,0,1,0,3.61,2.7Z"/></svg>