<svg id="Layer_1" data-name="Layer 1" xmlns="http://www.w3.org/2000/svg" viewBox="0 0 300 300"><defs><style>.cls-1{fill:none;}.cls-2{fill:#a12124;}</style></defs><title>bluemix</title><g id="g3956"><path id="engine-northeast" class="cls-1" d="M213.34,150l25.25-43.74L213.34,62.54h-50.5l-25.25,43.73L162.84,150Z"/><path id="crown-engine-northeast" class="cls-2" d="M162,61.12,136,106.27,162,151.42h52.14l26.06-45.15L214.16,61.12ZM163.66,64h48.86L237,106.27,212.52,148.6H163.66l-24.44-42.33Z"/><path id="engine-southeast" class="cls-1" d="M137.59,193.74l25.25,43.74h50.5l25.25-43.74L213.34,150h-50.5Z"/><path id="crown-engine-southeast" class="cls-2" d="M162,148.59,136,193.74,162,238.89h52.14l26.06-45.15-26.06-45.15Zm1.64,2.84h48.86L237,193.74l-24.45,42.33H163.66l-24.44-42.33,24.44-42.31Z"/><path id="engine-west" class="cls-1" d="M137.59,106.27H87.09L61.84,150l25.25,43.73h50.5L162.84,150Z"/><path id="crown-engine-west" class="cls-2" d="M86.27,104.85,60.22,150l26.05,45.15h52.14L164.47,150l-26.06-45.15Zm1.64,2.84h48.86L161.22,150l-24.45,42.33H87.91L63.47,150Z"/><path id="triangle" class="cls-2" d="M136.77,104.85v90.3L215,150Zm2.83,4.91L209.32,150,139.6,190.26Z"/><path id="circle" class="cls-2" d="M162.84,99.5a50.5,50.5,0,1,0,50.5,50.5A50.5,50.5,0,0,0,162.84,99.5Zm0,2.84A47.67,47.67,0,1,1,115.17,150,47.67,47.67,0,0,1,162.84,102.34Z"/></g></svg>