<svg id="Layer_1" data-name="Layer 1" xmlns="http://www.w3.org/2000/svg" viewBox="0 0 300 300"><defs><style>.cls-1{fill:#fff;}.cls-2{fill:#d85c26;}</style></defs><title>bowie</title><rect class="cls-1" x="138.91" y="166.87" width="4.34" height="2.17"/><rect class="cls-1" x="144.61" y="166.87" width="4.34" height="2.17"/><rect class="cls-1" x="156.55" y="166.79" width="4.34" height="2.17"/><rect class="cls-1" x="150.85" y="166.79" width="4.34" height="2.17"/><circle class="cls-1" cx="129.14" cy="133.81" r="3.8"/><circle class="cls-1" cx="129.14" cy="133.81" r="1.09"/><circle class="cls-2" cx="169.93" cy="133.81" r="3.8"/><path class="cls-2" d="M147.73,151.3a1.77,1.77,0,1,0-1.76,1.77A1.76,1.76,0,0,0,147.73,151.3Z"/><path class="cls-2" d="M155.19,151.3a1.77,1.77,0,1,0-1.76,1.77A1.76,1.76,0,0,0,155.19,151.3Z"/><path class="cls-2" d="M162.79,165.83a7.59,7.59,0,0,1-1.63.5,12.13,12.13,0,0,1-2.42,0c-.42,0-.84,0-1.24,0H142.3c-.4,0-.82,0-1.24,0a12.11,12.11,0,0,1-2.42,0,7.59,7.59,0,0,1-1.63-.5,6.18,6.18,0,0,0-3.19-.58l.14,1a5.43,5.43,0,0,1,2.7.53,9,9,0,0,0,1.83.55,12.7,12.7,0,0,0,2.62.05c.41,0,.81,0,1.19,0h15.2c.38,0,.78,0,1.19,0s.88,0,1.32,0a8,8,0,0,0,1.3-.09,9,9,0,0,0,1.83-.55,5.43,5.43,0,0,1,2.7-.53l.14-1A6.2,6.2,0,0,0,162.79,165.83Z"/><path class="cls-2" d="M206.29,91.07c-3.21-6.29-14.65-10-20.54-15.11C172.41,64.43,164.58,64.36,150,65.44c-14.58-1.08-22.41-1-35.75,10.52-5.89,5.09-17.33,8.82-20.54,15.11-3.37,6.63.05,22.57.86,29.54,1.08,9.22,6.14,17.61,8,27.15,1.76,9.09,6.52,17.94,9.92,26.36.85,2.1,3.13,9.59,4.58,11.58,1.17,1.59,2.64,2.08,3.52,2.76,0,.88,0,1.76,0,2.66,0,19.9-3.47,35.2,2.18,35.2,1,0,2.38,0,3.89,0,0,3,0,5.93-.08,8.56l1,0c.15-4.38.13-9.53-.06-14.71,0-1.45,0-3,0-4.68l.06,0,.06,0c-.27-4.75-.69-9.52-1.3-13.82A59,59,0,0,0,124,190.81c-.06-.17-.13-.33-.19-.51a73.87,73.87,0,0,0-1.47-8.51c-3.87-13.69-3.42-8.16-4.89-17.8-3-19.29-6-33.27.85-51.93,3.21-8.74,3.39-11.91,12.12-12.22l-11.54,55.79,2.76-2.14h0l5-3.84-3.69,18.89,2.49-1.41,36.54-44.73L152,130l-24.64,17,42.16-47.2c8.84.3,9,3.46,12.23,12.23,6.86,18.66,3.8,32.64.85,51.93-1.47,9.64-1,4.11-4.89,17.8a36.37,36.37,0,0,0-.86,6.87c-.27.72-.54,1.43-.8,2.15a59,59,0,0,0-2.39,10.94c-.61,4.3-1,9.07-1.3,13.82l.06,0,.06,0c0,4.29,0,7.72.12,10.78l1.05,0a42.28,42.28,0,0,0,1.33,8.8l1-.26a41.6,41.6,0,0,1-1.3-8.53l2.58,0c5.65,0,2.18-15.3,2.18-35.2,0-.9,0-1.78,0-2.66.88-.68,2.35-1.17,3.52-2.76,1.45-2,3.73-9.48,4.58-11.58,3.4-8.42,8.16-17.27,9.92-26.36,1.84-9.54,6.9-17.93,8-27.15C206.24,113.64,209.66,97.7,206.29,91.07Zm-74.15,46.07a3.8,3.8,0,1,1,3.8-3.8A3.8,3.8,0,0,1,132.14,137.14Z"/></svg>