<svg id="Layer_1" data-name="Layer 1" xmlns="http://www.w3.org/2000/svg" viewBox="0 0 300 300"><defs><style>.cls-1{fill:#f9c2c4;}.cls-2{fill:#fa5650;}.cls-3{fill:#919cc3;}.cls-4{fill:#dd4132;}.cls-5,.cls-6{fill:#fff;}.cls-5,.cls-7{stroke:#dd4132;stroke-miterlimit:10;}.cls-7{fill:none;}</style></defs><title>bowie</title><path class="cls-1" d="M112.83,95.23l1.32-1.33A5.92,5.92,0,0,0,112.83,95.23Z"/><path class="cls-1" d="M114.46,93.6l-.31.3a12.31,12.31,0,0,1,1.92-1.13c0-.26,0-.52,0-.8Z"/><path class="cls-1" d="M183,93.9l1.32,1.33A5.72,5.72,0,0,0,183,93.9Z"/><path class="cls-1" d="M182.66,93.6,181,92a7,7,0,0,0,0,.8A11.75,11.75,0,0,1,183,93.9Z"/><polyline class="cls-2" points="120.02 155.64 132.25 97.11 171.73 96.38"/><polygon class="cls-3" points="120.32 155.98 117.63 155.98 129.7 97.68 132.14 97.64 120.32 155.98"/><polyline class="cls-2" points="124.17 167.49 128.53 147.48 160.71 122.76"/><polygon class="cls-3" points="124.26 168.01 121.69 168.89 125.45 149.61 128.75 147.21 124.26 168.01"/><path class="cls-4" d="M157.65,207.32c0,19.9,15.43,18.37,21.09,18.37s2.18-15.3,2.18-35.2,2.28-34.75-2.18-36.85C173.43,151.15,157.65,187.43,157.65,207.32Z"/><path class="cls-4" d="M142.91,207.87c0,19.3-15.44,17.82-21.09,17.82s-4.93-15.15-2.19-34.15c3.19-22.09-3.46-35.76,2.19-35.76S142.91,188.56,142.91,207.87Z"/><path class="cls-5" d="M175.46,235c-1.55-5.84-1.49-11.1-1.47-20.11l-.06,0-.06,0c.27-4.74.69-9.52,1.3-13.82a58.85,58.85,0,0,1,2.39-10.93c1.83-5.15,3.9-10.17,6-15.11s4.09-9.82,5.84-14.68a45.6,45.6,0,0,0,1.94-7.84,82.34,82.34,0,0,0,1-9.19c.17-3.16.19-6.35.06-9.38a69.64,69.64,0,0,0-.85-8.4c-.49-2.83-.37-6.87-.37-10.9s-.14-8-1.13-10.78-2.66-4.1-4.18-5.58-2.85-3-3-5.56a26.6,26.6,0,0,0-6.46-1.93,48.09,48.09,0,0,0-8-.76,42.7,42.7,0,0,0-10.94,1.1c-3.23.81-5.82,2.09-7.13,3.88-1.3-1.79-3.9-3.07-7.13-3.88a42.65,42.65,0,0,0-10.94-1.1,48.09,48.09,0,0,0-8,.76,26.88,26.88,0,0,0-6.46,1.93c-.16,2.61-1.49,4.09-3,5.56s-3.24,3-4.18,5.58-1.12,6.76-1.12,10.78.11,8.07-.37,10.9a67.67,67.67,0,0,0-.85,8.4c-.14,3-.12,6.22,0,9.38a84.78,84.78,0,0,0,1,9.19,46.51,46.51,0,0,0,2,7.84c1.75,4.86,3.78,9.73,5.84,14.68s4.13,10,6,15.11,2.89,13.17,3.49,21.58a231,231,0,0,1,.51,23.12"/><circle class="cls-4" cx="145.97" cy="151.3" r="1.76"/><circle class="cls-4" cx="153.43" cy="151.3" r="1.76"/><rect class="cls-6" x="138.91" y="166.87" width="4.34" height="2.17"/><rect class="cls-6" x="144.61" y="166.87" width="4.34" height="2.17"/><rect class="cls-6" x="156.55" y="166.79" width="4.34" height="2.17"/><rect class="cls-6" x="150.85" y="166.79" width="4.34" height="2.17"/><path class="cls-7" d="M165.91,165.74c-1.76-.24-3.11.84-4.68,1.09a24.44,24.44,0,0,1-3.73,0H142.3a24.58,24.58,0,0,1-3.74,0c-1.56-.25-2.92-1.33-4.67-1.09"/><polygon class="cls-4" points="118.83 155.63 120.02 152.1 152 130.01 118.83 155.63"/><polyline class="cls-4" points="121.59 153.49 133.44 96.75 172.93 96.02"/><polygon class="cls-4" points="131.09 142.62 118.83 155.63 130.9 97.32 133.33 97.28 131.09 142.62"/><polyline class="cls-4" points="125.37 167.13 129.73 147.13 161.91 122.4"/><polygon class="cls-4" points="125.37 167.13 122.88 168.54 126.64 149.25 129.94 146.85 125.37 167.13"/><circle class="cls-6" cx="129.14" cy="133.81" r="3.8"/><circle class="cls-4" cx="169.93" cy="133.81" r="3.8"/><circle class="cls-6" cx="129.14" cy="133.81" r="1.09"/><path class="cls-4" d="M176.27,196.06a7.66,7.66,0,0,0-.16.77C176.17,196.6,176.22,196.34,176.27,196.06Z"/><path class="cls-4" d="M206.29,91.07c-3.21-6.29-14.65-10-20.54-15.11C172.41,64.43,164.58,64.36,150,65.44c-14.58-1.08-22.41-1-35.75,10.52-5.89,5.09-17.33,8.82-20.54,15.11-3.37,6.63.05,22.57.86,29.54,1.08,9.22,6.14,17.61,8,27.15,1.76,9.09,6.52,17.94,9.92,26.36.85,2.1,3.13,9.59,4.58,11.58s3.53,2.27,4.13,3.42a42.94,42.94,0,0,1,2.71,7.71l1,.56c-.76-3-1.5-11.75-2.59-15.6-3.87-13.69-3.42-8.16-4.89-17.8-3-19.29-6-33.27.85-51.93,3.75-10.2,3.35-12.82,17.29-12.16,6.83.33,10.22.31,14.46.16,4.24.15,7.63.17,14.46-.16,13.94-.66,13.54,2,17.29,12.16,6.86,18.66,3.8,32.64.85,51.93-1.47,9.64-1,4.11-4.89,17.8-1,3.56-.86,10.85-1.44,14.27a48.94,48.94,0,0,1,2.55-6.94c.6-1.15,2.63-1.37,4.13-3.42s3.73-9.48,4.58-11.58c3.4-8.42,8.16-17.27,9.92-26.36,1.84-9.54,6.9-17.93,8-27.15C206.24,113.64,209.66,97.7,206.29,91.07Z"/></svg>