<svg id="Layer_1" data-name="Layer 1" xmlns="http://www.w3.org/2000/svg" viewBox="0 0 300 300"><defs><style>.cls-1{fill:#a12124;}</style></defs><title>icons</title><path class="cls-1" d="M223.8,178.18c-3.57-12-13.65-24.79-27.38-23.64a19.06,19.06,0,0,0-8.55,2.77,16.13,16.13,0,0,0-3.24,3.1c-.92,1-2.16,3.45-3.46,3.9-2.58.88-6.4-4.55-7.78-6.14-2.62-3-5.13-6.14-7.54-9.34a106.6,106.6,0,0,1-11.55-20.17,53.12,53.12,0,0,1-3.1-10.22c-.9-4.07-1.63-8.27-.87-12.41.26-1.33.64-2.69-.43-3.79s-2.28-.7-3.45-1.23c-3.2-1.39-4.27-4.24-6.38-6.91A35,35,0,0,0,123.6,82.16a48.71,48.71,0,0,0-15-2.2c-5.57,0-11.23.08-16.68,1.31-2.63.58-5.27,1.24-7.86,2-2.13.66-5.33,1.05-6.9,2.76-1.1,1.22-3.39,2-1.39,4a66.48,66.48,0,0,0,5.68,4.51,43.4,43.4,0,0,0,5.73,4A19.85,19.85,0,0,1,93,102.61c.42.45,2,.54,2.58.87,1.39.76,2.83,1.48,4.27,2.16,2.48,1.17,5.14,1.94,7.59,3.15,4,1.93,9.55,1.93,14,2,5.87.1,11.4-1.24,17.14-2a7.1,7.1,0,0,1-.86,4.45c-.78,1.36-2.07,2.21-2.7,3.65-1.46,3.3-2.24,6.91-4.38,9.89-.82,1.2-1.17,3.29-1.65,4.68-.6,1.75-1.16,3.5-1.64,5.28a30.26,30.26,0,0,0-1,5.56c-.11,1.81-.71,3.43-.9,5.19,0,.85.27,1,.14,2s-.23,2-.33,3c-.21,2-.39,4-.57,6.06-.21,2.28.37,7.45-2.59,8.29-1.38.38-2.41-.32-3.72-.43a23.74,23.74,0,0,0-5.65,0c-3.68.56-6.92,1.38-9.89,3.76-10.73,8.66-9.26,28.24-1.74,38.49,4,5.39,10.33,9.71,17,10.59,7.26.94,14.35,1.56,20.87-2.31a27.54,27.54,0,0,0,11.23-13.73c2.55-6.39,4.33-14.21,2.27-21a20.18,20.18,0,0,0-12.71-13.59,20.45,20.45,0,0,0-9.12-.77c-3.62.48-3.79-.71-3.67-4.17.44-15.49,4.09-31.6,12.43-44.81,1-1.53,2-3,3.07-4.42s1.62-2,2.94-.26c2.11,2.75,2.19,6.9,3.33,10.09a103.75,103.75,0,0,0,9.84,20.14,118.35,118.35,0,0,0,13.24,16.87c1.06,1.17,2.15,2.31,3.25,3.42,1.43,1.44,1.67,1.9.53,3.57-1.32,1.93-3.75,2.92-5.42,4.51-9.71,9.24-4.5,22.11,3.36,30.62a33.76,33.76,0,0,0,14.92,9.38c6.66,2,13.54.39,19.63-2.56a33,33,0,0,0,13.3-11.86c4-6.15,4.46-13.34,2.4-20.28C222,172.21,225.81,185,223.8,178.18Z"/></svg>