<svg id="Layer_1" data-name="Layer 1" xmlns="http://www.w3.org/2000/svg" viewBox="0 0 300 300"><defs><style>.cls-1{fill:#d85c26;}</style></defs><title>kubecoin</title><path class="cls-1" d="M247.5,150.5a97,97,0,1,0-97,97A97.1,97.1,0,0,0,247.5,150.5Zm-190,0a93,93,0,1,1,93,93A93.11,93.11,0,0,1,57.5,150.5Z"/><path class="cls-1" d="M87.82,190.93,81,193.25l.87,1.24,1.67-.61,1.16,1.65-1.13,1.37.87,1.24,4.49-5.7Zm-2.41,3.71-.82-1.17,2.73-1.06Z"/><polygon class="cls-1" points="90.43 197.55 87.98 202.45 89.02 203.68 94.31 199.17 93.44 198.16 89.6 201.44 92.06 196.54 91.01 195.3 85.72 199.81 86.59 200.83 90.43 197.55"/><polygon class="cls-1" points="103.71 209.39 104.47 208.45 100.93 205.59 100.17 206.53 101.35 207.48 98.51 211 97.32 210.05 96.56 210.99 100.1 213.85 100.86 212.91 99.68 211.95 102.53 208.43 103.71 209.39"/><path class="cls-1" d="M108.56,214.67a1.43,1.43,0,0,0,.9-.66,1.5,1.5,0,0,0,.19-1.45,3.36,3.36,0,0,0-1.35-1.43l-2-1.37-3.86,5.79,2,1.37a3.92,3.92,0,0,0,2,.82,1.62,1.62,0,0,0,1.36-.84,1.74,1.74,0,0,0,.34-1.3,2,2,0,0,0-.8-1.18A1.71,1.71,0,0,0,108.56,214.67Zm-1.88,1.22a.91.91,0,0,1-.67.49,1.67,1.67,0,0,1-1-.38l-.84-.56,1.15-1.71.83.56a1.53,1.53,0,0,1,.69.76A1,1,0,0,1,106.68,215.89Zm1.44-2.58a.71.71,0,0,1-.54.37,1.28,1.28,0,0,1-.78-.3l-.84-.56.9-1.34.83.56a1.27,1.27,0,0,1,.57.61A.74.74,0,0,1,108.12,213.31Z"/><polygon class="cls-1" points="116.74 216.09 115.14 215.23 112.89 217.47 113.55 214.36 111.96 213.5 108.65 219.6 109.79 220.23 112.45 215.34 111.72 218.4 112.77 218.97 114.93 216.69 112.28 221.58 113.42 222.2 116.74 216.09"/><path class="cls-1" d="M128,220.45a3,3,0,0,0-2.53.15,4.84,4.84,0,0,0-1.66,5.09,3,3,0,0,0,2,1.61,4.08,4.08,0,0,0,.81.18,3.57,3.57,0,0,0,.8,0l.47-1.46a2.78,2.78,0,0,1-.87.22,2,2,0,0,1-.76-.09,1.45,1.45,0,0,1-1-1,3.93,3.93,0,0,1,1.1-3.37,1.4,1.4,0,0,1,1.38-.18,1.92,1.92,0,0,1,.67.37,2.91,2.91,0,0,1,.57.69l.47-1.45a2.72,2.72,0,0,0-.63-.47A3.59,3.59,0,0,0,128,220.45Z"/><path class="cls-1" d="M134,222.07a2.34,2.34,0,0,0-2.16.45,4.4,4.4,0,0,0-1.26,2.47,4.48,4.48,0,0,0,.07,2.78,2.32,2.32,0,0,0,1.75,1.33,2.35,2.35,0,0,0,2.16-.44,5.66,5.66,0,0,0,1.19-5.25A2.33,2.33,0,0,0,134,222.07Zm.29,3.77a4.72,4.72,0,0,1-.66,1.7.92.92,0,0,1-1,.36.9.9,0,0,1-.7-.74,6.19,6.19,0,0,1,.81-3.53.92.92,0,0,1,1.65.38A4.63,4.63,0,0,1,134.28,225.84Z"/><path class="cls-1" d="M140,223.32l-1.61-.21-.91,6.89,1.61.21a3.74,3.74,0,0,0,2.78-.46,3.65,3.65,0,0,0,1.16-2.53,3.59,3.59,0,0,0-.46-2.74A3.74,3.74,0,0,0,140,223.32Zm1.48,3.69a3,3,0,0,1-.61,1.67,1.44,1.44,0,0,1-1.32.34l-.41-.05.59-4.44.4.06a1.48,1.48,0,0,1,1.2.67A3,3,0,0,1,141.51,227Z"/><polygon class="cls-1" points="145.3 230.88 150.06 231.07 150.1 229.86 146.85 229.73 146.92 227.91 149.87 228.03 149.91 226.82 146.97 226.7 147.03 225.21 150.28 225.33 150.32 224.13 145.57 223.94 145.3 230.88"/><polygon class="cls-1" points="161.91 229.07 161.64 227.27 164.55 226.84 164.38 225.65 161.47 226.07 161.25 224.59 164.46 224.12 164.29 222.92 159.58 223.61 160.59 230.49 165.3 229.79 165.12 228.6 161.91 229.07"/><polygon class="cls-1" points="171.59 221.25 170.07 221.62 169.24 224.1 167.36 222.28 165.84 222.64 168.77 225.46 167.42 229.41 168.93 229.04 169.81 226.47 171.76 228.36 173.28 227.99 170.28 225.09 171.59 221.25"/><path class="cls-1" d="M177.5,219.84a3.94,3.94,0,0,0-2.32.25l-2,.67,2.23,6.58,1.43-.49-.84-2.46.54-.18a4,4,0,0,0,2-1.22,2.35,2.35,0,0,0-1.07-3.15Zm-.33,2.71a1.82,1.82,0,0,1-.91.55l-.59.19-.65-1.93.58-.19a1.77,1.77,0,0,1,1.06-.12.92.92,0,0,1,.54.65A1,1,0,0,1,177.17,222.55Z"/><polygon class="cls-1" points="183.56 223.02 182.82 221.36 185.51 220.16 185.02 219.06 182.33 220.25 181.72 218.88 184.69 217.56 184.2 216.46 179.85 218.39 182.67 224.74 187.02 222.81 186.53 221.7 183.56 223.02"/><path class="cls-1" d="M192,217.34a2.3,2.3,0,0,0-.64-.32.82.82,0,0,0-.44,0,1.72,1.72,0,0,0,.72-1,1.67,1.67,0,0,0-.22-1.18,1.82,1.82,0,0,0-1.32-1,3.7,3.7,0,0,0-2.08.62l-1.9,1.07,3.39,6.06,1.32-.74-1.34-2.39.42-.24c.32-.18.72-.1,1.21.22l.2.13,1.66,1.08,1.44-.81Zm-3.38-1.89a1.42,1.42,0,0,1,.88-.24.86.86,0,0,1,.59.5.86.86,0,0,1,.12.77,1.38,1.38,0,0,1-.66.62l-.63.35L188,215.8Z"/><polygon class="cls-1" points="196.06 209.32 192.31 211.9 193 212.9 194.25 212.04 196.82 215.77 195.57 216.63 196.25 217.63 200 215.05 199.32 214.05 198.06 214.91 195.5 211.18 196.75 210.32 196.06 209.32"/><polygon class="cls-1" points="197.69 208.12 202.14 213.46 203.13 212.62 199.57 208.35 202.15 210.16 203.07 209.39 201.75 206.53 205.31 210.81 206.31 209.98 201.86 204.64 200.47 205.8 201.72 208.72 199.07 206.97 197.69 208.12"/><polygon class="cls-1" points="206.69 199.9 203.32 203.27 208.25 208.18 211.61 204.81 210.75 203.95 208.46 206.26 207.17 204.97 209.24 202.88 208.39 202.03 206.31 204.12 205.25 203.06 207.54 200.76 206.69 199.9"/><polygon class="cls-1" points="210.44 195.52 214.33 198.74 209.09 197.16 208.05 198.41 213.4 202.84 214.25 201.81 210.36 198.59 215.61 200.17 216.64 198.93 211.29 194.49 210.44 195.52"/><polygon class="cls-1" points="216.41 189.31 215.41 188.63 212.37 193.08 213.36 193.75 214.46 192.16 219.2 195.4 220.05 194.16 215.31 190.91 216.41 189.31"/><polygon class="cls-1" points="101.48 103.36 98.11 99.35 98.25 96.98 106.1 99.49 109.22 96.87 98.55 93.58 99.12 85.15 95.94 87.82 95.46 96.2 91.53 91.51 88.73 93.87 98.67 105.72 101.48 103.36"/><path class="cls-1" d="M107.17,91.54q1.52,2.76,3.52,3.29c1.34.35,3,0,4.93-1.06s3.13-2.26,3.55-3.58.13-2.9-.87-4.74l-4.69-8.56-3.21,1.76,5,9.24a2.36,2.36,0,0,1,.25,1.93,3.28,3.28,0,0,1-3.45,1.89,2.37,2.37,0,0,1-1.49-1.26l-5.05-9.23L102.49,83Z"/><path class="cls-1" d="M123.08,89.61l5.71-1.79a10.42,10.42,0,0,0,4.72-2.53,3.55,3.55,0,0,0,.57-3.58,3.73,3.73,0,0,0-1.88-2.39,5.17,5.17,0,0,0-3.41-.18,4.35,4.35,0,0,0,2.28-1.73,3,3,0,0,0,.18-2.5,3.21,3.21,0,0,0-2.36-2.33,8.89,8.89,0,0,0-4.74.46l-5.7,1.79Zm6.08-8.7a2.13,2.13,0,0,1,1.24,1.5,2,2,0,0,1-.15,1.87,4.52,4.52,0,0,1-2.19,1.21l-2.33.72-1.37-4.36,2.33-.73A4.12,4.12,0,0,1,129.16,80.91Zm-4.28-5.55a3.53,3.53,0,0,1,2-.18,1.61,1.61,0,0,1,1,1.14,1.56,1.56,0,0,1-.15,1.48,3.59,3.59,0,0,1-1.77,1l-2.33.73-1.07-3.43Z"/><polygon class="cls-1" points="137.62 85.41 149.12 84.19 148.83 81.52 140.98 82.34 140.56 78.32 147.67 77.57 147.38 74.89 140.27 75.64 139.93 72.32 147.78 71.49 147.5 68.81 136 70.02 137.62 85.41"/><path class="cls-1" d="M159.65,85.22a10.51,10.51,0,0,0,2,0,9.81,9.81,0,0,0,1.88-.39l.31-3.38a7.37,7.37,0,0,1-1.92.88,5.31,5.31,0,0,1-1.86.17,3.63,3.63,0,0,1-2.9-1.61,6.33,6.33,0,0,1-.65-4A6.35,6.35,0,0,1,157.92,73,3.61,3.61,0,0,1,161.07,72a5.11,5.11,0,0,1,1.79.51,7.3,7.3,0,0,1,1.73,1.23l.32-3.38a8.14,8.14,0,0,0-1.76-.73,11.42,11.42,0,0,0-2-.38,7.61,7.61,0,0,0-5.9,1.52,8.3,8.3,0,0,0-2.52,5.76,8.2,8.2,0,0,0,1.41,6.11A7.52,7.52,0,0,0,159.65,85.22Z"/><path class="cls-1" d="M171.33,73q-2.18,1.47-3.3,5.28t-.14,6.2A5.88,5.88,0,0,0,172,87.82a6,6,0,0,0,5.26-.55c1.44-1,2.53-2.74,3.29-5.27s.81-4.6.14-6.21a6.85,6.85,0,0,0-9.33-2.8Zm4.45,2.08a2.16,2.16,0,0,1,1.62,1.79,9.11,9.11,0,0,1-.54,4,9.28,9.28,0,0,1-1.77,3.67,2.31,2.31,0,0,1-3.94-1.18,9.17,9.17,0,0,1,.53-4,9.25,9.25,0,0,1,1.78-3.68A2.16,2.16,0,0,1,175.78,75.07Z"/><polygon class="cls-1" points="186.67 79.19 189.93 80.92 185.21 89.83 181.94 88.1 180.68 90.48 190.44 95.66 191.71 93.28 188.44 91.55 193.17 82.64 196.43 84.38 197.7 82 187.93 76.81 186.67 79.19"/><polygon class="cls-1" points="205.77 87.76 202.72 85.26 192.92 97.23 195.42 99.27 202.54 90.58 199.44 102.57 202.47 105.05 212.27 93.08 209.77 91.03 202.65 99.73 205.77 87.76"/><path class="cls-1" d="M71.68,158.7a4.44,4.44,0,0,0,3.11-1.26c1.82-1.78,7.45-6.94,7.45-6.94s-5.63-5.16-7.45-6.94a4.44,4.44,0,0,0-3.11-1.26,4.38,4.38,0,0,0-4.34,4.42,4.54,4.54,0,0,0,2.23,3.78,4.54,4.54,0,0,0-2.23,3.78A4.38,4.38,0,0,0,71.68,158.7Z"/><path class="cls-1" d="M231.43,150.5a4.54,4.54,0,0,0,2.23-3.78,4.38,4.38,0,0,0-4.34-4.42,4.44,4.44,0,0,0-3.11,1.26c-1.82,1.78-7.45,6.94-7.45,6.94s5.63,5.16,7.45,6.94a4.44,4.44,0,0,0,3.11,1.26,4.38,4.38,0,0,0,4.34-4.42A4.54,4.54,0,0,0,231.43,150.5Z"/><polygon class="cls-1" points="164.55 162.31 165.09 162.31 164.55 161.77 164.55 162.31"/><polygon class="cls-1" points="135.91 162.31 136.45 162.31 136.45 161.77 135.91 162.31"/><path class="cls-1" d="M150.5,210.3a57.87,57.87,0,1,0-57.87-57.87A57.87,57.87,0,0,0,150.5,210.3Zm-28.93-49.79a12.64,12.64,0,0,1,8-11.76,14.42,14.42,0,0,1,26.82-10.51,10.67,10.67,0,0,1,4.94-1.24,10.85,10.85,0,0,1,10.85,10.85,11.89,11.89,0,0,1-.12,1.2,12.6,12.6,0,0,1-3.5,23.93v.19H132.42V173A12.61,12.61,0,0,1,121.57,160.51Z"/></svg>