<svg id="Layer_1" data-name="Layer 1" xmlns="http://www.w3.org/2000/svg" viewBox="0 0 300 300"><defs><style>.cls-1{fill:#a12124;}.cls-2{fill:none;stroke:#a12124;stroke-width:4px;}.cls-3,.cls-4{fill:#fff;}.cls-3{fill-rule:evenodd;}</style></defs><title>kubecoin</title><circle class="cls-1" cx="150.5" cy="152.43" r="57.87"/><path class="cls-1" d="M87.82,190.93l1.06,1.51-4.49,5.7-.87-1.24,1.13-1.37-1.16-1.66-1.67.62L81,193.25Zm-.5,1.48-2.73,1.06.82,1.17Z"/><path class="cls-1" d="M91,195.3l1,1.24-2.46,4.9,3.84-3.28.87,1L89,203.68l-1-1.23,2.45-4.9-3.84,3.28-.87-1Z"/><path class="cls-1" d="M100.17,206.53l.76-.94,3.54,2.86-.76.94-1.18-1L99.68,212l1.18,1-.76.94L96.56,211l.76-.94,1.19.95,2.84-3.52Z"/><path class="cls-1" d="M106.25,209.76l2,1.37a3.36,3.36,0,0,1,1.35,1.43,1.5,1.5,0,0,1-.19,1.45,1.43,1.43,0,0,1-.9.66,1.71,1.71,0,0,1-1.17-.25,2,2,0,0,1,.8,1.18,1.74,1.74,0,0,1-.34,1.3,1.62,1.62,0,0,1-1.36.84,3.92,3.92,0,0,1-2-.82l-2-1.37Zm-.89,4-1.15,1.71.84.56a1.67,1.67,0,0,0,1,.38.91.91,0,0,0,.67-.49,1,1,0,0,0,.2-.84,1.53,1.53,0,0,0-.69-.76Zm1.5-2.25-.9,1.35.84.55a1.28,1.28,0,0,0,.78.3.71.71,0,0,0,.54-.37.74.74,0,0,0,.14-.66,1.27,1.27,0,0,0-.57-.61Z"/><path class="cls-1" d="M112,213.5l1.59.86-.66,3.11,2.25-2.24,1.6.86-3.32,6.11-1.14-.62,2.65-4.89L112.77,219l-1-.57.73-3.06-2.66,4.89-1.14-.63Z"/><path class="cls-1" d="M127.36,227.48a3.57,3.57,0,0,1-.8,0,4.08,4.08,0,0,1-.81-.18,3,3,0,0,1-2-1.61,4.84,4.84,0,0,1,1.66-5.09,3,3,0,0,1,2.53-.15,3.59,3.59,0,0,1,.77.34,2.72,2.72,0,0,1,.63.47l-.47,1.45a2.91,2.91,0,0,0-.57-.69,1.92,1.92,0,0,0-.67-.37,1.4,1.4,0,0,0-1.38.18,3.93,3.93,0,0,0-1.1,3.37,1.45,1.45,0,0,0,1,1,2,2,0,0,0,.76.09,2.78,2.78,0,0,0,.87-.22Z"/><path class="cls-1" d="M130.57,225a4.4,4.4,0,0,1,1.26-2.47,2.65,2.65,0,0,1,3.91.89,5.66,5.66,0,0,1-1.19,5.25,2.35,2.35,0,0,1-2.16.44,2.32,2.32,0,0,1-1.75-1.33A4.48,4.48,0,0,1,130.57,225Zm3.14-1.72a.89.89,0,0,0-.94.36,6.19,6.19,0,0,0-.81,3.53.9.9,0,0,0,.7.74.92.92,0,0,0,1-.36,4.72,4.72,0,0,0,.66-1.7,4.63,4.63,0,0,0,.14-1.83A.89.89,0,0,0,133.71,223.27Z"/><path class="cls-1" d="M138.42,223.11l1.61.21a3.74,3.74,0,0,1,2.57,1.16,3.59,3.59,0,0,1,.46,2.74,3.65,3.65,0,0,1-1.16,2.53,3.74,3.74,0,0,1-2.78.46l-1.61-.21Zm1.34,1.42-.59,4.44.41.05a1.44,1.44,0,0,0,1.32-.34,3,3,0,0,0,.61-1.67,3,3,0,0,0-.15-1.75,1.48,1.48,0,0,0-1.2-.67Z"/><path class="cls-1" d="M150.05,231.07l-4.75-.19.27-6.94,4.75.18,0,1.21-3.25-.12L147,226.7l2.94.12,0,1.21-3-.12-.07,1.82,3.25.13Z"/><path class="cls-1" d="M165.3,229.79l-4.71.7-1-6.88,4.71-.69.17,1.2-3.21.47.21,1.48,2.92-.43.17,1.2-2.91.43.26,1.8,3.22-.47Z"/><path class="cls-1" d="M173.28,228l-1.52.37-1.95-1.89-.88,2.57-1.51.37,1.35-3.95-2.92-2.82,1.51-.36,1.87,1.82.84-2.48,1.52-.37-1.31,3.84Z"/><path class="cls-1" d="M173.22,220.76l2-.67a3.94,3.94,0,0,1,2.32-.25,2.35,2.35,0,0,1,1.07,3.15,4,4,0,0,1-2,1.22l-.54.18.84,2.46-1.43.49Zm1.8.6.65,1.93.59-.19a1.82,1.82,0,0,0,.91-.55,1,1,0,0,0,0-.85.92.92,0,0,0-.54-.65,1.77,1.77,0,0,0-1.06.12Z"/><path class="cls-1" d="M187,222.81l-4.35,1.93-2.82-6.35,4.35-1.93.49,1.1-3,1.32.61,1.37,2.69-1.19.49,1.1-2.69,1.2.74,1.66,3-1.32Z"/><path class="cls-1" d="M190.87,217a.82.82,0,0,1,.44,0,2.3,2.3,0,0,1,.64.32l2.42,1.5-1.44.81-1.66-1.08-.2-.13c-.49-.32-.89-.4-1.21-.22l-.42.24,1.34,2.39-1.32.74-3.39-6.06,1.9-1.07a3.7,3.7,0,0,1,2.08-.62,1.82,1.82,0,0,1,1.32,1,1.67,1.67,0,0,1,.22,1.18A1.72,1.72,0,0,1,190.87,217ZM188,215.8l.92,1.65.63-.35a1.38,1.38,0,0,0,.66-.62.86.86,0,0,0-.12-.77.86.86,0,0,0-.59-.5,1.42,1.42,0,0,0-.88.24Z"/><path class="cls-1" d="M193,212.9l-.69-1,3.75-2.58.69,1-1.25.86,2.56,3.73,1.26-.86.68,1-3.75,2.58-.68-1,1.25-.86L194.25,212Z"/><path class="cls-1" d="M197.69,208.12l1.38-1.16,2.65,1.76-1.25-2.92,1.39-1.16,4.45,5.34-1,.83-3.56-4.28,1.32,2.86-.92.77-2.58-1.81,3.56,4.27-1,.84Z"/><path class="cls-1" d="M211.61,204.81l-3.36,3.37-4.93-4.91,3.37-3.37.85.86-2.29,2.3,1.06,1.06,2.08-2.09.85.86L207.17,205l1.29,1.29,2.29-2.31Z"/><path class="cls-1" d="M208.05,198.41l1-1.25,5.24,1.58-3.89-3.22.85-1,5.35,4.44-1,1.24-5.25-1.58,3.89,3.22-.85,1Z"/><path class="cls-1" d="M220.05,194.16l-.85,1.24-4.74-3.24-1.1,1.6-1-.68,3-4.45,1,.68-1.1,1.6Z"/><path class="cls-1" d="M88.73,93.87l2.8-2.36,3.93,4.69.47-8.38,3.19-2.67-.57,8.43,10.67,3.29-3.12,2.62L98.25,97l-.14,2.37,3.37,4-2.81,2.36Z"/><path class="cls-1" d="M107.17,91.54,102.49,83l3.22-1.76,5.05,9.23a2.37,2.37,0,0,0,1.49,1.26,3.28,3.28,0,0,0,3.45-1.89,2.36,2.36,0,0,0-.25-1.93l-5-9.24,3.21-1.76,4.69,8.56c1,1.84,1.3,3.42.87,4.74s-1.6,2.51-3.55,3.58-3.59,1.41-4.93,1.06S108.18,93.38,107.17,91.54Z"/><path class="cls-1" d="M118.45,74.83l5.7-1.79a8.89,8.89,0,0,1,4.74-.46,3.21,3.21,0,0,1,2.36,2.33,3,3,0,0,1-.18,2.5,4.35,4.35,0,0,1-2.28,1.73,5.17,5.17,0,0,1,3.41.18,3.73,3.73,0,0,1,1.88,2.39,3.55,3.55,0,0,1-.57,3.58,10.42,10.42,0,0,1-4.72,2.53l-5.71,1.79Zm4.11,1.26,1.07,3.43,2.33-.73a3.59,3.59,0,0,0,1.77-1,1.56,1.56,0,0,0,.15-1.48,1.61,1.61,0,0,0-1-1.14,3.53,3.53,0,0,0-2,.18Zm1.8,5.76,1.37,4.36,2.33-.72a4.52,4.52,0,0,0,2.19-1.21,2,2,0,0,0,.15-1.87,2.13,2.13,0,0,0-1.24-1.5,4.12,4.12,0,0,0-2.47.21Z"/><path class="cls-1" d="M149.12,84.2l-11.5,1.21L136,70l11.49-1.21.29,2.68-7.85.83.34,3.32,7.11-.75.29,2.68-7.11.75.42,4,7.85-.82Z"/><path class="cls-1" d="M163.55,84.84a9.81,9.81,0,0,1-1.88.39,10.51,10.51,0,0,1-2,0,7.52,7.52,0,0,1-5.51-2.59,8.2,8.2,0,0,1-1.41-6.11,8.3,8.3,0,0,1,2.52-5.76,7.61,7.61,0,0,1,5.9-1.52,11.42,11.42,0,0,1,2,.38,8.67,8.67,0,0,1,1.76.73l-.32,3.38a7.3,7.3,0,0,0-1.73-1.23,5.11,5.11,0,0,0-1.79-.51A3.61,3.61,0,0,0,157.92,73a6.35,6.35,0,0,0-1.39,3.84,6.33,6.33,0,0,0,.65,4,3.63,3.63,0,0,0,2.9,1.61,5.31,5.31,0,0,0,1.86-.17,7.37,7.37,0,0,0,1.92-.88Z"/><path class="cls-1" d="M168,78.27q1.13-3.81,3.3-5.28a6.85,6.85,0,0,1,9.33,2.8q1,2.42-.14,6.21c-.76,2.53-1.85,4.29-3.29,5.27a6,6,0,0,1-5.26.55,5.88,5.88,0,0,1-4.08-3.35Q166.89,82.06,168,78.27Zm7.75-3.2a2.16,2.16,0,0,0-2.32.61,9.25,9.25,0,0,0-1.78,3.68,9.17,9.17,0,0,0-.53,4,2.31,2.31,0,0,0,3.94,1.18,9.28,9.28,0,0,0,1.77-3.67,9.11,9.11,0,0,0,.54-4A2.16,2.16,0,0,0,175.78,75.07Z"/><path class="cls-1" d="M186.67,79.19l1.26-2.38L197.7,82l-1.27,2.37-3.26-1.73-4.72,8.91,3.26,1.73-1.27,2.38-9.76-5.18,1.26-2.38,3.27,1.73,4.72-8.91Z"/><path class="cls-1" d="M202.72,85.26l3.05,2.5-3.12,12,7.12-8.7,2.5,2-9.8,12-3-2.48,3.1-12-7.12,8.69-2.5-2Z"/><circle class="cls-2" cx="150.5" cy="150.5" r="95"/><path class="cls-1" d="M67.34,146.72a4.54,4.54,0,0,0,2.23,3.78,4.54,4.54,0,0,0-2.23,3.78,4.38,4.38,0,0,0,4.34,4.42,4.44,4.44,0,0,0,3.11-1.26c1.82-1.78,7.45-6.94,7.45-6.94s-5.63-5.16-7.45-6.94a4.44,4.44,0,0,0-3.11-1.26A4.38,4.38,0,0,0,67.34,146.72Z"/><path class="cls-1" d="M233.66,146.72a4.54,4.54,0,0,1-2.23,3.78,4.54,4.54,0,0,1,2.23,3.78,4.38,4.38,0,0,1-4.34,4.42,4.44,4.44,0,0,1-3.11-1.26c-1.82-1.78-7.45-6.94-7.45-6.94s5.63-5.16,7.45-6.94a4.44,4.44,0,0,1,3.11-1.26A4.38,4.38,0,0,1,233.66,146.72Z"/><path class="cls-3" d="M172.08,149.05a11.89,11.89,0,0,0,.12-1.2A10.85,10.85,0,0,0,161.35,137a10.67,10.67,0,0,0-4.94,1.24,14.41,14.41,0,0,0-26.82,10.51A12.61,12.61,0,0,0,132.42,173v.18h36.16V173a12.6,12.6,0,0,0,3.5-23.93Zm-36.17,13.26.54-.54v.54Zm28.64,0v-.54l.54.54Z"/><circle class="cls-4" cx="164.97" cy="161.16" r="6.75"/><circle class="cls-4" cx="135.07" cy="162.12" r="6.75"/></svg>