<?xml version="1.0" encoding="utf-8"?>
<!-- Generator: Adobe Illustrator 22.0.0, SVG Export Plug-In . SVG Version: 6.00 Build 0)  -->
<svg version="1.1" id="Layer_1" xmlns="http://www.w3.org/2000/svg" xmlns:xlink="http://www.w3.org/1999/xlink" x="0px" y="0px"
	 viewBox="0 0 300 300" style="enable-background:new 0 0 300 300;" xml:space="preserve">
<style type="text/css">
	.st0{fill:#F9C2C4;}
	.st1{fill:none;}
	.st2{fill:#015084;}
	.st3{fill:#DD4231;}
	.st4{fill:#FFFFFF;}
	.st5{fill:#7CC253;}
	.st6{clip-path:url(#SVGID_2_);}
	.st7{fill:#DD4132;}
	.st8{fill:#98DDDE;}
	.st9{fill:none;stroke:#DD4231;stroke-width:4.2027;stroke-miterlimit:10;}
</style>
<title>mono-bowie</title>
<path class="st0" d="M-524.3-603.9l1.2-1.2C-523.6-604.8-524-604.4-524.3-603.9z"/>
<path class="st0" d="M-522.9-605.4l-0.3,0.3c0.5-0.4,1.1-0.7,1.7-1c0-0.2,0-0.5,0-0.7L-522.9-605.4z"/>
<path class="st0" d="M-462.2-605.1l1.2,1.2C-461.4-604.4-461.7-604.8-462.2-605.1z"/>
<path class="st0" d="M-462.4-605.4l-1.4-1.4c0,0.3,0,0.5,0,0.7c0.6,0.3,1.2,0.6,1.7,1L-462.4-605.4z"/>
<g id="g3956" transform="translate(3.21875,-52.721671)">
	
		<path id="engine-northeast" inkscape:flatsided="true" inkscape:randomized="0" inkscape:rounded="0" inkscape:transform-center-x="-50.000002" inkscape:transform-center-y="-86.602542" sodipodi:arg1="1.0471976" sodipodi:arg2="1.5707963" sodipodi:cx="-90.78598" sodipodi:cy="-58.882366" sodipodi:r1="117.38359" sodipodi:r2="101.65717" sodipodi:sides="6" sodipodi:type="star" class="st1" d="
		M-109.9-467.3l25.2-43.7l-25.2-43.7h-50.5l-25.2,43.7l25.2,43.7H-109.9z	">
<title  id="title3942">Northeast engine</title>
	</path>
	<path id="crown-engine-northeast" inkscape:connector-curvature="0" class="st2" d="M-161.2-556.2l-26.1,45.1l26.1,45.1h52.1
		L-83-511l-26.1-45.1C-109.1-556.2-161.2-556.2-161.2-556.2z M-159.6-553.3h48.9l24.4,42.3l-24.4,42.3h-48.9L-184-511
		C-184-511-159.6-553.3-159.6-553.3z	">
<title  id="title3950">Crown for northeast engine</title>
	</path>
	
		<path id="engine-southeast" inkscape:flatsided="true" inkscape:randomized="0" inkscape:rounded="0" inkscape:transform-center-x="-49.999999" inkscape:transform-center-y="86.602537" sodipodi:arg1="1.0471976" sodipodi:arg2="1.5707963" sodipodi:cx="-90.78598" sodipodi:cy="-58.882366" sodipodi:r1="117.38359" sodipodi:r2="101.65717" sodipodi:sides="6" sodipodi:type="star" class="st1" d="
		M-185.6-423.5l25.2,43.7h50.5l25.2-43.7l-25.2-43.7h-50.5L-185.6-423.5z	">
<title  id="title3944">Southeast engine</title>
	</path>
	<path id="crown-engine-southeast" inkscape:connector-curvature="0" class="st2" d="M-161.2-468.7l-26.1,45.1l26.1,45.1h52.1
		l26.1-45.1l-26.1-45.1H-161.2L-161.2-468.7z M-159.6-465.8h48.9l24.4,42.3l-24.4,42.3h-48.9l-24.4-42.3L-159.6-465.8L-159.6-465.8z
			">
<title  id="title3952">Crown for southeast engine</title>
	</path>
	
		<path id="engine-west" inkscape:flatsided="true" inkscape:randomized="0" inkscape:rounded="0" sodipodi:arg1="1.0471976" sodipodi:arg2="1.5707963" sodipodi:cx="-90.78598" sodipodi:cy="-58.882366" sodipodi:r1="117.38359" sodipodi:r2="101.65717" sodipodi:sides="6" sodipodi:type="star" class="st1" d="
		M-185.6-511h-50.5l-25.2,43.7l25.2,43.7h50.5l25.2-43.7L-185.6-511z	">
<title  id="title3940">West engine</title>
	</path>
	<path id="crown-engine-west" inkscape:connector-curvature="0" class="st2" d="M-236.9-512.4l-26.1,45.1l26.1,45.1h52.1l26.1-45.1
		l-26.1-45.1H-236.9z M-235.3-509.6h48.9l24.4,42.3l-24.4,42.3h-48.9l-24.4-42.3L-235.3-509.6z	">
<title  id="title3954">Crown for west engine</title>
	</path>
	<path id="triangle" inkscape:connector-curvature="0" class="st2" d="M-186.4-512.4v90.3l78.2-45.1L-186.4-512.4z M-183.6-507.5
		l69.7,40.2l-69.7,40.3V-507.5z	">
<title  id="title3948">Triangle</title>
	</path>
	<path id="circle" inkscape:connector-curvature="0" class="st2" d="M-160.4-517.8c-27.9,0-50.5,22.6-50.5,50.5s22.6,50.5,50.5,50.5
		s50.5-22.6,50.5-50.5S-132.5-517.8-160.4-517.8z M-160.4-514.9c26.3,0,47.7,21.3,47.7,47.7s-21.3,47.7-47.7,47.7
		s-47.7-21.3-47.7-47.7S-186.7-514.9-160.4-514.9z	">
<title  id="title3946">Circle</title>
	</path>
</g>
<g>
	<g>
	</g>
	<g>
	</g>
	<g>
	</g>
	<g>
	</g>
	<g>
	</g>
	<g>
	</g>
	<g>
	</g>
	<g>
	</g>
	<g>
	</g>
	<g>
	</g>
	<g>
	</g>
	<g>
		<g>
			<path class="st3" d="M-545.2,730.9l1.1,1.5l-4.5,5.7l-0.9-1.2l1.1-1.4l-1.2-1.7l-1.7,0.6l-0.9-1.2L-545.2,730.9z M-545.7,732.4
				l-2.7,1.1l0.8,1.2L-545.7,732.4z"/>
		</g>
		<g>
			<path class="st3" d="M-542,735.3l1.1,1.2l-2.5,4.9l3.8-3.3l0.9,1l-5.3,4.5l-1-1.2l2.5-4.9l-3.8,3.3l-0.9-1L-542,735.3z"/>
		</g>
		<g>
			<path class="st3" d="M-532.8,746.5l0.8-0.9l3.5,2.9l-0.8,0.9l-1.2-1l-2.8,3.5l1.2,1l-0.8,0.9l-3.5-2.9l0.8-0.9l1.2,1l2.8-3.5
				L-532.8,746.5z"/>
		</g>
		<g>
			<path class="st3" d="M-526.7,749.8l2,1.4c0.7,0.5,1.2,0.9,1.4,1.4c0.2,0.5,0.1,1-0.2,1.5c-0.2,0.4-0.5,0.6-0.9,0.7
				c-0.3,0.1-0.7,0-1.2-0.3c0.5,0.4,0.7,0.8,0.8,1.2c0.1,0.4,0,0.9-0.3,1.3c-0.4,0.6-0.8,0.8-1.4,0.8c-0.5,0-1.2-0.3-2.1-0.8l-2-1.4
				L-526.7,749.8z M-527.6,753.7l-1.1,1.7l0.8,0.6c0.4,0.3,0.7,0.4,1,0.4c0.2,0,0.5-0.2,0.7-0.5c0.2-0.3,0.3-0.6,0.2-0.8
				c-0.1-0.2-0.3-0.5-0.7-0.8L-527.6,753.7z M-526.1,751.5l-0.9,1.3l0.8,0.6c0.3,0.2,0.6,0.3,0.8,0.3c0.2,0,0.4-0.1,0.5-0.4
				c0.2-0.2,0.2-0.5,0.1-0.7c-0.1-0.2-0.3-0.4-0.6-0.6L-526.1,751.5z"/>
		</g>
		<g>
			<path class="st3" d="M-521,753.5l1.6,0.9l-0.7,3.1l2.3-2.2l1.6,0.9l-3.3,6.1l-1.1-0.6l2.7-4.9l-2.2,2.3l-1.1-0.6l0.7-3.1
				l-2.7,4.9l-1.1-0.6L-521,753.5z"/>
		</g>
		<g>
			<path class="st3" d="M-505.6,767.5c-0.3,0-0.5,0-0.8,0c-0.3,0-0.5-0.1-0.8-0.2c-1-0.3-1.6-0.9-2-1.6c-0.3-0.8-0.3-1.7,0.1-2.8
				c0.4-1.1,0.9-1.9,1.6-2.3c0.7-0.4,1.6-0.5,2.5-0.1c0.3,0.1,0.5,0.2,0.8,0.3c0.2,0.1,0.4,0.3,0.6,0.5l-0.5,1.5
				c-0.2-0.3-0.4-0.5-0.6-0.7c-0.2-0.2-0.4-0.3-0.7-0.4c-0.5-0.2-1-0.1-1.4,0.2c-0.4,0.3-0.7,0.8-1,1.6c-0.2,0.7-0.3,1.3-0.1,1.8
				c0.1,0.5,0.5,0.8,1,1c0.2,0.1,0.5,0.1,0.8,0.1c0.3,0,0.6-0.1,0.9-0.2L-505.6,767.5z"/>
		</g>
		<g>
			<path class="st3" d="M-502.4,765c0.3-1.2,0.7-2,1.3-2.5c0.6-0.5,1.3-0.6,2.2-0.4c0.9,0.2,1.5,0.6,1.8,1.3
				c0.3,0.7,0.3,1.6,0.1,2.8c-0.3,1.2-0.7,2-1.3,2.5c-0.6,0.5-1.3,0.6-2.2,0.4c-0.9-0.2-1.4-0.6-1.8-1.3
				C-502.7,767.1-502.7,766.1-502.4,765z M-499.3,763.3c-0.4-0.1-0.7,0-0.9,0.4c-0.3,0.3-0.5,0.9-0.7,1.7c-0.2,0.8-0.2,1.4-0.1,1.8
				c0.1,0.4,0.3,0.6,0.7,0.7c0.4,0.1,0.7,0,1-0.4c0.3-0.3,0.5-0.9,0.7-1.7c0.2-0.8,0.2-1.4,0.1-1.8
				C-498.7,763.6-498.9,763.4-499.3,763.3z"/>
		</g>
		<g>
			<path class="st3" d="M-494.6,763.1l1.6,0.2c1.2,0.2,2.1,0.5,2.6,1.2c0.5,0.6,0.6,1.5,0.5,2.7c-0.2,1.2-0.6,2.1-1.2,2.5
				c-0.6,0.5-1.5,0.6-2.8,0.5l-1.6-0.2L-494.6,763.1z M-493.2,764.5l-0.6,4.4l0.4,0.1c0.6,0.1,1,0,1.3-0.3c0.3-0.3,0.5-0.9,0.6-1.7
				c0.1-0.8,0.1-1.4-0.2-1.8s-0.6-0.6-1.2-0.7L-493.2,764.5z"/>
		</g>
		<g>
			<path class="st3" d="M-482.9,771.1l-4.8-0.2l0.3-6.9l4.8,0.2l0,1.2l-3.2-0.1l-0.1,1.5l2.9,0.1l0,1.2l-2.9-0.1l-0.1,1.8l3.2,0.1
				L-482.9,771.1z"/>
		</g>
		<g>
			<path class="st3" d="M-467.7,769.8l-4.7,0.7l-1-6.9l4.7-0.7l0.2,1.2l-3.2,0.5l0.2,1.5l2.9-0.4l0.2,1.2l-2.9,0.4l0.3,1.8l3.2-0.5
				L-467.7,769.8z"/>
		</g>
		<g>
			<path class="st3" d="M-459.7,768l-1.5,0.4l-2-1.9l-0.9,2.6l-1.5,0.4l1.4-4l-2.9-2.8l1.5-0.4l1.9,1.8l0.8-2.5l1.5-0.4l-1.3,3.8
				L-459.7,768z"/>
		</g>
		<g>
			<path class="st3" d="M-459.8,760.8l2-0.7c1-0.3,1.8-0.4,2.3-0.2c0.5,0.2,0.9,0.6,1.2,1.4c0.2,0.7,0.2,1.3-0.1,1.8
				c-0.3,0.5-1,0.9-2,1.2l-0.5,0.2l0.8,2.5l-1.4,0.5L-459.8,760.8z M-458,761.4l0.7,1.9l0.6-0.2c0.5-0.2,0.8-0.3,0.9-0.5
				c0.1-0.2,0.2-0.5,0-0.8c-0.1-0.4-0.3-0.6-0.5-0.7c-0.2-0.1-0.6,0-1.1,0.1L-458,761.4z"/>
		</g>
		<g>
			<path class="st3" d="M-446,762.8l-4.4,1.9l-2.8-6.4l4.4-1.9l0.5,1.1l-3,1.3l0.6,1.4l2.7-1.2l0.5,1.1l-2.7,1.2l0.7,1.7l3-1.3
				L-446,762.8z"/>
		</g>
		<g>
			<path class="st3" d="M-442.1,757c0.1,0,0.3-0.1,0.4,0c0.1,0,0.4,0.1,0.6,0.3l2.4,1.5l-1.4,0.8l-1.7-1.1c0,0-0.1-0.1-0.2-0.1
				c-0.5-0.3-0.9-0.4-1.2-0.2l-0.4,0.2l1.3,2.4l-1.3,0.7l-3.4-6.1l1.9-1.1c0.9-0.5,1.6-0.7,2.1-0.6c0.5,0.1,1,0.4,1.3,1
				c0.2,0.4,0.3,0.8,0.2,1.2C-441.5,756.4-441.7,756.8-442.1,757z M-445.1,755.8l0.9,1.7l0.6-0.3c0.4-0.2,0.6-0.4,0.7-0.6
				c0.1-0.2,0-0.5-0.1-0.8c-0.2-0.3-0.4-0.5-0.6-0.5c-0.2,0-0.5,0-0.9,0.2L-445.1,755.8z"/>
		</g>
		<g>
			<path class="st3" d="M-440,752.9l-0.7-1l3.8-2.6l0.7,1l-1.3,0.9l2.6,3.7l1.3-0.9l0.7,1l-3.8,2.6l-0.7-1l1.3-0.9l-2.6-3.7
				L-440,752.9z"/>
		</g>
		<g>
			<path class="st3" d="M-435.3,748.1l1.4-1.2l2.7,1.8l-1.3-2.9l1.4-1.2l4.4,5.3l-1,0.8l-3.6-4.3l1.3,2.9l-0.9,0.8l-2.6-1.8l3.6,4.3
				l-1,0.8L-435.3,748.1z"/>
		</g>
		<g>
			<path class="st3" d="M-421.4,744.8l-3.4,3.4l-4.9-4.9l3.4-3.4l0.9,0.9l-2.3,2.3l1.1,1.1l2.1-2.1l0.9,0.9l-2.1,2.1l1.3,1.3
				l2.3-2.3L-421.4,744.8z"/>
		</g>
		<g>
			<path class="st3" d="M-425,738.4l1-1.3l5.2,1.6l-3.9-3.2l0.8-1l5.4,4.4l-1,1.2l-5.3-1.6l3.9,3.2l-0.8,1L-425,738.4z"/>
		</g>
		<g>
			<path class="st3" d="M-412.9,734.2l-0.9,1.2l-4.7-3.2l-1.1,1.6l-1-0.7l3-4.4l1,0.7l-1.1,1.6L-412.9,734.2z"/>
		</g>
	</g>
	<g>
		<g>
			<path class="st3" d="M-544.3,633.9l2.8-2.4l3.9,4.7l0.5-8.4l3.2-2.7l-0.6,8.4l10.7,3.3l-3.1,2.6l-7.8-2.5l-0.1,2.4l3.4,4
				l-2.8,2.4L-544.3,633.9z"/>
		</g>
		<g>
			<path class="st3" d="M-525.8,631.5l-4.7-8.6l3.2-1.8l5.1,9.2c0.4,0.7,0.9,1.1,1.5,1.3c0.6,0.2,1.3,0,2-0.4
				c0.7-0.4,1.2-0.9,1.4-1.5c0.2-0.6,0.1-1.3-0.3-1.9l-5.1-9.2l3.2-1.8l4.7,8.6c1,1.8,1.3,3.4,0.9,4.7c-0.4,1.3-1.6,2.5-3.6,3.6
				c-1.9,1.1-3.6,1.4-4.9,1.1C-523.6,634.5-524.8,633.4-525.8,631.5z"/>
		</g>
		<g>
			<path class="st3" d="M-514.6,614.8l5.7-1.8c2-0.6,3.5-0.8,4.7-0.5c1.2,0.3,2,1.1,2.4,2.3c0.3,0.9,0.2,1.8-0.2,2.5
				c-0.4,0.7-1.2,1.3-2.3,1.7c1.4-0.3,2.5-0.3,3.4,0.2c0.9,0.4,1.5,1.2,1.9,2.4c0.4,1.4,0.3,2.6-0.6,3.6c-0.8,1-2.4,1.8-4.7,2.5
				l-5.7,1.8L-514.6,614.8z M-510.4,616.1l1.1,3.4l2.3-0.7c0.9-0.3,1.5-0.6,1.8-1c0.3-0.4,0.3-0.9,0.2-1.5c-0.2-0.6-0.5-1-1-1.1
				c-0.5-0.2-1.1-0.1-2,0.2L-510.4,616.1z M-508.6,621.8l1.4,4.4l2.3-0.7c1.1-0.3,1.8-0.8,2.2-1.2c0.3-0.5,0.4-1.1,0.2-1.9
				c-0.3-0.8-0.7-1.3-1.2-1.5c-0.6-0.2-1.4-0.1-2.5,0.2L-508.6,621.8z"/>
		</g>
		<g>
			<path class="st3" d="M-483.9,624.2l-11.5,1.2L-497,610l11.5-1.2l0.3,2.7l-7.9,0.8l0.3,3.3l7.1-0.7l0.3,2.7l-7.1,0.7l0.4,4
				l7.8-0.8L-483.9,624.2z"/>
		</g>
		<g>
			<path class="st3" d="M-469.5,624.8c-0.6,0.2-1.2,0.3-1.9,0.4c-0.6,0.1-1.3,0.1-2,0c-2.5-0.2-4.3-1.1-5.5-2.6
				c-1.2-1.5-1.7-3.5-1.4-6.1c0.2-2.6,1.1-4.5,2.5-5.8c1.4-1.2,3.4-1.8,5.9-1.5c0.7,0.1,1.4,0.2,2,0.4c0.6,0.2,1.2,0.4,1.8,0.7
				l-0.3,3.4c-0.6-0.5-1.2-1-1.7-1.2c-0.6-0.3-1.2-0.4-1.8-0.5c-1.3-0.1-2.4,0.2-3.2,1c-0.8,0.8-1.2,2.1-1.4,3.8
				c-0.2,1.7,0.1,3.1,0.7,4c0.6,0.9,1.6,1.5,2.9,1.6c0.6,0.1,1.2,0,1.9-0.2c0.6-0.2,1.3-0.5,1.9-0.9L-469.5,624.8z"/>
		</g>
		<g>
			<path class="st3" d="M-465,618.3c0.8-2.5,1.9-4.3,3.3-5.3c1.4-1,3.2-1.2,5.2-0.6c2.1,0.6,3.4,1.7,4.1,3.3
				c0.7,1.6,0.6,3.7-0.1,6.2c-0.8,2.5-1.9,4.3-3.3,5.3c-1.4,1-3.2,1.2-5.3,0.5c-2.1-0.6-3.4-1.7-4.1-3.3
				C-465.8,622.9-465.7,620.8-465,618.3z M-457.2,615.1c-0.9-0.3-1.7-0.1-2.3,0.6c-0.7,0.7-1.2,1.9-1.8,3.7c-0.5,1.8-0.7,3.1-0.5,4
				c0.2,0.9,0.7,1.5,1.6,1.8c0.9,0.3,1.7,0.1,2.3-0.6c0.7-0.7,1.2-1.9,1.8-3.7c0.5-1.8,0.7-3.1,0.5-4.1
				C-455.8,615.9-456.3,615.3-457.2,615.1z"/>
		</g>
		<g>
			<path class="st3" d="M-446.3,619.2l1.3-2.4l9.8,5.2l-1.3,2.4l-3.3-1.7l-4.7,8.9l3.3,1.7l-1.3,2.4l-9.8-5.2l1.3-2.4l3.3,1.7
				l4.7-8.9L-446.3,619.2z"/>
		</g>
		<g>
			<path class="st3" d="M-430.3,625.3l3,2.5l-3.1,12l7.1-8.7l2.5,2l-9.8,12l-3-2.5l3.1-12l-7.1,8.7l-2.5-2L-430.3,625.3z"/>
		</g>
	</g>
	<g>
		<path class="st3" d="M-482.5,787.5c-53.5,0-97-43.5-97-97s43.5-97,97-97c53.5,0,97,43.5,97,97S-429,787.5-482.5,787.5z
			 M-482.5,597.5c-51.3,0-93,41.7-93,93s41.7,93,93,93s93-41.7,93-93S-431.2,597.5-482.5,597.5z"/>
	</g>
	<g>
		<g>
			<path class="st3" d="M-565.7,686.7c0,1.6,1,3,2.2,3.8c-1.3,0.8-2.2,2.2-2.2,3.8c0,2.4,1.9,4.4,4.3,4.4c1.2,0,2.3-0.5,3.1-1.3
				c1.8-1.8,7.5-6.9,7.5-6.9s-5.6-5.2-7.5-6.9c-0.8-0.8-1.9-1.3-3.1-1.3C-563.7,682.3-565.7,684.3-565.7,686.7z"/>
		</g>
		<g>
			<path class="st3" d="M-399.3,686.7c0,1.6-1,3-2.2,3.8c1.3,0.8,2.2,2.2,2.2,3.8c0,2.4-1.9,4.4-4.3,4.4c-1.2,0-2.3-0.5-3.1-1.3
				c-1.8-1.8-7.5-6.9-7.5-6.9s5.6-5.2,7.5-6.9c0.8-0.8,1.9-1.3,3.1-1.3C-401.3,682.3-399.3,684.3-399.3,686.7z"/>
		</g>
	</g>
	<g>
		<polygon class="st3" points="-468.4,702.3 -467.9,702.3 -468.4,701.8 		"/>
		<polygon class="st3" points="-496.6,702.3 -496.6,701.8 -497.1,702.3 		"/>
		<path class="st3" d="M-482.5,634.6c-32,0-57.9,25.9-57.9,57.9c0,32,25.9,57.9,57.9,57.9s57.9-25.9,57.9-57.9
			C-424.6,660.5-450.5,634.6-482.5,634.6z M-464.4,713v0.2h-4h-10.4h-7.2h-10.4h-4V713c-6.1-0.9-10.9-6.1-10.9-12.5
			c0-5.4,3.3-9.9,8-11.8c-0.5-1.4-0.8-2.9-0.8-4.5c0-8,6.5-14.5,14.5-14.5c5.8,0,10.9,3.5,13.1,8.5c1.5-0.8,3.2-1.2,4.9-1.2
			c6,0,10.9,4.9,10.9,10.9c0,0.4-0.1,0.8-0.1,1.2c4.3,2,7.4,6.4,7.4,11.5C-453.6,706.9-458.3,712.1-464.4,713z"/>
	</g>
	<g>
	</g>
	<g>
	</g>
	<g>
	</g>
	<g>
	</g>
	<g>
		<circle class="st4" cx="-468" cy="701.2" r="6.8"/>
	</g>
	<g>
		<circle class="st4" cx="-497.9" cy="702.1" r="6.8"/>
	</g>
</g>
<text transform="matrix(1 0 0 1 380 -490.5)" class="st2" style="font-family:'IBMPlexMono-Bold'; font-size:100.0016px;">&lt;/&gt;</text>
<g>
	<path class="st2" d="M859.8-543c-2,0-3.6,1.6-3.6,3.6c0,2,1.6,3.6,3.6,3.6s3.6-1.6,3.6-3.6C863.4-541.3,861.7-543,859.8-543z"/>
	<path class="st2" d="M820.6-454.2c-4.7,0-8.5,3.8-8.5,8.5s3.8,8.5,8.5,8.5s8.5-3.8,8.5-8.5S825.3-454.2,820.6-454.2z M820.6-440.7
		c-2.8,0-5-2.2-5-5s2.2-5,5-5s5,2.2,5,5S823.4-440.7,820.6-440.7z"/>
	<path class="st2" d="M840.4-454.2c-4.7,0-8.5,3.8-8.5,8.5s3.8,8.5,8.5,8.5s8.5-3.8,8.5-8.5S845.1-454.2,840.4-454.2z M840.4-440.7
		c-2.8,0-5-2.2-5-5s2.2-5,5-5s5,2.2,5,5S843.2-440.7,840.4-440.7z"/>
	<path class="st2" d="M875.5-609.5h-171c-3.4,0-6.2,2.8-6.2,6.2v171c0,3.4,2.8,6.2,6.2,6.2h171c3.4,0,6.2-2.8,6.2-6.2v-171
		C881.8-606.7,878.9-609.5,875.5-609.5z M878.2-432.2c0,1.5-1.2,2.8-2.8,2.8h-171c-1.5,0-2.8-1.2-2.8-2.8v-171
		c0-1.5,1.2-2.8,2.8-2.8h171c1.5,0,2.8,1.2,2.8,2.8V-432.2z"/>
	<path class="st2" d="M866.5-600.4h-153c-3.4,0-6.2,2.8-6.2,6.2v36c0,3.4,2.8,6.2,6.2,6.2h153c3.4,0,6.2-2.8,6.2-6.2v-36
		C872.8-597.6,869.9-600.4,866.5-600.4z M710.8-586.2c3.8,0.4,8.2,4.5,11.2,7.3c0.3,0.3,0.6,0.5,0.8,0.8c-0.8,0.3-1.5,0.8-2.3,1.2
		c-1,0.6-2,1.1-2.8,1.4c-0.9,0.3-1.9,0.3-3,0.3c-1.3,0-2.5,0-3.8,0.5l0.6,1.6c1-0.4,2-0.4,3.2-0.4c1.1,0,2.3,0,3.4-0.3
		c1-0.3,2.1-0.9,3.2-1.5c1-0.5,1.9-1.1,2.9-1.4c1.7,1.5,3.5,2.9,5.7,4.5c-0.8,0.3-1.5,0.7-2.3,1c-5.8,2.6-11.8,5.3-16.9,5V-586.2z
		 M746.6-572.5c4.8,2.7,9.3,5.3,16.3,5.3c0,0,0,0,0,0c2.7,0,5.3-0.4,7.8-1c0.5,0.2,1.1,0.3,1.7,0.5c1.7,0.4,3.5,0.7,5.2,0.9
		c-11.7,4.1-27.5,6.2-41.9-3.5c-0.8-0.5-1.5-1-2.2-1.5c1.6-0.6,3.1-1.2,4.6-1.6l0.6-0.2c1.3-0.3,2.6-0.7,3.9-1
		C744-574,745.3-573.3,746.6-572.5z M745.2-575.3c4.4-0.9,8.9-1.2,12.8,0.3c2.1,0.8,3.8,1.9,5.7,3.1c1.3,0.8,2.6,1.7,4,2.4
		c-1.6,0.3-3.3,0.5-5,0.5c0,0,0,0,0,0c-6.5,0-10.8-2.4-15.4-5C746.7-574.5,746-574.9,745.2-575.3z M794.2-575.1
		c-2.5,1.5-4.9,2.9-6.9,3.9c-1.8,0.9-3.9,1.9-6.2,2.9c-2.4-0.2-4.8-0.6-7.2-1c3-1,5.8-2.3,8.6-3.5c5.6-2.5,10.9-4.8,16.8-5.2
		C797.6-577,795.9-576,794.2-575.1z M802.9-578.1c0.9,0.1,1.8,0.2,2.7,0.3c4.2,0.8,8.1,2.4,11.9,4.4c-1.6,0.5-3.2,1.2-4.8,1.8
		c-4.2,1.6-8.1,3.2-12.6,3.4c-4.8,0.2-10.1,0.4-15.3,0.1c1.1-0.5,2.2-1,3.3-1.6c2.1-1.1,4.5-2.5,7-4
		C797.6-575,800.2-576.6,802.9-578.1z M738.2-575.4l-0.6,0.2c-1.9,0.5-3.8,1.2-5.8,2.1c-2.1-1.5-3.9-2.9-5.5-4.2
		c4.1-0.8,8.5-0.5,12.1,0.8c0.6,0.2,1.1,0.4,1.7,0.7C739.5-575.7,738.8-575.5,738.2-575.4z M869.2-558.2c0,1.5-1.2,2.8-2.8,2.8h-153
		c-1.5,0-2.8-1.2-2.8-2.8v-6.4c0.3,0,0.5,0,0.8,0c5.3,0,11.1-2.6,16.8-5.2c1.1-0.5,2.2-1,3.2-1.4c1,0.7,2,1.4,3.1,2.1
		c7.1,4.8,15.3,7.2,24.2,7.2c7.2,0,14.7-1.6,22.5-4.7c6.5,0.6,13,0.4,18.9,0.1c4.7-0.2,9-1.9,13.1-3.5c2-0.8,4.1-1.6,6.2-2.2
		c1.8,1,3.6,2.1,5.4,3.2c6.7,4,13.5,8.2,21.4,9.3c1.6,0.2,4.6,0.6,8,0.6c2.2,0,4.6-0.1,6.8-0.6c1.9-0.4,3.6-1.4,5.1-2.3
		c1-0.6,1.9-1.2,2.8-1.5V-558.2z M869.2-565.3c-1.3,0.3-2.5,1.1-3.7,1.8c-1.4,0.9-2.9,1.8-4.5,2.1c-3.7,0.7-8.9,0.7-14.3,0
		c-7.6-1-14.3-5.1-20.8-9c-1.3-0.8-2.6-1.6-3.9-2.3c0.5-0.1,1-0.2,1.5-0.3c5.1-0.8,11.1-0.1,16.9,2c9.4,3.4,17.5,5.1,28.8,3V-565.3z
		 M869.2-569.9c-9.8,1.9-17.2,1.2-28.2-2.8c-6.1-2.2-12.4-3-17.8-2.1c-1.2,0.2-2.3,0.5-3.4,0.8c-4.4-2.4-9-4.5-13.9-5.4
		c-0.1,0-0.2,0-0.3,0c8.1-4.1,16.7-6.8,22.9-3c1.9,1.2,3.7,2.4,5.4,3.6c4.5,3.1,8.7,6.1,15.1,7.1l0.3,0c3.7,0.6,10,1.5,13.8,0.4
		c1.7-0.5,3.2-1.6,4.5-2.7c0.5-0.4,1.1-0.8,1.6-1.1V-569.9z M869.2-576.2l-0.5-0.8c-0.7,0.4-1.4,1-2.1,1.5c-1.2,1-2.5,2-3.9,2.4
		c-3.5,1-9.5,0.1-13.1-0.5l-0.3,0c-6-0.9-9.9-3.6-14.4-6.8c-1.7-1.2-3.5-2.4-5.5-3.6c-7.6-4.6-17.8-0.7-27,4.2
		c-7.5-0.4-14.2,2.6-20.7,5.4c-3.6,1.6-7.3,3.2-11.2,4.3c-2.2-0.8-4-2-5.9-3.2c-1.9-1.2-3.8-2.4-6-3.3c-5-1.9-10.7-1.1-15.9,0.1
		c-1.2-0.6-2.5-1.2-3.8-1.6c-4.3-1.5-9.6-1.8-14.3-0.6c-0.4-0.4-0.9-0.9-1.5-1.4c-3.2-3-8-7.4-12.4-7.8v-6.2c0-1.5,1.2-2.8,2.8-2.8
		h153c1.5,0,2.8,1.2,2.8,2.8V-576.2z"/>
	<circle class="st2" cx="715.7" cy="-539.8" r="1.1"/>
	<circle class="st2" cx="715.7" cy="-535.3" r="1.1"/>
	<circle class="st2" cx="720.2" cy="-539.8" r="1.1"/>
	<circle class="st2" cx="720.2" cy="-535.3" r="1.1"/>
	<circle class="st2" cx="725" cy="-539.8" r="1.1"/>
	<circle class="st2" cx="725" cy="-535.3" r="1.1"/>
	<circle class="st2" cx="729.5" cy="-539.8" r="1.1"/>
	<circle class="st2" cx="729.5" cy="-535.3" r="1.1"/>
	<circle class="st2" cx="734" cy="-539.8" r="1.1"/>
	<circle class="st2" cx="734" cy="-535.3" r="1.1"/>
	<circle class="st2" cx="738.5" cy="-539.8" r="1.1"/>
	<circle class="st2" cx="738.5" cy="-535.3" r="1.1"/>
	<circle class="st2" cx="743.3" cy="-539.8" r="1.1"/>
	<circle class="st2" cx="743.3" cy="-535.3" r="1.1"/>
	<circle class="st2" cx="747.8" cy="-539.8" r="1.1"/>
	<circle class="st2" cx="747.8" cy="-535.3" r="1.1"/>
	<circle class="st2" cx="752.5" cy="-539.8" r="1.1"/>
	<circle class="st2" cx="752.5" cy="-535.3" r="1.1"/>
	<circle class="st2" cx="757" cy="-539.8" r="1.1"/>
	<circle class="st2" cx="757" cy="-535.3" r="1.1"/>
	<circle class="st2" cx="761.8" cy="-539.8" r="1.1"/>
	<circle class="st2" cx="761.8" cy="-535.3" r="1.1"/>
	<circle class="st2" cx="766.3" cy="-539.8" r="1.1"/>
	<circle class="st2" cx="766.3" cy="-535.3" r="1.1"/>
	<circle class="st2" cx="770.8" cy="-539.8" r="1.1"/>
	<circle class="st2" cx="770.8" cy="-535.3" r="1.1"/>
	<circle class="st2" cx="775.3" cy="-539.8" r="1.1"/>
	<circle class="st2" cx="775.3" cy="-535.3" r="1.1"/>
	<circle class="st2" cx="780.1" cy="-539.8" r="1.1"/>
	<circle class="st2" cx="780.1" cy="-535.3" r="1.1"/>
	<circle class="st2" cx="784.6" cy="-539.8" r="1.1"/>
	<circle class="st2" cx="784.6" cy="-535.3" r="1.1"/>
	<circle class="st2" cx="715.7" cy="-530.3" r="1.1"/>
	<circle class="st2" cx="715.7" cy="-525.8" r="1.1"/>
	<circle class="st2" cx="720.2" cy="-530.3" r="1.1"/>
	<circle class="st2" cx="720.2" cy="-525.8" r="1.1"/>
	<circle class="st2" cx="725" cy="-530.3" r="1.1"/>
	<circle class="st2" cx="725" cy="-525.8" r="1.1"/>
	<circle class="st2" cx="729.5" cy="-530.3" r="1.1"/>
	<circle class="st2" cx="729.5" cy="-525.8" r="1.1"/>
	<circle class="st2" cx="734" cy="-530.3" r="1.1"/>
	<circle class="st2" cx="734" cy="-525.8" r="1.1"/>
	<circle class="st2" cx="738.5" cy="-530.3" r="1.1"/>
	<circle class="st2" cx="738.5" cy="-525.8" r="1.1"/>
	<circle class="st2" cx="743.4" cy="-530.3" r="1.1"/>
	<circle class="st2" cx="743.4" cy="-525.8" r="1.1"/>
	<circle class="st2" cx="747.9" cy="-530.3" r="1.1"/>
	<circle class="st2" cx="747.9" cy="-525.8" r="1.1"/>
	<circle class="st2" cx="752.5" cy="-530.3" r="1.1"/>
	<circle class="st2" cx="752.5" cy="-525.8" r="1.1"/>
	<circle class="st2" cx="757" cy="-530.3" r="1.1"/>
	<circle class="st2" cx="757" cy="-525.8" r="1.1"/>
	<circle class="st2" cx="761.8" cy="-530.3" r="1.1"/>
	<circle class="st2" cx="761.8" cy="-525.8" r="1.1"/>
	<circle class="st2" cx="766.3" cy="-530.3" r="1.1"/>
	<circle class="st2" cx="766.3" cy="-525.8" r="1.1"/>
	<circle class="st2" cx="770.8" cy="-530.3" r="1.1"/>
	<circle class="st2" cx="770.8" cy="-525.8" r="1.1"/>
	<circle class="st2" cx="775.3" cy="-530.3" r="1.1"/>
	<circle class="st2" cx="775.3" cy="-525.8" r="1.1"/>
	<circle class="st2" cx="780.2" cy="-530.3" r="1.1"/>
	<circle class="st2" cx="780.2" cy="-525.8" r="1.1"/>
	<circle class="st2" cx="784.7" cy="-530.3" r="1.1"/>
	<circle class="st2" cx="784.7" cy="-525.8" r="1.1"/>
	<circle class="st2" cx="715.4" cy="-521.1" r="1.1"/>
	<circle class="st2" cx="715.4" cy="-516.6" r="1.1"/>
	<circle class="st2" cx="719.9" cy="-521.1" r="1.1"/>
	<circle class="st2" cx="719.9" cy="-516.6" r="1.1"/>
	<circle class="st2" cx="724.7" cy="-521.1" r="1.1"/>
	<circle class="st2" cx="724.7" cy="-516.6" r="1.1"/>
	<circle class="st2" cx="729.2" cy="-521.1" r="1.1"/>
	<circle class="st2" cx="729.2" cy="-516.6" r="1.1"/>
	<circle class="st2" cx="733.7" cy="-521.1" r="1.1"/>
	<circle class="st2" cx="733.7" cy="-516.6" r="1.1"/>
	<circle class="st2" cx="738.2" cy="-521.1" r="1.1"/>
	<circle class="st2" cx="738.2" cy="-516.6" r="1.1"/>
	<circle class="st2" cx="743" cy="-521.1" r="1.1"/>
	<circle class="st2" cx="743" cy="-516.6" r="1.1"/>
	<circle class="st2" cx="747.5" cy="-521.1" r="1.1"/>
	<circle class="st2" cx="747.5" cy="-516.6" r="1.1"/>
	<circle class="st2" cx="752.2" cy="-521.1" r="1.1"/>
	<circle class="st2" cx="752.2" cy="-516.6" r="1.1"/>
	<circle class="st2" cx="756.7" cy="-521.1" r="1.1"/>
	<circle class="st2" cx="756.7" cy="-516.6" r="1.1"/>
	<circle class="st2" cx="761.5" cy="-521.1" r="1.1"/>
	<circle class="st2" cx="761.5" cy="-516.6" r="1.1"/>
	<circle class="st2" cx="766" cy="-521.1" r="1.1"/>
	<circle class="st2" cx="766" cy="-516.6" r="1.1"/>
	<circle class="st2" cx="770.5" cy="-521.1" r="1.1"/>
	<circle class="st2" cx="770.5" cy="-516.6" r="1.1"/>
	<circle class="st2" cx="775" cy="-521.1" r="1.1"/>
	<circle class="st2" cx="775" cy="-516.6" r="1.1"/>
	<circle class="st2" cx="779.8" cy="-521.1" r="1.1"/>
	<circle class="st2" cx="779.8" cy="-516.6" r="1.1"/>
	<circle class="st2" cx="784.3" cy="-521.1" r="1.1"/>
	<circle class="st2" cx="784.3" cy="-516.6" r="1.1"/>
	<circle class="st2" cx="715.4" cy="-511.7" r="1.1"/>
	<circle class="st2" cx="715.4" cy="-507.2" r="1.1"/>
	<circle class="st2" cx="719.9" cy="-511.7" r="1.1"/>
	<circle class="st2" cx="719.9" cy="-507.2" r="1.1"/>
	<circle class="st2" cx="724.7" cy="-511.7" r="1.1"/>
	<circle class="st2" cx="724.7" cy="-507.2" r="1.1"/>
	<circle class="st2" cx="729.2" cy="-511.7" r="1.1"/>
	<circle class="st2" cx="729.2" cy="-507.2" r="1.1"/>
	<circle class="st2" cx="733.7" cy="-511.7" r="1.1"/>
	<circle class="st2" cx="733.7" cy="-507.2" r="1.1"/>
	<circle class="st2" cx="738.2" cy="-511.7" r="1.1"/>
	<circle class="st2" cx="738.2" cy="-507.2" r="1.1"/>
	<circle class="st2" cx="743.1" cy="-511.7" r="1.1"/>
	<circle class="st2" cx="743.1" cy="-507.2" r="1.1"/>
	<circle class="st2" cx="747.6" cy="-511.7" r="1.1"/>
	<circle class="st2" cx="747.6" cy="-507.2" r="1.1"/>
	<circle class="st2" cx="752.2" cy="-511.7" r="1.1"/>
	<circle class="st2" cx="752.2" cy="-507.2" r="1.1"/>
	<circle class="st2" cx="756.7" cy="-511.7" r="1.1"/>
	<circle class="st2" cx="756.7" cy="-507.2" r="1.1"/>
	<circle class="st2" cx="761.5" cy="-511.7" r="1.1"/>
	<circle class="st2" cx="761.5" cy="-507.2" r="1.1"/>
	<circle class="st2" cx="766" cy="-511.7" r="1.1"/>
	<circle class="st2" cx="766" cy="-507.2" r="1.1"/>
	<circle class="st2" cx="770.5" cy="-511.7" r="1.1"/>
	<circle class="st2" cx="770.5" cy="-507.2" r="1.1"/>
	<circle class="st2" cx="775" cy="-511.7" r="1.1"/>
	<circle class="st2" cx="775" cy="-507.2" r="1.1"/>
	<circle class="st2" cx="779.9" cy="-511.7" r="1.1"/>
	<circle class="st2" cx="779.9" cy="-507.2" r="1.1"/>
	<circle class="st2" cx="784.4" cy="-511.7" r="1.1"/>
	<circle class="st2" cx="784.4" cy="-507.2" r="1.1"/>
	<circle class="st2" cx="715.1" cy="-502.2" r="1.1"/>
	<circle class="st2" cx="715.1" cy="-497.7" r="1.1"/>
	<circle class="st2" cx="719.6" cy="-502.2" r="1.1"/>
	<circle class="st2" cx="719.6" cy="-497.7" r="1.1"/>
	<circle class="st2" cx="724.4" cy="-502.2" r="1.1"/>
	<circle class="st2" cx="724.4" cy="-497.7" r="1.1"/>
	<circle class="st2" cx="728.9" cy="-502.2" r="1.1"/>
	<circle class="st2" cx="728.9" cy="-497.7" r="1.1"/>
	<circle class="st2" cx="733.4" cy="-502.2" r="1.1"/>
	<circle class="st2" cx="733.4" cy="-497.7" r="1.1"/>
	<circle class="st2" cx="737.9" cy="-502.2" r="1.1"/>
	<circle class="st2" cx="737.9" cy="-497.7" r="1.1"/>
	<circle class="st2" cx="742.7" cy="-502.2" r="1.1"/>
	<circle class="st2" cx="742.7" cy="-497.7" r="1.1"/>
	<circle class="st2" cx="747.2" cy="-502.2" r="1.1"/>
	<circle class="st2" cx="747.2" cy="-497.7" r="1.1"/>
	<circle class="st2" cx="751.9" cy="-502.2" r="1.1"/>
	<circle class="st2" cx="751.9" cy="-497.7" r="1.1"/>
	<circle class="st2" cx="756.4" cy="-502.2" r="1.1"/>
	<circle class="st2" cx="756.4" cy="-497.7" r="1.1"/>
	<circle class="st2" cx="761.2" cy="-502.2" r="1.1"/>
	<circle class="st2" cx="761.2" cy="-497.7" r="1.1"/>
	<circle class="st2" cx="765.7" cy="-502.2" r="1.1"/>
	<circle class="st2" cx="765.7" cy="-497.7" r="1.1"/>
	<circle class="st2" cx="770.2" cy="-502.2" r="1.1"/>
	<circle class="st2" cx="770.2" cy="-497.7" r="1.1"/>
	<circle class="st2" cx="774.7" cy="-502.2" r="1.1"/>
	<circle class="st2" cx="774.7" cy="-497.7" r="1.1"/>
	<circle class="st2" cx="779.5" cy="-502.2" r="1.1"/>
	<circle class="st2" cx="779.5" cy="-497.7" r="1.1"/>
	<circle class="st2" cx="784" cy="-502.2" r="1.1"/>
	<circle class="st2" cx="784" cy="-497.7" r="1.1"/>
	<circle class="st2" cx="715.1" cy="-492.8" r="1.1"/>
	<circle class="st2" cx="715.1" cy="-488.3" r="1.1"/>
	<circle class="st2" cx="719.6" cy="-492.8" r="1.1"/>
	<circle class="st2" cx="719.6" cy="-488.3" r="1.1"/>
	<circle class="st2" cx="724.4" cy="-492.8" r="1.1"/>
	<circle class="st2" cx="724.4" cy="-488.3" r="1.1"/>
	<circle class="st2" cx="728.9" cy="-492.8" r="1.1"/>
	<circle class="st2" cx="728.9" cy="-488.3" r="1.1"/>
	<circle class="st2" cx="733.4" cy="-492.8" r="1.1"/>
	<circle class="st2" cx="733.4" cy="-488.3" r="1.1"/>
	<circle class="st2" cx="737.9" cy="-492.8" r="1.1"/>
	<circle class="st2" cx="737.9" cy="-488.3" r="1.1"/>
	<circle class="st2" cx="742.8" cy="-492.8" r="1.1"/>
	<circle class="st2" cx="742.8" cy="-488.3" r="1.1"/>
	<circle class="st2" cx="747.3" cy="-492.8" r="1.1"/>
	<circle class="st2" cx="747.3" cy="-488.3" r="1.1"/>
	<circle class="st2" cx="751.9" cy="-492.8" r="1.1"/>
	<circle class="st2" cx="751.9" cy="-488.3" r="1.1"/>
	<circle class="st2" cx="756.4" cy="-492.8" r="1.1"/>
	<circle class="st2" cx="756.4" cy="-488.3" r="1.1"/>
	<circle class="st2" cx="761.2" cy="-492.8" r="1.1"/>
	<circle class="st2" cx="761.2" cy="-488.3" r="1.1"/>
	<circle class="st2" cx="765.7" cy="-492.8" r="1.1"/>
	<circle class="st2" cx="765.7" cy="-488.3" r="1.1"/>
	<circle class="st2" cx="770.2" cy="-492.8" r="1.1"/>
	<circle class="st2" cx="770.2" cy="-488.3" r="1.1"/>
	<circle class="st2" cx="774.7" cy="-492.8" r="1.1"/>
	<circle class="st2" cx="774.7" cy="-488.3" r="1.1"/>
	<circle class="st2" cx="779.6" cy="-492.8" r="1.1"/>
	<circle class="st2" cx="779.6" cy="-488.3" r="1.1"/>
	<circle class="st2" cx="784.1" cy="-492.8" r="1.1"/>
	<circle class="st2" cx="784.1" cy="-488.3" r="1.1"/>
	<circle class="st2" cx="714.8" cy="-483.5" r="1.1"/>
	<circle class="st2" cx="714.8" cy="-479" r="1.1"/>
	<circle class="st2" cx="719.3" cy="-483.5" r="1.1"/>
	<circle class="st2" cx="719.3" cy="-479" r="1.1"/>
	<circle class="st2" cx="724.1" cy="-483.5" r="1.1"/>
	<circle class="st2" cx="724.1" cy="-479" r="1.1"/>
	<circle class="st2" cx="728.6" cy="-483.5" r="1.1"/>
	<circle class="st2" cx="728.6" cy="-479" r="1.1"/>
	<circle class="st2" cx="733.1" cy="-483.5" r="1.1"/>
	<circle class="st2" cx="733.1" cy="-479" r="1.1"/>
	<circle class="st2" cx="737.6" cy="-483.5" r="1.1"/>
	<circle class="st2" cx="737.6" cy="-479" r="1.1"/>
	<circle class="st2" cx="742.4" cy="-483.5" r="1.1"/>
	<circle class="st2" cx="742.4" cy="-479" r="1.1"/>
	<circle class="st2" cx="746.9" cy="-483.5" r="1.1"/>
	<circle class="st2" cx="746.9" cy="-479" r="1.1"/>
	<circle class="st2" cx="751.6" cy="-483.5" r="1.1"/>
	<circle class="st2" cx="751.6" cy="-479" r="1.1"/>
	<circle class="st2" cx="756.1" cy="-483.5" r="1.1"/>
	<circle class="st2" cx="756.1" cy="-479" r="1.1"/>
	<circle class="st2" cx="760.9" cy="-483.5" r="1.1"/>
	<circle class="st2" cx="760.9" cy="-479" r="1.1"/>
	<circle class="st2" cx="765.4" cy="-483.5" r="1.1"/>
	<circle class="st2" cx="765.4" cy="-479" r="1.1"/>
	<circle class="st2" cx="769.9" cy="-483.5" r="1.1"/>
	<circle class="st2" cx="769.9" cy="-479" r="1.1"/>
	<circle class="st2" cx="774.4" cy="-483.5" r="1.1"/>
	<circle class="st2" cx="774.4" cy="-479" r="1.1"/>
	<circle class="st2" cx="779.2" cy="-483.5" r="1.1"/>
	<circle class="st2" cx="779.2" cy="-479" r="1.1"/>
	<circle class="st2" cx="783.7" cy="-483.5" r="1.1"/>
	<circle class="st2" cx="783.7" cy="-479" r="1.1"/>
	<circle class="st2" cx="714.8" cy="-474.1" r="1.1"/>
	<circle class="st2" cx="714.8" cy="-469.6" r="1.1"/>
	<circle class="st2" cx="719.3" cy="-474.1" r="1.1"/>
	<circle class="st2" cx="719.3" cy="-469.6" r="1.1"/>
	<circle class="st2" cx="724.1" cy="-474.1" r="1.1"/>
	<circle class="st2" cx="724.1" cy="-469.6" r="1.1"/>
	<circle class="st2" cx="728.6" cy="-474.1" r="1.1"/>
	<circle class="st2" cx="728.6" cy="-469.6" r="1.1"/>
	<circle class="st2" cx="733.1" cy="-474.1" r="1.1"/>
	<circle class="st2" cx="733.1" cy="-469.6" r="1.1"/>
	<circle class="st2" cx="737.6" cy="-474.1" r="1.1"/>
	<circle class="st2" cx="737.6" cy="-469.6" r="1.1"/>
	<circle class="st2" cx="742.5" cy="-474.1" r="1.1"/>
	<circle class="st2" cx="742.5" cy="-469.6" r="1.1"/>
	<circle class="st2" cx="747" cy="-474.1" r="1.1"/>
	<circle class="st2" cx="747" cy="-469.6" r="1.1"/>
	<circle class="st2" cx="751.6" cy="-474.1" r="1.1"/>
	<circle class="st2" cx="751.6" cy="-469.6" r="1.1"/>
	<circle class="st2" cx="756.1" cy="-474.1" r="1.1"/>
	<circle class="st2" cx="756.1" cy="-469.6" r="1.1"/>
	<circle class="st2" cx="760.9" cy="-474.1" r="1.1"/>
	<circle class="st2" cx="760.9" cy="-469.6" r="1.1"/>
	<circle class="st2" cx="765.4" cy="-474.1" r="1.1"/>
	<circle class="st2" cx="765.4" cy="-469.6" r="1.1"/>
	<circle class="st2" cx="769.9" cy="-474.1" r="1.1"/>
	<circle class="st2" cx="769.9" cy="-469.6" r="1.1"/>
	<circle class="st2" cx="774.4" cy="-474.1" r="1.1"/>
	<circle class="st2" cx="774.4" cy="-469.6" r="1.1"/>
	<circle class="st2" cx="779.3" cy="-474.1" r="1.1"/>
	<circle class="st2" cx="779.3" cy="-469.6" r="1.1"/>
	<circle class="st2" cx="783.8" cy="-474.1" r="1.1"/>
	<circle class="st2" cx="783.8" cy="-469.6" r="1.1"/>
	<circle class="st2" cx="714.6" cy="-465.5" r="1.1"/>
	<circle class="st2" cx="714.6" cy="-461" r="1.1"/>
	<circle class="st2" cx="719.1" cy="-465.5" r="1.1"/>
	<circle class="st2" cx="719.1" cy="-461" r="1.1"/>
	<circle class="st2" cx="724" cy="-465.5" r="1.1"/>
	<circle class="st2" cx="724" cy="-461" r="1.1"/>
	<circle class="st2" cx="728.5" cy="-465.5" r="1.1"/>
	<circle class="st2" cx="728.5" cy="-461" r="1.1"/>
	<circle class="st2" cx="733" cy="-465.5" r="1.1"/>
	<circle class="st2" cx="733" cy="-461" r="1.1"/>
	<circle class="st2" cx="737.5" cy="-465.5" r="1.1"/>
	<circle class="st2" cx="737.5" cy="-461" r="1.1"/>
	<circle class="st2" cx="742.3" cy="-465.5" r="1.1"/>
	<circle class="st2" cx="742.3" cy="-461" r="1.1"/>
	<circle class="st2" cx="746.8" cy="-465.5" r="1.1"/>
	<circle class="st2" cx="746.8" cy="-461" r="1.1"/>
	<circle class="st2" cx="751.4" cy="-465.5" r="1.1"/>
	<circle class="st2" cx="751.4" cy="-461" r="1.1"/>
	<circle class="st2" cx="755.9" cy="-465.5" r="1.1"/>
	<circle class="st2" cx="755.9" cy="-461" r="1.1"/>
	<circle class="st2" cx="760.8" cy="-465.5" r="1.1"/>
	<circle class="st2" cx="760.8" cy="-461" r="1.1"/>
	<circle class="st2" cx="765.3" cy="-465.5" r="1.1"/>
	<circle class="st2" cx="765.3" cy="-461" r="1.1"/>
	<circle class="st2" cx="769.8" cy="-465.5" r="1.1"/>
	<circle class="st2" cx="769.8" cy="-461" r="1.1"/>
	<circle class="st2" cx="774.3" cy="-465.5" r="1.1"/>
	<circle class="st2" cx="774.3" cy="-461" r="1.1"/>
	<circle class="st2" cx="779.1" cy="-465.5" r="1.1"/>
	<circle class="st2" cx="779.1" cy="-461" r="1.1"/>
	<circle class="st2" cx="783.6" cy="-465.5" r="1.1"/>
	<circle class="st2" cx="783.6" cy="-461" r="1.1"/>
	<circle class="st2" cx="714.7" cy="-456" r="1.1"/>
	<circle class="st2" cx="714.7" cy="-451.5" r="1.1"/>
	<circle class="st2" cx="719.2" cy="-456" r="1.1"/>
	<circle class="st2" cx="719.2" cy="-451.5" r="1.1"/>
	<circle class="st2" cx="724" cy="-456" r="1.1"/>
	<circle class="st2" cx="724" cy="-451.5" r="1.1"/>
	<circle class="st2" cx="728.5" cy="-456" r="1.1"/>
	<circle class="st2" cx="728.5" cy="-451.5" r="1.1"/>
	<circle class="st2" cx="733" cy="-456" r="1.1"/>
	<circle class="st2" cx="733" cy="-451.5" r="1.1"/>
	<circle class="st2" cx="737.5" cy="-456" r="1.1"/>
	<circle class="st2" cx="737.5" cy="-451.5" r="1.1"/>
	<circle class="st2" cx="742.3" cy="-456" r="1.1"/>
	<circle class="st2" cx="742.3" cy="-451.5" r="1.1"/>
	<circle class="st2" cx="746.8" cy="-456" r="1.1"/>
	<circle class="st2" cx="746.8" cy="-451.5" r="1.1"/>
	<circle class="st2" cx="751.5" cy="-456" r="1.1"/>
	<circle class="st2" cx="751.5" cy="-451.5" r="1.1"/>
	<circle class="st2" cx="756" cy="-456" r="1.1"/>
	<circle class="st2" cx="756" cy="-451.5" r="1.1"/>
	<circle class="st2" cx="760.8" cy="-456" r="1.1"/>
	<circle class="st2" cx="760.8" cy="-451.5" r="1.1"/>
	<circle class="st2" cx="765.3" cy="-456" r="1.1"/>
	<circle class="st2" cx="765.3" cy="-451.5" r="1.1"/>
	<circle class="st2" cx="769.8" cy="-456" r="1.1"/>
	<circle class="st2" cx="769.8" cy="-451.5" r="1.1"/>
	<circle class="st2" cx="774.3" cy="-456" r="1.1"/>
	<circle class="st2" cx="774.3" cy="-451.5" r="1.1"/>
	<circle class="st2" cx="779.1" cy="-456" r="1.1"/>
	<circle class="st2" cx="779.1" cy="-451.5" r="1.1"/>
	<circle class="st2" cx="783.6" cy="-456" r="1.1"/>
	<circle class="st2" cx="783.6" cy="-451.5" r="1.1"/>
	<circle class="st2" cx="714.3" cy="-446.8" r="1.1"/>
	<circle class="st2" cx="714.3" cy="-442.3" r="1.1"/>
	<circle class="st2" cx="718.8" cy="-446.8" r="1.1"/>
	<circle class="st2" cx="718.8" cy="-442.3" r="1.1"/>
	<circle class="st2" cx="723.7" cy="-446.8" r="1.1"/>
	<circle class="st2" cx="723.7" cy="-442.3" r="1.1"/>
	<circle class="st2" cx="728.2" cy="-446.8" r="1.1"/>
	<circle class="st2" cx="728.2" cy="-442.3" r="1.1"/>
	<circle class="st2" cx="732.7" cy="-446.8" r="1.1"/>
	<circle class="st2" cx="732.7" cy="-442.3" r="1.1"/>
	<circle class="st2" cx="737.2" cy="-446.8" r="1.1"/>
	<circle class="st2" cx="737.2" cy="-442.3" r="1.1"/>
	<circle class="st2" cx="742" cy="-446.8" r="1.1"/>
	<circle class="st2" cx="742" cy="-442.3" r="1.1"/>
	<circle class="st2" cx="746.5" cy="-446.8" r="1.1"/>
	<circle class="st2" cx="746.5" cy="-442.3" r="1.1"/>
	<circle class="st2" cx="751.1" cy="-446.8" r="1.1"/>
	<circle class="st2" cx="751.1" cy="-442.3" r="1.1"/>
	<circle class="st2" cx="755.6" cy="-446.8" r="1.1"/>
	<circle class="st2" cx="755.6" cy="-442.3" r="1.1"/>
	<circle class="st2" cx="760.5" cy="-446.8" r="1.1"/>
	<circle class="st2" cx="760.5" cy="-442.3" r="1.1"/>
	<circle class="st2" cx="765" cy="-446.8" r="1.1"/>
	<circle class="st2" cx="765" cy="-442.3" r="1.1"/>
	<circle class="st2" cx="769.5" cy="-446.8" r="1.1"/>
	<circle class="st2" cx="769.5" cy="-442.3" r="1.1"/>
	<circle class="st2" cx="774" cy="-446.8" r="1.1"/>
	<circle class="st2" cx="774" cy="-442.3" r="1.1"/>
	<circle class="st2" cx="778.8" cy="-446.8" r="1.1"/>
	<circle class="st2" cx="778.8" cy="-442.3" r="1.1"/>
	<circle class="st2" cx="783.3" cy="-446.8" r="1.1"/>
	<circle class="st2" cx="783.3" cy="-442.3" r="1.1"/>
	<path class="st2" d="M802.6-542.8c-2,0-3.6,1.6-3.6,3.6s1.6,3.6,3.6,3.6c2,0,3.6-1.6,3.6-3.6S804.6-542.8,802.6-542.8z"/>
	<path class="st2" d="M820.6-539.2c0-2-1.6-3.6-3.6-3.6s-3.6,1.6-3.6,3.6s1.6,3.6,3.6,3.6S820.6-537.2,820.6-539.2z"/>
	<path class="st2" d="M835-539.2c0-2-1.6-3.6-3.6-3.6c-2,0-3.6,1.6-3.6,3.6s1.6,3.6,3.6,3.6C833.4-535.6,835-537.2,835-539.2z"/>
	<path class="st2" d="M845.8-542.8c-2,0-3.6,1.6-3.6,3.6s1.6,3.6,3.6,3.6s3.6-1.6,3.6-3.6S847.8-542.8,845.8-542.8z"/>
	<path class="st2" d="M831.4-520.5c-9.9,0-18,8.1-18,18c0,9.9,8.1,18,18,18c9.9,0,18-8.1,18-18C849.4-512.4,841.3-520.5,831.4-520.5
		z M832.5-507.7h-2.2v-9h2.2V-507.7z"/>
	<path class="st2" d="M837.7-463.5c2.5,0,4.5-2,4.5-4.5s-2-4.5-4.5-4.5c-2.1,0-3.8,1.4-4.3,3.4h-11v2.2h11
		C833.9-464.9,835.6-463.5,837.7-463.5z"/>
</g>
<g>
	<path class="st5" d="M1103.8-545.3c6.4,0,11.6-5.2,11.6-11.6c0-0.1,0-0.2,0-0.3c1,0.2,1.9,0.3,2.9,0.3c3.1,0,6-0.9,8.6-2.3
		c4.2,4.9,10.5,8.1,17.5,8.1c12.8,0,23.2-10.4,23.2-23.2c0-12.8-10.4-23.2-23.2-23.2c-7,0-13.2,3.2-17.5,8.1
		c-2.5-1.4-5.4-2.3-8.6-2.3c-9.6,0-17.4,7.8-17.4,17.4c0,2.1,0.4,4.1,1.1,6c-5.5,0.9-9.8,5.6-9.8,11.4
		C1092.3-550.5,1097.4-545.3,1103.8-545.3z"/>
	<path class="st5" d="M1166.8-455.6c-11.9-9.4-22.1-20.9-29.7-34.1c-7.8-13.5-13-28.6-15-44.7h-18.3h-18.3c-2,16.1-7.2,31.3-15,44.7
		c-7.6,13.2-17.7,24.8-29.7,34.1h-28.4v3.6h180v-3.6H1166.8z M1074.5-484.4c3.3-5.8,6.1-11.9,8.3-18.3v1.2h42.1v-1.2
		c2.2,6.4,5,12.5,8.3,18.3c5.4,9.4,12.2,17.7,20.2,25h-99C1062.3-466.7,1069.1-475.1,1074.5-484.4z"/>
</g>
<g>
	<g>
		<defs>
			<rect id="SVGID_1_" x="60" y="-622.5" width="180" height="180"/>
		</defs>
		<clipPath id="SVGID_2_">
			<use xlink:href="#SVGID_1_"  style="overflow:visible;"/>
		</clipPath>
		<g class="st6">
			<path class="st7" d="M163.4-557.7c-4.8,0-8.8,3.9-8.8,8.7c0,4.8,3.9,8.8,8.8,8.8c4.8,0,8.7-3.9,8.7-8.8
				C172.1-553.8,168.2-557.7,163.4-557.7z M163.4-542.4c-3.6,0-6.6-2.9-6.6-6.6c0-3.6,2.9-6.6,6.6-6.6c3.6,0,6.6,2.9,6.6,6.6
				C169.9-545.3,167-542.4,163.4-542.4z"/>
			<circle class="st7" cx="163.4" cy="-548.9" r="2.7"/>
			<path class="st7" d="M143.2-546.3l-2.6-2.6l2.6-2.6c1.2-1.2,1.2-3.2,0-4.4c-1.2-1.2-3.2-1.2-4.4,0l-2.6,2.6l-2.6-2.6
				c-1.2-1.2-3.2-1.2-4.4,0c-1.2,1.2-1.2,3.2,0,4.4l2.6,2.6l-2.6,2.6c-1.2,1.2-1.2,3.2,0,4.4c1.2,1.2,3.2,1.2,4.4,0l2.6-2.6l2.6,2.6
				c1.2,1.2,3.2,1.2,4.4,0C144.4-543.2,144.4-545.1,143.2-546.3z"/>
			<path class="st7" d="M131.1-532.3c-0.5,0-0.9,0.4-0.9,0.9v6.1c0,0.5,0.4,0.9,0.9,0.9c0.5,0,0.9-0.4,0.9-0.9v-6.1
				C132-531.9,131.6-532.3,131.1-532.3z"/>
			<path class="st7" d="M133.8-532.3c-0.5,0-0.9,0.4-0.9,0.9v6.1c0,0.5,0.4,0.9,0.9,0.9c0.5,0,0.9-0.4,0.9-0.9v-6.1
				C134.7-531.9,134.3-532.3,133.8-532.3z"/>
			<path class="st7" d="M138.8-532.3c-0.5,0-0.4,0.4-0.4,0.9v6.1c0,0.5,0,0.9,0.4,0.9s0.4-0.4,0.4-0.9v-6.1
				C139.2-531.9,139.2-532.3,138.8-532.3z"/>
			<path class="st7" d="M141.4-532.3c-0.5,0-0.4,0.4-0.4,0.9v6.1c0,0.5,0,0.9,0.4,0.9c0.5,0,0.4-0.4,0.4-0.9v-6.1
				C141.9-531.9,141.9-532.3,141.4-532.3z"/>
			<path class="st7" d="M145.1-532.3c-0.5,0-2.2,0.4-2.2,0.9v6.1c0,0.5,1.8,0.9,2.2,0.9c0.5,0,2.2-0.4,2.2-0.9v-6.1
				C147.3-531.9,145.5-532.3,145.1-532.3z"/>
			<path class="st7" d="M148.6-532.3c-0.5,0-0.4,0.4-0.4,0.9v6.1c0,0.5,0,0.9,0.4,0.9c0.5,0,0.5-0.4,0.5-0.9v-6.1
				C149.1-531.9,149.1-532.3,148.6-532.3z"/>
			<path class="st7" d="M150.9-532.3c-0.5,0-0.9,0.4-0.9,0.9v6.1c0,0.5,0.4,0.9,0.9,0.9c0.5,0,0.9-0.4,0.9-0.9v-6.1
				C151.8-531.9,151.4-532.3,150.9-532.3z"/>
			<path class="st7" d="M154.5-532.3c-0.5,0-1.8,0.4-1.8,0.9v6.1c0,0.5,1.3,0.9,1.8,0.9c0.5,0,1.8-0.4,1.8-0.9v-6.1
				C156.3-531.9,155-532.3,154.5-532.3z"/>
			<path class="st7" d="M158.6-532.3c-0.5,0-0.4,0.4-0.4,0.9v6.1c0,0.5,0,0.9,0.4,0.9c0.5,0,0.4-0.4,0.4-0.9v-6.1
				C159-531.9,159-532.3,158.6-532.3z"/>
			<path class="st7" d="M160.8-532.3c-0.5,0-0.9,0.4-0.9,0.9v6.1c0,0.5,0.4,0.9,0.9,0.9c0.5,0,0.9-0.4,0.9-0.9v-6.1
				C161.7-531.9,161.3-532.3,160.8-532.3z"/>
			<path class="st7" d="M166.2-532.3c-0.5,0-0.9,0.4-0.9,0.9v6.1c0,0.5,0.4,0.9,0.9,0.9c0.5,0,0.9-0.4,0.9-0.9v-6.1
				C167.1-531.9,166.7-532.3,166.2-532.3z"/>
			<path class="st7" d="M168.9-532.3c-0.5,0-0.9,0.4-0.9,0.9v6.1c0,0.5,0.4,0.9,0.9,0.9c0.5,0,0.9-0.4,0.9-0.9v-6.1
				C169.8-531.9,169.4-532.3,168.9-532.3z"/>
			<path class="st7" d="M202.2-549.8l-8.1-4.4v-21c0-4.8-4-9.5-8.8-9.5h-26.7l-0.9-2.7h7.4c1.4,0,2.6-2.2,2.6-3.6
				c0-1.4-1.2-3.6-2.6-3.6h-8.3l-1-3.6h0.6c1.4,0,2.6-1.7,2.6-3.2c0-1.4-1.2-3.1-2.6-3.1h-1.5l-0.3-2.4c0-4.8,0.5-13.4-4.4-13.4
				c-4.8,0-4.4,8.8-4.4,13.6l-0.3,2.2h-1.5c-1.5,0-2.6,1.7-2.6,3.1c0,1.4,1.2,3.2,2.6,3.2h0.6l-1,3.6h-8.3c-1.4,0-2.6,2.2-2.6,3.6
				c0,1.4,1.2,3.6,2.6,3.6h7.4l-0.9,2.7h-26.7c-4.8,0-9.3,4.7-9.3,9.5v21l-9,4.4v17.5l9,4.4v22.7c0,4.8,4.5,8.7,9.3,8.7h70
				c4.8,0,8.8-3.8,8.8-8.7v-22.7l8.1-4.4V-549.8z M185.1-558.6v35v9.6c0,4.8-3.8,9.3-8.6,9.3H124c-4.8,0-10-4.5-10-9.3v-9.6v-35
				v-7.9c0-4.8,5.2-8.4,10-8.4h52.5c4.8,0,8.6,3.6,8.6,8.4V-558.6z"/>
			<path class="st7" d="M84.8-482.9c-7.3,0-13.1,5.9-13.1,13.1c0,7.2,5.9,13.1,13.1,13.1c7.2,0,13.1-5.9,13.1-13.1
				C98-477,92.1-482.9,84.8-482.9z"/>
			<path class="st7" d="M87.9-448.8h-6.1c-5.6,0-11,5.2-11,11.1v22.3c0,5.9,5.4,10.7,11,10.7h6.1c5.6,0,9-4.8,9-10.7v-22.3
				C96.9-443.6,93.4-448.8,87.9-448.8z"/>
			<path class="st7" d="M128.4-317.8c-9.7,0-17.5,7.6-17.5,17.5h35C145.9-310.2,138-317.8,128.4-317.8z"/>
			<path class="st7" d="M140.1-379.8c0-4.8-3.9-8.8-8.8-8.8h-8.6c-4.8,0-8.8,3.9-8.8,8.8v44.6c0,4.8,3.9,8.8,8.8,8.8h8.6
				c4.8,0,8.8-3.9,8.8-8.8V-379.8z"/>
			<path class="st7" d="M215.7-456.6c7.2,0,13.1-5.9,13.1-13.1c0-7.3-5.9-13.1-13.1-13.1c-7.3,0-13.1,5.9-13.1,13.1
				C202.5-462.5,208.4-456.6,215.7-456.6z"/>
			<path class="st7" d="M218.7-448.8h-6.1c-5.6,0-10.4,5.2-10.4,11.1v22.3c0,5.9,4.9,10.7,10.4,10.7h6.1c5.6,0,10.5-4.8,10.5-10.7
				v-22.3C229.2-443.6,224.3-448.8,218.7-448.8z"/>
			<path class="st7" d="M172.1-317.8c-9.7,0-17.5,7.6-17.5,17.5h35C189.6-310.2,181.8-317.8,172.1-317.8z"/>
			<path class="st7" d="M185.1-379.9c0-4.8-4.2-8.7-9.1-8.7h-8.5c-4.8,0-8.6,3.8-8.6,8.7v44.1c0,4.8,3.7,9.3,8.6,9.3h8.5
				c4.8,0,9.1-4.5,9.1-9.3V-379.9z"/>
			<path class="st7" d="M220.3-395.7h-8.7c-4.8,0-9.3,3.5-9.3,8.4v8.8c0,4.8,2.7,8.8,9,8.8v-12.3c0-1.4,1.5-3.7,2.9-3.7h3.5
				c1.4,0,2.6,2.3,2.6,3.7v12.3c3.6,0,9-3.9,9-8.8v-8.8C229.2-392.2,225.1-395.7,220.3-395.7z"/>
			<path class="st7" d="M89-395.7h-8.8c-4.8,0-9.4,3.5-9.4,8.4v8.8c0,4.8,5.4,8.8,8.1,8.8v-12.3c0-1.4,2.5-3.7,4-3.7h3.5
				c1.4,0,1.5,2.3,1.5,3.7v12.3c7.2,0,9-3.9,9-8.8v-8.8C96.9-392.2,93.8-395.7,89-395.7z"/>
			<path class="st7" d="M185.9-485.7h-35.3h-35.3c-2.3,0-4.9,0.3-6.4,1.8c-1.5,1.5-2.9,2.9-2.9,5.3v35.3v35.3c0,2.3,1.4,5,2.9,6.5
				c1.5,1.5,4.1,3,6.4,3h35.3h35.3c2.3,0,4.3-1.5,5.8-3c1.5-1.5,2.4-4.2,2.4-6.5v-35.3v-35.3c0-2.3-0.8-3.7-2.4-5.3
				C190.2-485.5,188.2-485.7,185.9-485.7z"/>
		</g>
	</g>
</g>
<path class="st7" d="M1503.8-491.8c-3.6-12-13.6-24.8-27.4-23.6c-3,0.2-6,1.2-8.6,2.8c-1.3,0.8-2.2,2-3.2,3.1
	c-0.9,1-2.2,3.5-3.5,3.9c-2.6,0.9-6.4-4.6-7.8-6.1c-2.6-3-5.1-6.1-7.5-9.3c-4.7-6.2-8.4-13.1-11.5-20.2c-1.5-3.3-2.3-6.7-3.1-10.2
	c-0.9-4.1-1.6-8.3-0.9-12.4c0.3-1.3,0.6-2.7-0.4-3.8c-1-1-2.3-0.7-3.5-1.2c-3.2-1.4-4.3-4.2-6.4-6.9c-4.3-5.4-9.8-9.8-16.5-11.9
	c-4.7-1.5-10-2.2-15-2.2c-5.6,0-11.2,0.1-16.7,1.3c-2.6,0.6-5.3,1.2-7.9,2.1c-2.1,0.7-5.3,1.1-6.9,2.8c-1.1,1.2-3.4,2-1.4,4
	c1.8,1.7,3.7,3,5.7,4.5c1.9,1.4,3.7,2.8,5.7,4c2.1,1.1,4.2,2.3,5.8,4.1c0.4,0.4,2,0.5,2.6,0.9c1.4,0.8,2.8,1.5,4.3,2.2
	c2.5,1.2,5.1,1.9,7.6,3.2c4,1.9,9.6,1.9,14,2c5.9,0.1,11.4-1.2,17.1-2c0.2,1.5-0.1,3.1-0.9,4.5c-0.8,1.4-2.1,2.2-2.7,3.6
	c-1.5,3.3-2.2,6.9-4.4,9.9c-0.8,1.2-1.2,3.3-1.6,4.7c-0.6,1.7-1.2,3.5-1.6,5.3c-0.5,1.8-0.9,3.7-1,5.6c-0.1,1.8-0.7,3.4-0.9,5.2
	c-0.1,0.9,0.3,1,0.1,2c-0.1,1-0.2,2-0.3,3c-0.2,2-0.4,4-0.6,6.1c-0.2,2.3,0.4,7.5-2.6,8.3c-1.4,0.4-2.4-0.3-3.7-0.4
	c-1.9-0.2-3.8-0.2-5.7,0c-3.7,0.6-6.9,1.4-9.9,3.8c-10.7,8.7-9.3,28.2-1.7,38.5c3.9,5.4,10.3,9.7,17,10.6c7.3,0.9,14.3,1.6,20.9-2.3
	c5.3-3.1,9-8.1,11.2-13.7c2.6-6.4,4.3-14.2,2.3-21c-1.9-6.3-6.4-11.5-12.7-13.6c-2.9-1-6.1-1.2-9.1-0.8c-3.6,0.5-3.8-0.7-3.7-4.2
	c0.4-15.5,4.1-31.6,12.4-44.8c1-1.5,2-3,3.1-4.4c1.2-1.5,1.6-2,2.9-0.3c2.1,2.8,2.2,6.9,3.3,10.1c2.5,7.1,5.9,13.8,9.8,20.1
	c3.8,6,8.4,11.6,13.2,16.9c1.1,1.2,2.2,2.3,3.3,3.4c1.4,1.4,1.7,1.9,0.5,3.6c-1.3,1.9-3.8,2.9-5.4,4.5c-9.7,9.2-4.5,22.1,3.4,30.6
	c4,4.3,9.2,7.7,14.9,9.4c6.7,2,13.5,0.4,19.6-2.6c5.5-2.6,10-6.8,13.3-11.9C1505.4-477.7,1505.9-484.9,1503.8-491.8
	C1502-497.8,1505.8-485,1503.8-491.8z"/>
<g>
	<path class="st7" d="M-549.3-516.7c-3-2.2-5.9-4.3-9.1-6.6c1.4-0.1,2.6-0.1,3.8-0.1c1.2,0,2.4,0,3.6,0c1.2,0,2.4,0,3.8,0
		c1.1-3.5,2.3-7,3.4-10.5c0.1,0,0.1,0,0.2,0c1.1,3.5,2.3,6.9,3.4,10.5c3.7,0,7.3,0,11,0c0,0.1,0.1,0.1,0.1,0.2
		c-0.7,0.6-1.4,1.1-2.2,1.6c-0.7,0.6-1.5,1.1-2.3,1.6c-0.7,0.5-1.5,1-2.2,1.6c-0.7,0.5-1.5,1.1-2.3,1.7c1.1,3.5,2.3,7,3.4,10.4
		c0,0-0.1,0.1-0.1,0.1c-1.5-1.1-3-2.1-4.5-3.2c-1.5-1.1-3-2.1-4.5-3.2c-3,2.2-6,4.3-9,6.5c-0.1,0-0.1-0.1-0.2-0.1
		C-551.5-509.7-550.4-513.2-549.3-516.7z"/>
	<path class="st7" d="M-426-506.2c-2.9-2.1-5.9-4.3-8.9-6.4c-3,2.2-6,4.3-8.9,6.4c-0.1,0-0.1-0.1-0.2-0.1c3-9.2,6-18.3,9-27.5
		c0.1,0,0.1,0,0.2,0c3,9.2,6,18.3,9,27.5C-425.9-506.3-425.9-506.2-426-506.2z"/>
	<path class="st7" d="M-399-516.7c1.1,3.5,2.3,7,3.4,10.5c-0.7-0.2-13.7-9.6-14.8-10.6c1.8-5.6,3.7-11.3,5.6-17c0.1,0,0.1,0,0.2,0
		c1.1,3.5,2.3,6.9,3.4,10.4c3.7,0,7.3,0,11.2,0c-0.7,0.8-1.6,1.2-2.3,1.8c-0.7,0.6-1.5,1.1-2.3,1.6c-0.7,0.5-1.5,1-2.2,1.6
		C-397.5-517.8-398.2-517.2-399-516.7z"/>
	<path class="st7" d="M-511.5-511.6c1.1-3.5,2.2-6.9,3.4-10.4c-3-2.2-5.9-4.3-8.9-6.4c0-0.1,0-0.1,0.1-0.2c9.6,0,19.3,0,28.9,0
		c0,0,0,0.1,0,0.1c0,0,0,0.1,0,0.1c-0.1,0.1-0.2,0.2-0.4,0.3c-7.7,5.5-15.3,11.1-23,16.6C-511.4-511.5-511.4-511.5-511.5-511.6z"/>
	<path class="st7" d="M-458-528.5c-3.1,2.2-6,4.3-9,6.5c1.1,3.5,2.3,7,3.4,10.5c0,0-0.1,0.1-0.1,0.1c-7.8-5.7-15.7-11.3-23.6-17
		C-486.5-528.6-459.2-528.7-458-528.5z"/>
	<path class="st7" d="M-584.2-533.8c3,9.2,6,18.4,9,27.6c0,0-0.1,0.1-0.1,0.1c-4.9-3.5-9.7-7-14.6-10.6c1.9-5.7,3.7-11.4,5.6-17.1
		C-584.4-533.8-584.3-533.8-584.2-533.8z"/>
</g>
<path class="st8" d="M1805.9-526.3c0.1-1,0.3-2.1,0.3-3.1c0-15.5-12.6-28.1-28.1-28.1c-4.7,0-9,1.2-12.8,3.2
	c-5.9-12.9-18.9-22-34.1-22c-20.7,0-37.5,16.8-37.5,37.5c0,4.1,0.8,8,2.1,11.7c-12.2,4.8-20.8,16.6-20.8,30.5
	c0,16.5,12.2,30,28.1,32.3v0.5h4.7h32.8h18.8h30.9h6.6v-0.5c15.9-2.3,28.1-15.8,28.1-32.3C1825-509.8,1817.2-521.1,1805.9-526.3z"/>
<g>
	<path class="st2" d="M152.2,90.5c-32.9,0-59.5,26.6-59.5,59.5c0,32.9,26.6,59.5,59.5,59.5c32.9,0,59.5-26.6,59.5-59.5
		C211.8,117.1,185.1,90.5,152.2,90.5z M152.2,200.6c-27.9,0-50.6-22.6-50.6-50.6c0-27.9,22.6-50.6,50.6-50.6
		c27.9,0,50.6,22.7,50.6,50.6C202.8,177.9,180.2,200.6,152.2,200.6z"/>
	<path class="st2" d="M236.3,102.4h-6.3c-2.1,0-10,56.2-10,56.2c0,1.6,1.7,2.9,3.7,2.9h6.8v32.6c0,2,2,3.6,4.4,3.6h0.8
		c2.4,0,4.4-1.6,4.4-3.6v-35.5v-6v-47.4C240,103.7,238.3,102.4,236.3,102.4z"/>
	<path class="st2" d="M84.8,102.4c-1.5,0-2.8,1.2-2.8,2.8V126h-5.5v-20.9c0-1.5-1.2-2.8-2.8-2.8c-1.5,0-2.8,1.2-2.8,2.8V126h-5.5
		v-20.9c0-1.5-1.2-2.8-2.8-2.8c-1.5,0-2.8,1.2-2.8,2.8V129v1.9v0.1c0,1.6,1.3,3,3,3h5.3v60.7c0,1.7,1.3,3,2.9,3h5.3
		c1.6,0,2.9-1.3,2.9-3v-60.7h5.3c1.6,0,3-1.3,3-3v-0.1V129v-23.8C87.6,103.6,86.3,102.4,84.8,102.4z"/>
	<path class="st2" d="M152.2,108.3c-23,0-41.7,18.7-41.7,41.7c0,23,18.7,41.7,41.7,41.7s41.7-18.6,41.7-41.7
		C193.9,127,175.3,108.3,152.2,108.3z M152.2,190.2c-22.2,0-40.2-18-40.2-40.2c0-22.2,18-40.2,40.2-40.2c22.2,0,40.2,18,40.2,40.2
		S174.4,190.2,152.2,190.2z"/>
</g>
<g>
	<line class="st9" x1="-215.9" y1="90" x2="-124.1" y2="90"/>
	<polyline class="st9" points="-124.1,90 -170,68.3 -215.9,90 	"/>
	<rect x="-206.7" y="90" class="st9" width="72.6" height="23.4"/>
	<rect x="-188.4" y="90" class="st9" width="35.9" height="23.4"/>
	<rect x="-210.9" y="113.4" class="st9" width="81.8" height="14.2"/>
	<rect x="-211.9" y="127.9" class="st9" width="84" height="5.9"/>
	<line class="st9" x1="-169.8" y1="68.3" x2="-169.8" y2="240"/>
	<line class="st9" x1="-147.2" y1="133.7" x2="-133.8" y2="238.3"/>
	<line class="st9" x1="-192.3" y1="133.3" x2="-205.8" y2="237.9"/>
	<line class="st9" x1="-197.3" y1="180.3" x2="-197.3" y2="180.3"/>
	<line class="st9" x1="-199.1" y1="133.7" x2="-212.5" y2="238.3"/>
	<line class="st9" x1="-140.5" y1="133.7" x2="-127" y2="238.3"/>
	<line class="st9" x1="-195.1" y1="156.8" x2="-170.1" y2="174.9"/>
	<line class="st9" x1="-197.3" y1="174.9" x2="-170.1" y2="156.8"/>
	<line class="st9" x1="-145.2" y1="156.8" x2="-170.1" y2="174.9"/>
	<line class="st9" x1="-143" y1="174.9" x2="-170.1" y2="156.8"/>
	<line class="st9" x1="-199.1" y1="190.5" x2="-170.1" y2="211.5"/>
	<line class="st9" x1="-201.6" y1="211.5" x2="-170.1" y2="190.5"/>
	<line class="st9" x1="-141.1" y1="190.5" x2="-170.1" y2="211.5"/>
	<line class="st9" x1="-138.6" y1="211.5" x2="-170.1" y2="190.5"/>
	<line class="st9" x1="-143" y1="60" x2="-143" y2="80.6"/>
</g>
<g>
	<g>
		<g>
			<path class="st8" d="M482,84V60h-24v24h-48v156h120V84H482z M470,66c3.3,0,6,2.7,6,6s-2.7,6-6,6s-6-2.7-6-6S466.7,66,470,66z
				 M524,234H416V90h42v18h24V90h42V234z"/>
			<path class="st8" d="M470,120c-16.6,0-30,13.4-30,30s13.4,30,30,30s30-13.4,30-30S486.6,120,470,120z M470,174
				c-13.2,0-24-10.8-24-24s10.8-24,24-24s24,10.8,24,24S483.2,174,470,174z"/>
			<path class="st8" d="M446,192c-6.6,0-12,5.4-12,12v12h72v-12c0-6.6-5.4-12-12-12H446z"/>
		</g>
		<path class="st8" d="M516.2,135.5c-2.5,1.1-5.2,1.9-8.1,2.2c2.9-1.7,5.1-4.5,6.2-7.8c-2.7,1.6-5.7,2.8-8.9,3.4
			c-2.6-2.7-6.2-4.4-10.3-4.4c-7.8,0-14,6.3-14,14c0,1.1,0.1,2.2,0.4,3.2c-11.7-0.6-22-6.2-28.9-14.7c-1.2,2.1-1.9,4.5-1.9,7.1
			c0,4.9,2.5,9.2,6.2,11.7c-2.3-0.1-4.5-0.7-6.4-1.8c0,0.1,0,0.1,0,0.2c0,6.8,4.8,12.5,11.3,13.8c-1.2,0.3-2.4,0.5-3.7,0.5
			c-0.9,0-1.8-0.1-2.6-0.3c1.8,5.6,7,9.6,13.1,9.8c-4.8,3.8-10.9,6-17.4,6c-1.1,0-2.3-0.1-3.4-0.2c6.2,4,13.6,6.3,21.5,6.3
			c25.8,0,40-21.4,40-40c0-0.6,0-1.2,0-1.8C512,140.7,514.3,138.3,516.2,135.5z"/>
	</g>
</g>
</svg>
