<?xml version="1.0" encoding="utf-8"?>
<!-- Generator: Adobe Illustrator 22.0.0, SVG Export Plug-In . SVG Version: 6.00 Build 0)  -->
<svg version="1.1" id="Layer_1" xmlns="http://www.w3.org/2000/svg" xmlns:xlink="http://www.w3.org/1999/xlink" x="0px" y="0px"
	 viewBox="0 0 300 300" style="enable-background:new 0 0 300 300;" xml:space="preserve">
<style type="text/css">
	.st0{fill:#F9C2C4;}
	.st1{fill:none;}
	.st2{fill:#274255;}
	.st3{fill:#D85C26;}
	.st4{fill:#407D80;}
	.st5{clip-path:url(#SVGID_2_);}
	.st6{fill:#DD4132;}
	.st7{fill:none;stroke:#DD4231;stroke-width:4.2027;stroke-miterlimit:10;}
	.st8{fill:#FFFFFF;}
</style>
<title>mono-bowie</title>
<path class="st0" d="M-1484.3,66.1l1.2-1.2C-1483.6,65.2-1484,65.6-1484.3,66.1z"/>
<path class="st0" d="M-1482.9,64.6l-0.3,0.3c0.5-0.4,1.1-0.7,1.7-1c0-0.2,0-0.5,0-0.7L-1482.9,64.6z"/>
<path class="st0" d="M-1422.2,64.9l1.2,1.2C-1421.4,65.6-1421.7,65.2-1422.2,64.9z"/>
<path class="st0" d="M-1422.4,64.6l-1.4-1.4c0,0.3,0,0.5,0,0.7c0.6,0.3,1.2,0.6,1.7,1L-1422.4,64.6z"/>
<g id="g3956" transform="translate(3.21875,-52.721671)">
	
		<path id="engine-northeast" inkscape:flatsided="true" inkscape:randomized="0" inkscape:rounded="0" inkscape:transform-center-x="-50.000002" inkscape:transform-center-y="-86.602542" sodipodi:arg1="1.0471976" sodipodi:arg2="1.5707963" sodipodi:cx="-90.78598" sodipodi:cy="-58.882366" sodipodi:r1="117.38359" sodipodi:r2="101.65717" sodipodi:sides="6" sodipodi:type="star" class="st1" d="
		M-1069.9,202.7l25.2-43.7l-25.2-43.7l-50.5,0l-25.2,43.7l25.2,43.7L-1069.9,202.7z	">
<title  id="title3942">Northeast engine</title>
	</path>
	<path id="crown-engine-northeast" inkscape:connector-curvature="0" class="st2" d="M-1121.2,113.8l-26.1,45.1l26.1,45.1h52.1
		l26.1-45.1l-26.1-45.1C-1069.1,113.8-1121.2,113.8-1121.2,113.8z M-1119.6,116.7h48.9l24.4,42.3l-24.4,42.3h-48.9L-1144,159
		C-1144,159-1119.6,116.7-1119.6,116.7z	">
<title  id="title3950">Crown for northeast engine</title>
	</path>
	
		<path id="engine-southeast" inkscape:flatsided="true" inkscape:randomized="0" inkscape:rounded="0" inkscape:transform-center-x="-49.999999" inkscape:transform-center-y="86.602537" sodipodi:arg1="1.0471976" sodipodi:arg2="1.5707963" sodipodi:cx="-90.78598" sodipodi:cy="-58.882366" sodipodi:r1="117.38359" sodipodi:r2="101.65717" sodipodi:sides="6" sodipodi:type="star" class="st1" d="
		M-1145.6,246.5l25.2,43.7h50.5l25.2-43.7l-25.2-43.7h-50.5L-1145.6,246.5z	">
<title  id="title3944">Southeast engine</title>
	</path>
	<path id="crown-engine-southeast" inkscape:connector-curvature="0" class="st2" d="M-1121.2,201.3l-26.1,45.1l26.1,45.1h52.1
		l26.1-45.1l-26.1-45.1L-1121.2,201.3L-1121.2,201.3z M-1119.6,204.2h48.9l24.4,42.3l-24.4,42.3h-48.9l-24.4-42.3L-1119.6,204.2
		L-1119.6,204.2z	">
<title  id="title3952">Crown for southeast engine</title>
	</path>
	
		<path id="engine-west" inkscape:flatsided="true" inkscape:randomized="0" inkscape:rounded="0" sodipodi:arg1="1.0471976" sodipodi:arg2="1.5707963" sodipodi:cx="-90.78598" sodipodi:cy="-58.882366" sodipodi:r1="117.38359" sodipodi:r2="101.65717" sodipodi:sides="6" sodipodi:type="star" class="st1" d="
		M-1145.6,159l-50.5,0l-25.2,43.7l25.2,43.7l50.5,0l25.2-43.7L-1145.6,159z	">
<title  id="title3940">West engine</title>
	</path>
	<path id="crown-engine-west" inkscape:connector-curvature="0" class="st2" d="M-1196.9,157.6l-26.1,45.1l26.1,45.1h52.1l26.1-45.1
		l-26.1-45.1H-1196.9z M-1195.3,160.4h48.9l24.4,42.3l-24.4,42.3h-48.9l-24.4-42.3L-1195.3,160.4z	">
<title  id="title3954">Crown for west engine</title>
	</path>
	<path id="triangle" inkscape:connector-curvature="0" class="st2" d="M-1146.4,157.6v90.3l78.2-45.1L-1146.4,157.6z M-1143.6,162.5
		l69.7,40.2l-69.7,40.3V162.5z	">
<title  id="title3948">Triangle</title>
	</path>
	<path id="circle" inkscape:connector-curvature="0" class="st2" d="M-1120.4,152.2c-27.9,0-50.5,22.6-50.5,50.5
		s22.6,50.5,50.5,50.5c27.9,0,50.5-22.6,50.5-50.5S-1092.5,152.2-1120.4,152.2z M-1120.4,155.1c26.3,0,47.7,21.3,47.7,47.7
		s-21.3,47.7-47.7,47.7c-26.3,0-47.7-21.3-47.7-47.7S-1146.7,155.1-1120.4,155.1z	">
<title  id="title3946">Circle</title>
	</path>
</g>
<g>
	<path class="st3" d="M-1345.5,1360.5c0-53.5-43.5-97-97-97c-53.5,0-97,43.5-97,97s43.5,97,97,97
		C-1389,1457.5-1345.5,1414-1345.5,1360.5z M-1535.5,1360.5c0-51.3,41.7-93,93-93s93,41.7,93,93s-41.7,93-93,93
		S-1535.5,1411.8-1535.5,1360.5z"/>
	<path class="st3" d="M-1505.2,1400.9l-6.9,2.3l0.9,1.2l1.7-0.6l1.2,1.7l-1.1,1.4l0.9,1.2l4.5-5.7L-1505.2,1400.9z M-1507.6,1404.6
		l-0.8-1.2l2.7-1.1L-1507.6,1404.6z"/>
	<polygon class="st3" points="-1502.6,1407.5 -1505,1412.5 -1504,1413.7 -1498.7,1409.2 -1499.6,1408.2 -1503.4,1411.4 
		-1500.9,1406.5 -1502,1405.3 -1507.3,1409.8 -1506.4,1410.8 	"/>
	<polygon class="st3" points="-1489.3,1419.4 -1488.5,1418.4 -1492.1,1415.6 -1492.8,1416.5 -1491.6,1417.5 -1494.5,1421 
		-1495.7,1420 -1496.4,1421 -1492.9,1423.8 -1492.1,1422.9 -1493.3,1422 -1490.5,1418.4 	"/>
	<path class="st3" d="M-1484.4,1424.7c0.4-0.1,0.6-0.3,0.9-0.7c0.3-0.5,0.4-1,0.2-1.5c-0.2-0.5-0.6-1-1.4-1.4l-2-1.4l-3.9,5.8l2,1.4
		c0.8,0.6,1.5,0.8,2.1,0.8c0.5,0,1-0.3,1.4-0.8c0.3-0.5,0.4-0.9,0.3-1.3c-0.1-0.4-0.3-0.8-0.8-1.2
		C-1485.2,1424.7-1484.8,1424.7-1484.4,1424.7z M-1486.3,1425.9c-0.2,0.3-0.4,0.5-0.7,0.5c-0.2,0-0.6-0.1-1-0.4l-0.8-0.6l1.1-1.7
		l0.8,0.6c0.4,0.3,0.6,0.5,0.7,0.8C-1486,1425.3-1486.1,1425.6-1486.3,1425.9z M-1484.9,1423.3c-0.2,0.2-0.3,0.4-0.5,0.4
		c-0.2,0-0.5-0.1-0.8-0.3l-0.8-0.6l0.9-1.3l0.8,0.6c0.3,0.2,0.5,0.4,0.6,0.6C-1484.7,1422.9-1484.7,1423.1-1484.9,1423.3z"/>
	<polygon class="st3" points="-1476.3,1426.1 -1477.9,1425.2 -1480.1,1427.5 -1479.5,1424.4 -1481,1423.5 -1484.4,1429.6 
		-1483.2,1430.2 -1480.6,1425.3 -1481.3,1428.4 -1480.2,1429 -1478.1,1426.7 -1480.7,1431.6 -1479.6,1432.2 	"/>
	<path class="st3" d="M-1465,1430.5c-1-0.3-1.8-0.3-2.5,0.1c-0.7,0.4-1.2,1.2-1.6,2.3c-0.4,1.1-0.4,2-0.1,2.8c0.3,0.8,1,1.3,2,1.6
		c0.3,0.1,0.5,0.2,0.8,0.2c0.3,0,0.5,0,0.8,0l0.5-1.5c-0.3,0.1-0.6,0.2-0.9,0.2c-0.3,0-0.5,0-0.8-0.1c-0.5-0.2-0.9-0.5-1-1
		c-0.1-0.5-0.1-1.1,0.1-1.8c0.2-0.7,0.6-1.3,1-1.6c0.4-0.3,0.8-0.4,1.4-0.2c0.2,0.1,0.5,0.2,0.7,0.4c0.2,0.2,0.4,0.4,0.6,0.7
		l0.5-1.5c-0.2-0.2-0.4-0.3-0.6-0.5C-1464.5,1430.7-1464.7,1430.5-1465,1430.5z"/>
	<path class="st3" d="M-1459,1432.1c-0.9-0.2-1.6,0-2.2,0.4c-0.6,0.5-1,1.3-1.3,2.5c-0.3,1.2-0.2,2.1,0.1,2.8
		c0.3,0.7,0.9,1.1,1.8,1.3c0.9,0.2,1.6,0,2.2-0.4c0.6-0.5,1-1.3,1.3-2.5c0.3-1.2,0.2-2.1-0.1-2.8
		C-1457.6,1432.7-1458.1,1432.3-1459,1432.1z M-1458.7,1435.8c-0.2,0.8-0.4,1.4-0.7,1.7c-0.3,0.3-0.6,0.4-1,0.4
		c-0.4-0.1-0.6-0.3-0.7-0.7c-0.1-0.4,0-1,0.1-1.8c0.2-0.8,0.4-1.4,0.7-1.7c0.3-0.3,0.6-0.4,0.9-0.4c0.4,0.1,0.6,0.3,0.7,0.7
		C-1458.5,1434.4-1458.5,1435-1458.7,1435.8z"/>
	<path class="st3" d="M-1453,1433.3l-1.6-0.2l-0.9,6.9l1.6,0.2c1.2,0.2,2.2,0,2.8-0.5c0.6-0.5,1-1.3,1.2-2.5c0.2-1.2,0-2.1-0.5-2.7
		C-1450.9,1433.9-1451.7,1433.5-1453,1433.3z M-1451.5,1437c-0.1,0.8-0.3,1.4-0.6,1.7c-0.3,0.3-0.7,0.4-1.3,0.3l-0.4-0.1l0.6-4.4
		l0.4,0.1c0.6,0.1,1,0.3,1.2,0.7C-1451.4,1435.6-1451.4,1436.2-1451.5,1437z"/>
	<polygon class="st3" points="-1447.7,1440.9 -1442.9,1441.1 -1442.9,1439.9 -1446.1,1439.7 -1446.1,1437.9 -1443.1,1438 
		-1443.1,1436.8 -1446,1436.7 -1446,1435.2 -1442.7,1435.3 -1442.7,1434.1 -1447.4,1433.9 	"/>
	<polygon class="st3" points="-1431.1,1439.1 -1431.4,1437.3 -1428.4,1436.8 -1428.6,1435.6 -1431.5,1436.1 -1431.8,1434.6 
		-1428.5,1434.1 -1428.7,1432.9 -1433.4,1433.6 -1432.4,1440.5 -1427.7,1439.8 -1427.9,1438.6 	"/>
	<polygon class="st3" points="-1421.4,1431.3 -1422.9,1431.6 -1423.8,1434.1 -1425.6,1432.3 -1427.2,1432.6 -1424.2,1435.5 
		-1425.6,1439.4 -1424.1,1439 -1423.2,1436.5 -1421.2,1438.4 -1419.7,1438 -1422.7,1435.1 	"/>
	<path class="st3" d="M-1415.5,1429.8c-0.5-0.2-1.3-0.1-2.3,0.2l-2,0.7l2.2,6.6l1.4-0.5l-0.8-2.5l0.5-0.2c1-0.3,1.7-0.7,2-1.2
		c0.3-0.5,0.4-1.1,0.1-1.8C-1414.6,1430.5-1415,1430-1415.5,1429.8z M-1415.8,1432.5c-0.1,0.2-0.4,0.4-0.9,0.5l-0.6,0.2l-0.7-1.9
		l0.6-0.2c0.5-0.2,0.8-0.2,1.1-0.1c0.2,0.1,0.4,0.3,0.5,0.7C-1415.7,1432.1-1415.7,1432.3-1415.8,1432.5z"/>
	<polygon class="st3" points="-1409.4,1433 -1410.2,1431.4 -1407.5,1430.2 -1408,1429.1 -1410.7,1430.3 -1411.3,1428.9 
		-1408.3,1427.6 -1408.8,1426.5 -1413.1,1428.4 -1410.3,1434.7 -1406,1432.8 -1406.5,1431.7 	"/>
	<path class="st3" d="M-1401.1,1427.3c-0.3-0.2-0.5-0.3-0.6-0.3c-0.1,0-0.3,0-0.4,0c0.4-0.3,0.6-0.6,0.7-1c0.1-0.4,0-0.8-0.2-1.2
		c-0.3-0.6-0.8-1-1.3-1c-0.5-0.1-1.2,0.1-2.1,0.6l-1.9,1.1l3.4,6.1l1.3-0.7l-1.3-2.4l0.4-0.2c0.3-0.2,0.7-0.1,1.2,0.2
		c0.1,0.1,0.1,0.1,0.2,0.1l1.7,1.1l1.4-0.8L-1401.1,1427.3z M-1404.4,1425.5c0.4-0.2,0.7-0.3,0.9-0.2c0.2,0,0.4,0.2,0.6,0.5
		c0.2,0.3,0.2,0.6,0.1,0.8c-0.1,0.2-0.3,0.4-0.7,0.6l-0.6,0.3l-0.9-1.7L-1404.4,1425.5z"/>
	<polygon class="st3" points="-1396.9,1419.3 -1400.7,1421.9 -1400,1422.9 -1398.7,1422 -1396.2,1425.8 -1397.4,1426.6 
		-1396.7,1427.6 -1393,1425 -1393.7,1424 -1394.9,1424.9 -1397.5,1421.2 -1396.3,1420.3 	"/>
	<polygon class="st3" points="-1395.3,1418.1 -1390.9,1423.5 -1389.9,1422.6 -1393.4,1418.3 -1390.9,1420.2 -1389.9,1419.4 
		-1391.3,1416.5 -1387.7,1420.8 -1386.7,1420 -1391.1,1414.6 -1392.5,1415.8 -1391.3,1418.7 -1393.9,1417 	"/>
	<polygon class="st3" points="-1386.3,1409.9 -1389.7,1413.3 -1384.8,1418.2 -1381.4,1414.8 -1382.3,1414 -1384.5,1416.3 
		-1385.8,1415 -1383.8,1412.9 -1384.6,1412 -1386.7,1414.1 -1387.8,1413.1 -1385.5,1410.8 	"/>
	<polygon class="st3" points="-1382.6,1405.5 -1378.7,1408.7 -1383.9,1407.2 -1385,1408.4 -1379.6,1412.8 -1378.8,1411.8 
		-1382.6,1408.6 -1377.4,1410.2 -1376.4,1408.9 -1381.7,1404.5 	"/>
	<polygon class="st3" points="-1376.6,1399.3 -1377.6,1398.6 -1380.6,1403.1 -1379.6,1403.8 -1378.5,1402.2 -1373.8,1405.4 
		-1372.9,1404.2 -1377.7,1400.9 	"/>
	<polygon class="st3" points="-1491.5,1313.4 -1494.9,1309.3 -1494.8,1307 -1486.9,1309.5 -1483.8,1306.9 -1494.5,1303.6 
		-1493.9,1295.2 -1497.1,1297.8 -1497.5,1306.2 -1501.5,1301.5 -1504.3,1303.9 -1494.3,1315.7 	"/>
	<path class="st3" d="M-1485.8,1301.5c1,1.8,2.2,2.9,3.5,3.3c1.3,0.4,3,0,4.9-1.1c1.9-1.1,3.1-2.3,3.6-3.6c0.4-1.3,0.1-2.9-0.9-4.7
		l-4.7-8.6l-3.2,1.8l5.1,9.2c0.4,0.7,0.5,1.3,0.3,1.9c-0.2,0.6-0.7,1.1-1.4,1.5c-0.7,0.4-1.4,0.5-2,0.4s-1.1-0.6-1.5-1.3l-5.1-9.2
		l-3.2,1.8L-1485.8,1301.5z"/>
	<path class="st3" d="M-1469.9,1299.6l5.7-1.8c2.3-0.7,3.9-1.6,4.7-2.5s1-2.2,0.6-3.6c-0.4-1.2-1-2-1.9-2.4c-0.9-0.4-2-0.5-3.4-0.2
		c1.1-0.4,1.9-1,2.3-1.7c0.4-0.7,0.5-1.6,0.2-2.5c-0.4-1.2-1.2-2-2.4-2.3c-1.2-0.3-2.8-0.2-4.7,0.5l-5.7,1.8L-1469.9,1299.6z
		 M-1463.8,1290.9c0.6,0.2,1,0.7,1.2,1.5c0.2,0.8,0.2,1.4-0.2,1.9c-0.3,0.5-1.1,0.9-2.2,1.2l-2.3,0.7l-1.4-4.4l2.3-0.7
		C-1465.2,1290.8-1464.4,1290.7-1463.8,1290.9z M-1468.1,1285.4c0.9-0.3,1.5-0.3,2-0.2c0.5,0.2,0.8,0.5,1,1.1
		c0.2,0.6,0.1,1.1-0.2,1.5c-0.3,0.4-0.9,0.7-1.8,1l-2.3,0.7l-1.1-3.4L-1468.1,1285.4z"/>
	<polygon class="st3" points="-1455.4,1295.4 -1443.9,1294.2 -1444.2,1291.5 -1452,1292.3 -1452.4,1288.3 -1445.3,1287.6 
		-1445.6,1284.9 -1452.7,1285.6 -1453.1,1282.3 -1445.2,1281.5 -1445.5,1278.8 -1457,1280 	"/>
	<path class="st3" d="M-1433.3,1295.2c0.7,0.1,1.4,0.1,2,0c0.6-0.1,1.3-0.2,1.9-0.4l0.3-3.4c-0.7,0.4-1.3,0.7-1.9,0.9
		c-0.6,0.2-1.2,0.2-1.9,0.2c-1.3-0.1-2.3-0.7-2.9-1.6c-0.6-0.9-0.8-2.3-0.7-4c0.2-1.7,0.6-3,1.4-3.8c0.8-0.8,1.8-1.2,3.2-1
		c0.6,0.1,1.2,0.2,1.8,0.5c0.6,0.3,1.1,0.7,1.7,1.2l0.3-3.4c-0.5-0.3-1.1-0.5-1.8-0.7c-0.6-0.2-1.3-0.3-2-0.4
		c-2.5-0.2-4.5,0.3-5.9,1.5c-1.4,1.2-2.3,3.2-2.5,5.8c-0.2,2.6,0.2,4.6,1.4,6.1C-1437.7,1294.1-1435.8,1295-1433.3,1295.2z"/>
	<path class="st3" d="M-1421.7,1283c-1.4,1-2.5,2.7-3.3,5.3c-0.8,2.5-0.8,4.6-0.1,6.2c0.7,1.6,2,2.7,4.1,3.3
		c2.1,0.6,3.8,0.4,5.3-0.5c1.4-1,2.5-2.7,3.3-5.3c0.8-2.5,0.8-4.6,0.1-6.2c-0.7-1.6-2-2.7-4.1-3.3
		C-1418.5,1281.8-1420.2,1282-1421.7,1283z M-1417.2,1285.1c0.9,0.3,1.4,0.9,1.6,1.8c0.2,0.9,0,2.3-0.5,4.1c-0.5,1.8-1.1,3-1.8,3.7
		c-0.7,0.7-1.4,0.9-2.3,0.6c-0.9-0.3-1.4-0.9-1.6-1.8c-0.2-0.9,0-2.3,0.5-4c0.5-1.8,1.1-3,1.8-3.7
		C-1418.9,1285-1418.1,1284.8-1417.2,1285.1z"/>
	<polygon class="st3" points="-1406.3,1289.2 -1403.1,1290.9 -1407.8,1299.8 -1411.1,1298.1 -1412.3,1300.5 -1402.6,1305.7 
		-1401.3,1303.3 -1404.6,1301.5 -1399.8,1292.6 -1396.6,1294.4 -1395.3,1292 -1405.1,1286.8 	"/>
	<polygon class="st3" points="-1387.2,1297.8 -1390.3,1295.3 -1400.1,1307.2 -1397.6,1309.3 -1390.5,1300.6 -1393.6,1312.6 
		-1390.5,1315 -1380.7,1303.1 -1383.2,1301 -1390.3,1309.7 	"/>
	<path class="st3" d="M-1521.3,1368.7c1.2,0,2.3-0.5,3.1-1.3c1.8-1.8,7.5-6.9,7.5-6.9s-5.6-5.2-7.5-6.9c-0.8-0.8-1.9-1.3-3.1-1.3
		c-2.4,0-4.3,2-4.3,4.4c0,1.6,1,3,2.2,3.8c-1.3,0.8-2.2,2.2-2.2,3.8C-1525.7,1366.7-1523.7,1368.7-1521.3,1368.7z"/>
	<path class="st3" d="M-1361.6,1360.5c1.3-0.8,2.2-2.2,2.2-3.8c0-2.4-1.9-4.4-4.3-4.4c-1.2,0-2.3,0.5-3.1,1.3
		c-1.8,1.8-7.5,6.9-7.5,6.9s5.6,5.2,7.5,6.9c0.8,0.8,1.9,1.3,3.1,1.3c2.4,0,4.3-2,4.3-4.4
		C-1359.3,1362.7-1360.3,1361.3-1361.6,1360.5z"/>
	<polygon class="st3" points="-1428.4,1372.3 -1427.9,1372.3 -1428.4,1371.8 	"/>
	<polygon class="st3" points="-1457.1,1372.3 -1456.6,1372.3 -1456.6,1371.8 	"/>
	<path class="st3" d="M-1442.5,1420.3c32,0,57.9-25.9,57.9-57.9c0-32-25.9-57.9-57.9-57.9s-57.9,25.9-57.9,57.9
		C-1500.4,1394.4-1474.5,1420.3-1442.5,1420.3z M-1471.4,1370.5c0-5.4,3.3-9.9,8-11.8c-0.5-1.4-0.8-2.9-0.8-4.5
		c0-8,6.5-14.5,14.5-14.5c5.8,0,10.9,3.5,13.1,8.5c1.5-0.8,3.2-1.2,4.9-1.2c6,0,10.9,4.9,10.9,10.9c0,0.4-0.1,0.8-0.1,1.2
		c4.3,2,7.4,6.4,7.4,11.5c0,6.4-4.7,11.6-10.9,12.5v0.2h-4h-10.4h-7.2h-10.4h-4v-0.2C-1466.7,1382.1-1471.4,1376.9-1471.4,1370.5z"
		/>
</g>
<text transform="matrix(1 0 0 1 -580 179.5)" class="st2" style="font-family:'IBMPlexMono-Bold'; font-size:100.0016px;">&lt;/&gt;</text>
<g>
	<path class="st2" d="M-100.2,127c-2,0-3.6,1.6-3.6,3.6c0,2,1.6,3.6,3.6,3.6s3.6-1.6,3.6-3.6C-96.6,128.7-98.3,127-100.2,127z"/>
	<path class="st2" d="M-139.4,215.8c-4.7,0-8.5,3.8-8.5,8.5s3.8,8.5,8.5,8.5s8.5-3.8,8.5-8.5S-134.7,215.8-139.4,215.8z
		 M-139.4,229.3c-2.8,0-5-2.2-5-5s2.2-5,5-5s5,2.2,5,5S-136.6,229.3-139.4,229.3z"/>
	<path class="st2" d="M-119.6,215.8c-4.7,0-8.5,3.8-8.5,8.5s3.8,8.5,8.5,8.5s8.5-3.8,8.5-8.5S-114.9,215.8-119.6,215.8z
		 M-119.6,229.3c-2.8,0-5-2.2-5-5s2.2-5,5-5s5,2.2,5,5S-116.8,229.3-119.6,229.3z"/>
	<path class="st2" d="M-84.5,60.5h-171c-3.4,0-6.2,2.8-6.2,6.2v171c0,3.4,2.8,6.2,6.2,6.2h171c3.4,0,6.2-2.8,6.2-6.2v-171
		C-78.2,63.3-81.1,60.5-84.5,60.5z M-81.8,237.8c0,1.5-1.2,2.8-2.8,2.8h-171c-1.5,0-2.8-1.2-2.8-2.8v-171c0-1.5,1.2-2.8,2.8-2.8h171
		c1.5,0,2.8,1.2,2.8,2.8V237.8z"/>
	<path class="st2" d="M-93.5,69.6h-153c-3.4,0-6.2,2.8-6.2,6.2v36c0,3.4,2.8,6.2,6.2,6.2h153c3.4,0,6.2-2.8,6.2-6.2v-36
		C-87.2,72.4-90.1,69.6-93.5,69.6z M-249.2,83.8c3.8,0.4,8.2,4.5,11.2,7.3c0.3,0.3,0.6,0.5,0.8,0.8c-0.8,0.3-1.5,0.8-2.3,1.2
		c-1,0.6-2,1.1-2.8,1.4c-0.9,0.3-1.9,0.3-3,0.3c-1.3,0-2.5,0-3.8,0.5l0.6,1.6c1-0.4,2-0.4,3.2-0.4c1.1,0,2.3,0,3.4-0.3
		c1-0.3,2.1-0.9,3.2-1.5c1-0.5,1.9-1.1,2.9-1.4c1.7,1.5,3.5,2.9,5.7,4.5c-0.8,0.3-1.5,0.7-2.3,1c-5.8,2.6-11.8,5.3-16.9,5V83.8z
		 M-213.4,97.5c4.8,2.7,9.3,5.3,16.3,5.3c0,0,0,0,0,0c2.7,0,5.3-0.4,7.8-1c0.5,0.2,1.1,0.3,1.7,0.5c1.7,0.4,3.5,0.7,5.2,0.9
		c-11.7,4.1-27.5,6.2-41.9-3.5c-0.8-0.5-1.5-1-2.2-1.5c1.6-0.6,3.1-1.2,4.6-1.6l0.6-0.2c1.3-0.3,2.6-0.7,3.9-1
		C-216,96-214.7,96.7-213.4,97.5z M-214.8,94.7c4.4-0.9,8.9-1.2,12.8,0.3c2.1,0.8,3.8,1.9,5.7,3.1c1.3,0.8,2.6,1.7,4,2.4
		c-1.6,0.3-3.3,0.5-5,0.5c0,0,0,0,0,0c-6.5,0-10.8-2.4-15.4-5C-213.3,95.5-214,95.1-214.8,94.7z M-165.8,94.9
		c-2.5,1.5-4.9,2.9-6.9,3.9c-1.8,0.9-3.9,1.9-6.2,2.9c-2.4-0.2-4.8-0.6-7.2-1c3-1,5.8-2.3,8.6-3.5c5.6-2.5,10.9-4.8,16.8-5.2
		C-162.4,93-164.1,94-165.8,94.9z M-157.1,91.9c0.9,0.1,1.8,0.2,2.7,0.3c4.2,0.8,8.1,2.4,11.9,4.4c-1.6,0.5-3.2,1.2-4.8,1.8
		c-4.2,1.6-8.1,3.2-12.6,3.4c-4.8,0.2-10.1,0.4-15.3,0.1c1.1-0.5,2.2-1,3.3-1.6c2.1-1.1,4.5-2.5,7-4
		C-162.4,95-159.8,93.4-157.1,91.9z M-221.8,94.6l-0.6,0.2c-1.9,0.5-3.8,1.2-5.8,2.1c-2.1-1.5-3.9-2.9-5.5-4.2
		c4.1-0.8,8.5-0.5,12.1,0.8c0.6,0.2,1.1,0.4,1.7,0.7C-220.5,94.3-221.2,94.5-221.8,94.6z M-90.8,111.8c0,1.5-1.2,2.8-2.8,2.8h-153
		c-1.5,0-2.8-1.2-2.8-2.8v-6.4c0.3,0,0.5,0,0.8,0c5.3,0,11.1-2.6,16.8-5.2c1.1-0.5,2.2-1,3.2-1.4c1,0.7,2,1.4,3.1,2.1
		c7.1,4.8,15.3,7.2,24.2,7.2c7.2,0,14.7-1.6,22.5-4.7c6.5,0.6,13,0.4,18.9,0.1c4.7-0.2,9-1.9,13.1-3.5c2-0.8,4.1-1.6,6.2-2.2
		c1.8,1,3.6,2.1,5.4,3.2c6.7,4,13.5,8.2,21.4,9.3c1.6,0.2,4.6,0.6,8,0.6c2.2,0,4.6-0.1,6.8-0.6c1.9-0.4,3.6-1.4,5.1-2.3
		c1-0.6,1.9-1.2,2.8-1.5V111.8z M-90.8,104.7c-1.3,0.3-2.5,1.1-3.7,1.8c-1.4,0.9-2.9,1.8-4.5,2.1c-3.7,0.7-8.9,0.7-14.3,0
		c-7.6-1-14.3-5.1-20.8-9c-1.3-0.8-2.6-1.6-3.9-2.3c0.5-0.1,1-0.2,1.5-0.3c5.1-0.8,11.1-0.1,16.9,2c9.4,3.4,17.5,5.1,28.8,3V104.7z
		 M-90.8,100.1c-9.8,1.9-17.2,1.2-28.2-2.8c-6.1-2.2-12.4-3-17.8-2.1c-1.2,0.2-2.3,0.5-3.4,0.8c-4.4-2.4-9-4.5-13.9-5.4
		c-0.1,0-0.2,0-0.3,0c8.1-4.1,16.7-6.8,22.9-3c1.9,1.2,3.7,2.4,5.4,3.6c4.5,3.1,8.7,6.1,15.1,7.1l0.3,0c3.7,0.6,10,1.5,13.8,0.4
		c1.7-0.5,3.2-1.6,4.5-2.7c0.5-0.4,1.1-0.8,1.6-1.1V100.1z M-90.8,93.8l-0.5-0.8c-0.7,0.4-1.4,1-2.1,1.5c-1.2,1-2.5,2-3.9,2.4
		c-3.5,1-9.5,0.1-13.1-0.5l-0.3,0c-6-0.9-9.9-3.6-14.4-6.8c-1.7-1.2-3.5-2.4-5.5-3.6c-7.6-4.6-17.8-0.7-27,4.2
		c-7.5-0.4-14.2,2.6-20.7,5.4c-3.6,1.6-7.3,3.2-11.2,4.3c-2.2-0.8-4-2-5.9-3.2c-1.9-1.2-3.8-2.4-6-3.3c-5-1.9-10.7-1.1-15.9,0.1
		c-1.2-0.6-2.5-1.2-3.8-1.6c-4.3-1.5-9.6-1.8-14.3-0.6c-0.4-0.4-0.9-0.9-1.5-1.4c-3.2-3-8-7.4-12.4-7.8v-6.2c0-1.5,1.2-2.8,2.8-2.8
		h153c1.5,0,2.8,1.2,2.8,2.8V93.8z"/>
	<circle class="st2" cx="-244.3" cy="130.2" r="1.1"/>
	<circle class="st2" cx="-244.3" cy="134.7" r="1.1"/>
	<circle class="st2" cx="-239.8" cy="130.2" r="1.1"/>
	<circle class="st2" cx="-239.8" cy="134.7" r="1.1"/>
	<circle class="st2" cx="-235" cy="130.2" r="1.1"/>
	<circle class="st2" cx="-235" cy="134.7" r="1.1"/>
	<circle class="st2" cx="-230.5" cy="130.2" r="1.1"/>
	<circle class="st2" cx="-230.5" cy="134.7" r="1.1"/>
	<circle class="st2" cx="-226" cy="130.2" r="1.1"/>
	<circle class="st2" cx="-226" cy="134.7" r="1.1"/>
	<circle class="st2" cx="-221.5" cy="130.2" r="1.1"/>
	<circle class="st2" cx="-221.5" cy="134.7" r="1.1"/>
	<circle class="st2" cx="-216.7" cy="130.2" r="1.1"/>
	<circle class="st2" cx="-216.7" cy="134.7" r="1.1"/>
	<circle class="st2" cx="-212.2" cy="130.2" r="1.1"/>
	<circle class="st2" cx="-212.2" cy="134.7" r="1.1"/>
	<circle class="st2" cx="-207.5" cy="130.2" r="1.1"/>
	<circle class="st2" cx="-207.5" cy="134.7" r="1.1"/>
	<circle class="st2" cx="-203" cy="130.2" r="1.1"/>
	<circle class="st2" cx="-203" cy="134.7" r="1.1"/>
	<circle class="st2" cx="-198.2" cy="130.2" r="1.1"/>
	<circle class="st2" cx="-198.2" cy="134.7" r="1.1"/>
	<circle class="st2" cx="-193.7" cy="130.2" r="1.1"/>
	<circle class="st2" cx="-193.7" cy="134.7" r="1.1"/>
	<circle class="st2" cx="-189.2" cy="130.2" r="1.1"/>
	<circle class="st2" cx="-189.2" cy="134.7" r="1.1"/>
	<circle class="st2" cx="-184.7" cy="130.2" r="1.1"/>
	<circle class="st2" cx="-184.7" cy="134.7" r="1.1"/>
	<circle class="st2" cx="-179.9" cy="130.2" r="1.1"/>
	<circle class="st2" cx="-179.9" cy="134.7" r="1.1"/>
	<circle class="st2" cx="-175.4" cy="130.2" r="1.1"/>
	<circle class="st2" cx="-175.4" cy="134.7" r="1.1"/>
	<circle class="st2" cx="-244.3" cy="139.7" r="1.1"/>
	<circle class="st2" cx="-244.3" cy="144.2" r="1.1"/>
	<circle class="st2" cx="-239.8" cy="139.7" r="1.1"/>
	<circle class="st2" cx="-239.8" cy="144.2" r="1.1"/>
	<circle class="st2" cx="-235" cy="139.7" r="1.1"/>
	<circle class="st2" cx="-235" cy="144.2" r="1.1"/>
	<circle class="st2" cx="-230.5" cy="139.7" r="1.1"/>
	<circle class="st2" cx="-230.5" cy="144.2" r="1.1"/>
	<circle class="st2" cx="-226" cy="139.7" r="1.1"/>
	<circle class="st2" cx="-226" cy="144.2" r="1.1"/>
	<circle class="st2" cx="-221.5" cy="139.7" r="1.1"/>
	<circle class="st2" cx="-221.5" cy="144.2" r="1.1"/>
	<circle class="st2" cx="-216.6" cy="139.7" r="1.1"/>
	<circle class="st2" cx="-216.6" cy="144.2" r="1.1"/>
	<circle class="st2" cx="-212.1" cy="139.7" r="1.1"/>
	<circle class="st2" cx="-212.1" cy="144.2" r="1.1"/>
	<circle class="st2" cx="-207.5" cy="139.7" r="1.1"/>
	<circle class="st2" cx="-207.5" cy="144.2" r="1.1"/>
	<circle class="st2" cx="-203" cy="139.7" r="1.1"/>
	<circle class="st2" cx="-203" cy="144.2" r="1.1"/>
	<circle class="st2" cx="-198.2" cy="139.7" r="1.1"/>
	<circle class="st2" cx="-198.2" cy="144.2" r="1.1"/>
	<circle class="st2" cx="-193.7" cy="139.7" r="1.1"/>
	<circle class="st2" cx="-193.7" cy="144.2" r="1.1"/>
	<circle class="st2" cx="-189.2" cy="139.7" r="1.1"/>
	<circle class="st2" cx="-189.2" cy="144.2" r="1.1"/>
	<circle class="st2" cx="-184.7" cy="139.7" r="1.1"/>
	<circle class="st2" cx="-184.7" cy="144.2" r="1.1"/>
	<circle class="st2" cx="-179.8" cy="139.7" r="1.1"/>
	<circle class="st2" cx="-179.8" cy="144.2" r="1.1"/>
	<circle class="st2" cx="-175.3" cy="139.7" r="1.1"/>
	<circle class="st2" cx="-175.3" cy="144.2" r="1.1"/>
	<circle class="st2" cx="-244.6" cy="148.9" r="1.1"/>
	<circle class="st2" cx="-244.6" cy="153.4" r="1.1"/>
	<circle class="st2" cx="-240.1" cy="148.9" r="1.1"/>
	<circle class="st2" cx="-240.1" cy="153.4" r="1.1"/>
	<circle class="st2" cx="-235.3" cy="148.9" r="1.1"/>
	<circle class="st2" cx="-235.3" cy="153.4" r="1.1"/>
	<circle class="st2" cx="-230.8" cy="148.9" r="1.1"/>
	<circle class="st2" cx="-230.8" cy="153.4" r="1.1"/>
	<circle class="st2" cx="-226.3" cy="148.9" r="1.1"/>
	<circle class="st2" cx="-226.3" cy="153.4" r="1.1"/>
	<circle class="st2" cx="-221.8" cy="148.9" r="1.1"/>
	<circle class="st2" cx="-221.8" cy="153.4" r="1.1"/>
	<circle class="st2" cx="-217" cy="148.9" r="1.1"/>
	<circle class="st2" cx="-217" cy="153.4" r="1.1"/>
	<circle class="st2" cx="-212.5" cy="148.9" r="1.1"/>
	<circle class="st2" cx="-212.5" cy="153.4" r="1.1"/>
	<circle class="st2" cx="-207.8" cy="148.9" r="1.1"/>
	<circle class="st2" cx="-207.8" cy="153.4" r="1.1"/>
	<circle class="st2" cx="-203.3" cy="148.9" r="1.1"/>
	<circle class="st2" cx="-203.3" cy="153.4" r="1.1"/>
	<circle class="st2" cx="-198.5" cy="148.9" r="1.1"/>
	<circle class="st2" cx="-198.5" cy="153.4" r="1.1"/>
	<circle class="st2" cx="-194" cy="148.9" r="1.1"/>
	<circle class="st2" cx="-194" cy="153.4" r="1.1"/>
	<circle class="st2" cx="-189.5" cy="148.9" r="1.1"/>
	<circle class="st2" cx="-189.5" cy="153.4" r="1.1"/>
	<circle class="st2" cx="-185" cy="148.9" r="1.1"/>
	<circle class="st2" cx="-185" cy="153.4" r="1.1"/>
	<circle class="st2" cx="-180.2" cy="148.9" r="1.1"/>
	<circle class="st2" cx="-180.2" cy="153.4" r="1.1"/>
	<circle class="st2" cx="-175.7" cy="148.9" r="1.1"/>
	<circle class="st2" cx="-175.7" cy="153.4" r="1.1"/>
	<circle class="st2" cx="-244.6" cy="158.3" r="1.1"/>
	<circle class="st2" cx="-244.6" cy="162.8" r="1.1"/>
	<circle class="st2" cx="-240.1" cy="158.3" r="1.1"/>
	<circle class="st2" cx="-240.1" cy="162.8" r="1.1"/>
	<circle class="st2" cx="-235.3" cy="158.3" r="1.1"/>
	<circle class="st2" cx="-235.3" cy="162.8" r="1.1"/>
	<circle class="st2" cx="-230.8" cy="158.3" r="1.1"/>
	<circle class="st2" cx="-230.8" cy="162.8" r="1.1"/>
	<circle class="st2" cx="-226.3" cy="158.3" r="1.1"/>
	<circle class="st2" cx="-226.3" cy="162.8" r="1.1"/>
	<circle class="st2" cx="-221.8" cy="158.3" r="1.1"/>
	<circle class="st2" cx="-221.8" cy="162.8" r="1.1"/>
	<circle class="st2" cx="-216.9" cy="158.3" r="1.1"/>
	<circle class="st2" cx="-216.9" cy="162.8" r="1.1"/>
	<circle class="st2" cx="-212.4" cy="158.3" r="1.1"/>
	<circle class="st2" cx="-212.4" cy="162.8" r="1.1"/>
	<circle class="st2" cx="-207.8" cy="158.3" r="1.1"/>
	<circle class="st2" cx="-207.8" cy="162.8" r="1.1"/>
	<circle class="st2" cx="-203.3" cy="158.3" r="1.1"/>
	<circle class="st2" cx="-203.3" cy="162.8" r="1.1"/>
	<circle class="st2" cx="-198.5" cy="158.3" r="1.1"/>
	<circle class="st2" cx="-198.5" cy="162.8" r="1.1"/>
	<circle class="st2" cx="-194" cy="158.3" r="1.1"/>
	<circle class="st2" cx="-194" cy="162.8" r="1.1"/>
	<circle class="st2" cx="-189.5" cy="158.3" r="1.1"/>
	<circle class="st2" cx="-189.5" cy="162.8" r="1.1"/>
	<circle class="st2" cx="-185" cy="158.3" r="1.1"/>
	<circle class="st2" cx="-185" cy="162.8" r="1.1"/>
	<circle class="st2" cx="-180.1" cy="158.3" r="1.1"/>
	<circle class="st2" cx="-180.1" cy="162.8" r="1.1"/>
	<circle class="st2" cx="-175.6" cy="158.3" r="1.1"/>
	<circle class="st2" cx="-175.6" cy="162.8" r="1.1"/>
	<circle class="st2" cx="-244.9" cy="167.8" r="1.1"/>
	<circle class="st2" cx="-244.9" cy="172.3" r="1.1"/>
	<circle class="st2" cx="-240.4" cy="167.8" r="1.1"/>
	<circle class="st2" cx="-240.4" cy="172.3" r="1.1"/>
	<circle class="st2" cx="-235.6" cy="167.8" r="1.1"/>
	<circle class="st2" cx="-235.6" cy="172.3" r="1.1"/>
	<circle class="st2" cx="-231.1" cy="167.8" r="1.1"/>
	<circle class="st2" cx="-231.1" cy="172.3" r="1.1"/>
	<circle class="st2" cx="-226.6" cy="167.8" r="1.1"/>
	<circle class="st2" cx="-226.6" cy="172.3" r="1.1"/>
	<circle class="st2" cx="-222.1" cy="167.8" r="1.1"/>
	<circle class="st2" cx="-222.1" cy="172.3" r="1.1"/>
	<circle class="st2" cx="-217.3" cy="167.8" r="1.1"/>
	<circle class="st2" cx="-217.3" cy="172.3" r="1.1"/>
	<circle class="st2" cx="-212.8" cy="167.8" r="1.1"/>
	<circle class="st2" cx="-212.8" cy="172.3" r="1.1"/>
	<circle class="st2" cx="-208.1" cy="167.8" r="1.1"/>
	<circle class="st2" cx="-208.1" cy="172.3" r="1.1"/>
	<circle class="st2" cx="-203.6" cy="167.8" r="1.1"/>
	<circle class="st2" cx="-203.6" cy="172.3" r="1.1"/>
	<circle class="st2" cx="-198.8" cy="167.8" r="1.1"/>
	<circle class="st2" cx="-198.8" cy="172.3" r="1.1"/>
	<circle class="st2" cx="-194.3" cy="167.8" r="1.1"/>
	<circle class="st2" cx="-194.3" cy="172.3" r="1.1"/>
	<circle class="st2" cx="-189.8" cy="167.8" r="1.1"/>
	<circle class="st2" cx="-189.8" cy="172.3" r="1.1"/>
	<circle class="st2" cx="-185.3" cy="167.8" r="1.1"/>
	<circle class="st2" cx="-185.3" cy="172.3" r="1.1"/>
	<circle class="st2" cx="-180.5" cy="167.8" r="1.1"/>
	<circle class="st2" cx="-180.5" cy="172.3" r="1.1"/>
	<circle class="st2" cx="-176" cy="167.8" r="1.1"/>
	<circle class="st2" cx="-176" cy="172.3" r="1.1"/>
	<circle class="st2" cx="-244.9" cy="177.2" r="1.1"/>
	<circle class="st2" cx="-244.9" cy="181.7" r="1.1"/>
	<circle class="st2" cx="-240.4" cy="177.2" r="1.1"/>
	<circle class="st2" cx="-240.4" cy="181.7" r="1.1"/>
	<circle class="st2" cx="-235.6" cy="177.2" r="1.1"/>
	<circle class="st2" cx="-235.6" cy="181.7" r="1.1"/>
	<circle class="st2" cx="-231.1" cy="177.2" r="1.1"/>
	<circle class="st2" cx="-231.1" cy="181.7" r="1.1"/>
	<circle class="st2" cx="-226.6" cy="177.2" r="1.1"/>
	<circle class="st2" cx="-226.6" cy="181.7" r="1.1"/>
	<circle class="st2" cx="-222.1" cy="177.2" r="1.1"/>
	<circle class="st2" cx="-222.1" cy="181.7" r="1.1"/>
	<circle class="st2" cx="-217.2" cy="177.2" r="1.1"/>
	<circle class="st2" cx="-217.2" cy="181.7" r="1.1"/>
	<circle class="st2" cx="-212.7" cy="177.2" r="1.1"/>
	<circle class="st2" cx="-212.7" cy="181.7" r="1.1"/>
	<circle class="st2" cx="-208.1" cy="177.2" r="1.1"/>
	<circle class="st2" cx="-208.1" cy="181.7" r="1.1"/>
	<circle class="st2" cx="-203.6" cy="177.2" r="1.1"/>
	<circle class="st2" cx="-203.6" cy="181.7" r="1.1"/>
	<circle class="st2" cx="-198.8" cy="177.2" r="1.1"/>
	<circle class="st2" cx="-198.8" cy="181.7" r="1.1"/>
	<circle class="st2" cx="-194.3" cy="177.2" r="1.1"/>
	<circle class="st2" cx="-194.3" cy="181.7" r="1.1"/>
	<circle class="st2" cx="-189.8" cy="177.2" r="1.1"/>
	<circle class="st2" cx="-189.8" cy="181.7" r="1.1"/>
	<circle class="st2" cx="-185.3" cy="177.2" r="1.1"/>
	<circle class="st2" cx="-185.3" cy="181.7" r="1.1"/>
	<circle class="st2" cx="-180.4" cy="177.2" r="1.1"/>
	<circle class="st2" cx="-180.4" cy="181.7" r="1.1"/>
	<circle class="st2" cx="-175.9" cy="177.2" r="1.1"/>
	<circle class="st2" cx="-175.9" cy="181.7" r="1.1"/>
	<circle class="st2" cx="-245.2" cy="186.5" r="1.1"/>
	<circle class="st2" cx="-245.2" cy="191" r="1.1"/>
	<circle class="st2" cx="-240.7" cy="186.5" r="1.1"/>
	<circle class="st2" cx="-240.7" cy="191" r="1.1"/>
	<circle class="st2" cx="-235.9" cy="186.5" r="1.1"/>
	<circle class="st2" cx="-235.9" cy="191" r="1.1"/>
	<circle class="st2" cx="-231.4" cy="186.5" r="1.1"/>
	<circle class="st2" cx="-231.4" cy="191" r="1.1"/>
	<circle class="st2" cx="-226.9" cy="186.5" r="1.1"/>
	<circle class="st2" cx="-226.9" cy="191" r="1.1"/>
	<circle class="st2" cx="-222.4" cy="186.5" r="1.1"/>
	<circle class="st2" cx="-222.4" cy="191" r="1.1"/>
	<circle class="st2" cx="-217.6" cy="186.5" r="1.1"/>
	<circle class="st2" cx="-217.6" cy="191" r="1.1"/>
	<circle class="st2" cx="-213.1" cy="186.5" r="1.1"/>
	<circle class="st2" cx="-213.1" cy="191" r="1.1"/>
	<circle class="st2" cx="-208.4" cy="186.5" r="1.1"/>
	<circle class="st2" cx="-208.4" cy="191" r="1.1"/>
	<circle class="st2" cx="-203.9" cy="186.5" r="1.1"/>
	<circle class="st2" cx="-203.9" cy="191" r="1.1"/>
	<circle class="st2" cx="-199.1" cy="186.5" r="1.1"/>
	<circle class="st2" cx="-199.1" cy="191" r="1.1"/>
	<circle class="st2" cx="-194.6" cy="186.5" r="1.1"/>
	<circle class="st2" cx="-194.6" cy="191" r="1.1"/>
	<circle class="st2" cx="-190.1" cy="186.5" r="1.1"/>
	<circle class="st2" cx="-190.1" cy="191" r="1.1"/>
	<circle class="st2" cx="-185.6" cy="186.5" r="1.1"/>
	<circle class="st2" cx="-185.6" cy="191" r="1.1"/>
	<circle class="st2" cx="-180.8" cy="186.5" r="1.1"/>
	<circle class="st2" cx="-180.8" cy="191" r="1.1"/>
	<circle class="st2" cx="-176.3" cy="186.5" r="1.1"/>
	<circle class="st2" cx="-176.3" cy="191" r="1.1"/>
	<circle class="st2" cx="-245.2" cy="195.9" r="1.1"/>
	<circle class="st2" cx="-245.2" cy="200.4" r="1.1"/>
	<circle class="st2" cx="-240.7" cy="195.9" r="1.1"/>
	<circle class="st2" cx="-240.7" cy="200.4" r="1.1"/>
	<circle class="st2" cx="-235.9" cy="195.9" r="1.1"/>
	<circle class="st2" cx="-235.9" cy="200.4" r="1.1"/>
	<circle class="st2" cx="-231.4" cy="195.9" r="1.1"/>
	<circle class="st2" cx="-231.4" cy="200.4" r="1.1"/>
	<circle class="st2" cx="-226.9" cy="195.9" r="1.1"/>
	<circle class="st2" cx="-226.9" cy="200.4" r="1.1"/>
	<circle class="st2" cx="-222.4" cy="195.9" r="1.1"/>
	<circle class="st2" cx="-222.4" cy="200.4" r="1.1"/>
	<circle class="st2" cx="-217.5" cy="195.9" r="1.1"/>
	<circle class="st2" cx="-217.5" cy="200.4" r="1.1"/>
	<circle class="st2" cx="-213" cy="195.9" r="1.1"/>
	<circle class="st2" cx="-213" cy="200.4" r="1.1"/>
	<circle class="st2" cx="-208.4" cy="195.9" r="1.1"/>
	<circle class="st2" cx="-208.4" cy="200.4" r="1.1"/>
	<circle class="st2" cx="-203.9" cy="195.9" r="1.1"/>
	<circle class="st2" cx="-203.9" cy="200.4" r="1.1"/>
	<circle class="st2" cx="-199.1" cy="195.9" r="1.1"/>
	<circle class="st2" cx="-199.1" cy="200.4" r="1.1"/>
	<circle class="st2" cx="-194.6" cy="195.9" r="1.1"/>
	<circle class="st2" cx="-194.6" cy="200.4" r="1.1"/>
	<circle class="st2" cx="-190.1" cy="195.9" r="1.1"/>
	<circle class="st2" cx="-190.1" cy="200.4" r="1.1"/>
	<circle class="st2" cx="-185.6" cy="195.9" r="1.1"/>
	<circle class="st2" cx="-185.6" cy="200.4" r="1.1"/>
	<circle class="st2" cx="-180.7" cy="195.9" r="1.1"/>
	<circle class="st2" cx="-180.7" cy="200.4" r="1.1"/>
	<circle class="st2" cx="-176.2" cy="195.9" r="1.1"/>
	<circle class="st2" cx="-176.2" cy="200.4" r="1.1"/>
	<circle class="st2" cx="-245.4" cy="204.5" r="1.1"/>
	<circle class="st2" cx="-245.4" cy="209" r="1.1"/>
	<circle class="st2" cx="-240.9" cy="204.5" r="1.1"/>
	<circle class="st2" cx="-240.9" cy="209" r="1.1"/>
	<circle class="st2" cx="-236" cy="204.5" r="1.1"/>
	<circle class="st2" cx="-236" cy="209" r="1.1"/>
	<circle class="st2" cx="-231.5" cy="204.5" r="1.1"/>
	<circle class="st2" cx="-231.5" cy="209" r="1.1"/>
	<circle class="st2" cx="-227" cy="204.5" r="1.1"/>
	<circle class="st2" cx="-227" cy="209" r="1.1"/>
	<circle class="st2" cx="-222.5" cy="204.5" r="1.1"/>
	<circle class="st2" cx="-222.5" cy="209" r="1.1"/>
	<circle class="st2" cx="-217.7" cy="204.5" r="1.1"/>
	<circle class="st2" cx="-217.7" cy="209" r="1.1"/>
	<circle class="st2" cx="-213.2" cy="204.5" r="1.1"/>
	<circle class="st2" cx="-213.2" cy="209" r="1.1"/>
	<circle class="st2" cx="-208.6" cy="204.5" r="1.1"/>
	<circle class="st2" cx="-208.6" cy="209" r="1.1"/>
	<circle class="st2" cx="-204.1" cy="204.5" r="1.1"/>
	<circle class="st2" cx="-204.1" cy="209" r="1.1"/>
	<circle class="st2" cx="-199.2" cy="204.5" r="1.1"/>
	<circle class="st2" cx="-199.2" cy="209" r="1.1"/>
	<circle class="st2" cx="-194.7" cy="204.5" r="1.1"/>
	<circle class="st2" cx="-194.7" cy="209" r="1.1"/>
	<circle class="st2" cx="-190.2" cy="204.5" r="1.1"/>
	<circle class="st2" cx="-190.2" cy="209" r="1.1"/>
	<circle class="st2" cx="-185.7" cy="204.5" r="1.1"/>
	<circle class="st2" cx="-185.7" cy="209" r="1.1"/>
	<circle class="st2" cx="-180.9" cy="204.5" r="1.1"/>
	<circle class="st2" cx="-180.9" cy="209" r="1.1"/>
	<circle class="st2" cx="-176.4" cy="204.5" r="1.1"/>
	<circle class="st2" cx="-176.4" cy="209" r="1.1"/>
	<circle class="st2" cx="-245.3" cy="214" r="1.1"/>
	<circle class="st2" cx="-245.3" cy="218.5" r="1.1"/>
	<circle class="st2" cx="-240.8" cy="214" r="1.1"/>
	<circle class="st2" cx="-240.8" cy="218.5" r="1.1"/>
	<circle class="st2" cx="-236" cy="214" r="1.1"/>
	<circle class="st2" cx="-236" cy="218.5" r="1.1"/>
	<circle class="st2" cx="-231.5" cy="214" r="1.1"/>
	<circle class="st2" cx="-231.5" cy="218.5" r="1.1"/>
	<circle class="st2" cx="-227" cy="214" r="1.1"/>
	<circle class="st2" cx="-227" cy="218.5" r="1.1"/>
	<circle class="st2" cx="-222.5" cy="214" r="1.1"/>
	<circle class="st2" cx="-222.5" cy="218.5" r="1.1"/>
	<circle class="st2" cx="-217.7" cy="214" r="1.1"/>
	<circle class="st2" cx="-217.7" cy="218.5" r="1.1"/>
	<circle class="st2" cx="-213.2" cy="214" r="1.1"/>
	<circle class="st2" cx="-213.2" cy="218.5" r="1.1"/>
	<circle class="st2" cx="-208.5" cy="214" r="1.1"/>
	<circle class="st2" cx="-208.5" cy="218.5" r="1.1"/>
	<circle class="st2" cx="-204" cy="214" r="1.1"/>
	<circle class="st2" cx="-204" cy="218.5" r="1.1"/>
	<circle class="st2" cx="-199.2" cy="214" r="1.1"/>
	<circle class="st2" cx="-199.2" cy="218.5" r="1.1"/>
	<circle class="st2" cx="-194.7" cy="214" r="1.1"/>
	<circle class="st2" cx="-194.7" cy="218.5" r="1.1"/>
	<circle class="st2" cx="-190.2" cy="214" r="1.1"/>
	<circle class="st2" cx="-190.2" cy="218.5" r="1.1"/>
	<circle class="st2" cx="-185.7" cy="214" r="1.1"/>
	<circle class="st2" cx="-185.7" cy="218.5" r="1.1"/>
	<circle class="st2" cx="-180.9" cy="214" r="1.1"/>
	<circle class="st2" cx="-180.9" cy="218.5" r="1.1"/>
	<circle class="st2" cx="-176.4" cy="214" r="1.1"/>
	<circle class="st2" cx="-176.4" cy="218.5" r="1.1"/>
	<circle class="st2" cx="-245.7" cy="223.2" r="1.1"/>
	<circle class="st2" cx="-245.7" cy="227.7" r="1.1"/>
	<circle class="st2" cx="-241.2" cy="223.2" r="1.1"/>
	<circle class="st2" cx="-241.2" cy="227.7" r="1.1"/>
	<circle class="st2" cx="-236.3" cy="223.2" r="1.1"/>
	<circle class="st2" cx="-236.3" cy="227.7" r="1.1"/>
	<circle class="st2" cx="-231.8" cy="223.2" r="1.1"/>
	<circle class="st2" cx="-231.8" cy="227.7" r="1.1"/>
	<circle class="st2" cx="-227.3" cy="223.2" r="1.1"/>
	<circle class="st2" cx="-227.3" cy="227.7" r="1.1"/>
	<circle class="st2" cx="-222.8" cy="223.2" r="1.1"/>
	<circle class="st2" cx="-222.8" cy="227.7" r="1.1"/>
	<circle class="st2" cx="-218" cy="223.2" r="1.1"/>
	<circle class="st2" cx="-218" cy="227.7" r="1.1"/>
	<circle class="st2" cx="-213.5" cy="223.2" r="1.1"/>
	<circle class="st2" cx="-213.5" cy="227.7" r="1.1"/>
	<circle class="st2" cx="-208.9" cy="223.2" r="1.1"/>
	<circle class="st2" cx="-208.9" cy="227.7" r="1.1"/>
	<circle class="st2" cx="-204.4" cy="223.2" r="1.1"/>
	<circle class="st2" cx="-204.4" cy="227.7" r="1.1"/>
	<circle class="st2" cx="-199.5" cy="223.2" r="1.1"/>
	<circle class="st2" cx="-199.5" cy="227.7" r="1.1"/>
	<circle class="st2" cx="-195" cy="223.2" r="1.1"/>
	<circle class="st2" cx="-195" cy="227.7" r="1.1"/>
	<circle class="st2" cx="-190.5" cy="223.2" r="1.1"/>
	<circle class="st2" cx="-190.5" cy="227.7" r="1.1"/>
	<circle class="st2" cx="-186" cy="223.2" r="1.1"/>
	<circle class="st2" cx="-186" cy="227.7" r="1.1"/>
	<circle class="st2" cx="-181.2" cy="223.2" r="1.1"/>
	<circle class="st2" cx="-181.2" cy="227.7" r="1.1"/>
	<circle class="st2" cx="-176.7" cy="223.2" r="1.1"/>
	<circle class="st2" cx="-176.7" cy="227.7" r="1.1"/>
	<path class="st2" d="M-157.4,127.2c-2,0-3.6,1.6-3.6,3.6s1.6,3.6,3.6,3.6c2,0,3.6-1.6,3.6-3.6S-155.4,127.2-157.4,127.2z"/>
	<path class="st2" d="M-139.4,130.8c0-2-1.6-3.6-3.6-3.6s-3.6,1.6-3.6,3.6s1.6,3.6,3.6,3.6S-139.4,132.8-139.4,130.8z"/>
	<path class="st2" d="M-125,130.8c0-2-1.6-3.6-3.6-3.6c-2,0-3.6,1.6-3.6,3.6s1.6,3.6,3.6,3.6C-126.6,134.4-125,132.8-125,130.8z"/>
	<path class="st2" d="M-114.2,127.2c-2,0-3.6,1.6-3.6,3.6s1.6,3.6,3.6,3.6s3.6-1.6,3.6-3.6S-112.2,127.2-114.2,127.2z"/>
	<path class="st2" d="M-128.6,149.5c-9.9,0-18,8.1-18,18c0,9.9,8.1,18,18,18c9.9,0,18-8.1,18-18
		C-110.6,157.6-118.7,149.5-128.6,149.5z M-127.5,162.3h-2.2v-9h2.2V162.3z"/>
	<path class="st2" d="M-122.3,206.5c2.5,0,4.5-2,4.5-4.5s-2-4.5-4.5-4.5c-2.1,0-3.8,1.4-4.3,3.4h-11v2.2h11
		C-126.1,205.1-124.4,206.5-122.3,206.5z"/>
</g>
<g>
	<path class="st4" d="M143.8,124.7c6.4,0,11.6-5.2,11.6-11.6c0-0.1,0-0.2,0-0.3c1,0.2,1.9,0.3,2.9,0.3c3.1,0,6-0.9,8.6-2.3
		c4.2,4.9,10.5,8.1,17.5,8.1c12.8,0,23.2-10.4,23.2-23.2c0-12.8-10.4-23.2-23.2-23.2c-7,0-13.2,3.2-17.5,8.1
		c-2.5-1.4-5.4-2.3-8.6-2.3c-9.6,0-17.4,7.8-17.4,17.4c0,2.1,0.4,4.1,1.1,6c-5.5,0.9-9.8,5.6-9.8,11.4
		C132.3,119.5,137.4,124.7,143.8,124.7z"/>
	<path class="st4" d="M206.8,214.4c-11.9-9.4-22.1-20.9-29.7-34.1c-7.8-13.5-13-28.6-15-44.7h-18.3h-18.3c-2,16.1-7.2,31.3-15,44.7
		c-7.6,13.2-17.7,24.8-29.7,34.1H52.5v3.6h180v-3.6H206.8z M114.5,185.6c3.3-5.8,6.1-11.9,8.3-18.3v1.2h42.1v-1.2
		c2.2,6.4,5,12.5,8.3,18.3c5.4,9.4,12.2,17.7,20.2,25h-99C102.3,203.3,109.1,194.9,114.5,185.6z"/>
</g>
<g>
	<g>
		<defs>
			<rect id="SVGID_1_" x="-900" y="47.5" width="180" height="180"/>
		</defs>
		<clipPath id="SVGID_2_">
			<use xlink:href="#SVGID_1_"  style="overflow:visible;"/>
		</clipPath>
		<g class="st5">
			<g>
				<path class="st3" d="M-796.6,112.3c-4.8,0-8.8,3.9-8.8,8.7c0,4.8,3.9,8.8,8.8,8.8s8.7-3.9,8.7-8.8
					C-787.9,116.2-791.8,112.3-796.6,112.3z M-796.6,127.6c-3.6,0-6.6-2.9-6.6-6.6c0-3.6,2.9-6.6,6.6-6.6c3.6,0,6.6,2.9,6.6,6.6
					C-790.1,124.7-793,127.6-796.6,127.6z"/>
				<circle class="st3" cx="-796.6" cy="121.1" r="2.7"/>
				<path class="st3" d="M-816.8,123.7l-2.6-2.6l2.6-2.6c1.2-1.2,1.2-3.2,0-4.4c-1.2-1.2-3.2-1.2-4.4,0l-2.6,2.6l-2.6-2.6
					c-1.2-1.2-3.2-1.2-4.4,0c-1.2,1.2-1.2,3.2,0,4.4l2.6,2.6l-2.6,2.6c-1.2,1.2-1.2,3.2,0,4.4c1.2,1.2,3.2,1.2,4.4,0l2.6-2.6
					l2.6,2.6c1.2,1.2,3.2,1.2,4.4,0C-815.6,126.8-815.6,124.9-816.8,123.7z"/>
				<path class="st3" d="M-828.9,137.7c-0.5,0-0.9,0.4-0.9,0.9v6.1c0,0.5,0.4,0.9,0.9,0.9c0.5,0,0.9-0.4,0.9-0.9v-6.1
					C-828,138.1-828.4,137.7-828.9,137.7z"/>
				<path class="st3" d="M-826.2,137.7c-0.5,0-0.9,0.4-0.9,0.9v6.1c0,0.5,0.4,0.9,0.9,0.9c0.5,0,0.9-0.4,0.9-0.9v-6.1
					C-825.3,138.1-825.7,137.7-826.2,137.7z"/>
				<path class="st3" d="M-821.2,137.7c-0.5,0-0.5,0.4-0.5,0.9v6.1c0,0.5,0,0.9,0.5,0.9s0.5-0.4,0.5-0.9v-6.1
					C-820.8,138.1-820.8,137.7-821.2,137.7z"/>
				<path class="st3" d="M-818.5,137.7c-0.5,0-0.5,0.4-0.5,0.9v6.1c0,0.5,0,0.9,0.5,0.9c0.5,0,0.5-0.4,0.5-0.9v-6.1
					C-818.1,138.1-818.1,137.7-818.5,137.7z"/>
				<path class="st3" d="M-815,137.7c-0.5,0-2.2,0.4-2.2,0.9v6.1c0,0.5,1.8,0.9,2.2,0.9c0.5,0,2.2-0.4,2.2-0.9v-6.1
					C-812.7,138.1-814.5,137.7-815,137.7z"/>
				<path class="st3" d="M-811.3,137.7c-0.5,0-0.5,0.4-0.5,0.9v6.1c0,0.5,0,0.9,0.5,0.9c0.5,0,0.4-0.4,0.4-0.9v-6.1
					C-810.9,138.1-810.9,137.7-811.3,137.7z"/>
				<path class="st3" d="M-809.1,137.7c-0.5,0-0.9,0.4-0.9,0.9v6.1c0,0.5,0.4,0.9,0.9,0.9c0.5,0,0.9-0.4,0.9-0.9v-6.1
					C-808.2,138.1-808.6,137.7-809.1,137.7z"/>
				<path class="st3" d="M-805.5,137.7c-0.5,0-1.8,0.4-1.8,0.9v6.1c0,0.5,1.3,0.9,1.8,0.9c0.5,0,1.8-0.4,1.8-0.9v-6.1
					C-803.7,138.1-805,137.7-805.5,137.7z"/>
				<path class="st3" d="M-801.5,137.7c-0.5,0-0.5,0.4-0.5,0.9v6.1c0,0.5,0,0.9,0.5,0.9c0.5,0,0.5-0.4,0.5-0.9v-6.1
					C-801,138.1-801,137.7-801.5,137.7z"/>
				<path class="st3" d="M-799.2,137.7c-0.5,0-0.9,0.4-0.9,0.9v6.1c0,0.5,0.4,0.9,0.9,0.9s0.9-0.4,0.9-0.9v-6.1
					C-798.3,138.1-798.7,137.7-799.2,137.7z"/>
				<path class="st3" d="M-793.8,137.7c-0.5,0-0.9,0.4-0.9,0.9v6.1c0,0.5,0.4,0.9,0.9,0.9s0.9-0.4,0.9-0.9v-6.1
					C-792.9,138.1-793.3,137.7-793.8,137.7z"/>
				<path class="st3" d="M-791.1,137.7c-0.5,0-0.9,0.4-0.9,0.9v6.1c0,0.5,0.4,0.9,0.9,0.9c0.5,0,0.9-0.4,0.9-0.9v-6.1
					C-790.2,138.1-790.6,137.7-791.1,137.7z"/>
				<path class="st3" d="M-757.8,120.2l-8.1-4.4v-21c0-4.8-4-9.5-8.8-9.5h-26.7l-0.9-2.7h7.4c1.4,0,2.6-2.2,2.6-3.6
					c0-1.4-1.2-3.6-2.6-3.6h-8.3l-1-3.6h0.6c1.4,0,2.6-1.7,2.6-3.1c0-1.4-1.2-3.2-2.6-3.2h-1.5l-0.3-2.4c0-4.8,0.5-13.4-4.4-13.4
					c-4.8,0-4.4,8.8-4.4,13.6l-0.3,2.2h-1.5c-1.5,0-2.6,1.7-2.6,3.2c0,1.4,1.2,3.1,2.6,3.1h0.6l-1,3.6h-8.3c-1.4,0-2.6,2.2-2.6,3.6
					c0,1.4,1.2,3.6,2.6,3.6h7.4l-0.9,2.7h-26.7c-4.8,0-9.3,4.7-9.3,9.5v21l-9,4.4v17.5l9,4.4v22.7c0,4.8,4.5,8.7,9.3,8.7h70
					c4.8,0,8.8-3.8,8.8-8.7v-22.7l8.1-4.4V120.2z M-774.9,111.4v35v9.6c0,4.8-3.8,9.3-8.6,9.3H-836c-4.8,0-10-4.5-10-9.3v-9.6v-35
					v-7.9c0-4.8,5.2-8.4,10-8.4h52.5c4.8,0,8.6,3.6,8.6,8.4V111.4z"/>
				<path class="st3" d="M-875.2,187.1c-7.3,0-13.1,5.9-13.1,13.1c0,7.2,5.9,13.1,13.1,13.1c7.2,0,13.1-5.9,13.1-13.1
					C-862,193-867.9,187.1-875.2,187.1z"/>
				<path class="st3" d="M-872.1,221.2h-6.1c-5.6,0-11,5.2-11,11.1v22.3c0,5.9,5.4,10.7,11,10.7h6.1c5.6,0,9-4.8,9-10.7v-22.3
					C-863.1,226.4-866.6,221.2-872.1,221.2z"/>
				<path class="st3" d="M-831.6,352.2c-9.7,0-17.5,7.6-17.5,17.5h35C-814.1,359.8-822,352.2-831.6,352.2z"/>
				<path class="st3" d="M-819.9,290.2c0-4.8-3.9-8.8-8.8-8.8h-8.6c-4.8,0-8.8,3.9-8.8,8.8v44.6c0,4.8,3.9,8.8,8.8,8.8h8.6
					c4.8,0,8.8-3.9,8.8-8.8V290.2z"/>
				<path class="st3" d="M-744.3,213.4c7.2,0,13.1-5.9,13.1-13.1c0-7.3-5.9-13.1-13.1-13.1c-7.3,0-13.1,5.9-13.1,13.1
					C-757.5,207.5-751.6,213.4-744.3,213.4z"/>
				<path class="st3" d="M-741.3,221.2h-6.1c-5.6,0-10.4,5.2-10.4,11.1v22.3c0,5.9,4.9,10.7,10.4,10.7h6.1c5.6,0,10.5-4.8,10.5-10.7
					v-22.3C-730.8,226.4-735.7,221.2-741.3,221.2z"/>
				<path class="st3" d="M-787.9,352.2c-9.7,0-17.5,7.6-17.5,17.5h35C-770.4,359.8-778.2,352.2-787.9,352.2z"/>
				<path class="st3" d="M-774.9,290.1c0-4.8-4.2-8.7-9.1-8.7h-8.5c-4.8,0-8.6,3.8-8.6,8.7v44.1c0,4.8,3.7,9.3,8.6,9.3h8.5
					c4.8,0,9.1-4.5,9.1-9.3V290.1z"/>
				<path class="st3" d="M-739.7,274.3h-8.7c-4.8,0-9.3,3.5-9.3,8.4v8.8c0,4.8,2.7,8.8,9,8.8v-12.3c0-1.4,1.5-3.7,2.9-3.7h3.5
					c1.4,0,2.6,2.3,2.6,3.7v12.3c3.6,0,9-3.9,9-8.8v-8.8C-730.8,277.8-734.9,274.3-739.7,274.3z"/>
				<path class="st3" d="M-871,274.3h-8.8c-4.8,0-9.4,3.5-9.4,8.4v8.8c0,4.8,5.4,8.8,8.1,8.8v-12.3c0-1.4,2.5-3.7,4-3.7h3.5
					c1.4,0,1.5,2.3,1.5,3.7v12.3c7.2,0,9-3.9,9-8.8v-8.8C-863.1,277.8-866.2,274.3-871,274.3z"/>
				<path class="st3" d="M-774.1,184.3h-35.3h-35.3c-2.3,0-4.9,0.3-6.4,1.8c-1.5,1.5-2.9,2.9-2.9,5.3v35.3V262c0,2.3,1.4,5,2.9,6.5
					c1.5,1.5,4.1,3,6.4,3h35.3h35.3c2.3,0,4.3-1.5,5.8-3c1.5-1.5,2.4-4.2,2.4-6.5v-35.3v-35.3c0-2.3-0.8-3.7-2.4-5.3
					C-769.8,184.5-771.8,184.3-774.1,184.3z"/>
			</g>
		</g>
	</g>
</g>
<path class="st3" d="M543.8,178.2c-3.6-12-13.6-24.8-27.4-23.6c-3,0.2-6,1.2-8.6,2.8c-1.3,0.8-2.2,2-3.2,3.1c-0.9,1-2.2,3.5-3.5,3.9
	c-2.6,0.9-6.4-4.6-7.8-6.1c-2.6-3-5.1-6.1-7.5-9.3c-4.7-6.2-8.4-13.1-11.5-20.2c-1.5-3.3-2.3-6.7-3.1-10.2
	c-0.9-4.1-1.6-8.3-0.9-12.4c0.3-1.3,0.6-2.7-0.4-3.8c-1-1-2.3-0.7-3.5-1.2c-3.2-1.4-4.3-4.2-6.4-6.9c-4.3-5.4-9.8-9.8-16.5-11.9
	c-4.7-1.5-10-2.2-15-2.2c-5.6,0-11.2,0.1-16.7,1.3c-2.6,0.6-5.3,1.2-7.9,2.1c-2.1,0.7-5.3,1.1-6.9,2.8c-1.1,1.2-3.4,2-1.4,4
	c1.8,1.7,3.7,3,5.7,4.5c1.9,1.4,3.7,2.8,5.7,4c2.1,1.1,4.2,2.3,5.8,4.1c0.4,0.4,2,0.5,2.6,0.9c1.4,0.8,2.8,1.5,4.3,2.2
	c2.5,1.2,5.1,1.9,7.6,3.2c4,1.9,9.6,1.9,14,2c5.9,0.1,11.4-1.2,17.1-2c0.2,1.5-0.1,3.1-0.9,4.5c-0.8,1.4-2.1,2.2-2.7,3.6
	c-1.5,3.3-2.2,6.9-4.4,9.9c-0.8,1.2-1.2,3.3-1.6,4.7c-0.6,1.7-1.2,3.5-1.6,5.3c-0.5,1.8-0.9,3.7-1,5.6c-0.1,1.8-0.7,3.4-0.9,5.2
	c-0.1,0.9,0.3,1,0.1,2c-0.1,1-0.2,2-0.3,3c-0.2,2-0.4,4-0.6,6.1c-0.2,2.3,0.4,7.5-2.6,8.3c-1.4,0.4-2.4-0.3-3.7-0.4
	c-1.9-0.2-3.8-0.2-5.7,0c-3.7,0.6-6.9,1.4-9.9,3.8c-10.7,8.7-9.3,28.2-1.7,38.5c3.9,5.4,10.3,9.7,17,10.6c7.3,0.9,14.3,1.6,20.9-2.3
	c5.3-3.1,9-8.1,11.2-13.7c2.6-6.4,4.3-14.2,2.3-21c-1.9-6.3-6.4-11.5-12.7-13.6c-2.9-1-6.1-1.2-9.1-0.8c-3.6,0.5-3.8-0.7-3.7-4.2
	c0.4-15.5,4.1-31.6,12.4-44.8c1-1.5,2-3,3.1-4.4c1.2-1.5,1.6-2,2.9-0.3c2.1,2.8,2.2,6.9,3.3,10.1c2.5,7.1,5.9,13.8,9.8,20.1
	c3.8,6,8.4,11.6,13.2,16.9c1.1,1.2,2.2,2.3,3.3,3.4c1.4,1.4,1.7,1.9,0.5,3.6c-1.3,1.9-3.8,2.9-5.4,4.5c-9.7,9.2-4.5,22.1,3.4,30.6
	c4,4.3,9.2,7.7,14.9,9.4c6.7,2,13.5,0.4,19.6-2.6c5.5-2.6,10-6.8,13.3-11.9C545.4,192.3,545.9,185.1,543.8,178.2
	C542,172.2,545.8,185,543.8,178.2z"/>
<g>
	<path class="st6" d="M-1509.3,153.3c-3-2.2-5.9-4.3-9.1-6.6c1.4-0.1,2.6-0.1,3.8-0.1c1.2,0,2.4,0,3.6,0c1.2,0,2.4,0,3.8,0
		c1.1-3.5,2.3-7,3.4-10.5c0.1,0,0.1,0,0.2,0c1.1,3.5,2.3,6.9,3.4,10.5c3.7,0,7.3,0,11,0c0,0.1,0.1,0.1,0.1,0.2
		c-0.7,0.6-1.4,1.1-2.2,1.6c-0.7,0.6-1.5,1.1-2.3,1.6c-0.7,0.5-1.5,1-2.2,1.6c-0.7,0.5-1.5,1.1-2.3,1.7c1.1,3.5,2.3,7,3.4,10.4
		c0,0-0.1,0.1-0.1,0.1c-1.5-1.1-3-2.1-4.5-3.2c-1.5-1.1-3-2.1-4.5-3.2c-3,2.2-6,4.3-9,6.5c-0.1,0-0.1-0.1-0.2-0.1
		C-1511.5,160.3-1510.4,156.8-1509.3,153.3z"/>
	<path class="st6" d="M-1386,163.8c-2.9-2.1-5.9-4.3-8.9-6.4c-3,2.2-6,4.3-8.9,6.4c-0.1,0-0.1-0.1-0.2-0.1c3-9.2,6-18.3,9-27.5
		c0.1,0,0.1,0,0.2,0c3,9.2,6,18.3,9,27.5C-1385.9,163.7-1385.9,163.8-1386,163.8z"/>
	<path class="st6" d="M-1359,153.3c1.1,3.5,2.3,7,3.4,10.5c-0.7-0.2-13.7-9.6-14.8-10.6c1.8-5.6,3.7-11.3,5.6-17c0.1,0,0.1,0,0.2,0
		c1.1,3.5,2.3,6.9,3.4,10.4c3.7,0,7.3,0,11.2,0c-0.7,0.8-1.6,1.2-2.3,1.8c-0.7,0.6-1.5,1.1-2.3,1.6c-0.7,0.5-1.5,1-2.2,1.6
		C-1357.5,152.2-1358.2,152.8-1359,153.3z"/>
	<path class="st6" d="M-1471.5,158.4c1.1-3.5,2.2-6.9,3.4-10.4c-3-2.2-5.9-4.3-8.9-6.4c0-0.1,0-0.1,0.1-0.2c9.6,0,19.3,0,28.9,0
		c0,0,0,0.1,0,0.1c0,0,0,0.1,0,0.1c-0.1,0.1-0.2,0.2-0.4,0.3c-7.7,5.5-15.3,11.1-23,16.6C-1471.4,158.5-1471.4,158.5-1471.5,158.4z"
		/>
	<path class="st6" d="M-1418,141.5c-3.1,2.2-6,4.3-9,6.5c1.1,3.5,2.3,7,3.4,10.5c0,0-0.1,0.1-0.1,0.1c-7.8-5.7-15.7-11.3-23.6-17
		C-1446.5,141.4-1419.2,141.3-1418,141.5z"/>
	<path class="st6" d="M-1544.2,136.2c3,9.2,6,18.4,9,27.6c0,0-0.1,0.1-0.1,0.1c-4.9-3.5-9.7-7-14.6-10.6c1.9-5.7,3.7-11.4,5.6-17.1
		C-1544.4,136.2-1544.3,136.2-1544.2,136.2z"/>
</g>
<path class="st2" d="M845.9,143.7c0.1-1,0.3-2.1,0.3-3.1c0-15.5-12.6-28.1-28.1-28.1c-4.7,0-9,1.2-12.8,3.2
	c-5.9-12.9-18.9-22-34.1-22c-20.7,0-37.5,16.8-37.5,37.5c0,4.1,0.8,8,2.1,11.7c-12.2,4.8-20.8,16.6-20.8,30.5
	c0,16.5,12.2,30,28.1,32.3v0.5h4.7h32.8h18.8h30.9h6.6v-0.5c15.9-2.3,28.1-15.8,28.1-32.3C865,160.2,857.2,148.9,845.9,143.7z"/>
<g>
	<path class="st2" d="M-807.8,760.5c-32.9,0-59.5,26.6-59.5,59.5c0,32.9,26.6,59.5,59.5,59.5c32.9,0,59.5-26.6,59.5-59.5
		C-748.2,787.1-774.9,760.5-807.8,760.5z M-807.8,870.6c-27.9,0-50.6-22.6-50.6-50.6c0-27.9,22.6-50.6,50.6-50.6
		c27.9,0,50.6,22.7,50.6,50.6C-757.2,847.9-779.8,870.6-807.8,870.6z"/>
	<path class="st2" d="M-723.7,772.4h-6.3c-2.1,0-10,56.2-10,56.2c0,1.6,1.7,2.9,3.7,2.9h6.8v32.6c0,2,2,3.6,4.4,3.6h0.8
		c2.4,0,4.4-1.6,4.4-3.6v-35.5v-6v-47.4C-720,773.7-721.7,772.4-723.7,772.4z"/>
	<path class="st2" d="M-875.2,772.4c-1.5,0-2.8,1.2-2.8,2.8V796h-5.5v-20.9c0-1.5-1.2-2.8-2.8-2.8c-1.5,0-2.8,1.2-2.8,2.8V796h-5.5
		v-20.9c0-1.5-1.2-2.8-2.8-2.8c-1.5,0-2.8,1.2-2.8,2.8V799v1.9v0.1c0,1.6,1.3,3,3,3h5.3v60.7c0,1.7,1.3,3,2.9,3h5.3
		c1.6,0,2.9-1.3,2.9-3v-60.7h5.3c1.6,0,3-1.3,3-3v-0.1V799v-23.8C-872.4,773.6-873.7,772.4-875.2,772.4z"/>
	<path class="st2" d="M-807.8,778.3c-23,0-41.7,18.7-41.7,41.7c0,23,18.7,41.7,41.7,41.7s41.7-18.6,41.7-41.7
		C-766.1,797-784.7,778.3-807.8,778.3z M-807.8,860.2c-22.2,0-40.2-18-40.2-40.2c0-22.2,18-40.2,40.2-40.2c22.2,0,40.2,18,40.2,40.2
		S-785.6,860.2-807.8,860.2z"/>
</g>
<g>
	<line class="st7" x1="-1175.9" y1="760" x2="-1084.1" y2="760"/>
	<polyline class="st7" points="-1084.1,760 -1130,738.3 -1175.9,760 	"/>
	<rect x="-1166.7" y="760" class="st7" width="72.6" height="23.4"/>
	<rect x="-1148.4" y="760" class="st7" width="35.9" height="23.4"/>
	<rect x="-1170.9" y="783.4" class="st7" width="81.8" height="14.2"/>
	<rect x="-1171.9" y="797.9" class="st7" width="84" height="5.9"/>
	<line class="st7" x1="-1129.8" y1="738.3" x2="-1129.8" y2="910"/>
	<line class="st7" x1="-1107.2" y1="803.7" x2="-1093.8" y2="908.3"/>
	<line class="st7" x1="-1152.3" y1="803.3" x2="-1165.8" y2="907.9"/>
	<line class="st7" x1="-1157.3" y1="850.3" x2="-1157.3" y2="850.3"/>
	<line class="st7" x1="-1159.1" y1="803.7" x2="-1172.5" y2="908.3"/>
	<line class="st7" x1="-1100.5" y1="803.7" x2="-1087" y2="908.3"/>
	<line class="st7" x1="-1155.1" y1="826.8" x2="-1130.1" y2="844.9"/>
	<line class="st7" x1="-1157.3" y1="844.9" x2="-1130.1" y2="826.8"/>
	<line class="st7" x1="-1105.2" y1="826.8" x2="-1130.1" y2="844.9"/>
	<line class="st7" x1="-1103" y1="844.9" x2="-1130.1" y2="826.8"/>
	<line class="st7" x1="-1159.1" y1="860.5" x2="-1130.1" y2="881.5"/>
	<line class="st7" x1="-1161.6" y1="881.5" x2="-1130.1" y2="860.5"/>
	<line class="st7" x1="-1101.1" y1="860.5" x2="-1130.1" y2="881.5"/>
	<line class="st7" x1="-1098.6" y1="881.5" x2="-1130.1" y2="860.5"/>
	<line class="st7" x1="-1103" y1="730" x2="-1103" y2="750.6"/>
</g>
<g>
	<g>
		<path class="st4" d="M-478,754v-24h-24v24h-48v156h120V754H-478z M-490,736c3.3,0,6,2.7,6,6s-2.7,6-6,6s-6-2.7-6-6
			S-493.3,736-490,736z M-436,904h-108V760h42v18h24v-18h42V904z"/>
		<path class="st4" d="M-490,790c-16.6,0-30,13.4-30,30s13.4,30,30,30s30-13.4,30-30S-473.4,790-490,790z M-490,844
			c-13.2,0-24-10.8-24-24s10.8-24,24-24s24,10.8,24,24S-476.8,844-490,844z"/>
		<path class="st4" d="M-514,862c-6.6,0-12,5.4-12,12v12h72v-12c0-6.6-5.4-12-12-12H-514z"/>
	</g>
	<path class="st4" d="M-443.8,805.5c-2.5,1.1-5.2,1.9-8.1,2.2c2.9-1.7,5.1-4.5,6.2-7.8c-2.7,1.6-5.7,2.8-8.9,3.4
		c-2.6-2.7-6.2-4.4-10.3-4.4c-7.8,0-14,6.3-14,14c0,1.1,0.1,2.2,0.4,3.2c-11.7-0.6-22-6.2-28.9-14.7c-1.2,2.1-1.9,4.5-1.9,7.1
		c0,4.9,2.5,9.2,6.2,11.7c-2.3-0.1-4.5-0.7-6.4-1.8c0,0.1,0,0.1,0,0.2c0,6.8,4.8,12.5,11.3,13.8c-1.2,0.3-2.4,0.5-3.7,0.5
		c-0.9,0-1.8-0.1-2.6-0.3c1.8,5.6,7,9.6,13.1,9.8c-4.8,3.8-10.9,6-17.4,6c-1.1,0-2.3-0.1-3.4-0.2c6.2,4,13.6,6.3,21.5,6.3
		c25.8,0,40-21.4,40-40c0-0.6,0-1.2,0-1.8C-448,810.7-445.7,808.3-443.8,805.5z"/>
</g>
<g>
	<path class="st2" d="M1197.3,156c-1.2-2.9-3-5.5-5.2-7.8c-2.2-2.2-4.9-4-7.8-5.2l-1.6-0.7c1.8-2,3.2-4.3,4.3-6.8
		c1.3-3,1.9-6.2,1.9-9.5c0-3.3-0.6-6.5-1.9-9.5c-1.2-2.9-3-5.5-5.2-7.8c-2.2-2.2-4.9-4-7.8-5.2c-3-1.3-6.2-1.9-9.5-1.9
		c-2.6,0-5.1,0.4-7.6,1.2c-0.2-2.7-0.8-5.4-1.9-7.9c-1.2-2.9-3-5.5-5.2-7.8c-2.2-2.2-4.9-4-7.8-5.2c-3-1.3-6.2-1.9-9.5-1.9
		c-3.3,0-6.5,0.6-9.5,1.9c-2.9,1.2-5.5,3-7.8,5.2c-2,2-3.5,4.2-4.7,6.7c-1.2-2.5-2.8-4.7-4.7-6.7c-2.2-2.2-4.9-4-7.8-5.2
		c-3-1.3-6.2-1.9-9.5-1.9c-3.3,0-6.5,0.6-9.5,1.9c-2.9,1.2-5.5,3-7.8,5.2c-2.2,2.2-4,4.9-5.2,7.8c-1.1,2.5-1.7,5.2-1.9,7.9
		c-2.4-0.8-5-1.2-7.6-1.2c-3.3,0-6.5,0.6-9.5,1.9c-2.9,1.2-5.5,3-7.8,5.2c-2.2,2.2-4,4.9-5.2,7.8c-1.3,3-1.9,6.2-1.9,9.5
		c0,3.3,0.6,6.5,1.9,9.5c1.1,2.5,2.5,4.8,4.3,6.8l-1.6,0.7c-2.9,1.2-5.5,3-7.8,5.2c-2.2,2.2-4,4.9-5.2,7.8c-1.3,3-1.9,6.2-1.9,9.5
		c0,3.3,0.6,6.5,1.9,9.5c1.2,2.9,3,5.5,5.2,7.8c1.7,1.7,3.6,3.1,5.7,4.2c-1,2.7-1.5,5.6-1.5,8.6c0,3.3,0.6,6.5,1.9,9.5
		c1.2,2.9,3,5.5,5.2,7.8c2.2,2.2,4.9,4,7.8,5.2c3,1.3,6.2,1.9,9.5,1.9c3.3,0,6.5-0.6,9.5-1.9c2.9-1.2,5.5-3,7.7-5.2l0.8-0.5
		c2.1,2,4.6,3.6,7.2,4.7c3,1.3,6.2,1.9,9.5,1.9s6.5-0.6,9.5-1.9c2.9-1.2,5.5-3,7.7-5.2c0.1,0.4,0.4,0.7,0.9,0.7c0,0,0,0,0,0
		c0.5,0,0.9-0.4,0.9-0.9l0-0.1c0,0.1,0.1,0.2,0.2,0.2c2.2,2.2,4.9,4,7.8,5.2c3,1.3,6.2,1.9,9.5,1.9s6.5-0.6,9.5-1.9
		c2.7-1.1,5.1-2.7,7.2-4.7l0.8,0.5c2.2,2.2,4.8,3.9,7.7,5.2c3,1.3,6.2,1.9,9.5,1.9c3.3,0,6.5-0.6,9.5-1.9c2.9-1.2,5.5-3,7.8-5.2
		c2.2-2.2,4-4.9,5.2-7.8c1.3-3,1.9-6.2,1.9-9.5c0-3-0.5-5.8-1.5-8.6c2.1-1.1,4-2.5,5.7-4.2c2.2-2.2,4-4.9,5.2-7.8
		c1.3-3,1.9-6.2,1.9-9.5C1199.2,162.2,1198.5,159,1197.3,156z M1109,97l0.5,113.5c-0.4-0.3-0.9-0.3-1.2,0.1
		c-2.1,2.1-4.5,3.7-7.2,4.8c-2.8,1.2-5.7,1.8-8.8,1.8c-3,0-6-0.6-8.8-1.8c-2.7-1.1-5.1-2.8-7.2-4.8c-0.3-0.3-0.8-0.4-1.1-0.1
		l-1.5,0.9c-0.1,0-0.1,0.1-0.2,0.1c-2.1,2.1-4.5,3.7-7.2,4.8c-2.8,1.2-5.7,1.8-8.8,1.8c-3,0-6-0.6-8.8-1.8c-2.7-1.1-5.1-2.8-7.2-4.8
		c-2.1-2.1-3.7-4.5-4.8-7.2c-1.2-2.8-1.8-5.7-1.8-8.8c0-2.7,0.5-5.3,1.4-7.8c0.1,0.1,0.3,0.1,0.4,0.2c0.4,0.2,1,0,1.2-0.4
		c0.2-0.4,0.1-1-0.4-1.2l-1.2-0.7c-0.2-0.1-0.4-0.1-0.6-0.1c-2-1.1-3.9-2.4-5.5-4.1c-2.1-2.1-3.7-4.5-4.8-7.2
		c-1.2-2.8-1.8-5.7-1.8-8.8c0-3,0.6-6,1.8-8.8c1.1-2.7,2.8-5.1,4.8-7.2c2.1-2.1,4.5-3.7,7.2-4.8l2.9-1.2c0.3-0.1,0.5-0.4,0.5-0.7
		c0.1-0.3,0-0.6-0.3-0.8c-2.1-2.1-3.7-4.5-4.8-7.2c-1.2-2.8-1.8-5.7-1.8-8.8c0-3,0.6-6,1.8-8.8c1.1-2.7,2.8-5.1,4.8-7.2
		c2.1-2.1,4.5-3.7,7.2-4.8c2.8-1.2,5.7-1.8,8.8-1.8c2.6,0,5.2,0.4,7.6,1.3c0,0.1,0.1,0.2,0.2,0.3c0.2,0.2,0.4,0.3,0.7,0.3l0.7,0
		c0.4,0,0.8-0.3,0.9-0.8c0.1-0.4-0.2-0.8-0.5-1c0,0-0.1,0-0.1,0c0.1-2.7,0.7-5.4,1.8-7.9c1.1-2.7,2.8-5.1,4.8-7.2
		c2.1-2.1,4.5-3.7,7.2-4.8c2.8-1.2,5.7-1.8,8.8-1.8c3,0,6,0.6,8.8,1.8c2.7,1.1,5.1,2.8,7.2,4.8c2.1,2.1,3.7,4.5,4.8,7.2
		c0.1,0.2,0.3,0.4,0.4,0.5C1109.3,96.2,1109,96.5,1109,97z M1195.6,174.3c-1.1,2.7-2.8,5.1-4.8,7.2c-1.6,1.6-3.5,3-5.5,4.1
		c-0.2,0-0.4,0-0.6,0.1l-1.2,0.7c-0.4,0.2-0.6,0.8-0.4,1.2c0.2,0.4,0.7,0.6,1.2,0.4c0.1-0.1,0.3-0.1,0.4-0.2
		c0.9,2.5,1.4,5.1,1.4,7.8c0,3-0.6,6-1.8,8.8c-1.1,2.7-2.8,5.1-4.8,7.2c-2.1,2.1-4.5,3.7-7.2,4.8c-2.8,1.2-5.7,1.8-8.8,1.8
		c-3,0-6-0.6-8.8-1.8c-2.7-1.1-5.1-2.8-7.2-4.8c-0.1-0.1-0.1-0.1-0.2-0.1l-1.5-0.9c-0.4-0.2-0.8-0.2-1.1,0.1
		c-2.1,2.1-4.5,3.7-7.2,4.8c-2.8,1.2-5.7,1.8-8.8,1.8c-3,0-6-0.6-8.8-1.8c-2.7-1.1-5.1-2.8-7.2-4.8c-0.4-0.4-0.9-0.4-1.3,0
		c-0.1,0.1-0.1,0.2-0.2,0.2L1110.8,97c0-0.4-0.2-0.7-0.5-0.8c0.1,0,0.1,0,0.2,0c0.5,0.2,1,0,1.2-0.5c1.1-2.7,2.8-5.1,4.8-7.2
		c2.1-2.1,4.5-3.7,7.2-4.8c2.8-1.2,5.7-1.8,8.8-1.8c3,0,6,0.6,8.8,1.8c2.7,1.1,5.1,2.8,7.2,4.8c2.1,2.1,3.7,4.5,4.8,7.2
		c1.1,2.5,1.6,5.1,1.8,7.9c0,0-0.1,0-0.1,0c-0.4,0.2-0.6,0.6-0.5,1c0.1,0.4,0.4,0.7,0.9,0.8l0.7,0c0.3,0,0.5-0.1,0.7-0.3
		c0.1-0.1,0.2-0.2,0.2-0.3c2.4-0.9,5-1.3,7.6-1.3c3,0,6,0.6,8.8,1.8c2.7,1.1,5.1,2.8,7.2,4.8c2.1,2.1,3.7,4.5,4.8,7.2
		c1.2,2.8,1.8,5.7,1.8,8.8c0,3-0.6,6-1.8,8.8c-1.1,2.7-2.8,5.1-4.8,7.2c-0.2,0.2-0.3,0.5-0.3,0.8c0.1,0.3,0.3,0.6,0.5,0.7l2.9,1.2
		c2.7,1.1,5.1,2.8,7.2,4.8c2.1,2.1,3.7,4.5,4.8,7.2c1.2,2.8,1.8,5.7,1.8,8.8C1197.3,168.6,1196.7,171.5,1195.6,174.3z"/>
	<path class="st2" d="M1188.4,163.2c-1.3,0.8-1.7,2.4-1,3.7c0.9,1.5,0.4,3.5-1.1,4.4c-0.6,0.4-1.1,0.9-1.3,1.7
		c-0.4,1.5,0.5,2.9,2,3.3c1.5,0.4,3-0.5,3.3-2c0.2-0.7,0.1-1.5-0.3-2.1c-0.9-1.5-0.4-3.5,1.1-4.4c1.3-0.8,1.7-2.4,1-3.7
		C1191.3,162.9,1189.6,162.5,1188.4,163.2z"/>
	<path class="st2" d="M1181.9,177.7c-1.5,0.5-3.1-0.4-3.6-1.9c-0.1-0.3-0.3-0.7-0.5-1c-1-1.2-2.7-1.3-3.9-0.3
		c-1.2,1-1.3,2.7-0.3,3.9c0.8,1,2.2,1.2,3.3,0.7l0,0c1.4-0.7,3.1-0.2,3.9,1.2l0,0c0.1,0.1,0.1,0.2,0.2,0.3c0.6,0.8,1.8,0.9,2.6,0.2
		c0.8-0.6,0.9-1.8,0.2-2.6C1183.4,177.7,1182.6,177.5,1181.9,177.7z"/>
	<path class="st2" d="M1116,139.2L1116,139.2c0.2-1.2,1.3-2,2.4-1.8l0,0c0.1,0,0.2,0,0.3,0c1.1,0,2-0.9,2-2c0-1.1-0.9-2-2-2
		c-1.1,0-1.9,0.8-2,1.8l0,0c-0.1,1.2-1.2,2-2.3,1.9l0,0c-0.1,0-0.1,0-0.2,0c-1,0-1.8,0.8-1.8,1.8c0,1,0.8,1.8,1.8,1.8
		C1115.1,140.7,1115.9,140.1,1116,139.2z"/>
	<path class="st2" d="M1145.8,184L1145.8,184c0.5,1.8,2.2,3.2,4.2,3.2c2.4,0,4.4-2,4.4-4.4c0-2.3-1.8-4.1-4-4.3l0,0
		c-3.1-0.3-5.4-3.1-5.1-6.2l0,0c0-0.3,0-0.6,0-0.9c0-5-4.1-9.1-9.1-9.1c-5,0-9.1,4.1-9.1,9.1c0,5,4.1,9.1,9.1,9.1
		c0.9,0,1.7-0.1,2.5-0.4l0,0C1141.8,179.3,1144.9,181,1145.8,184z"/>
	<path class="st2" d="M1118.7,143.4c0,3.2,2.6,5.7,5.7,5.7c0.7,0,1.4-0.1,2-0.4l0,0c3-1.1,6.4,0.4,7.5,3.4l0,0
		c1,2.6,3.4,4.4,6.3,4.4c3.7,0,6.7-3,6.7-6.7c0-3.7-3-6.7-6.7-6.7c-1,0-2,0.2-2.9,0.7l0,0c-2.9,1.4-6.4,0.1-7.8-2.8l0,0
		c-0.9-1.9-2.9-3.3-5.2-3.3C1121.3,137.7,1118.7,140.3,1118.7,143.4z"/>
	<path class="st2" d="M1120.2,194.1c2.3-0.5,4-2.3,4.5-4.5c0.3-1.4,1.7-2.3,3.1-2c0.3,0.1,0.7,0.1,1.1,0c1.5-0.3,2.4-1.7,2.1-3.2
		c-0.3-1.5-1.7-2.4-3.2-2.1c-0.7,0.1-1.3,0.5-1.7,1.1l0,0c-0.9,1.2-2.5,1.4-3.7,0.6l0,0c-1.3-0.9-2.9-1.3-4.5-1
		c-3.1,0.6-5.1,3.6-4.5,6.7S1117.1,194.8,1120.2,194.1z"/>
	<path class="st2" d="M1128.5,197.3c-1.3,0-2.5,0.6-3.3,1.5l0,0c-1.9,2.1-5.1,2.3-7.2,0.4l0,0c-0.4-0.3-0.8-0.5-1.3-0.5
		c-1.1,0-2,0.9-2,2c0,1.1,0.9,2,2,2c0.4,0,0.8-0.1,1.1-0.3l0,0c2.4-1.5,5.5-0.8,7,1.6l0,0c0.8,1.2,2.1,2.1,3.7,2.1
		c2.4,0,4.4-2,4.4-4.4S1130.9,197.3,1128.5,197.3z"/>
	<path class="st2" d="M1154,136.5L1154,136.5c1.4,2.6,0.8,5.7-1.1,7.7c-1-0.9-1.6-2.2-1.2-3.6l0,0c0-0.1,0.1-0.3,0.1-0.5
		c0-1.1-0.9-2-2-2c-1.1,0-2,0.9-2,2c0,0.7,0.4,1.3,0.9,1.7l0,0c1.7,1.1,2.2,3.3,1.1,5l0,0c-0.4,0.7-0.7,1.5-0.7,2.4
		c0,2.4,2,4.4,4.4,4.4s4.4-2,4.4-4.4c0-0.3,0-0.6-0.1-0.9c-0.7-3.5,1.5-7,5.1-7.7c3.7-0.7,6.5-4,6.5-7.9c0-4.5-3.6-8.1-8.1-8.1
		c-4.5,0-8.1,3.6-8.1,8.1C1153,134,1153.4,135.3,1154,136.5z"/>
	<path class="st2" d="M1179,160.3c-2.9,0-5.3,2.1-5.7,4.9l0,0c-0.2,1.5-1.6,2.5-3,2.3l0,0c-0.1,0-0.3,0-0.4,0
		c-1.5,0-2.7,1.2-2.7,2.7c0,1.5,1.2,2.7,2.7,2.7c1,0,1.8-0.5,2.3-1.3l0,0c0.8-1.3,2.5-1.6,3.7-0.8l0,0c0.9,0.6,1.9,0.9,3.1,0.9
		c3.2,0,5.7-2.6,5.7-5.7S1182.1,160.3,1179,160.3z"/>
	<path class="st2" d="M1169.9,159.9c0-3.2-2.6-5.7-5.7-5.7c-3.2,0-5.7,2.6-5.7,5.7c0,0.2,0,0.5,0,0.7l0,0c0.3,2.7-1.6,5.1-4.3,5.4
		l0,0c-2.2,0.2-3.9,2.1-3.9,4.3c0,2.2,1.7,4,3.8,4.3l0,0c1.9,0.3,3.3,2,3,4l0,0c0,0.3-0.1,0.5-0.1,0.8c0,3.2,2.6,5.7,5.7,5.7
		c3.2,0,5.7-2.6,5.7-5.7s-2.6-5.7-5.7-5.7c0,0-0.1,0-0.1,0l0,0c-1.9,0-3.5-1.5-3.6-3.4c0.1-2.7,2.3-4.8,4.9-4.7l0,0c0,0,0.1,0,0.1,0
		C1167.3,165.7,1169.9,163.1,1169.9,159.9z"/>
	<path class="st2" d="M1135.2,120.5c-3.2,0-5.7,2.6-5.7,5.7c0,1.8,0.9,3.5,2.2,4.5l0,0c1.7,1.3,2,3.7,0.7,5.4l0,0
		c-0.9,1.1-0.9,2.8,0.1,4c1.1,1.3,3.1,1.5,4.5,0.4c1.3-1.1,1.5-2.9,0.6-4.2l0,0c-1-1.4-0.8-3.3,0.2-4.6c1.9,0,3.7,1.3,4.2,3.3l0,0
		c0.3,1.3,1.5,2.3,2.9,2.3c1.6,0,3-1.3,3-3c0-1.6-1.2-2.8-2.8-2.9l0,0c-2.4-0.2-4.2-2.3-4.1-4.7l0,0c0-0.1,0-0.3,0-0.4
		C1140.9,123.1,1138.4,120.5,1135.2,120.5z"/>
	<path class="st2" d="M1142.5,201.3c-1.9,0-3.4,1.4-3.6,3.3l0,0c-0.1,1.2-1.2,2-2.3,1.9l0,0c-0.1,0-0.1,0-0.2,0
		c-1,0-1.8,0.8-1.8,1.8c0,1,0.8,1.8,1.8,1.8c0.7,0,1.3-0.4,1.6-1l0,0c0.5-1,1.8-1.4,2.9-0.9l0,0c0.5,0.3,1.1,0.4,1.7,0.4
		c2,0,3.6-1.6,3.6-3.6C1146.1,203,1144.5,201.3,1142.5,201.3z"/>
	<path class="st2" d="M1161.2,198.6L1161.2,198.6c0,0.2-0.1,0.5-0.1,0.7c0,1.5,1.2,2.7,2.7,2.7c1.5,0,2.7-1.2,2.7-2.7
		c0-1.2-0.8-2.3-2-2.6l0,0c-2.7-0.7-4.2-3.5-3.5-6.1l0,0c0.2-0.8,0.1-1.6-0.4-2.3c-0.9-1.2-2.6-1.4-3.8-0.6c-0.9,0.7-1.3,1.9-1,2.9
		l0,0c0.7,2.3-0.7,4.8-3,5.5l0,0c-1.8,0.5-3.2,2.2-3.2,4.2c0,2.4,2,4.4,4.4,4.4c2.4,0,4.4-2,4.4-4.4c0-0.8-0.2-1.5-0.6-2.1l0,0
		c-1-1.8-0.5-4,0.9-5.3C1160.8,194,1161.8,196.3,1161.2,198.6z"/>
	<path class="st2" d="M1151.1,191.9c0-1.5-1.2-2.7-2.7-2.7c-0.6,0-1.2,0.2-1.7,0.6l0,0c-1.1,0.9-2.7,0.7-3.6-0.4l0,0
		c-1-1.3-2.7-2.2-4.5-2.2c-3.2,0-5.7,2.6-5.7,5.7s2.6,5.7,5.7,5.7c2.2,0,4.2-1.3,5.1-3.2l0,0c0.6-1.3,2.2-1.8,3.4-1.1l0,0
		c0.4,0.2,0.8,0.3,1.2,0.3C1149.8,194.6,1151.1,193.4,1151.1,191.9z"/>
	<path class="st2" d="M1167.5,145L1167.5,145c-0.1,0-0.2,0-0.4,0c-1.5,0-2.7,1.2-2.7,2.7c0,1.5,1.2,2.7,2.7,2.7c0.2,0,0.3,0,0.5,0
		l0,0c2-0.4,3.9,1,4.3,3l0,0c0.4,2,2.1,3.6,4.3,3.6c0.8,0,1.5-0.2,2.1-0.6l0,0c1.9-1,4.2-0.3,5.2,1.5l0,0c0.3,0.6,1,1.1,1.8,1.1
		c1.1,0,2-0.9,2-2c0-1.1-0.9-2-2-2c-0.1,0-0.2,0-0.3,0l0,0c-2.1,0.4-4.1-1-4.4-3.1l0,0c-0.3-2.1-2.1-3.7-4.3-3.7
		c-0.6,0-1.2,0.1-1.8,0.4l0,0c-1.7,0.7-3.6,0.1-4.6-1.4c0.2-0.9,1-1.6,2-1.6l0,0c1.1,0,2-0.9,2-2c0-1.1-0.9-2-2-2
		c-1,0-1.9,0.8-2,1.8l0,0C1169.7,144.4,1168.7,145.2,1167.5,145z"/>
	<path class="st2" d="M1114.5,123c0,2.9,2.4,5.3,5.3,5.3s5.3-2.4,5.3-5.3c0-0.4-0.1-0.9-0.2-1.3l0,0c-0.6-2.4,0.9-4.9,3.3-5.5l0,0
		c1.6-0.4,2.8-1.8,2.8-3.6c0-2-1.7-3.7-3.7-3.7c-0.9,0-1.6,0.3-2.3,0.8l0,0c-1.6,1.3-4,1-5.2-0.7l0,0c-0.4-0.5-0.9-0.8-1.6-0.8
		c-1.1,0-2,0.9-2,2c0,1.1,0.9,2,2,2c0.3,0,0.6-0.1,0.8-0.2l0,0c1.7-0.7,3.6-0.1,4.6,1.4c-0.2,2.2-1.9,4-4.2,4.2l0,0
		C1116.7,117.9,1114.5,120.2,1114.5,123z"/>
	<path class="st2" d="M1125.9,156.8L1125.9,156.8c0.5,0.7,1.3,1.1,2.2,1.1c1.5,0,2.7-1.2,2.7-2.7c0-1.5-1.2-2.7-2.7-2.7
		c-0.7,0-1.4,0.3-1.9,0.8l0,0c-1.2,1.1-3.1,1.1-4.3-0.1l0,0c-0.4-0.4-0.9-0.6-1.5-0.6c-1.1,0-2,0.9-2,2c0,1.1,0.9,2,2,2
		c0.4,0,0.9-0.2,1.2-0.4l0,0C1123.1,155.2,1124.9,155.5,1125.9,156.8z"/>
	<path class="st2" d="M1150.5,123c0,0.1,0,0.1,0,0.2l0,0c0.1,1-0.7,2-1.7,2.1l0,0c-1,0.1-1.9,0.9-1.9,2c0,1.1,0.9,2,2,2
		c1.1,0,2-0.9,2-2c0-0.1,0-0.1,0-0.2l0,0c-0.1-1,0.7-2,1.7-2.1l0,0c1-0.1,1.9-0.9,1.9-2c0-1.1-0.9-2-2-2
		C1151.4,121,1150.5,121.9,1150.5,123z"/>
	<path class="st2" d="M1138.2,102c0,0.8,0.3,1.6,0.7,2.3l0,0c1.1,1.8,0.6,4.3-1.3,5.4l0,0c-1.2,0.8-2.1,2.1-2.1,3.7
		c0,2.4,2,4.4,4.4,4.4c2.4,0,4.4-2,4.4-4.4c0-0.8-0.3-1.6-0.7-2.3l0,0c-1.1-1.8-0.6-4.3,1.3-5.4l0,0c0.1-0.1,0.3-0.2,0.4-0.3l0,0
		c0.8-0.6,2-0.5,2.6,0.3l0,0c0.4,0.5,1.1,0.9,1.8,0.9c1.3,0,2.3-1,2.3-2.3c0-1.3-1-2.3-2.3-2.3c-0.2,0-0.4,0-0.6,0.1l0,0
		c-1,0.3-2-0.3-2.3-1.3l0,0c-0.5-1.9-2.2-3.3-4.2-3.3C1140.2,97.7,1138.2,99.6,1138.2,102z"/>
	<path class="st2" d="M1171.8,130.5L1171.8,130.5c0.9,0.3,1.4,1.3,1.1,2.2l0,0c-0.1,0.3-0.2,0.7-0.2,1.1c0,2,1.6,3.5,3.5,3.5
		c2,0,3.5-1.6,3.5-3.5c0-1.8-1.4-3.3-3.2-3.5l0,0c-1-0.1-1.6-1-1.5-1.9l0,0c0.1-0.8-0.2-1.6-0.7-2.1c-1-1-2.7-1-3.7,0
		c-1,1-1,2.7,0,3.7C1171,130.1,1171.4,130.3,1171.8,130.5z"/>
	<path class="st2" d="M1135.5,100.2c1,0,1.8-0.8,1.8-1.8c0-0.2,0-0.4-0.1-0.6l0,0c-0.3-0.9,0.1-1.9,1-2.2l0,0c0.8-0.3,1.3-1,1.3-1.9
		c0-1.1-0.9-2-2-2c-1.1,0-2,0.9-2,2c0,0.3,0.1,0.6,0.2,0.8l0,0c0.4,0.9,0,1.9-0.9,2.2l0,0c-0.6,0.3-1.1,0.9-1.1,1.7
		C1133.7,99.3,1134.5,100.2,1135.5,100.2z"/>
	<path class="st2" d="M1118,105.3c1.6,0,2.9-1,3.4-2.4l0,0c0.6-1.5,2.2-2.2,3.7-1.7l0,0c0.6,0.2,1.3,0.4,2,0.4c0.3,0,0.7,0,1-0.1
		l0,0c1.6-0.3,3.2,0.8,3.4,2.4l0,0c0.2,1,1,1.7,2,1.7c1.1,0,2-0.9,2-2c0-0.9-0.5-1.6-1.3-1.9l0,0c-1.5-0.6-2.3-2.3-1.7-3.8l0,0
		c0.2-0.6,0.4-1.3,0.4-2c0-3.2-2.6-5.7-5.7-5.7c-3,0-5.4,2.3-5.7,5.2l0,0c-0.1,1.6-1.5,2.7-3.1,2.6l0,0c-0.1,0-0.2,0-0.3,0
		c-2,0-3.6,1.6-3.6,3.6C1114.4,103.7,1116,105.3,1118,105.3z"/>
	<path class="st2" d="M1149.5,113.2c-1.5,0-2.7,1.2-2.7,2.7c0,0.6,0.2,1.2,0.6,1.7l0,0c0.5,0.7,0.4,1.7-0.3,2.3l0,0
		c-0.4,0.3-0.7,0.9-0.7,1.4c0,1,0.8,1.8,1.8,1.8c1,0,1.8-0.8,1.8-1.8c0-0.3-0.1-0.5-0.2-0.8l0,0c-0.4-0.8,0-1.8,0.8-2.1l0,0
		c1-0.4,1.6-1.4,1.6-2.5C1152.2,114.4,1151,113.2,1149.5,113.2z"/>
	<path class="st2" d="M1177.3,182.3c-0.8,0-1.6,0.5-1.9,1.3l0,0c-0.7,1.7-2.6,2.4-4.2,1.8l0,0c-0.5-0.2-1.1-0.3-1.7-0.3
		c-2.4,0-4.4,2-4.4,4.4c0,2.4,2,4.4,4.4,4.4c2.4,0,4.3-1.9,4.4-4.3l0,0c0-1.8,1.5-3.2,3.3-3.1l0,0c0,0,0,0,0.1,0c1.1,0,2-0.9,2-2
		C1179.3,183.2,1178.4,182.3,1177.3,182.3z"/>
	<path class="st2" d="M1169.2,203.7c-0.8,0-1.5,0.5-1.8,1.1l0,0c-0.7,1.4-2.4,1.9-3.8,1.2l0,0c-0.4-0.2-0.9-0.4-1.4-0.4
		c-1.7,0-3.1,1.4-3.1,3.1s1.4,3.1,3.1,3.1c1.4,0,2.6-1,3-2.3l0,0c0.4-1.5,2-2.4,3.5-2l0,0c0.2,0,0.3,0.1,0.5,0.1c1.1,0,2-0.9,2-2
		C1171.2,204.6,1170.3,203.7,1169.2,203.7z"/>
	<path class="st2" d="M1124.5,163.8c0-1.1-0.9-2-2-2c-1.1,0-2,0.9-2,2c0,0.3,0.1,0.5,0.1,0.8l0,0c0.5,1.4-0.5,2.8-1.9,2.8l0,0
		c0,0-0.1,0-0.1,0c-2.2,0-3.9,1.8-3.9,3.9c0,2.2,1.8,3.9,3.9,3.9c2.2,0,3.9-1.8,3.9-3.9c0-0.9-0.3-1.7-0.8-2.3l0,0
		c-0.9-1.2-0.2-2.9,1.2-3.2l0,0C1123.8,165.5,1124.5,164.7,1124.5,163.8z"/>
	<path class="st2" d="M1159,119.3c0.2,0,0.5,0,0.7-0.1l0,0c1-0.1,1.9,0.5,2,1.5l0,0c0.1,0.6,0.7,1.1,1.3,1.1c0.7,0,1.3-0.6,1.3-1.3
		c0-0.5-0.3-1-0.7-1.2l0,0c-0.7-0.4-1.1-1.2-0.9-2c0.6-0.5,1.5-0.5,2.2,0l0,0c0.4,0.3,0.8,0.4,1.3,0.4c1.2,0,2.1-0.9,2.1-2.1
		c0-1.2-0.9-2.1-2.1-2.1c-0.4,0-0.7,0.1-1,0.3l0,0c-0.9,0.5-2,0.1-2.4-0.7l0,0c-0.7-1.4-2.1-2.3-3.8-2.3c-2.3,0-4.3,1.9-4.3,4.3
		C1154.7,117.4,1156.6,119.3,1159,119.3z"/>
	<path class="st2" d="M1174.6,121.3L1174.6,121.3c1.3,0.2,2.2,1.4,2,2.7l0,0c0,0.1,0,0.3,0,0.4c0,1.5,1.2,2.7,2.7,2.7
		c1.5,0,2.7-1.2,2.7-2.7c0-1.2-0.8-2.2-1.9-2.6l0,0c-1.3-0.4-2-1.7-1.6-3l0,0c0.1-0.3,0.2-0.6,0.2-1c0-1.9-1.5-3.4-3.4-3.4
		c-1.9,0-3.4,1.5-3.4,3.4C1171.7,119.6,1173,121.1,1174.6,121.3z"/>
	<path class="st2" d="M1142.7,160.9c0.1,2,1.8,3.6,3.8,3.5c1.3-0.1,2.4-0.8,3-1.9l0,0c0.7-1.3,2.4-1.8,3.7-1.1l0,0
		c0.3,0.2,0.6,0.3,1,0.3c1.1,0,2-0.9,2-2c0-1.1-0.9-2-2-2c-0.6,0-1.1,0.2-1.4,0.6l0,0c-0.6,0.6-1.3,0.8-2.1,0.8l-0.1-0.3
		c-0.1,0.1-0.1,0.2-0.2,0.3c-0.5-0.1-1-0.3-1.5-0.8l0,0c-0.7-0.7-1.7-1.2-2.8-1.1C1144.2,157.1,1142.6,158.8,1142.7,160.9z"/>
	<path class="st2" d="M1034.5,158.9c0.8,0,1.4-0.4,1.8-1.1l0,0c1-1.9,3.4-2.5,5.2-1.5l0,0c0.6,0.4,1.3,0.6,2.1,0.6
		c2.2,0,3.9-1.6,4.3-3.6l0,0c0.4-2,2.3-3.3,4.3-3l0,0c0.2,0,0.3,0,0.5,0c1.5,0,2.7-1.2,2.7-2.7c0-1.5-1.2-2.7-2.7-2.7
		c-0.1,0-0.3,0-0.4,0l0,0c-1.1,0.2-2.2-0.6-2.3-1.8l0,0c-0.1-1-1-1.8-2-1.8c-1.1,0-2,0.9-2,2c0,1.1,0.9,2,2,2l0,0c1,0,1.8,0.7,2,1.6
		c-1,1.5-2.9,2.1-4.6,1.4l0,0c-0.5-0.2-1.1-0.4-1.8-0.4c-2.2,0-4,1.6-4.3,3.7l0,0c-0.4,2.1-2.3,3.5-4.4,3.1l0,0c-0.1,0-0.2,0-0.3,0
		c-1.1,0-2,0.9-2,2C1032.5,158,1033.4,158.9,1034.5,158.9z"/>
	<path class="st2" d="M1103.1,198.6c-0.5,0-1,0.2-1.3,0.5l0,0c-2.1,1.9-5.3,1.7-7.2-0.4l0,0c-0.8-0.9-2-1.5-3.3-1.5
		c-2.4,0-4.4,2-4.4,4.4s2,4.4,4.4,4.4c1.6,0,2.9-0.8,3.7-2.1l0,0c1.5-2.4,4.6-3.1,7-1.6l0,0c0.3,0.2,0.7,0.3,1.1,0.3
		c1.1,0,2-0.9,2-2C1105.2,199.5,1104.3,198.6,1103.1,198.6z"/>
	<path class="st2" d="M1105.6,137.1c-0.1,0-0.1,0-0.2,0l0,0c-1.2,0.1-2.2-0.8-2.3-1.9l0,0c-0.1-1-0.9-1.8-2-1.8c-1.1,0-2,0.9-2,2
		c0,1.1,0.9,2,2,2c0.1,0,0.2,0,0.3,0l0,0c1.2-0.2,2.3,0.6,2.4,1.8l0,0c0.1,0.9,0.9,1.6,1.8,1.6c1,0,1.8-0.8,1.8-1.8
		C1107.5,137.9,1106.6,137.1,1105.6,137.1z"/>
	<path class="st2" d="M1033.5,171.3c-1.5-0.9-2-2.8-1.1-4.4c0.8-1.3,0.3-3-1-3.7c-1.3-0.8-3-0.3-3.7,1c-0.8,1.3-0.3,3,1,3.7
		c1.5,0.9,2,2.8,1.1,4.4c-0.4,0.6-0.5,1.3-0.3,2.1c0.4,1.5,1.9,2.3,3.3,2c1.5-0.4,2.3-1.9,2-3.3
		C1034.6,172.3,1034.1,171.7,1033.5,171.3z"/>
	<path class="st2" d="M1092.7,171.4c0-5-4.1-9.1-9.1-9.1s-9.1,4.1-9.1,9.1c0,0.3,0,0.6,0,0.9l0,0c0.3,3.1-2,5.9-5.1,6.2l0,0
		c-2.2,0.2-4,2.1-4,4.3c0,2.4,2,4.4,4.4,4.4c2,0,3.7-1.3,4.2-3.2l0,0c0.9-3,4-4.8,7.1-3.9l0,0c0.8,0.2,1.7,0.4,2.5,0.4
		C1088.6,180.5,1092.7,176.4,1092.7,171.4z"/>
	<path class="st2" d="M1095.4,137.7c-2.3,0-4.2,1.3-5.2,3.3l0,0c-1.4,2.9-4.9,4.1-7.8,2.8l0,0c-0.9-0.4-1.9-0.7-2.9-0.7
		c-3.7,0-6.7,3-6.7,6.7c0,3.7,3,6.7,6.7,6.7c2.9,0,5.3-1.8,6.3-4.4l0,0c1.1-3,4.5-4.5,7.5-3.4l0,0c0.6,0.2,1.3,0.4,2,0.4
		c3.2,0,5.7-2.6,5.7-5.7C1101.1,140.3,1098.6,137.7,1095.4,137.7z"/>
	<path class="st2" d="M1101.9,182.9c-1.6-0.3-3.3,0.1-4.5,1l0,0c-1.2,0.9-2.8,0.6-3.7-0.6l0,0c-0.4-0.5-1-0.9-1.7-1.1
		c-1.5-0.3-2.9,0.7-3.2,2.1c-0.3,1.5,0.7,2.9,2.1,3.2c0.4,0.1,0.7,0.1,1.1,0c1.4-0.3,2.8,0.6,3.1,2c0.4,2.2,2.2,4,4.5,4.5
		c3.1,0.6,6.1-1.4,6.7-4.5C1107,186.6,1105,183.6,1101.9,182.9z"/>
	<path class="st2" d="M1076.1,195.5L1076.1,195.5c0.9,1.9,2.9,3.2,5.1,3.2c3.2,0,5.7-2.6,5.7-5.7s-2.6-5.7-5.7-5.7
		c-1.8,0-3.4,0.8-4.5,2.2l0,0c-0.9,1.1-2.5,1.3-3.6,0.4l0,0c-0.5-0.4-1.1-0.6-1.7-0.6c-1.5,0-2.7,1.2-2.7,2.7c0,1.5,1.2,2.7,2.7,2.7
		c0.4,0,0.9-0.1,1.2-0.3l0,0C1074,193.7,1075.5,194.2,1076.1,195.5z"/>
	<path class="st2" d="M1065.7,174.7L1065.7,174.7c2.1-0.3,3.8-2.1,3.8-4.3c0-2.2-1.7-4.1-3.9-4.3l0,0c-2.7-0.3-4.6-2.7-4.3-5.4l0,0
		c0-0.2,0-0.4,0-0.7c0-3.2-2.6-5.7-5.7-5.7c-3.2,0-5.7,2.6-5.7,5.7s2.6,5.7,5.7,5.7c0,0,0.1,0,0.1,0l0,0c2.7,0,4.9,2.1,4.9,4.7
		c-0.1,1.9-1.7,3.4-3.6,3.4l0,0c0,0-0.1,0-0.1,0c-3.2,0-5.7,2.6-5.7,5.7s2.6,5.7,5.7,5.7c3.2,0,5.7-2.6,5.7-5.7c0-0.3,0-0.5-0.1-0.8
		l0,0C1062.4,176.7,1063.8,175,1065.7,174.7z"/>
	<path class="st2" d="M1085.6,101.8L1085.6,101.8c-0.8,0.3-1.3,1-1.3,1.9c0,1.1,0.9,2,2,2c1,0,1.8-0.7,2-1.7l0,0
		c0.3-1.6,1.8-2.7,3.4-2.4l0,0c0.3,0.1,0.6,0.1,1,0.1c0.7,0,1.4-0.1,2-0.4l0,0c1.5-0.6,3.1,0.2,3.7,1.7l0,0c0.5,1.4,1.8,2.4,3.4,2.4
		c2,0,3.6-1.6,3.6-3.6c0-2-1.6-3.6-3.6-3.6c-0.1,0-0.2,0-0.3,0l0,0c-1.6,0.1-2.9-1-3.1-2.6l0,0c-0.2-2.9-2.7-5.2-5.7-5.2
		c-3.2,0-5.7,2.6-5.7,5.7c0,0.7,0.1,1.4,0.4,2l0,0C1087.9,99.5,1087.1,101.2,1085.6,101.8z"/>
	<path class="st2" d="M1057.1,140.6c3.5,0.7,5.8,4.2,5.1,7.7c-0.1,0.3-0.1,0.6-0.1,0.9c0,2.4,2,4.4,4.4,4.4c2.4,0,4.4-2,4.4-4.4
		c0-0.9-0.3-1.7-0.7-2.4l0,0c-1.1-1.7-0.6-3.9,1.1-5l0,0c0.6-0.4,0.9-1,0.9-1.7c0-1.1-0.9-2-2-2c-1.1,0-2,0.9-2,2
		c0,0.2,0,0.3,0.1,0.5l0,0c0.3,1.4-0.2,2.8-1.2,3.6c-2-2-2.5-5.1-1.1-7.7l0,0c0.6-1.1,1-2.4,1-3.8c0-4.5-3.6-8.1-8.1-8.1
		s-8.1,3.6-8.1,8.1C1050.6,136.6,1053.4,139.8,1057.1,140.6z"/>
	<path class="st2" d="M1040.9,171.7c1.1,0,2.2-0.3,3.1-0.9l0,0c1.3-0.8,2.9-0.4,3.7,0.8l0,0c0.5,0.8,1.3,1.3,2.3,1.3
		c1.5,0,2.7-1.2,2.7-2.7c0-1.5-1.2-2.7-2.7-2.7c-0.1,0-0.3,0-0.4,0l0,0c-1.5,0.2-2.8-0.8-3-2.3l0,0c-0.4-2.8-2.8-4.9-5.7-4.9
		c-3.2,0-5.7,2.6-5.7,5.7S1037.7,171.7,1040.9,171.7z"/>
	<path class="st2" d="M1067,196.1L1067,196.1c-2.3-0.7-3.7-3.1-3-5.5l0,0c0.3-1.1,0-2.2-1-2.9c-1.2-0.9-2.9-0.6-3.8,0.6
		c-0.5,0.7-0.6,1.6-0.4,2.3l0,0c0.7,2.7-0.8,5.4-3.5,6.1l0,0c-1.1,0.3-2,1.3-2,2.6c0,1.5,1.2,2.7,2.7,2.7c1.5,0,2.7-1.2,2.7-2.7
		c0-0.2,0-0.5-0.1-0.7l0,0c-0.6-2.3,0.4-4.6,2.4-5.7c1.4,1.3,1.9,3.5,0.9,5.3l0,0c-0.3,0.6-0.6,1.3-0.6,2.1c0,2.4,2,4.4,4.4,4.4
		c2.4,0,4.4-2,4.4-4.4C1070.2,198.3,1068.8,196.7,1067,196.1z"/>
	<path class="st2" d="M1054.7,189.4c0-2.4-2-4.4-4.4-4.4c-0.6,0-1.1,0.1-1.7,0.3l0,0c-1.7,0.7-3.5-0.1-4.2-1.8l0,0
		c-0.3-0.7-1-1.3-1.9-1.3c-1.1,0-2,0.9-2,2c0,1.1,0.9,2,2,2c0,0,0,0,0.1,0l0,0c1.8,0,3.3,1.4,3.3,3.1l0,0c0.1,2.4,2,4.3,4.4,4.3
		C1052.7,193.8,1054.7,191.8,1054.7,189.4z"/>
	<path class="st2" d="M1069.4,158.9c-0.1-0.1-0.2-0.2-0.2-0.3l-0.1,0.3c-0.7,0.1-1.5-0.2-2.1-0.8l0,0c-0.4-0.4-0.9-0.6-1.4-0.6
		c-1.1,0-2,0.9-2,2c0,1.1,0.9,2,2,2c0.4,0,0.7-0.1,1-0.3l0,0c1.3-0.7,3-0.2,3.7,1.1l0,0c0.6,1.1,1.7,1.8,3,1.9
		c2,0.1,3.7-1.5,3.8-3.5c0.1-2-1.5-3.7-3.5-3.8c-1.1-0.1-2.1,0.4-2.8,1.1l0,0C1070.5,158.5,1070,158.8,1069.4,158.9z"/>
	<path class="st2" d="M1072.1,134.3c0,1.6,1.3,3,3,3c1.4,0,2.6-1,2.9-2.3l0,0c0.5-2,2.3-3.3,4.2-3.3c1.1,1.3,1.2,3.2,0.2,4.6l0,0
		c-0.9,1.3-0.7,3.2,0.6,4.2c1.3,1.1,3.3,0.9,4.5-0.4c1-1.2,0.9-2.8,0.1-4l0,0c-1.3-1.7-1-4.1,0.7-5.4l0,0c1.3-1,2.2-2.7,2.2-4.5
		c0-3.2-2.6-5.7-5.7-5.7c-3.2,0-5.7,2.6-5.7,5.7c0,0.1,0,0.3,0,0.4l0,0c0.2,2.4-1.6,4.5-4.1,4.7l0,0
		C1073.3,131.4,1072.1,132.7,1072.1,134.3z"/>
	<path class="st2" d="M1105.4,123c0-2.8-2.2-5.1-5-5.3l0,0c-2.3-0.2-4-2-4.2-4.2c1-1.5,2.9-2.1,4.6-1.4l0,0c0.2,0.1,0.5,0.2,0.8,0.2
		c1.1,0,2-0.9,2-2c0-1.1-0.9-2-2-2c-0.7,0-1.2,0.3-1.6,0.8l0,0c-1.3,1.6-3.6,1.9-5.2,0.7l0,0c-0.6-0.5-1.4-0.8-2.3-0.8
		c-2,0-3.7,1.7-3.7,3.7c0,1.7,1.2,3.2,2.8,3.6l0,0c2.4,0.6,3.9,3.1,3.3,5.5l0,0c-0.1,0.4-0.2,0.9-0.2,1.3c0,2.9,2.4,5.3,5.3,5.3
		C1103,128.3,1105.4,125.9,1105.4,123z"/>
	<path class="st2" d="M1042.8,179L1042.8,179c1.1,0.6,2.5,0.3,3.3-0.7c1-1.2,0.8-2.9-0.3-3.9c-1.2-1-2.9-0.8-3.8,0.3
		c-0.2,0.3-0.4,0.6-0.5,1c-0.5,1.5-2.1,2.4-3.6,1.9c-0.7-0.2-1.4,0-1.9,0.6c-0.6,0.8-0.5,1.9,0.2,2.6c0.8,0.6,1.9,0.5,2.6-0.2
		c0.1-0.1,0.2-0.2,0.2-0.3l0,0C1039.7,178.9,1041.4,178.3,1042.8,179z"/>
	<path class="st2" d="M1067.1,125L1067.1,125c1,0.1,1.8,1,1.7,2.1l0,0c0,0.1,0,0.1,0,0.2c0,1.1,0.9,2,2,2c1.1,0,2-0.9,2-2
		c0-1.1-0.8-1.9-1.9-2l0,0c-1-0.1-1.8-1-1.7-2.1l0,0c0-0.1,0-0.1,0-0.2c0-1.1-0.9-2-2-2c-1.1,0-2,0.9-2,2
		C1065.2,124.1,1066.1,125,1067.1,125z"/>
	<path class="st2" d="M1043.5,137.2c2,0,3.5-1.6,3.5-3.5c0-0.4-0.1-0.7-0.2-1.1l0,0c-0.3-0.9,0.2-1.9,1.1-2.2l0,0
		c0.4-0.1,0.8-0.3,1.1-0.6c1-1,1-2.7,0-3.7c-1-1-2.7-1-3.7,0c-0.6,0.6-0.8,1.4-0.7,2.1l0,0c0.1,1-0.6,1.8-1.5,1.9l0,0
		c-1.8,0.2-3.2,1.7-3.2,3.5C1040,135.7,1041.6,137.2,1043.5,137.2z"/>
	<path class="st2" d="M1053.7,117.8c0.5,0,0.9-0.2,1.3-0.4l0,0c0.7-0.5,1.6-0.5,2.2,0c0.2,0.8-0.2,1.6-0.9,2l0,0
		c-0.4,0.2-0.7,0.7-0.7,1.2c0,0.7,0.6,1.3,1.3,1.3c0.7,0,1.2-0.5,1.3-1.1l0,0c0.1-1,1-1.6,2-1.5l0,0c0.2,0,0.4,0.1,0.7,0.1
		c2.3,0,4.3-1.9,4.3-4.3c0-2.3-1.9-4.3-4.3-4.3c-1.6,0-3,0.9-3.8,2.3l0,0c-0.5,0.9-1.5,1.2-2.4,0.7l0,0c-0.3-0.2-0.6-0.3-1-0.3
		c-1.2,0-2.1,0.9-2.1,2.1C1051.6,116.8,1052.6,117.8,1053.7,117.8z"/>
	<path class="st2" d="M1083.5,206.5c-0.1,0-0.1,0-0.2,0l0,0c-1.2,0.1-2.2-0.7-2.3-1.9l0,0c-0.2-1.8-1.7-3.3-3.6-3.3
		c-2,0-3.6,1.6-3.6,3.6c0,2,1.6,3.6,3.6,3.6c0.6,0,1.2-0.2,1.7-0.4l0,0c1-0.5,2.3-0.1,2.9,0.9l0,0c0.3,0.6,0.9,1,1.6,1
		c1,0,1.8-0.8,1.8-1.8C1085.3,207.3,1084.5,206.5,1083.5,206.5z"/>
	<path class="st2" d="M1081.6,95.5L1081.6,95.5c0.9,0.3,1.3,1.3,1,2.2l0,0c-0.1,0.2-0.1,0.4-0.1,0.6c0,1,0.8,1.8,1.8,1.8
		c1,0,1.8-0.8,1.8-1.8c0-0.7-0.5-1.4-1.1-1.7l0,0c-0.9-0.4-1.3-1.4-0.9-2.2l0,0c0.1-0.2,0.2-0.5,0.2-0.8c0-1.1-0.9-2-2-2s-2,0.9-2,2
		C1080.2,94.5,1080.8,95.2,1081.6,95.5z"/>
	<path class="st2" d="M1070.2,106.7c0.7,0,1.4-0.3,1.8-0.9l0,0c0.6-0.8,1.8-0.9,2.6-0.3l0,0c0.1,0.1,0.3,0.2,0.4,0.3l0,0
		c1.8,1.1,2.4,3.6,1.3,5.4l0,0c-0.4,0.7-0.7,1.5-0.7,2.3c0,2.4,2,4.4,4.4,4.4c2.4,0,4.4-2,4.4-4.4c0-1.6-0.8-2.9-2.1-3.7l0,0
		c-1.8-1.1-2.4-3.6-1.3-5.4l0,0c0.4-0.7,0.7-1.5,0.7-2.3c0-2.4-2-4.4-4.4-4.4c-2,0-3.7,1.4-4.2,3.3l0,0c-0.3,1-1.3,1.6-2.3,1.3l0,0
		c-0.2-0.1-0.4-0.1-0.6-0.1c-1.3,0-2.3,1-2.3,2.3C1067.9,105.6,1068.9,106.7,1070.2,106.7z"/>
	<path class="st2" d="M1069.2,118.4L1069.2,118.4c0.8,0.4,1.2,1.3,0.8,2.1l0,0c-0.1,0.2-0.2,0.5-0.2,0.8c0,1,0.8,1.8,1.8,1.8
		c1,0,1.8-0.8,1.8-1.8c0-0.6-0.3-1.1-0.7-1.4l0,0c-0.7-0.5-0.8-1.6-0.3-2.3l0,0c0.4-0.5,0.6-1,0.6-1.7c0-1.5-1.2-2.7-2.7-2.7
		c-1.5,0-2.7,1.2-2.7,2.7C1067.6,117,1068.3,118,1069.2,118.4z"/>
	<path class="st2" d="M1057.6,205.7c-0.5,0-1,0.1-1.4,0.4l0,0c-1.4,0.7-3.1,0.1-3.8-1.2l0,0c-0.3-0.7-1-1.1-1.8-1.1
		c-1.1,0-2,0.9-2,2c0,1.1,0.9,2,2,2c0.2,0,0.4,0,0.5-0.1l0,0c1.5-0.4,3,0.5,3.5,2l0,0c0.4,1.3,1.6,2.3,3,2.3c1.7,0,3.1-1.4,3.1-3.1
		S1059.3,205.7,1057.6,205.7z"/>
	<path class="st2" d="M1101.2,175.1c2.2,0,3.9-1.8,3.9-3.9c0-2.2-1.8-3.9-3.9-3.9c0,0-0.1,0-0.1,0l0,0c-1.5,0-2.5-1.4-1.9-2.8l0,0
		c0.1-0.2,0.1-0.5,0.1-0.8c0-1.1-0.9-2-2-2s-2,0.9-2,2c0,1,0.7,1.8,1.6,2l0,0c1.4,0.3,2.1,2,1.2,3.2l0,0c-0.5,0.7-0.8,1.4-0.8,2.3
		C1097.3,173.4,1099.1,175.1,1101.2,175.1z"/>
	<path class="st2" d="M1099.3,152.5c-0.6,0-1.1,0.2-1.5,0.6l0,0c-1.1,1.2-3.1,1.2-4.3,0.1l0,0c-0.5-0.5-1.2-0.8-1.9-0.8
		c-1.5,0-2.7,1.2-2.7,2.7c0,1.5,1.2,2.7,2.7,2.7c0.9,0,1.7-0.4,2.2-1.1l0,0c1-1.3,2.9-1.6,4.2-0.7l0,0c0.3,0.2,0.7,0.4,1.2,0.4
		c1.1,0,2-0.9,2-2C1101.3,153.4,1100.4,152.5,1099.3,152.5z"/>
	<path class="st2" d="M1043.2,124.5c0-0.1,0-0.3,0-0.4l0,0c-0.2-1.3,0.7-2.5,2-2.7l0,0c1.7-0.2,2.9-1.7,2.9-3.4
		c0-1.9-1.5-3.4-3.4-3.4s-3.4,1.5-3.4,3.4c0,0.3,0.1,0.7,0.2,1l0,0c0.4,1.3-0.3,2.6-1.6,3l0,0c-1.1,0.3-1.9,1.3-1.9,2.6
		c0,1.5,1.2,2.7,2.7,2.7C1042,127.1,1043.2,125.9,1043.2,124.5z"/>
</g>
<g>
	<rect x="1418.9" y="166.9" class="st8" width="4.3" height="2.2"/>
	<rect x="1424.6" y="166.9" class="st8" width="4.3" height="2.2"/>
	<rect x="1436.5" y="166.8" class="st8" width="4.3" height="2.2"/>
	<rect x="1430.8" y="166.8" class="st8" width="4.3" height="2.2"/>
</g>
<circle class="st8" cx="1409.1" cy="133.8" r="3.8"/>
<circle class="st8" cx="1409.1" cy="133.8" r="1.1"/>
<g>
	<circle class="st3" cx="1449.9" cy="133.8" r="3.8"/>
	<path class="st3" d="M1427.7,151.3c0-1-0.8-1.8-1.8-1.8c-1,0-1.8,0.8-1.8,1.8c0,1,0.8,1.8,1.8,1.8
		C1426.9,153.1,1427.7,152.3,1427.7,151.3z"/>
	<path class="st3" d="M1435.2,151.3c0-1-0.8-1.8-1.8-1.8s-1.8,0.8-1.8,1.8c0,1,0.8,1.8,1.8,1.8S1435.2,152.3,1435.2,151.3z"/>
	<path class="st3" d="M1442.8,165.8c-0.6,0.2-1.1,0.4-1.6,0.5c-0.7,0.1-1.6,0.1-2.4,0c-0.4,0-0.8,0-1.2,0h-15.2c-0.4,0-0.8,0-1.2,0
		c-0.8,0-1.7,0.1-2.4,0c-0.5-0.1-1.1-0.3-1.6-0.5c-1-0.4-2-0.8-3.2-0.6l0.1,1c1-0.1,1.8,0.2,2.7,0.5c0.6,0.2,1.2,0.5,1.8,0.6
		c0.8,0.1,1.7,0.1,2.6,0c0.4,0,0.8,0,1.2,0h15.2c0.4,0,0.8,0,1.2,0c0.4,0,0.9,0,1.3,0c0.4,0,0.9,0,1.3-0.1c0.6-0.1,1.2-0.3,1.8-0.6
		c0.9-0.3,1.7-0.7,2.7-0.5l0.1-1C1444.8,165.1,1443.8,165.5,1442.8,165.8z"/>
	<path class="st3" d="M1486.3,91.1c-3.2-6.3-14.6-10-20.5-15.1c-13.3-11.5-21.2-11.6-35.8-10.5c-14.6-1.1-22.4-1-35.8,10.5
		c-5.9,5.1-17.3,8.8-20.5,15.1c-3.4,6.6,0,22.6,0.9,29.5c1.1,9.2,6.1,17.6,8,27.2c1.8,9.1,6.5,17.9,9.9,26.4
		c0.8,2.1,3.1,9.6,4.6,11.6c1.2,1.6,2.6,2.1,3.5,2.8c0,0.9,0,1.8,0,2.7c0,19.9-3.5,35.2,2.2,35.2c1,0,2.4,0,3.9,0c0,3,0,5.9-0.1,8.6
		l1,0c0.2-4.4,0.1-9.5-0.1-14.7c0-1.5,0-3,0-4.7l0.1,0l0.1,0c-0.3-4.7-0.7-9.5-1.3-13.8s-1.4-8.1-2.4-10.9c-0.1-0.2-0.1-0.3-0.2-0.5
		c-0.4-3.2-0.9-6.5-1.5-8.5c-3.9-13.7-3.4-8.2-4.9-17.8c-2.9-19.3-6-33.3,0.9-51.9c3.2-8.7,3.4-11.9,12.1-12.2l-11.5,55.8l2.8-2.1v0
		l0,0l5-3.8l-3.7,18.9l2.5-1.4l36.5-44.7l-9.9,7.6l-24.6,17l42.2-47.2c8.8,0.3,9,3.5,12.2,12.2c6.9,18.7,3.8,32.6,0.9,51.9
		c-1.5,9.6-1,4.1-4.9,17.8c-0.5,1.7-0.7,4.3-0.9,6.9c-0.3,0.7-0.5,1.4-0.8,2.2c-1,2.8-1.8,6.6-2.4,10.9s-1,9.1-1.3,13.8l0.1,0l0.1,0
		c0,4.3,0,7.7,0.1,10.8c0.4,0,0.7,0,1,0c0.2,3.1,0.6,5.9,1.3,8.8l1-0.3c-0.7-2.8-1.1-5.5-1.3-8.5c1,0,1.9,0,2.6,0
		c5.7,0,2.2-15.3,2.2-35.2c0-0.9,0-1.8,0-2.7c0.9-0.7,2.4-1.2,3.5-2.8c1.5-2,3.7-9.5,4.6-11.6c3.4-8.4,8.2-17.3,9.9-26.4
		c1.8-9.5,6.9-17.9,8-27.2C1486.2,113.6,1489.7,97.7,1486.3,91.1z M1412.1,137.1c-2.1,0-3.8-1.7-3.8-3.8c0-2.1,1.7-3.8,3.8-3.8
		s3.8,1.7,3.8,3.8C1415.9,135.4,1414.2,137.1,1412.1,137.1z"/>
</g>
</svg>
