<svg id="Layer_1" data-name="Layer 1" xmlns="http://www.w3.org/2000/svg" viewBox="0 0 300 300"><defs><style>.cls-1{fill:#fff;}.cls-1,.cls-3,.cls-4{stroke:#a12124;stroke-miterlimit:10;}.cls-1,.cls-3{stroke-width:3.5px;}.cls-2{fill:#a12124;}.cls-3,.cls-4{fill:none;}.cls-4{stroke-width:1.75px;}</style></defs><title>moods</title><path class="cls-1" d="M240,237.75a4.49,4.49,0,0,1-4.5,4.5H64.5a4.49,4.49,0,0,1-4.5-4.5v-171a4.49,4.49,0,0,1,4.5-4.5h171a4.49,4.49,0,0,1,4.5,4.5Z"/><path class="cls-1" d="M231,111.82a4.49,4.49,0,0,1-4.5,4.5H73.5a4.49,4.49,0,0,1-4.5-4.5v-36a4.5,4.5,0,0,1,4.5-4.5h153a4.5,4.5,0,0,1,4.5,4.5Z"/><circle class="cls-2" cx="75.69" cy="130.2" r="1.13"/><circle class="cls-2" cx="75.69" cy="134.7" r="1.13"/><circle class="cls-2" cx="80.19" cy="130.2" r="1.13"/><circle class="cls-2" cx="80.19" cy="134.7" r="1.13"/><circle class="cls-2" cx="85.01" cy="130.2" r="1.13"/><circle class="cls-2" cx="85.01" cy="134.7" r="1.13"/><circle class="cls-2" cx="89.51" cy="130.2" r="1.13"/><circle class="cls-2" cx="89.51" cy="134.7" r="1.13"/><circle class="cls-2" cx="94.01" cy="130.2" r="1.13"/><circle class="cls-2" cx="94.01" cy="134.7" r="1.13"/><circle class="cls-2" cx="98.51" cy="130.2" r="1.13"/><circle class="cls-2" cx="98.51" cy="134.7" r="1.13"/><circle class="cls-2" cx="103.33" cy="130.2" r="1.13"/><circle class="cls-2" cx="103.33" cy="134.7" r="1.13"/><circle class="cls-2" cx="107.83" cy="130.2" r="1.13"/><circle class="cls-2" cx="107.83" cy="134.7" r="1.13"/><circle class="cls-2" cx="112.49" cy="130.2" r="1.13"/><circle class="cls-2" cx="112.49" cy="134.7" r="1.13"/><circle class="cls-2" cx="116.99" cy="130.2" r="1.13"/><circle class="cls-2" cx="116.99" cy="134.7" r="1.13"/><circle class="cls-2" cx="121.81" cy="130.2" r="1.13"/><circle class="cls-2" cx="121.81" cy="134.7" r="1.13"/><circle class="cls-2" cx="126.31" cy="130.2" r="1.13"/><circle class="cls-2" cx="126.31" cy="134.7" r="1.13"/><circle class="cls-2" cx="130.81" cy="130.2" r="1.13"/><circle class="cls-2" cx="130.81" cy="134.7" r="1.13"/><circle class="cls-2" cx="135.31" cy="130.2" r="1.13"/><circle class="cls-2" cx="135.31" cy="134.7" r="1.13"/><circle class="cls-2" cx="140.14" cy="130.2" r="1.13"/><circle class="cls-2" cx="140.14" cy="134.7" r="1.13"/><circle class="cls-2" cx="144.64" cy="130.2" r="1.13"/><circle class="cls-2" cx="144.64" cy="134.7" r="1.13"/><circle class="cls-2" cx="75.71" cy="139.65" r="1.13"/><circle class="cls-2" cx="75.71" cy="144.15" r="1.13"/><circle class="cls-2" cx="80.21" cy="139.65" r="1.13"/><circle class="cls-2" cx="80.21" cy="144.15" r="1.13"/><circle class="cls-2" cx="85.03" cy="139.65" r="1.13"/><circle class="cls-2" cx="85.03" cy="144.15" r="1.13"/><circle class="cls-2" cx="89.53" cy="139.65" r="1.13"/><circle class="cls-2" cx="89.53" cy="144.15" r="1.13"/><circle class="cls-2" cx="94.03" cy="139.65" r="1.13"/><circle class="cls-2" cx="94.03" cy="144.15" r="1.13"/><circle class="cls-2" cx="98.53" cy="139.65" r="1.13"/><circle class="cls-2" cx="98.53" cy="144.15" r="1.13"/><circle class="cls-2" cx="103.35" cy="139.65" r="1.13"/><circle class="cls-2" cx="103.35" cy="144.15" r="1.13"/><circle class="cls-2" cx="107.85" cy="139.65" r="1.13"/><circle class="cls-2" cx="107.85" cy="144.15" r="1.13"/><circle class="cls-2" cx="112.51" cy="139.65" r="1.13"/><circle class="cls-2" cx="112.51" cy="144.15" r="1.13"/><circle class="cls-2" cx="117.01" cy="139.65" r="1.13"/><circle class="cls-2" cx="117.01" cy="144.15" r="1.13"/><circle class="cls-2" cx="121.83" cy="139.65" r="1.13"/><circle class="cls-2" cx="121.83" cy="144.15" r="1.13"/><circle class="cls-2" cx="126.33" cy="139.65" r="1.13"/><circle class="cls-2" cx="126.33" cy="144.15" r="1.13"/><circle class="cls-2" cx="130.83" cy="139.65" r="1.13"/><circle class="cls-2" cx="130.83" cy="144.15" r="1.13"/><circle class="cls-2" cx="135.33" cy="139.65" r="1.13"/><circle class="cls-2" cx="135.33" cy="144.15" r="1.13"/><circle class="cls-2" cx="140.15" cy="139.65" r="1.13"/><circle class="cls-2" cx="140.15" cy="144.15" r="1.13"/><circle class="cls-2" cx="144.65" cy="139.65" r="1.13"/><circle class="cls-2" cx="144.65" cy="144.15" r="1.13"/><circle class="cls-2" cx="75.39" cy="148.88" r="1.13"/><circle class="cls-2" cx="75.39" cy="153.38" r="1.13"/><circle class="cls-2" cx="79.89" cy="148.88" r="1.13"/><circle class="cls-2" cx="79.89" cy="153.38" r="1.13"/><circle class="cls-2" cx="84.72" cy="148.88" r="1.13"/><circle class="cls-2" cx="84.72" cy="153.38" r="1.13"/><circle class="cls-2" cx="89.22" cy="148.88" r="1.13"/><circle class="cls-2" cx="89.22" cy="153.38" r="1.13"/><circle class="cls-2" cx="93.72" cy="148.88" r="1.13"/><circle class="cls-2" cx="93.72" cy="153.38" r="1.13"/><circle class="cls-2" cx="98.22" cy="148.88" r="1.13"/><circle class="cls-2" cx="98.22" cy="153.38" r="1.13"/><circle class="cls-2" cx="103.04" cy="148.88" r="1.13"/><circle class="cls-2" cx="103.04" cy="153.38" r="1.13"/><circle class="cls-2" cx="107.54" cy="148.88" r="1.13"/><circle class="cls-2" cx="107.54" cy="153.38" r="1.13"/><circle class="cls-2" cx="112.2" cy="148.88" r="1.13"/><circle class="cls-2" cx="112.2" cy="153.38" r="1.13"/><circle class="cls-2" cx="116.7" cy="148.88" r="1.13"/><circle class="cls-2" cx="116.7" cy="153.38" r="1.13"/><circle class="cls-2" cx="121.52" cy="148.88" r="1.13"/><circle class="cls-2" cx="121.52" cy="153.38" r="1.13"/><circle class="cls-2" cx="126.02" cy="148.88" r="1.13"/><circle class="cls-2" cx="126.02" cy="153.38" r="1.13"/><circle class="cls-2" cx="130.52" cy="148.88" r="1.13"/><circle class="cls-2" cx="130.52" cy="153.38" r="1.13"/><circle class="cls-2" cx="135.02" cy="148.88" r="1.13"/><circle class="cls-2" cx="135.02" cy="153.38" r="1.13"/><circle class="cls-2" cx="139.84" cy="148.88" r="1.13"/><circle class="cls-2" cx="139.84" cy="153.38" r="1.13"/><circle class="cls-2" cx="144.34" cy="148.88" r="1.13"/><circle class="cls-2" cx="144.34" cy="153.38" r="1.13"/><circle class="cls-2" cx="75.41" cy="158.33" r="1.13"/><circle class="cls-2" cx="75.41" cy="162.83" r="1.13"/><circle class="cls-2" cx="79.91" cy="158.33" r="1.13"/><circle class="cls-2" cx="79.91" cy="162.83" r="1.13"/><circle class="cls-2" cx="84.73" cy="158.33" r="1.13"/><circle class="cls-2" cx="84.73" cy="162.83" r="1.13"/><circle class="cls-2" cx="89.23" cy="158.33" r="1.13"/><circle class="cls-2" cx="89.23" cy="162.83" r="1.13"/><circle class="cls-2" cx="93.73" cy="158.33" r="1.13"/><circle class="cls-2" cx="93.73" cy="162.83" r="1.13"/><circle class="cls-2" cx="98.23" cy="158.33" r="1.13"/><circle class="cls-2" cx="98.23" cy="162.83" r="1.13"/><circle class="cls-2" cx="103.06" cy="158.33" r="1.13"/><circle class="cls-2" cx="103.06" cy="162.83" r="1.13"/><circle class="cls-2" cx="107.56" cy="158.33" r="1.13"/><circle class="cls-2" cx="107.56" cy="162.83" r="1.13"/><circle class="cls-2" cx="112.21" cy="158.33" r="1.13"/><circle class="cls-2" cx="112.21" cy="162.83" r="1.13"/><circle class="cls-2" cx="116.71" cy="158.33" r="1.13"/><circle class="cls-2" cx="116.71" cy="162.83" r="1.13"/><circle class="cls-2" cx="121.54" cy="158.33" r="1.13"/><circle class="cls-2" cx="121.54" cy="162.83" r="1.13"/><circle class="cls-2" cx="126.04" cy="158.33" r="1.13"/><circle class="cls-2" cx="126.04" cy="162.83" r="1.13"/><circle class="cls-2" cx="130.54" cy="158.33" r="1.13"/><circle class="cls-2" cx="130.54" cy="162.83" r="1.13"/><circle class="cls-2" cx="135.04" cy="158.33" r="1.13"/><circle class="cls-2" cx="135.04" cy="162.83" r="1.13"/><circle class="cls-2" cx="139.86" cy="158.33" r="1.13"/><circle class="cls-2" cx="139.86" cy="162.83" r="1.13"/><circle class="cls-2" cx="144.36" cy="158.33" r="1.13"/><circle class="cls-2" cx="144.36" cy="162.83" r="1.13"/><circle class="cls-2" cx="75.09" cy="167.77" r="1.13"/><circle class="cls-2" cx="75.09" cy="172.27" r="1.13"/><circle class="cls-2" cx="79.59" cy="167.77" r="1.13"/><circle class="cls-2" cx="79.59" cy="172.27" r="1.13"/><circle class="cls-2" cx="84.41" cy="167.77" r="1.13"/><circle class="cls-2" cx="84.41" cy="172.27" r="1.13"/><circle class="cls-2" cx="88.91" cy="167.77" r="1.13"/><circle class="cls-2" cx="88.91" cy="172.27" r="1.13"/><circle class="cls-2" cx="93.41" cy="167.77" r="1.13"/><circle class="cls-2" cx="93.41" cy="172.27" r="1.13"/><circle class="cls-2" cx="97.91" cy="167.77" r="1.13"/><circle class="cls-2" cx="97.91" cy="172.27" r="1.13"/><circle class="cls-2" cx="102.74" cy="167.77" r="1.13"/><circle class="cls-2" cx="102.74" cy="172.27" r="1.13"/><circle class="cls-2" cx="107.24" cy="167.77" r="1.13"/><circle class="cls-2" cx="107.24" cy="172.27" r="1.13"/><circle class="cls-2" cx="111.89" cy="167.77" r="1.13"/><circle class="cls-2" cx="111.89" cy="172.27" r="1.13"/><circle class="cls-2" cx="116.39" cy="167.77" r="1.13"/><circle class="cls-2" cx="116.39" cy="172.27" r="1.13"/><circle class="cls-2" cx="121.22" cy="167.77" r="1.13"/><circle class="cls-2" cx="121.22" cy="172.27" r="1.13"/><circle class="cls-2" cx="125.72" cy="167.77" r="1.13"/><circle class="cls-2" cx="125.72" cy="172.27" r="1.13"/><circle class="cls-2" cx="130.22" cy="167.77" r="1.13"/><circle class="cls-2" cx="130.22" cy="172.27" r="1.13"/><circle class="cls-2" cx="134.72" cy="167.77" r="1.13"/><circle class="cls-2" cx="134.72" cy="172.27" r="1.13"/><circle class="cls-2" cx="139.54" cy="167.77" r="1.13"/><circle class="cls-2" cx="139.54" cy="172.27" r="1.13"/><circle class="cls-2" cx="144.04" cy="167.77" r="1.13"/><circle class="cls-2" cx="144.04" cy="172.27" r="1.13"/><circle class="cls-2" cx="75.11" cy="177.23" r="1.13"/><circle class="cls-2" cx="75.11" cy="181.73" r="1.13"/><circle class="cls-2" cx="79.61" cy="177.23" r="1.13"/><circle class="cls-2" cx="79.61" cy="181.73" r="1.13"/><circle class="cls-2" cx="84.43" cy="177.23" r="1.13"/><circle class="cls-2" cx="84.43" cy="181.73" r="1.13"/><circle class="cls-2" cx="88.93" cy="177.23" r="1.13"/><circle class="cls-2" cx="88.93" cy="181.73" r="1.13"/><circle class="cls-2" cx="93.43" cy="177.23" r="1.13"/><circle class="cls-2" cx="93.43" cy="181.73" r="1.13"/><circle class="cls-2" cx="97.93" cy="177.23" r="1.13"/><circle class="cls-2" cx="97.93" cy="181.73" r="1.13"/><circle class="cls-2" cx="102.76" cy="177.23" r="1.13"/><circle class="cls-2" cx="102.76" cy="181.73" r="1.13"/><circle class="cls-2" cx="107.26" cy="177.23" r="1.13"/><circle class="cls-2" cx="107.26" cy="181.73" r="1.13"/><circle class="cls-2" cx="111.91" cy="177.23" r="1.13"/><circle class="cls-2" cx="111.91" cy="181.73" r="1.13"/><circle class="cls-2" cx="116.41" cy="177.23" r="1.13"/><circle class="cls-2" cx="116.41" cy="181.73" r="1.13"/><circle class="cls-2" cx="121.23" cy="177.23" r="1.13"/><circle class="cls-2" cx="121.23" cy="181.73" r="1.13"/><circle class="cls-2" cx="125.73" cy="177.23" r="1.13"/><circle class="cls-2" cx="125.73" cy="181.73" r="1.13"/><circle class="cls-2" cx="130.23" cy="177.23" r="1.13"/><circle class="cls-2" cx="130.23" cy="181.73" r="1.13"/><circle class="cls-2" cx="134.73" cy="177.23" r="1.13"/><circle class="cls-2" cx="134.73" cy="181.73" r="1.13"/><circle class="cls-2" cx="139.56" cy="177.23" r="1.13"/><circle class="cls-2" cx="139.56" cy="181.73" r="1.13"/><circle class="cls-2" cx="144.06" cy="177.23" r="1.13"/><circle class="cls-2" cx="144.06" cy="181.73" r="1.13"/><circle class="cls-2" cx="74.8" cy="186.45" r="1.13"/><circle class="cls-2" cx="74.8" cy="190.95" r="1.13"/><circle class="cls-2" cx="79.3" cy="186.45" r="1.13"/><circle class="cls-2" cx="79.3" cy="190.95" r="1.13"/><circle class="cls-2" cx="84.12" cy="186.45" r="1.13"/><circle class="cls-2" cx="84.12" cy="190.95" r="1.13"/><circle class="cls-2" cx="88.62" cy="186.45" r="1.13"/><circle class="cls-2" cx="88.62" cy="190.95" r="1.13"/><circle class="cls-2" cx="93.12" cy="186.45" r="1.13"/><circle class="cls-2" cx="93.12" cy="190.95" r="1.13"/><circle class="cls-2" cx="97.62" cy="186.45" r="1.13"/><circle class="cls-2" cx="97.62" cy="190.95" r="1.13"/><circle class="cls-2" cx="102.44" cy="186.45" r="1.13"/><circle class="cls-2" cx="102.44" cy="190.95" r="1.13"/><circle class="cls-2" cx="106.94" cy="186.45" r="1.13"/><circle class="cls-2" cx="106.94" cy="190.95" r="1.13"/><circle class="cls-2" cx="111.6" cy="186.45" r="1.13"/><circle class="cls-2" cx="111.6" cy="190.95" r="1.13"/><circle class="cls-2" cx="116.1" cy="186.45" r="1.13"/><circle class="cls-2" cx="116.1" cy="190.95" r="1.13"/><circle class="cls-2" cx="120.92" cy="186.45" r="1.13"/><circle class="cls-2" cx="120.92" cy="190.95" r="1.13"/><circle class="cls-2" cx="125.42" cy="186.45" r="1.13"/><circle class="cls-2" cx="125.42" cy="190.95" r="1.13"/><circle class="cls-2" cx="129.92" cy="186.45" r="1.13"/><circle class="cls-2" cx="129.92" cy="190.95" r="1.13"/><circle class="cls-2" cx="134.42" cy="186.45" r="1.13"/><circle class="cls-2" cx="134.42" cy="190.95" r="1.13"/><circle class="cls-2" cx="139.25" cy="186.45" r="1.13"/><circle class="cls-2" cx="139.25" cy="190.95" r="1.13"/><circle class="cls-2" cx="143.75" cy="186.45" r="1.13"/><circle class="cls-2" cx="143.75" cy="190.95" r="1.13"/><circle class="cls-2" cx="74.81" cy="195.9" r="1.13"/><circle class="cls-2" cx="74.81" cy="200.4" r="1.13"/><circle class="cls-2" cx="79.31" cy="195.9" r="1.13"/><circle class="cls-2" cx="79.31" cy="200.4" r="1.13"/><circle class="cls-2" cx="84.14" cy="195.9" r="1.13"/><circle class="cls-2" cx="84.14" cy="200.4" r="1.13"/><circle class="cls-2" cx="88.64" cy="195.9" r="1.13"/><circle class="cls-2" cx="88.64" cy="200.4" r="1.13"/><circle class="cls-2" cx="93.14" cy="195.9" r="1.13"/><circle class="cls-2" cx="93.14" cy="200.4" r="1.13"/><circle class="cls-2" cx="97.64" cy="195.9" r="1.13"/><circle class="cls-2" cx="97.64" cy="200.4" r="1.13"/><circle class="cls-2" cx="102.46" cy="195.9" r="1.13"/><circle class="cls-2" cx="102.46" cy="200.4" r="1.13"/><circle class="cls-2" cx="106.96" cy="195.9" r="1.13"/><circle class="cls-2" cx="106.96" cy="200.4" r="1.13"/><circle class="cls-2" cx="111.62" cy="195.9" r="1.13"/><circle class="cls-2" cx="111.62" cy="200.4" r="1.13"/><circle class="cls-2" cx="116.12" cy="195.9" r="1.13"/><circle class="cls-2" cx="116.12" cy="200.4" r="1.13"/><circle class="cls-2" cx="120.94" cy="195.9" r="1.13"/><circle class="cls-2" cx="120.94" cy="200.4" r="1.13"/><circle class="cls-2" cx="125.44" cy="195.9" r="1.13"/><circle class="cls-2" cx="125.44" cy="200.4" r="1.13"/><circle class="cls-2" cx="129.94" cy="195.9" r="1.13"/><circle class="cls-2" cx="129.94" cy="200.4" r="1.13"/><circle class="cls-2" cx="134.44" cy="195.9" r="1.13"/><circle class="cls-2" cx="134.44" cy="200.4" r="1.13"/><circle class="cls-2" cx="139.26" cy="195.9" r="1.13"/><circle class="cls-2" cx="139.26" cy="200.4" r="1.13"/><circle class="cls-2" cx="143.76" cy="195.9" r="1.13"/><circle class="cls-2" cx="143.76" cy="200.4" r="1.13"/><circle class="cls-2" cx="74.64" cy="204.52" r="1.13"/><circle class="cls-2" cx="74.64" cy="209.02" r="1.13"/><circle class="cls-2" cx="79.14" cy="204.52" r="1.13"/><circle class="cls-2" cx="79.14" cy="209.02" r="1.13"/><circle class="cls-2" cx="83.96" cy="204.52" r="1.13"/><circle class="cls-2" cx="83.96" cy="209.02" r="1.13"/><circle class="cls-2" cx="88.46" cy="204.52" r="1.13"/><circle class="cls-2" cx="88.46" cy="209.02" r="1.13"/><circle class="cls-2" cx="92.96" cy="204.52" r="1.13"/><circle class="cls-2" cx="92.96" cy="209.02" r="1.13"/><circle class="cls-2" cx="97.46" cy="204.52" r="1.13"/><circle class="cls-2" cx="97.46" cy="209.02" r="1.13"/><circle class="cls-2" cx="102.29" cy="204.52" r="1.13"/><circle class="cls-2" cx="102.29" cy="209.02" r="1.13"/><circle class="cls-2" cx="106.79" cy="204.52" r="1.13"/><circle class="cls-2" cx="106.79" cy="209.02" r="1.13"/><circle class="cls-2" cx="111.44" cy="204.52" r="1.13"/><circle class="cls-2" cx="111.44" cy="209.02" r="1.13"/><circle class="cls-2" cx="115.94" cy="204.52" r="1.13"/><circle class="cls-2" cx="115.94" cy="209.02" r="1.13"/><circle class="cls-2" cx="120.77" cy="204.52" r="1.13"/><circle class="cls-2" cx="120.77" cy="209.02" r="1.13"/><circle class="cls-2" cx="125.27" cy="204.52" r="1.13"/><circle class="cls-2" cx="125.27" cy="209.02" r="1.13"/><circle class="cls-2" cx="129.77" cy="204.52" r="1.13"/><circle class="cls-2" cx="129.77" cy="209.02" r="1.13"/><circle class="cls-2" cx="134.27" cy="204.52" r="1.13"/><circle class="cls-2" cx="134.27" cy="209.02" r="1.13"/><circle class="cls-2" cx="139.09" cy="204.52" r="1.13"/><circle class="cls-2" cx="139.09" cy="209.02" r="1.13"/><circle class="cls-2" cx="143.59" cy="204.52" r="1.13"/><circle class="cls-2" cx="143.59" cy="209.02" r="1.13"/><circle class="cls-2" cx="74.66" cy="213.97" r="1.13"/><circle class="cls-2" cx="74.66" cy="218.47" r="1.13"/><circle class="cls-2" cx="79.16" cy="213.97" r="1.13"/><circle class="cls-2" cx="79.16" cy="218.47" r="1.13"/><circle class="cls-2" cx="83.98" cy="213.97" r="1.13"/><circle class="cls-2" cx="83.98" cy="218.47" r="1.13"/><circle class="cls-2" cx="88.48" cy="213.97" r="1.13"/><circle class="cls-2" cx="88.48" cy="218.47" r="1.13"/><circle class="cls-2" cx="92.98" cy="213.97" r="1.13"/><circle class="cls-2" cx="92.98" cy="218.47" r="1.13"/><circle class="cls-2" cx="97.48" cy="213.97" r="1.13"/><circle class="cls-2" cx="97.48" cy="218.47" r="1.13"/><circle class="cls-2" cx="102.3" cy="213.97" r="1.13"/><circle class="cls-2" cx="102.3" cy="218.47" r="1.13"/><circle class="cls-2" cx="106.8" cy="213.97" r="1.13"/><circle class="cls-2" cx="106.8" cy="218.47" r="1.13"/><circle class="cls-2" cx="111.46" cy="213.97" r="1.13"/><circle class="cls-2" cx="111.46" cy="218.47" r="1.13"/><circle class="cls-2" cx="115.96" cy="213.97" r="1.13"/><circle class="cls-2" cx="115.96" cy="218.47" r="1.13"/><circle class="cls-2" cx="120.78" cy="213.97" r="1.13"/><circle class="cls-2" cx="120.78" cy="218.47" r="1.13"/><circle class="cls-2" cx="125.28" cy="213.97" r="1.13"/><circle class="cls-2" cx="125.28" cy="218.47" r="1.13"/><circle class="cls-2" cx="129.78" cy="213.97" r="1.13"/><circle class="cls-2" cx="129.78" cy="218.47" r="1.13"/><circle class="cls-2" cx="134.28" cy="213.97" r="1.13"/><circle class="cls-2" cx="134.28" cy="218.47" r="1.13"/><circle class="cls-2" cx="139.11" cy="213.97" r="1.13"/><circle class="cls-2" cx="139.11" cy="218.47" r="1.13"/><circle class="cls-2" cx="143.61" cy="213.97" r="1.13"/><circle class="cls-2" cx="143.61" cy="218.47" r="1.13"/><circle class="cls-2" cx="74.35" cy="223.19" r="1.13"/><circle class="cls-2" cx="74.35" cy="227.69" r="1.13"/><circle class="cls-2" cx="78.85" cy="223.19" r="1.13"/><circle class="cls-2" cx="78.85" cy="227.69" r="1.13"/><circle class="cls-2" cx="83.67" cy="223.19" r="1.13"/><circle class="cls-2" cx="83.67" cy="227.69" r="1.13"/><circle class="cls-2" cx="88.17" cy="223.19" r="1.13"/><circle class="cls-2" cx="88.17" cy="227.69" r="1.13"/><circle class="cls-2" cx="92.67" cy="223.19" r="1.13"/><circle class="cls-2" cx="92.67" cy="227.69" r="1.13"/><circle class="cls-2" cx="97.17" cy="223.19" r="1.13"/><circle class="cls-2" cx="97.17" cy="227.69" r="1.13"/><circle class="cls-2" cx="101.99" cy="223.19" r="1.13"/><circle class="cls-2" cx="101.99" cy="227.69" r="1.13"/><circle class="cls-2" cx="106.49" cy="223.19" r="1.13"/><circle class="cls-2" cx="106.49" cy="227.69" r="1.13"/><circle class="cls-2" cx="111.15" cy="223.19" r="1.13"/><circle class="cls-2" cx="111.15" cy="227.69" r="1.13"/><circle class="cls-2" cx="115.65" cy="223.19" r="1.13"/><circle class="cls-2" cx="115.65" cy="227.69" r="1.13"/><circle class="cls-2" cx="120.47" cy="223.19" r="1.13"/><circle class="cls-2" cx="120.47" cy="227.69" r="1.13"/><circle class="cls-2" cx="124.97" cy="223.19" r="1.13"/><circle class="cls-2" cx="124.97" cy="227.69" r="1.13"/><circle class="cls-2" cx="129.47" cy="223.19" r="1.13"/><circle class="cls-2" cx="129.47" cy="227.69" r="1.13"/><circle class="cls-2" cx="133.97" cy="223.19" r="1.13"/><circle class="cls-2" cx="133.97" cy="227.69" r="1.13"/><circle class="cls-2" cx="138.8" cy="223.19" r="1.13"/><circle class="cls-2" cx="138.8" cy="227.69" r="1.13"/><circle class="cls-2" cx="143.3" cy="223.19" r="1.13"/><circle class="cls-2" cx="143.3" cy="227.69" r="1.13"/><circle class="cls-2" cx="162.6" cy="130.8" r="3.6"/><circle class="cls-2" cx="177" cy="130.8" r="3.6"/><circle class="cls-2" cx="219.75" cy="130.65" r="3.6"/><circle class="cls-2" cx="191.4" cy="130.8" r="3.6"/><circle class="cls-2" cx="205.8" cy="130.8" r="3.6"/><path class="cls-2" d="M191.4,149.55a18,18,0,1,0,18,18A18,18,0,0,0,191.4,149.55Zm1.12,12.79h-2.25v-9h2.25Z"/><rect class="cls-2" x="182.4" y="200.92" width="18" height="2.25"/><circle class="cls-2" cx="197.7" cy="202.04" r="4.5"/><circle class="cls-3" cx="180.6" cy="224.32" r="6.75"/><circle class="cls-3" cx="200.4" cy="224.32" r="6.75"/><path class="cls-4" d="M70.35,104.55c8.5.71,19.16-6.68,27.47-8.91,6.37-1.71,14.14-3.94,20.59-1.45,5.09,2,8.45,5.84,14.12,7.12,8.85,2,18.69,1.89,27.72,1.44,8.31-.43,15.08-5.37,23.16-6.66a36,36,0,0,1,17.35,2c10.32,3.74,18.16,5,28.89,2.81"/><path class="cls-4" d="M69.45,83c5.21-.67,11.39,6,14.71,9a106.08,106.08,0,0,0,11,8.35c16.32,11,35.8,8,52.56-.66,10.53-5.43,29.48-20.09,41.33-12.92,7.17,4.33,11.62,9.21,20.17,10.52,3.71.56,10,1.56,13.71.49,2.38-.68,4.38-2.87,6.25-4"/><path class="cls-4" d="M71.25,96c2.08-.79,4.46-.13,6.68-.75,2-.55,4.55-2.6,6.92-3.19a25.06,25.06,0,0,1,13.84.56c8.81,3.17,13.68,9.23,24.19,9.23,15.29,0,27.09-13.31,42.9-10.45,14.74,2.66,25.81,16.08,40.83,18.1a49.2,49.2,0,0,0,14.54,0c3.49-.67,6.21-3.77,8.95-4"/></svg>