<svg id="Layer_1" data-name="Layer 1" xmlns="http://www.w3.org/2000/svg" viewBox="0 0 300 300"><defs><style>.cls-1{fill:#7cc253;}</style></defs><title>profilewords</title><path class="cls-1" d="M162,84V60H138V84H90V240H210V84ZM150,66a6,6,0,1,1-6,6A6,6,0,0,1,150,66Zm54,168H96V90h42v18h24V90h42Z"/><path class="cls-1" d="M150,120a30,30,0,1,0,30,30A30,30,0,0,0,150,120Zm0,54a24,24,0,1,1,24-24A24,24,0,0,1,150,174Z"/><path class="cls-1" d="M126,192a12,12,0,0,0-12,12v12h72V204a12,12,0,0,0-12-12Z"/><path class="cls-1" d="M196.23,135.45a28.38,28.38,0,0,1-8.07,2.22,14,14,0,0,0,6.17-7.78,28,28,0,0,1-8.91,3.41,14,14,0,0,0-23.93,12.81,39.89,39.89,0,0,1-29-14.67,13.84,13.84,0,0,0-1.91,7.06,14,14,0,0,0,6.25,11.69,14,14,0,0,1-6.36-1.76v.18a14.05,14.05,0,0,0,11.27,13.77,14.14,14.14,0,0,1-3.71.49,14.41,14.41,0,0,1-2.64-.25,14,14,0,0,0,13.12,9.75,28.25,28.25,0,0,1-20.79,5.82,39.79,39.79,0,0,0,21.53,6.31c25.83,0,40-21.4,40-40,0-.61,0-1.22,0-1.82A28.51,28.51,0,0,0,196.23,135.45Z"/></svg>