<svg id="Layer_1" data-name="Layer 1" xmlns="http://www.w3.org/2000/svg" viewBox="0 0 300 300"><defs><style>.cls-1{fill:#f1f3f3;}</style></defs><title>relay</title><path class="cls-1" d="M152.24,90.48A59.52,59.52,0,1,0,211.76,150,59.51,59.51,0,0,0,152.24,90.48Zm0,110.11A50.59,50.59,0,1,1,202.83,150,50.59,50.59,0,0,1,152.24,200.59Z"/><path class="cls-1" d="M236.26,102.39H230c-2.07,0-10,56.18-10,56.18,0,1.58,1.67,2.86,3.74,2.86h6.77v32.63c0,2,2,3.55,4.39,3.55h.81c2.43,0,4.39-1.58,4.39-3.55V105.24C240,103.67,238.33,102.39,236.26,102.39Z"/><path class="cls-1" d="M84.82,102.39a2.75,2.75,0,0,0-2.76,2.76V126H76.55V105.15a2.76,2.76,0,1,0-5.52,0V126H65.52V105.15a2.76,2.76,0,0,0-5.52,0V131a3,3,0,0,0,3,2.95h5.33v60.7a2.94,2.94,0,0,0,2.88,3h5.27a2.94,2.94,0,0,0,2.88-3v-60.7h5.32a3,3,0,0,0,3-2.95V105.15A2.77,2.77,0,0,0,84.82,102.39Z"/><path class="cls-1" d="M152.24,108.34A41.66,41.66,0,1,0,193.9,150,41.66,41.66,0,0,0,152.24,108.34Zm0,81.83A40.17,40.17,0,1,1,192.41,150,40.17,40.17,0,0,1,152.24,190.17Z"/></svg>