<svg id="Layer_1" data-name="Layer 1" xmlns="http://www.w3.org/2000/svg" viewBox="0 0 300 300"><defs><style>.cls-1{fill:none;stroke:#00abc0;stroke-miterlimit:10;stroke-width:4.2px;}</style></defs><title>relay</title><line class="cls-1" x1="104.11" y1="90" x2="195.89" y2="90"/><polyline class="cls-1" points="195.89 90 150 68.3 104.11 90"/><rect class="cls-1" x="113.29" y="90" width="72.59" height="23.36"/><rect class="cls-1" x="131.64" y="90" width="35.88" height="23.36"/><rect class="cls-1" x="109.11" y="113.36" width="81.77" height="14.19"/><rect class="cls-1" x="108.08" y="127.85" width="84.04" height="5.88"/><line class="cls-1" x1="150.22" y1="68.3" x2="150.22" y2="240"/><line class="cls-1" x1="172.77" y1="133.65" x2="186.24" y2="238.28"/><line class="cls-1" x1="127.68" y1="133.3" x2="114.21" y2="237.93"/><line class="cls-1" x1="120.94" y1="133.65" x2="107.47" y2="238.28"/><line class="cls-1" x1="179.51" y1="133.65" x2="192.98" y2="238.28"/><line class="cls-1" x1="124.89" y1="156.84" x2="149.86" y2="174.94"/><line class="cls-1" x1="122.74" y1="174.94" x2="149.86" y2="156.84"/><line class="cls-1" x1="174.83" y1="156.84" x2="149.86" y2="174.94"/><line class="cls-1" x1="176.97" y1="174.94" x2="149.86" y2="156.84"/><line class="cls-1" x1="120.9" y1="190.52" x2="149.86" y2="211.54"/><line class="cls-1" x1="118.41" y1="211.54" x2="149.86" y2="190.52"/><line class="cls-1" x1="178.9" y1="190.52" x2="149.93" y2="211.54"/><line class="cls-1" x1="181.39" y1="211.54" x2="149.93" y2="190.52"/><line class="cls-1" x1="176.97" y1="60" x2="176.97" y2="80.58"/></svg>