<svg id="Layer_1" data-name="Layer 1" xmlns="http://www.w3.org/2000/svg" xmlns:xlink="http://www.w3.org/1999/xlink" viewBox="0 0 300 300"><defs><style>.cls-1{fill:none;}.cls-2{clip-path:url(#clip-path);}.cls-3{fill:#6c2e13;}</style><clipPath id="clip-path"><rect class="cls-1" x="60" y="47.48" width="180" height="180"/></clipPath></defs><title>robots</title><g class="cls-2"><path class="cls-3" d="M163.38,112.32a8.75,8.75,0,1,0,8.74,8.75A8.76,8.76,0,0,0,163.38,112.32Zm0,15.31a6.56,6.56,0,1,1,6.56-6.56A6.56,6.56,0,0,1,163.38,127.63Z"/><circle class="cls-3" cx="163.44" cy="121.07" r="2.74"/><path class="cls-3" d="M143.22,123.69l-2.61-2.62,2.61-2.61a3.08,3.08,0,1,0-4.36-4.36l-2.61,2.61-2.61-2.61a3.09,3.09,0,1,0-4.37,4.36l2.62,2.61-2.62,2.62a3.08,3.08,0,1,0,4.37,4.35l2.61-2.61,2.61,2.61a3.08,3.08,0,1,0,4.36-4.35Z"/><path class="cls-3" d="M131.1,137.7a.9.9,0,0,0-.9.87v6.13a.9.9,0,0,0,1.8,0v-6.13A.89.89,0,0,0,131.1,137.7Z"/><path class="cls-3" d="M133.8,137.7a.9.9,0,0,0-.9.87v6.13a.9.9,0,0,0,1.8,0v-6.13A.89.89,0,0,0,133.8,137.7Z"/><path class="cls-3" d="M138.75,137.7c-.49,0-.45.39-.45.87v6.13c0,.48,0,.87.45.87s.45-.39.45-.87v-6.13C139.2,138.09,139.24,137.7,138.75,137.7Z"/><path class="cls-3" d="M141.45,137.7c-.48,0-.45.39-.45.87v6.13c0,.48,0,.87.45.87s.45-.39.45-.87v-6.13C141.9,138.09,141.93,137.7,141.45,137.7Z"/><path class="cls-3" d="M145.05,137.7c-.49,0-2.25.39-2.25.87v6.13c0,.48,1.76.87,2.25.87s2.25-.39,2.25-.87v-6.13C147.3,138.09,145.53,137.7,145.05,137.7Z"/><path class="cls-3" d="M148.65,137.7c-.49,0-.45.39-.45.87v6.13c0,.48,0,.87.45.87s.45-.39.45-.87v-6.13C149.1,138.09,149.14,137.7,148.65,137.7Z"/><path class="cls-3" d="M150.9,137.7a.9.9,0,0,0-.9.87v6.13a.9.9,0,0,0,1.8,0v-6.13A.9.9,0,0,0,150.9,137.7Z"/><path class="cls-3" d="M154.5,137.7c-.48,0-1.8.39-1.8.87v6.13c0,.48,1.32.87,1.8.87s1.8-.39,1.8-.87v-6.13C156.3,138.09,155,137.7,154.5,137.7Z"/><path class="cls-3" d="M158.55,137.7c-.48,0-.45.39-.45.87v6.13c0,.48,0,.87.45.87s.45-.39.45-.87v-6.13C159,138.09,159,137.7,158.55,137.7Z"/><path class="cls-3" d="M160.8,137.7a.89.89,0,0,0-.9.87v6.13a.9.9,0,0,0,1.8,0v-6.13A.89.89,0,0,0,160.8,137.7Z"/><path class="cls-3" d="M166.2,137.7a.89.89,0,0,0-.9.87v6.13a.9.9,0,0,0,1.8,0v-6.13A.89.89,0,0,0,166.2,137.7Z"/><path class="cls-3" d="M168.9,137.7a.9.9,0,0,0-.9.87v6.13a.9.9,0,0,0,1.8,0v-6.13A.9.9,0,0,0,168.9,137.7Z"/><path class="cls-3" d="M202.2,120.2l-8.1-4.38v-21c0-4.84-4-9.54-8.85-9.54H158.56l-.87-2.7h7.44c1.45,0,2.62-2.15,2.62-3.6s-1.17-3.6-2.62-3.6h-8.32l-1-3.6h.58c1.45,0,2.63-1.7,2.63-3.15s-1.18-3.15-2.63-3.15h-1.45l-.3-2.4c0-4.83.46-13.44-4.37-13.44s-4.37,8.77-4.37,13.6l-.29,2.24h-1.46c-1.46,0-2.63,1.7-2.63,3.15s1.17,3.15,2.63,3.15h.58l-1,3.6h-8.32c-1.45,0-2.62,2.15-2.62,3.6s1.17,3.6,2.62,3.6h7.44l-.87,2.7H115.25c-4.84,0-9.35,4.7-9.35,9.54v21l-9,4.38v17.5l9,4.37v22.75c0,4.83,4.51,8.66,9.35,8.66h70a8.76,8.76,0,0,0,8.85-8.66V142.07l8.1-4.37Zm-17.1-8.76v44.63c0,4.84-3.77,9.31-8.6,9.31H124c-4.83,0-10-4.47-10-9.31v-52.5c0-4.83,5.17-8.39,10-8.39h52.5a8.33,8.33,0,0,1,8.6,8.39Z"/><path class="cls-3" d="M84.84,187.14A13.13,13.13,0,1,0,98,200.26,13.12,13.12,0,0,0,84.84,187.14Z"/><path class="cls-3" d="M87.87,221.18H81.81a11.55,11.55,0,0,0-11,11.12v22.27c0,5.93,5.43,10.71,11,10.71h6.06c5.57,0,9-4.78,9-10.71V232.3C96.9,226.36,93.44,221.18,87.87,221.18Z"/><path class="cls-3" d="M140.1,290.23a8.75,8.75,0,0,0-8.75-8.75h-8.6a8.75,8.75,0,0,0-8.75,8.75v44.6a8.75,8.75,0,0,0,8.75,8.75h8.6a8.75,8.75,0,0,0,8.75-8.75Z"/><path class="cls-3" d="M215.66,213.39a13.13,13.13,0,1,0-13.13-13.13A13.13,13.13,0,0,0,215.66,213.39Z"/><path class="cls-3" d="M218.69,221.18h-6.06c-5.57,0-10.43,5.18-10.43,11.12v22.27a10.69,10.69,0,0,0,10.43,10.71h6.06a10.75,10.75,0,0,0,10.51-10.71V232.3C229.2,226.36,224.27,221.18,218.69,221.18Z"/><path class="cls-3" d="M185.1,290.13a8.93,8.93,0,0,0-9.06-8.65h-8.48a8.5,8.5,0,0,0-8.56,8.65v44.1c0,4.84,3.72,9.35,8.56,9.35H176c4.84,0,9.06-4.51,9.06-9.35Z"/><path class="cls-3" d="M220.25,274.28h-8.74c-4.84,0-9.31,3.53-9.31,8.36v8.75c0,4.84,2.7,8.75,9,8.75V287.89c0-1.45,1.48-3.71,2.93-3.71h3.5c1.45,0,2.57,2.26,2.57,3.71v12.25c3.6,0,9-3.91,9-8.75v-8.75C229.2,277.81,225.09,274.28,220.25,274.28Z"/><path class="cls-3" d="M89,274.28H80.24c-4.83,0-9.44,3.53-9.44,8.36v8.75c0,4.84,5.4,8.75,8.1,8.75V287.89c0-1.45,2.52-3.71,4-3.71h3.5c1.45,0,1.53,2.26,1.53,3.71v12.25c7.2,0,9-3.91,9-8.75v-8.75C96.9,277.81,93.83,274.28,89,274.28Z"/><path class="cls-3" d="M185.9,184.28H115.22c-2.33,0-4.88.25-6.4,1.77s-2.92,2.94-2.92,5.27V262a10.22,10.22,0,0,0,2.92,6.54,10.06,10.06,0,0,0,6.4,3.05H185.9c2.32,0,4.32-1.53,5.84-3.05A9.77,9.77,0,0,0,194.1,262V191.32a6.8,6.8,0,0,0-2.36-5.27C190.22,184.53,188.22,184.28,185.9,184.28Z"/></g></svg>