<svg id="Layer_1" data-name="Layer 1" xmlns="http://www.w3.org/2000/svg" viewBox="0 0 300 300"><defs><style>.cls-1{fill:#f1f3f3;}</style></defs><title>shelterbox</title><path class="cls-1" d="M143.84,124.66a11.57,11.57,0,0,0,11.58-11.58c0-.1,0-.19,0-.29a17.62,17.62,0,0,0,2.92.29,17.19,17.19,0,0,0,8.57-2.34,23.16,23.16,0,1,0,0-30,17.24,17.24,0,0,0-24.81,21,11.55,11.55,0,0,0,1.77,23Z"/><path class="cls-1" d="M206.81,214.39a119.4,119.4,0,0,1-29.68-34.14,117.53,117.53,0,0,1-14.95-44.73H125.5a117.7,117.7,0,0,1-15,44.73,119.4,119.4,0,0,1-29.68,34.14H52.5V218h180v-3.6Zm-92.29-28.8a103.61,103.61,0,0,0,8.3-18.27v1.18h42.05v-1.18a103.57,103.57,0,0,0,8.29,18.27,104.87,104.87,0,0,0,20.18,25h-99A104.87,104.87,0,0,0,114.52,185.59Z"/></svg>