<svg id="Layer_1" data-name="Layer 1" xmlns="http://www.w3.org/2000/svg" viewBox="0 0 300 300"><defs><style>.cls-1{fill:none;stroke:#dd4132;stroke-linecap:round;stroke-linejoin:round;stroke-width:2px;}.cls-2{fill:#dd4132;}</style></defs><title>watsonml</title><line class="cls-1" x1="149.86" y1="92.44" x2="150.35" y2="217.04"/><circle class="cls-2" cx="231.77" cy="157.49" r="2.19"/><circle class="cls-2" cx="157.21" cy="205" r="2.19"/><path class="cls-2" d="M159.1,136.27a2.34,2.34,0,0,0-2.64,2L154.69,136a2.32,2.32,0,0,0,2.53-2.1Z"/><circle class="cls-2" cx="236.54" cy="166.92" r="2.97"/><path class="cls-2" d="M238.06,169.47a3.45,3.45,0,0,0-1.21,4.73l-4.06-1a3.46,3.46,0,0,0,1.2-4.73Z"/><circle class="cls-2" cx="228.63" cy="181.97" r="1.98"/><circle class="cls-2" cx="154.5" cy="137.97" r="1.98"/><circle class="cls-2" cx="234.3" cy="175.71" r="2.97"/><circle class="cls-2" cx="178.41" cy="173.21" r="9.89"/><path class="cls-2" d="M188.25,174.14a6.2,6.2,0,0,0,5.59,6.76l-5,6a6.21,6.21,0,0,0-7.68-4.24Z"/><circle class="cls-2" cx="165.62" cy="142.87" r="6.21"/><path class="cls-2" d="M171.23,140.21a6.32,6.32,0,0,0,8.43,3L176,152.39a6.33,6.33,0,0,0-8.15-3.7Z"/><circle class="cls-2" cx="182.8" cy="149.82" r="7.31"/><circle class="cls-2" cx="159.8" cy="191.84" r="6.21"/><path class="cls-2" d="M163.46,186.82a2.83,2.83,0,0,0,4-.62l1.81,4.66a2.84,2.84,0,0,0-3.35,2.22Z"/><circle class="cls-2" cx="180.97" cy="196.6" r="6.21"/><path class="cls-2" d="M185.83,192.73a2.77,2.77,0,0,0,3.89.45l.52,5a2.78,2.78,0,0,0-3.72,1.23Z"/><circle class="cls-2" cx="168.76" cy="109.4" r="4.01"/><path class="cls-2" d="M165.07,111a4.05,4.05,0,0,0-5.32-2.12l.87-3.36a4,4,0,0,0,5.68.72Z"/><path class="cls-2" d="M169.74,113.29a4.9,4.9,0,0,0-3.56,6l-6-4.35a4.93,4.93,0,0,0,4.57-5.23Z"/><circle class="cls-2" cx="170" cy="206.1" r="4.75"/><path class="cls-2" d="M166,208.62a5.51,5.51,0,0,0-7.6-1.76l.3-3.49a5.52,5.52,0,0,0,7.79-.44Z"/><circle class="cls-2" cx="197.05" cy="149.09" r="4.75"/><path class="cls-2" d="M193.05,146.53a4,4,0,0,0-1.2-5.46l3.31-1.36a4,4,0,0,0,3,4.75Z"/><path class="cls-2" d="M194.81,144.9a7.09,7.09,0,0,0,2.91-9.59l9.5,4.46a7.09,7.09,0,0,0-5.52,8.36Z"/><circle class="cls-2" cx="193.39" cy="185.63" r="4.75"/><circle class="cls-2" cx="198.51" cy="172.11" r="4.75"/><path class="cls-2" d="M203.26,172a3.83,3.83,0,0,0,3.9,3.75l-6,5.36a3.83,3.83,0,0,0-3.27-4.31Z"/><path class="cls-2" d="M198,167.39a5.27,5.27,0,0,0,4.62-5.87l6.07,5.47a5.29,5.29,0,0,0-5.38,5.2Z"/><circle class="cls-2" cx="208.38" cy="203.54" r="2.92"/><path class="cls-2" d="M205.56,202.77a5.41,5.41,0,0,0-3.8-6.64l3.59-2a5.4,5.4,0,0,0,3.8,6.64Z"/><circle class="cls-2" cx="175.49" cy="99.75" r="2.19"/><path class="cls-2" d="M173.32,100.12a3.23,3.23,0,0,0-3.73-2.65l4.77-4a3.25,3.25,0,0,0,1.9,4.18Z"/><circle class="cls-2" cx="158.89" cy="106.84" r="2.19"/><circle class="cls-2" cx="207.28" cy="181.98" r="6.21"/><circle class="cls-2" cx="205.45" cy="131.18" r="8.77"/><circle class="cls-2" cx="224.82" cy="167.36" r="6.21"/><path class="cls-2" d="M221.48,172.6a2.9,2.9,0,0,0-4,.89L215.37,169a2.91,2.91,0,0,0,3.3-2.48Z"/><circle class="cls-2" cx="208.74" cy="160.78" r="6.21"/><circle class="cls-2" cx="177.31" cy="124.23" r="6.21"/><path class="cls-2" d="M183.51,124.67a4.74,4.74,0,0,0,4.4,5l-3.34,4a4.75,4.75,0,0,0-5.75-3.46Z"/><path class="cls-2" d="M180.84,129.35a4.16,4.16,0,0,0-1.07,5.78l-5.54-.16a4.15,4.15,0,0,0-.73-5.83Z"/><circle class="cls-2" cx="185.2" cy="209.69" r="3.96"/><path class="cls-2" d="M183.39,213.2a2.29,2.29,0,0,0-3.09,1l-1.56-2.88a2.3,2.3,0,0,0,2.53-2Z"/><circle class="cls-2" cx="202.53" cy="193.31" r="2.92"/><path class="cls-2" d="M203.92,195.88a4.81,4.81,0,0,0-2,6.51l-5.51-2.32a4.8,4.8,0,0,0,3.27-5.95Z"/><circle class="cls-2" cx="197.78" cy="204.64" r="4.75"/><circle class="cls-2" cx="214.59" cy="192.79" r="4.75"/><path class="cls-2" d="M216.39,188.39a3.51,3.51,0,0,0,4.58-1.91l2,3a3.51,3.51,0,0,0-3.6,3.42Z"/><circle class="cls-2" cx="191.57" cy="195.5" r="2.97"/><circle class="cls-2" cx="197.93" cy="160.42" r="2.19"/><path class="cls-2" d="M196.87,162.34a2.94,2.94,0,0,0-4,1.16l-.65-4.68a2.94,2.94,0,0,0,4.16,0Z"/><path class="cls-2" d="M194.57,162.11a2.87,2.87,0,0,0-4,.41l-.4-2.18a2.87,2.87,0,0,0,3.91-1Z"/><circle class="cls-2" cx="193.03" cy="139.22" r="2.19"/><path class="cls-2" d="M229.85,158.55a4.18,4.18,0,0,0-5.66-1.65l2.39-5a4.17,4.17,0,0,0,4.81,3.4Z"/><circle class="cls-2" cx="221.9" cy="152.74" r="4.75"/><path class="cls-2" d="M217.22,153.59a4,4,0,0,0-4.67-3.24l2.16-4a4,4,0,0,0,5.29,2.08Z"/><circle class="cls-2" cx="217.15" cy="142.96" r="2.19"/><path class="cls-2" d="M217.18,145.15a2.25,2.25,0,0,0-2.22,2.28l-2.53-2.85a2.26,2.26,0,0,0,2.55-1.92Z"/><circle class="cls-2" cx="192.3" cy="125.33" r="2.19"/><path class="cls-2" d="M192.11,123.15a2.06,2.06,0,0,0,1.87-2.23l2.38,2a2,2,0,0,0-1.88,2.22Z"/><circle class="cls-2" cx="187.69" cy="132.94" r="3.22"/><circle class="cls-2" cx="160.58" cy="120.66" r="5.77"/><circle class="cls-2" cx="159.41" cy="134.1" r="2.19"/><circle class="cls-2" cx="169.83" cy="187.95" r="2.97"/><circle class="cls-2" cx="214.96" cy="171.9" r="2.97"/><circle class="cls-2" cx="169.64" cy="155.66" r="2.97"/><path class="cls-2" d="M167.24,157.41a3.27,3.27,0,0,0-4.56-.71l.29-3.28a3.27,3.27,0,0,0,4.62.1Z"/><circle class="cls-2" cx="221.32" cy="178.9" r="2.97"/><path class="cls-2" d="M224.16,178a3.11,3.11,0,0,0,3.88,2.06l-1.17,2.79a3.11,3.11,0,0,0-4.19-1.33Z"/><circle class="cls-2" cx="212.03" cy="147.47" r="2.92"/><circle class="cls-2" cx="196.17" cy="120.73" r="2.19"/><circle class="cls-2" cx="182.43" cy="110.35" r="4.75"/><path class="cls-2" d="M179.93,106.31a4.27,4.27,0,0,0,1.38-5.89l6.54,1.54a4.29,4.29,0,0,0-1.38,5.89Z"/><circle class="cls-2" cx="185.35" cy="97.92" r="4.75"/><path class="cls-2" d="M189.94,96.69a2,2,0,0,0,2.44,1.4l-1.3,3.91a2,2,0,0,0-2.8-.34Z"/><circle class="cls-2" cx="221.94" cy="132.31" r="3.84"/><path class="cls-2" d="M218.27,131.17a1.88,1.88,0,0,0-1.24-2.36l3.66-2.4a1.89,1.89,0,0,0,1.67,2.08Z"/><circle class="cls-2" cx="217.88" cy="126.1" r="2.83"/><circle class="cls-2" cx="207.43" cy="118.02" r="1.46"/><path class="cls-2" d="M206,118.25a1.9,1.9,0,0,0-2.18-1.59l3.42-2.5a1.89,1.89,0,0,0,.86,2.55Z"/><circle class="cls-2" cx="210.87" cy="112.73" r="2.28"/><path class="cls-2" d="M209.49,114.54a1.94,1.94,0,0,0-2.72.36l.41-5a1.93,1.93,0,0,0,2.62.8Z"/><circle class="cls-2" cx="178.54" cy="213.29" r="1.98"/><circle class="cls-2" cx="168.54" cy="91.34" r="6.21"/><path class="cls-2" d="M166.35,97.16a3.08,3.08,0,0,0-4,1.79L159,93.62a3.08,3.08,0,0,0,3.34-2.81Z"/><circle class="cls-2" cx="177.68" cy="93.9" r="1.98"/><path class="cls-2" d="M176.89,92.09a1.87,1.87,0,0,0,1-2.44l2.77,1.19a1.86,1.86,0,0,0-1.1,2.38Z"/><circle class="cls-2" cx="179.87" cy="88.79" r="2.19"/><circle class="cls-2" cx="158.67" cy="97.56" r="3.96"/><circle class="cls-2" cx="191.35" cy="118.84" r="1.98"/><path class="cls-2" d="M190.14,117.27a1.76,1.76,0,0,0,.32-2.47l3.57.9a1.77,1.77,0,0,0-.88,2.33Z"/><circle class="cls-2" cx="193.03" cy="100.48" r="2.47"/><circle class="cls-2" cx="192.81" cy="112.99" r="2.97"/><circle class="cls-2" cx="223" cy="187.31" r="2.19"/><circle class="cls-2" cx="214.22" cy="210.48" r="2.19"/><path class="cls-2" d="M213.65,212.6a3.06,3.06,0,0,0-3.75,2.15l-1.74-3.9a3.07,3.07,0,0,0,4.11-1.35Z"/><circle class="cls-2" cx="206.64" cy="213.86" r="3.38"/><circle class="cls-2" cx="163.53" cy="164.95" r="2.19"/><path class="cls-2" d="M164,167.09a2.2,2.2,0,0,0-1.29,3.45l-3.32-1.75a2.2,2.2,0,0,0,2.1-3Z"/><circle class="cls-2" cx="159.28" cy="173.04" r="4.25"/><circle class="cls-2" cx="161.38" cy="154.93" r="2.19"/><circle class="cls-2" cx="203.11" cy="112.09" r="4.62"/><circle class="cls-2" cx="225.18" cy="122.26" r="2.92"/><path class="cls-2" d="M222.3,121.83a2.62,2.62,0,0,0-2.19-3l4.14-2.63a2.59,2.59,0,0,0,1.76,3.23Z"/><circle class="cls-2" cx="220.67" cy="115.17" r="3.74"/><path class="cls-1" d="M152.23,216.51a25.5,25.5,0,0,0,18,7.47,25.24,25.24,0,0,0,9.93-2,25.53,25.53,0,0,0,8.11-5.46l1.68,1A25.73,25.73,0,0,0,198.1,223,25.65,25.65,0,0,0,218,223a25.57,25.57,0,0,0,13.57-13.58,25.53,25.53,0,0,0,0-19.86l-1.33.78a25.45,25.45,0,0,0,15.58-23.5,25.54,25.54,0,0,0-15.58-23.51L227.09,142a25.53,25.53,0,0,0,5.46-8.11,25.53,25.53,0,0,0,0-19.86,25.55,25.55,0,0,0-33.43-13.58l.75,0a25.52,25.52,0,0,0-49-9.93"/><circle class="cls-2" cx="189.42" cy="161.6" r="3.96"/><circle class="cls-2" cx="176.94" cy="137.08" r="3.44"/><circle class="cls-2" cx="67.95" cy="157.49" r="2.19"/><circle class="cls-2" cx="142.51" cy="205" r="2.19"/><path class="cls-2" d="M140.62,136.27a2.34,2.34,0,0,1,2.64,2L145,136a2.32,2.32,0,0,1-2.53-2.1Z"/><circle class="cls-2" cx="63.18" cy="166.92" r="2.97"/><path class="cls-2" d="M61.67,169.47a3.46,3.46,0,0,1,1.2,4.73l4.06-1a3.46,3.46,0,0,1-1.2-4.73Z"/><circle class="cls-2" cx="71.09" cy="181.97" r="1.98"/><circle class="cls-2" cx="145.22" cy="137.97" r="1.98"/><circle class="cls-2" cx="65.42" cy="175.71" r="2.97"/><circle class="cls-2" cx="121.31" cy="173.21" r="9.89"/><path class="cls-2" d="M111.47,174.14a6.2,6.2,0,0,1-5.59,6.76l5,6a6.21,6.21,0,0,1,7.68-4.24Z"/><circle class="cls-2" cx="134.1" cy="142.87" r="6.21"/><path class="cls-2" d="M128.49,140.21a6.32,6.32,0,0,1-8.43,3l3.71,9.18a6.33,6.33,0,0,1,8.15-3.7Z"/><circle class="cls-2" cx="116.93" cy="149.82" r="7.31"/><circle class="cls-2" cx="139.92" cy="191.84" r="6.21"/><path class="cls-2" d="M136.26,186.82a2.83,2.83,0,0,1-4-.62l-1.81,4.66a2.84,2.84,0,0,1,3.35,2.22Z"/><circle class="cls-2" cx="118.75" cy="196.6" r="6.21"/><path class="cls-2" d="M113.89,192.73a2.77,2.77,0,0,1-3.89.45l-.51,5a2.77,2.77,0,0,1,3.71,1.23Z"/><circle class="cls-2" cx="130.96" cy="109.4" r="4.01"/><path class="cls-2" d="M134.65,111a4.05,4.05,0,0,1,5.32-2.12l-.87-3.36a4,4,0,0,1-5.68.72Z"/><path class="cls-2" d="M130,113.29a4.91,4.91,0,0,1,3.57,6l6-4.35a4.93,4.93,0,0,1-4.57-5.23Z"/><circle class="cls-2" cx="129.72" cy="206.1" r="4.75"/><path class="cls-2" d="M133.75,208.62a5.51,5.51,0,0,1,7.6-1.76l-.3-3.49a5.52,5.52,0,0,1-7.79-.44Z"/><circle class="cls-2" cx="102.67" cy="149.09" r="4.75"/><path class="cls-2" d="M106.68,146.53a4,4,0,0,1,1.19-5.46l-3.31-1.36a4,4,0,0,1-3,4.75Z"/><path class="cls-2" d="M104.91,144.9a7.09,7.09,0,0,1-2.91-9.59l-9.5,4.46A7.09,7.09,0,0,1,98,148.13Z"/><circle class="cls-2" cx="106.33" cy="185.63" r="4.75"/><circle class="cls-2" cx="101.21" cy="172.11" r="4.75"/><path class="cls-2" d="M96.46,172a3.83,3.83,0,0,1-3.9,3.75l6,5.36a3.84,3.84,0,0,1,3.27-4.31Z"/><path class="cls-2" d="M101.77,167.39a5.27,5.27,0,0,1-4.62-5.87L91.08,167a5.29,5.29,0,0,1,5.38,5.2Z"/><circle class="cls-2" cx="91.34" cy="203.54" r="2.92"/><path class="cls-2" d="M94.16,202.77a5.41,5.41,0,0,1,3.8-6.64l-3.59-2a5.4,5.4,0,0,1-3.8,6.64Z"/><circle class="cls-2" cx="124.24" cy="99.75" r="2.19"/><path class="cls-2" d="M126.4,100.12a3.23,3.23,0,0,1,3.74-2.65l-4.78-4a3.25,3.25,0,0,1-1.89,4.18Z"/><circle class="cls-2" cx="140.83" cy="106.84" r="2.19"/><circle class="cls-2" cx="92.44" cy="181.98" r="6.21"/><circle class="cls-2" cx="94.27" cy="131.18" r="8.77"/><circle class="cls-2" cx="74.9" cy="167.36" r="6.21"/><path class="cls-2" d="M78.24,172.6a2.9,2.9,0,0,1,4,.89L84.35,169a2.91,2.91,0,0,1-3.3-2.48Z"/><circle class="cls-2" cx="90.98" cy="160.78" r="6.21"/><circle class="cls-2" cx="122.41" cy="124.23" r="6.21"/><path class="cls-2" d="M116.21,124.67a4.74,4.74,0,0,1-4.4,5l3.34,4a4.75,4.75,0,0,1,5.75-3.46Z"/><path class="cls-2" d="M118.88,129.35a4.16,4.16,0,0,1,1.07,5.78l5.54-.16a4.15,4.15,0,0,1,.73-5.83Z"/><circle class="cls-2" cx="114.52" cy="209.69" r="3.96"/><path class="cls-2" d="M116.33,213.2a2.29,2.29,0,0,1,3.09,1l1.56-2.88a2.3,2.3,0,0,1-2.53-2Z"/><circle class="cls-2" cx="97.19" cy="193.31" r="2.92"/><path class="cls-2" d="M95.81,195.88a4.82,4.82,0,0,1,2,6.51l5.51-2.32a4.8,4.8,0,0,1-3.27-5.95Z"/><circle class="cls-2" cx="101.94" cy="204.64" r="4.75"/><circle class="cls-2" cx="85.13" cy="192.79" r="4.75"/><path class="cls-2" d="M83.33,188.39a3.51,3.51,0,0,1-4.58-1.91l-2,3a3.51,3.51,0,0,1,3.6,3.42Z"/><circle class="cls-2" cx="108.15" cy="195.5" r="2.97"/><circle class="cls-2" cx="101.79" cy="160.42" r="2.19"/><path class="cls-2" d="M102.85,162.34a2.94,2.94,0,0,1,4,1.16l.65-4.68a2.94,2.94,0,0,1-4.16,0Z"/><path class="cls-2" d="M105.16,162.11a2.85,2.85,0,0,1,4,.41l.4-2.18a2.87,2.87,0,0,1-3.91-1Z"/><circle class="cls-2" cx="106.69" cy="139.22" r="2.19"/><path class="cls-2" d="M69.88,158.55a4.16,4.16,0,0,1,5.65-1.65l-2.39-5a4.17,4.17,0,0,1-4.81,3.4Z"/><circle class="cls-2" cx="77.82" cy="152.74" r="4.75"/><path class="cls-2" d="M82.5,153.59a4,4,0,0,1,4.67-3.24l-2.16-4a4,4,0,0,1-5.29,2.08Z"/><circle class="cls-2" cx="82.57" cy="142.96" r="2.19"/><path class="cls-2" d="M82.54,145.15a2.26,2.26,0,0,1,2.23,2.28l2.52-2.85a2.26,2.26,0,0,1-2.55-1.92Z"/><circle class="cls-2" cx="107.42" cy="125.33" r="2.19"/><path class="cls-2" d="M107.61,123.15a2.06,2.06,0,0,1-1.87-2.23l-2.37,2a2,2,0,0,1,1.87,2.22Z"/><circle class="cls-2" cx="112.03" cy="132.94" r="3.22"/><circle class="cls-2" cx="139.14" cy="120.66" r="5.77"/><circle class="cls-2" cx="140.32" cy="134.1" r="2.19"/><circle class="cls-2" cx="129.89" cy="187.95" r="2.97"/><circle class="cls-2" cx="84.77" cy="171.9" r="2.97"/><circle class="cls-2" cx="130.08" cy="155.66" r="2.97"/><path class="cls-2" d="M132.48,157.41a3.27,3.27,0,0,1,4.56-.71l-.29-3.28a3.27,3.27,0,0,1-4.62.1Z"/><circle class="cls-2" cx="78.4" cy="178.9" r="2.97"/><path class="cls-2" d="M75.56,178a3.11,3.11,0,0,1-3.88,2.06l1.17,2.79A3.11,3.11,0,0,1,77,181.54Z"/><circle class="cls-2" cx="87.69" cy="147.47" r="2.92"/><circle class="cls-2" cx="103.55" cy="120.73" r="2.19"/><circle class="cls-2" cx="117.29" cy="110.35" r="4.75"/><path class="cls-2" d="M119.79,106.31a4.27,4.27,0,0,1-1.38-5.89L111.87,102a4.29,4.29,0,0,1,1.38,5.89Z"/><circle class="cls-2" cx="114.37" cy="97.92" r="4.75"/><path class="cls-2" d="M109.78,96.69a2,2,0,0,1-2.44,1.4l1.3,3.91a2,2,0,0,1,2.8-.34Z"/><circle class="cls-2" cx="77.78" cy="132.31" r="3.84"/><path class="cls-2" d="M81.45,131.17a1.88,1.88,0,0,1,1.24-2.36L79,126.41a1.88,1.88,0,0,1-1.67,2.08Z"/><circle class="cls-2" cx="81.84" cy="126.1" r="2.83"/><circle class="cls-2" cx="92.29" cy="118.02" r="1.46"/><path class="cls-2" d="M93.73,118.25a1.91,1.91,0,0,1,2.18-1.59l-3.42-2.5a1.9,1.9,0,0,1-.85,2.55Z"/><circle class="cls-2" cx="88.85" cy="112.73" r="2.28"/><path class="cls-2" d="M90.24,114.54a1.93,1.93,0,0,1,2.71.36l-.41-5a1.92,1.92,0,0,1-2.62.8Z"/><circle class="cls-2" cx="121.18" cy="213.29" r="1.98"/><circle class="cls-2" cx="131.18" cy="91.34" r="6.21"/><path class="cls-2" d="M133.37,97.16a3.09,3.09,0,0,1,4,1.79l3.36-5.33a3.09,3.09,0,0,1-3.34-2.81Z"/><circle class="cls-2" cx="122.04" cy="93.9" r="1.98"/><path class="cls-2" d="M122.83,92.09a1.87,1.87,0,0,1-1-2.44l-2.77,1.19a1.86,1.86,0,0,1,1.1,2.38Z"/><circle class="cls-2" cx="119.85" cy="88.79" r="2.19"/><circle class="cls-2" cx="141.05" cy="97.56" r="3.96"/><circle class="cls-2" cx="108.37" cy="118.84" r="1.98"/><path class="cls-2" d="M109.58,117.27a1.76,1.76,0,0,1-.32-2.47l-3.57.9a1.77,1.77,0,0,1,.88,2.33Z"/><circle class="cls-2" cx="106.69" cy="100.48" r="2.47"/><circle class="cls-2" cx="106.91" cy="112.99" r="2.97"/><circle class="cls-2" cx="76.73" cy="187.31" r="2.19"/><circle class="cls-2" cx="85.5" cy="210.48" r="2.19"/><path class="cls-2" d="M86.07,212.6a3.06,3.06,0,0,1,3.75,2.15l1.74-3.9a3.07,3.07,0,0,1-4.11-1.35Z"/><circle class="cls-2" cx="93.08" cy="213.86" r="3.38"/><circle class="cls-2" cx="136.19" cy="164.95" r="2.19"/><path class="cls-2" d="M135.71,167.09a2.2,2.2,0,0,1,1.29,3.45l3.33-1.75a2.2,2.2,0,0,1-2.11-3Z"/><circle class="cls-2" cx="140.44" cy="173.04" r="4.25"/><circle class="cls-2" cx="138.34" cy="154.93" r="2.19"/><circle class="cls-2" cx="96.62" cy="112.09" r="4.62"/><circle class="cls-2" cx="74.54" cy="122.26" r="2.92"/><path class="cls-2" d="M77.42,121.83a2.62,2.62,0,0,1,2.19-3l-4.14-2.63a2.59,2.59,0,0,1-1.76,3.23Z"/><circle class="cls-2" cx="79.05" cy="115.17" r="3.74"/><path class="cls-1" d="M148.77,216.51a25.5,25.5,0,0,1-18,7.47,25.24,25.24,0,0,1-9.93-2,25.53,25.53,0,0,1-8.11-5.46l-1.68,1A25.73,25.73,0,0,1,102.9,223,25.65,25.65,0,0,1,83,223a25.57,25.57,0,0,1-13.57-13.58,25.53,25.53,0,0,1,0-19.86l1.33.78a25.45,25.45,0,0,1-15.58-23.5A25.54,25.54,0,0,1,70.8,143.33L73.91,142a25.53,25.53,0,0,1-5.46-8.11,25.53,25.53,0,0,1,0-19.86,25.55,25.55,0,0,1,33.43-13.58l-.75,0a25.52,25.52,0,0,1,49-9.93"/><circle class="cls-2" cx="110.3" cy="161.6" r="3.96"/><circle class="cls-2" cx="122.78" cy="137.08" r="3.44"/></svg>