<svg id="Layer_1" data-name="Layer 1" xmlns="http://www.w3.org/2000/svg" viewBox="0 0 300 300"><defs><style>.cls-1{fill:#274255;}</style></defs><title>watsonml</title><path class="cls-1" d="M237.26,156a24.47,24.47,0,0,0-13-13l-1.65-.69a24.43,24.43,0,0,0-25.78-39.5,24.36,24.36,0,0,0-7.1-15.67,24.4,24.4,0,0,0-34.53,0,24.1,24.1,0,0,0-4.71,6.67A24.41,24.41,0,0,0,119,81.92a24.47,24.47,0,0,0-13,13,24.25,24.25,0,0,0-1.87,7.91,24.42,24.42,0,0,0-25.78,39.5l-1.65.69A24.41,24.41,0,0,0,69,182.77,23.88,23.88,0,0,0,74.65,187a24.42,24.42,0,0,0,40.05,25.93l.84-.52a24.4,24.4,0,0,0,34-.44.91.91,0,0,0,.88.7h0a.93.93,0,0,0,.92-.93v-.07a.91.91,0,0,0,.16.24,24.39,24.39,0,0,0,34,.5l.84.52A24.43,24.43,0,0,0,226,205.09a24.52,24.52,0,0,0,.37-18.09,23.88,23.88,0,0,0,5.68-4.23A24.44,24.44,0,0,0,237.26,156ZM149,97l.45,113.54a.91.91,0,0,0-1.19.08,22.59,22.59,0,0,1-31.93,0,.89.89,0,0,0-1.12-.14l-1.55.94a.75.75,0,0,0-.17.14,22.58,22.58,0,0,1-37.17-23.73l.42.19a.93.93,0,0,0,.83-1.65l-1.23-.72a.89.89,0,0,0-.55-.12,22.57,22.57,0,0,1,1.67-40.81l2.87-1.21a.92.92,0,0,0,.54-.68.89.89,0,0,0-.25-.82,22.59,22.59,0,0,1,23.57-37.23.77.77,0,0,0,.22.31.88.88,0,0,0,.68.26l.68,0a.92.92,0,0,0,.32-1.76l-.11-.05a22.57,22.57,0,0,1,38.52-15,22.68,22.68,0,0,1,4.84,7.18.92.92,0,0,0,.45.46A.91.91,0,0,0,149,97Zm86.58,77.3a22.65,22.65,0,0,1-10.35,11.23.89.89,0,0,0-.55.12l-1.23.72a.93.93,0,0,0,.83,1.65l.42-.19a22.69,22.69,0,0,1-.4,16.55,22.68,22.68,0,0,1-4.84,7.18,22.59,22.59,0,0,1-31.93,0,.75.75,0,0,0-.17-.14l-1.55-.94a.91.91,0,0,0-1.12.14,22.59,22.59,0,0,1-31.93,0,.92.92,0,0,0-1.3,0,.81.81,0,0,0-.17.24L150.83,97a.88.88,0,0,0-.52-.81l.19,0a.92.92,0,0,0,1.17-.5,22.68,22.68,0,0,1,4.84-7.18,22.58,22.58,0,0,1,38.52,15l-.11.05a.92.92,0,0,0,.32,1.76l.68,0a.88.88,0,0,0,.68-.26.77.77,0,0,0,.22-.31A22.58,22.58,0,0,1,220.39,142a.89.89,0,0,0-.25.82.92.92,0,0,0,.54.68l2.87,1.21a22.6,22.6,0,0,1,12,29.58Z"/><path class="cls-1" d="M228.35,163.23a2.74,2.74,0,0,0-.95,3.75,3.18,3.18,0,0,1-1.11,4.35,2.73,2.73,0,1,0,3.75,1,3.19,3.19,0,0,1,1.1-4.36,2.73,2.73,0,1,0-2.79-4.7Z"/><path class="cls-1" d="M221.92,177.7a2.86,2.86,0,0,1-3.58-1.89,2.54,2.54,0,0,0-.52-.95A2.73,2.73,0,1,0,217,179h0a2.85,2.85,0,0,1,3.86,1.23h0a2.26,2.26,0,0,0,.23.34,1.82,1.82,0,1,0,.85-2.92Z"/><path class="cls-1" d="M156,139.17h0a2.15,2.15,0,0,1,2.43-1.82h0a2.85,2.85,0,0,0,.29,0,2,2,0,1,0-2-2.2h0a2.14,2.14,0,0,1-2.33,1.94h0l-.17,0a1.82,1.82,0,1,0,1.79,2.07Z"/><path class="cls-1" d="M185.8,184l0,0a4.36,4.36,0,1,0,4.58-5.53l0,0a5.72,5.72,0,0,1-5.15-6.22h0a8.31,8.31,0,0,0,0-.87,9.11,9.11,0,1,0-9.1,9.11,9.21,9.21,0,0,0,2.53-.36h0A5.7,5.7,0,0,1,185.8,184Z"/><path class="cls-1" d="M158.7,143.44a5.72,5.72,0,0,0,5.72,5.72,5.84,5.84,0,0,0,2-.37h0a5.83,5.83,0,0,1,7.5,3.41h0a6.73,6.73,0,1,0,6.3-9.09,6.63,6.63,0,0,0-2.89.66h0a5.83,5.83,0,0,1-7.77-2.77h0a5.72,5.72,0,0,0-10.89,2.45Z"/><path class="cls-1" d="M160.2,194.15a5.73,5.73,0,0,0,4.48-4.48,2.61,2.61,0,0,1,3.07-2,2.67,2.67,0,0,0,1.09,0,2.73,2.73,0,1,0-1.08-5.36,2.69,2.69,0,0,0-1.66,1.08h0a2.63,2.63,0,0,1-3.66.57h0a5.72,5.72,0,1,0-2.24,10.22Z"/><path class="cls-1" d="M168.46,197.29a4.36,4.36,0,0,0-3.26,1.49v0a5.08,5.08,0,0,1-7.17.4h0a2,2,0,1,0-.28,3.21h0a5.08,5.08,0,0,1,7,1.62v0a4.37,4.37,0,1,0,3.71-6.68Z"/><path class="cls-1" d="M194,136.47h0a6.54,6.54,0,0,1-1.12,7.67,3.62,3.62,0,0,1-1.23-3.61h0a1.76,1.76,0,0,0,.06-.46,2,2,0,1,0-3.1,1.7h0a3.64,3.64,0,0,1,1.11,5h0a4.37,4.37,0,1,0,8,1.47,6.52,6.52,0,0,1,5.07-7.69,8.07,8.07,0,1,0-8.74-4.11Z"/><path class="cls-1" d="M219,160.27a5.71,5.71,0,0,0-5.66,4.92h0a2.69,2.69,0,0,1-3,2.28h0c-.13,0-.26,0-.39,0a2.74,2.74,0,1,0,2.3,4.2h0a2.69,2.69,0,0,1,3.71-.83h0A5.72,5.72,0,1,0,219,160.27Z"/><path class="cls-1" d="M209.87,159.93a5.73,5.73,0,0,0-11.45,0,5.06,5.06,0,0,0,.05.68h0A4.87,4.87,0,0,1,194.2,166l0,0a4.35,4.35,0,0,0-.08,8.64l0,0a3.52,3.52,0,0,1,3,4h0a5.25,5.25,0,0,0-.06.79,5.72,5.72,0,1,0,5.72-5.72h-.11a3.52,3.52,0,0,1-3.59-3.37,4.88,4.88,0,0,1,5-4.71h.09A5.72,5.72,0,0,0,209.87,159.93Z"/><path class="cls-1" d="M175.2,120.55a5.72,5.72,0,0,0-3.51,10.24h0a3.82,3.82,0,0,1,.68,5.37h0a3.16,3.16,0,1,0,5.08.14h0a3.81,3.81,0,0,1,.22-4.6,4.35,4.35,0,0,1,4.2,3.29h0a3,3,0,1,0,3.06-3.65h0a4.37,4.37,0,0,1-4.05-4.66h0c0-.13,0-.26,0-.4A5.72,5.72,0,0,0,175.2,120.55Z"/><path class="cls-1" d="M182.46,201.33a3.62,3.62,0,0,0-3.6,3.3l0,0a2.12,2.12,0,0,1-2.33,1.88h0l-.19,0a1.82,1.82,0,1,0,0,3.64,1.81,1.81,0,0,0,1.61-1h0a2.11,2.11,0,0,1,2.85-.91v0a3.55,3.55,0,0,0,1.68.43,3.65,3.65,0,1,0,0-7.29Z"/><path class="cls-1" d="M201.21,198.6h0a2.77,2.77,0,0,0-.1.71,2.69,2.69,0,1,0,3.38-2.59h0a5,5,0,0,1-3.5-6.12h0a2.69,2.69,0,1,0-5.16,0h0a4.42,4.42,0,0,1-3,5.48h0a4.37,4.37,0,1,0,5.57,4.19,4.3,4.3,0,0,0-.55-2.08h0a4.42,4.42,0,0,1,.89-5.32A5,5,0,0,1,201.21,198.6Z"/><path class="cls-1" d="M191.06,191.91a2.74,2.74,0,0,0-2.74-2.73,2.7,2.7,0,0,0-1.69.6h0a2.56,2.56,0,0,1-3.58-.41h0a5.66,5.66,0,0,0-4.48-2.17,5.72,5.72,0,1,0,5.12,8.28h0a2.55,2.55,0,0,1,3.42-1.13h0a2.78,2.78,0,0,0,1.22.3A2.74,2.74,0,0,0,191.06,191.91Z"/><path class="cls-1" d="M207.55,145h0a2.45,2.45,0,0,0-.39,0,2.7,2.7,0,0,0,0,5.39,2.63,2.63,0,0,0,.49-.05h0a3.71,3.71,0,0,1,4.31,3v0a4.34,4.34,0,0,0,6.43,3l0,0a3.84,3.84,0,0,1,5.21,1.51h0a2,2,0,1,0,1.76-3,1.86,1.86,0,0,0-.34,0h0a3.84,3.84,0,0,1-4.44-3.13v0a4.37,4.37,0,0,0-4.31-3.65,4.29,4.29,0,0,0-1.75.37h0a3.69,3.69,0,0,1-4.58-1.39,2.09,2.09,0,0,1,2-1.59h0a2,2,0,1,0-2-2.28h0A2.09,2.09,0,0,1,207.55,145Z"/><path class="cls-1" d="M154.47,123a5.32,5.32,0,1,0,10.63,0,5.09,5.09,0,0,0-.17-1.3h0a4.52,4.52,0,0,1,3.28-5.49h0a3.69,3.69,0,1,0-3.16-6.48v0a3.74,3.74,0,0,1-5.24-.67h0a2,2,0,1,0-1.59,3.25,2.06,2.06,0,0,0,.79-.16h0a3.72,3.72,0,0,1,4.59,1.39,4.52,4.52,0,0,1-4.19,4.17h0A5.31,5.31,0,0,0,154.47,123Z"/><path class="cls-1" d="M165.92,156.83h0a2.74,2.74,0,1,0,.32-3.57h0a3,3,0,0,1-4.26-.09h0a2,2,0,1,0-1.46,3.41,2.07,2.07,0,0,0,1.2-.39h0A3,3,0,0,1,165.92,156.83Z"/><path class="cls-1" d="M190.54,123a1.1,1.1,0,0,0,0,.18h0a1.89,1.89,0,0,1-1.73,2h0a2,2,0,0,0,.17,4,2,2,0,0,0,2-2c0-.06,0-.12,0-.18h0a1.9,1.9,0,0,1,1.73-2.06h0a2,2,0,1,0-2.18-2Z"/><path class="cls-1" d="M178.23,102a4.34,4.34,0,0,0,.67,2.31h0a3.94,3.94,0,0,1-1.27,5.42h0a4.38,4.38,0,1,0,6,1.41h0a3.94,3.94,0,0,1,1.28-5.42h0c.15-.09.28-.2.42-.3v0a1.83,1.83,0,0,1,2.58.31h0a2.27,2.27,0,1,0,1.79-3.67,2.42,2.42,0,0,0-.6.09h0a1.84,1.84,0,0,1-2.25-1.3v0a4.37,4.37,0,0,0-8.59,1.11Z"/><path class="cls-1" d="M211.79,130.47h0a1.72,1.72,0,0,1,1.14,2.17h0a3.43,3.43,0,0,0-.18,1.07,3.54,3.54,0,1,0,3.9-3.5l0,0a1.73,1.73,0,0,1-1.54-1.91h0a2.6,2.6,0,0,0-4.42-2.14,2.61,2.61,0,0,0,0,3.69A2.58,2.58,0,0,0,211.79,130.47Z"/><path class="cls-1" d="M175.53,100.15a1.81,1.81,0,0,0,1.82-1.82,1.9,1.9,0,0,0-.11-.63h0a1.72,1.72,0,0,1,1-2.19h0a2,2,0,1,0-2.71-1.89,2,2,0,0,0,.17.8h0a1.71,1.71,0,0,1-.89,2.24h0a1.82,1.82,0,0,0,.72,3.49Z"/><path class="cls-1" d="M158,105.34a3.64,3.64,0,0,0,3.4-2.37h0a2.84,2.84,0,0,1,3.66-1.65h0a5.68,5.68,0,0,0,2,.38,6.25,6.25,0,0,0,1-.09h0a3,3,0,0,1,3.44,2.44h0a2,2,0,1,0,2.69-2.22h0A3,3,0,0,1,172.48,98h0a5.89,5.89,0,0,0,.37-2,5.72,5.72,0,0,0-11.42-.48h0a2.85,2.85,0,0,1-3.08,2.59l0,0c-.11,0-.22,0-.33,0a3.65,3.65,0,0,0,0,7.29Z"/><path class="cls-1" d="M189.47,113.18a2.73,2.73,0,0,0-2.73,2.73,2.68,2.68,0,0,0,.59,1.68h0a1.63,1.63,0,0,1-.3,2.28h0A1.82,1.82,0,1,0,190,121.3a1.72,1.72,0,0,0-.17-.75h0a1.62,1.62,0,0,1,.81-2.15h0a2.73,2.73,0,0,0-1.12-5.22Z"/><path class="cls-1" d="M217.27,182.34a2,2,0,0,0-1.87,1.26h0a3.22,3.22,0,0,1-4.21,1.76h0a4.37,4.37,0,1,0,2.71,4.14v0a3.24,3.24,0,0,1,3.32-3.15h.05a2,2,0,0,0,0-4Z"/><path class="cls-1" d="M209.19,203.69a2,2,0,0,0-1.79,1.12h0a2.81,2.81,0,0,1-3.78,1.24v0a3,3,0,0,0-1.41-.35,3.12,3.12,0,1,0,3,3.91v0a2.82,2.82,0,0,1,3.46-2h0a1.89,1.89,0,0,0,.53.08,2,2,0,0,0,0-4Z"/><path class="cls-1" d="M164.52,163.77a2,2,0,1,0-4,0,2.14,2.14,0,0,0,.15.76h0a2,2,0,0,1-1.94,2.79h-.1a3.92,3.92,0,1,0,3.14,1.59l0,0a2,2,0,0,1,1.2-3.18h0A2,2,0,0,0,164.52,163.77Z"/><path class="cls-1" d="M199,119.34a3.82,3.82,0,0,0,.68-.07l0,0a1.76,1.76,0,0,1,2,1.46h0a1.34,1.34,0,1,0,1.92-1.4h0a1.75,1.75,0,0,1-.92-2,1.79,1.79,0,0,1,2.21,0h0a2,2,0,0,0,1.27.44,2.1,2.1,0,1,0,0-4.19,2.16,2.16,0,0,0-1,.25h0a1.79,1.79,0,0,1-2.42-.73v0a4.24,4.24,0,1,0-3.75,6.22Z"/><path class="cls-1" d="M214.63,121.31h0a2.4,2.4,0,0,1,2,2.73h0a2.85,2.85,0,0,0,0,.41,2.69,2.69,0,1,0,3.44-2.57h0a2.39,2.39,0,0,1-1.62-3l0,0a3.66,3.66,0,0,0,.16-1,3.44,3.44,0,1,0-3.94,3.39Z"/><path class="cls-1" d="M182.71,160.86a3.63,3.63,0,0,0,6.83,1.55v0a2.7,2.7,0,0,1,3.67-1.07h0a2,2,0,1,0-.44-3.19h0a2.7,2.7,0,0,1-2.09.77l-.06-.35a2.62,2.62,0,0,1-.23.32,2.77,2.77,0,0,1-1.45-.76v0a3.62,3.62,0,0,0-6.23,2.71Z"/><path class="cls-1" d="M74.47,158.92a2,2,0,0,0,1.77-1.06h0a3.84,3.84,0,0,1,5.21-1.51v0a4.33,4.33,0,0,0,2.12.57,4.38,4.38,0,0,0,4.3-3.61v0a3.7,3.7,0,0,1,4.3-3h0a2.63,2.63,0,0,0,.49.05,2.7,2.7,0,0,0,0-5.39,2.33,2.33,0,0,0-.38,0h0a2.08,2.08,0,0,1-2.34-1.77h0a2,2,0,1,0-2,2.28h0a2.09,2.09,0,0,1,2,1.59,3.69,3.69,0,0,1-4.58,1.39h0a4.29,4.29,0,0,0-1.75-.37,4.36,4.36,0,0,0-4.3,3.65v0a3.84,3.84,0,0,1-4.44,3.13h0a2.09,2.09,0,0,0-.35,0,2,2,0,0,0,0,4Z"/><path class="cls-1" d="M143.14,198.64a2,2,0,0,0-1.35.52h0a5.08,5.08,0,0,1-7.17-.4v0a4.37,4.37,0,1,0,.45,5.19v0a5.09,5.09,0,0,1,7-1.62h0a2,2,0,1,0,1.07-3.73Z"/><path class="cls-1" d="M145.63,137.1l-.17,0h0a2.15,2.15,0,0,1-2.34-1.94h0a2,2,0,1,0-2,2.2,2.58,2.58,0,0,0,.29,0h0a2.15,2.15,0,0,1,2.43,1.82h0a1.8,1.8,0,0,0,1.79,1.57,1.82,1.82,0,1,0,0-3.64Z"/><path class="cls-1" d="M73.53,171.33A3.18,3.18,0,0,1,72.42,167a2.73,2.73,0,1,0-3.74,1,3.19,3.19,0,0,1,1.11,4.36,2.69,2.69,0,0,0-.3,2.07,2.73,2.73,0,1,0,4-3Z"/><path class="cls-1" d="M132.72,171.37a9.11,9.11,0,0,0-18.21,0,8.31,8.31,0,0,0,0,.87h0a5.71,5.71,0,0,1-5.15,6.22l0,0A4.37,4.37,0,1,0,114,184l0,0a5.7,5.7,0,0,1,7.07-3.9h0a9.1,9.1,0,0,0,11.63-8.75Z"/><path class="cls-1" d="M135.4,137.71a5.71,5.71,0,0,0-5.17,3.28h0a5.83,5.83,0,0,1-7.77,2.77h0a6.73,6.73,0,1,0,3.41,8.43h0a5.83,5.83,0,0,1,7.5-3.41h0a5.89,5.89,0,0,0,2,.37,5.73,5.73,0,0,0,0-11.45Z"/><path class="cls-1" d="M141.89,182.93a5.69,5.69,0,0,0-4.51,1h0a2.62,2.62,0,0,1-3.65-.57h0a2.69,2.69,0,0,0-1.66-1.08,2.73,2.73,0,0,0-1.08,5.36,2.67,2.67,0,0,0,1.09,0,2.63,2.63,0,0,1,3.08,2,5.72,5.72,0,1,0,6.74-6.74Z"/><path class="cls-1" d="M116.15,195.48h0a5.72,5.72,0,1,0,.63-6.11h0a2.56,2.56,0,0,1-3.58.41h0a2.73,2.73,0,1,0-1.7,4.86,2.86,2.86,0,0,0,1.23-.3h0A2.57,2.57,0,0,1,116.15,195.48Z"/><path class="cls-1" d="M105.7,174.7l0,0a4.35,4.35,0,0,0-.08-8.64l0,0a4.87,4.87,0,0,1-4.26-5.41h0c0-.22,0-.45,0-.68a5.73,5.73,0,1,0-5.72,5.72h.09a4.87,4.87,0,0,1,5,4.71,3.51,3.51,0,0,1-3.58,3.37H97a5.73,5.73,0,1,0,5.73,5.72,6.65,6.65,0,0,0-.06-.78h0A3.53,3.53,0,0,1,105.7,174.7Z"/><path class="cls-1" d="M125.6,101.83h0a2,2,0,1,0,2.68,2.22h0a3,3,0,0,1,3.44-2.44h0a6.25,6.25,0,0,0,1,.09,5.68,5.68,0,0,0,2-.38h0a2.84,2.84,0,0,1,3.66,1.65h0a3.64,3.64,0,1,0,3.4-4.92c-.11,0-.21,0-.32,0v0a2.84,2.84,0,0,1-3.07-2.59h0A5.72,5.72,0,0,0,127,96a5.89,5.89,0,0,0,.37,2h0A3,3,0,0,1,125.6,101.83Z"/><path class="cls-1" d="M97.1,140.58a6.52,6.52,0,0,1,5.06,7.69,4.38,4.38,0,1,0,8-1.47h0a3.65,3.65,0,0,1,1.11-5h0a2,2,0,1,0-3.11-1.7,1.76,1.76,0,0,0,.06.46h0a3.6,3.6,0,0,1-1.23,3.61,6.54,6.54,0,0,1-1.12-7.67h0a8.08,8.08,0,1,0-8.73,4.11Z"/><path class="cls-1" d="M80.87,171.71a5.7,5.7,0,0,0,3.08-.9h0a2.69,2.69,0,0,1,3.71.83h0a2.73,2.73,0,1,0,2.3-4.2c-.13,0-.26,0-.39,0h0a2.69,2.69,0,0,1-3-2.28h0a5.72,5.72,0,1,0-5.66,6.52Z"/><path class="cls-1" d="M107,196.13h0a4.41,4.41,0,0,1-3-5.48h0a2.69,2.69,0,0,0-4.74-2.36,2.63,2.63,0,0,0-.42,2.32h0a5,5,0,0,1-3.49,6.12h0a2.69,2.69,0,1,0,3.39,2.59,2.77,2.77,0,0,0-.11-.71h0a5,5,0,0,1,2.42-5.67,4.39,4.39,0,0,1,.89,5.32h0a4.3,4.3,0,0,0-.55,2.08,4.38,4.38,0,1,0,5.57-4.19Z"/><path class="cls-1" d="M94.67,189.41a4.37,4.37,0,0,0-6-4h0a3.22,3.22,0,0,1-4.21-1.76h0a2,2,0,1,0-1.87,2.78h0a3.24,3.24,0,0,1,3.32,3.15v0a4.37,4.37,0,0,0,8.74-.1Z"/><path class="cls-1" d="M109.43,158.89a2.62,2.62,0,0,1-.23-.32l-.06.35a2.7,2.7,0,0,1-2.09-.77h0a2,2,0,0,0-1.41-.59,2,2,0,1,0,1,3.78h0a2.7,2.7,0,0,1,3.67,1.07v0a3.6,3.6,0,0,0,3,1.91,3.64,3.64,0,1,0-2.42-6.17v0A2.77,2.77,0,0,1,109.43,158.89Z"/><path class="cls-1" d="M112.1,134.28a3,3,0,0,0,5.84.71h0a4.36,4.36,0,0,1,4.21-3.29,3.82,3.82,0,0,1,.21,4.6h0a3.16,3.16,0,1,0,5.08-.14h0a3.83,3.83,0,0,1,.68-5.37h0a5.72,5.72,0,1,0-9.23-4.52c0,.14,0,.27,0,.4h0a4.38,4.38,0,0,1-4.06,4.66h0A3,3,0,0,0,112.1,134.28Z"/><path class="cls-1" d="M145.36,123a5.32,5.32,0,0,0-5-5.3h0a4.53,4.53,0,0,1-4.19-4.17,3.72,3.72,0,0,1,4.59-1.39h0a2.06,2.06,0,0,0,.79.16A2,2,0,1,0,140,109h0a3.73,3.73,0,0,1-5.23.67v0a3.69,3.69,0,1,0-3.16,6.48h0a4.52,4.52,0,0,1,3.28,5.49h0a5.58,5.58,0,0,0-.17,1.3,5.32,5.32,0,1,0,10.64,0Z"/><path class="cls-1" d="M82.84,179.05h0a2.73,2.73,0,1,0-.84-4.18,2.69,2.69,0,0,0-.52.95,2.86,2.86,0,0,1-3.58,1.89,1.82,1.82,0,1,0,.86,2.92,2.17,2.17,0,0,0,.22-.34h0A2.86,2.86,0,0,1,82.84,179.05Z"/><path class="cls-1" d="M107.1,125h0a1.9,1.9,0,0,1,1.72,2.06h0c0,.06,0,.12,0,.18a2,2,0,1,0,2.18-2h0a1.9,1.9,0,0,1-1.73-2h0a1.1,1.1,0,0,0,0-.18,2,2,0,1,0-2.18,2Z"/><path class="cls-1" d="M83.52,137.25a3.54,3.54,0,0,0,3.54-3.54,3.43,3.43,0,0,0-.18-1.07h0A1.74,1.74,0,0,1,88,130.48h0a2.61,2.61,0,1,0-2.61-4.33,2.58,2.58,0,0,0-.74,2.14h0a1.73,1.73,0,0,1-1.53,1.91l0,0a3.53,3.53,0,0,0,.36,7Z"/><path class="cls-1" d="M93.72,117.77a2,2,0,0,0,1.27-.44h0a1.79,1.79,0,0,1,2.21,0,1.75,1.75,0,0,1-.92,2h0a1.34,1.34,0,1,0,1.92,1.4h0a1.75,1.75,0,0,1,2-1.46l0,0a3.92,3.92,0,0,0,.68.07,4.26,4.26,0,1,0-3.75-6.22v0a1.79,1.79,0,0,1-2.42.73h0a2.13,2.13,0,0,0-1-.25,2.1,2.1,0,1,0,0,4.19Z"/><path class="cls-1" d="M123.5,206.47l-.2,0h0A2.12,2.12,0,0,1,121,204.6v0a3.63,3.63,0,1,0-3.61,4,3.52,3.52,0,0,0,1.68-.43v0a2.11,2.11,0,0,1,2.85.91h0a1.82,1.82,0,1,0,1.62-2.65Z"/><path class="cls-1" d="M121.58,95.51h0a1.71,1.71,0,0,1,1,2.19h0a1.68,1.68,0,0,0-.12.63A1.82,1.82,0,1,0,125,96.66h0a1.71,1.71,0,0,1-.89-2.24h0a2,2,0,0,0,.17-.8,2,2,0,1,0-2.71,1.89Z"/><path class="cls-1" d="M110.15,106.67a2.26,2.26,0,0,0,1.79-.89h0a1.83,1.83,0,0,1,2.58-.31v0c.14.1.28.21.43.3h0a3.93,3.93,0,0,1,1.27,5.42h0a4.37,4.37,0,1,0,6-1.41h0a3.94,3.94,0,0,1-1.28-5.42h0a4.36,4.36,0,1,0-7.92-3.42v0a1.84,1.84,0,0,1-2.25,1.3h0a2.35,2.35,0,0,0-.6-.09,2.28,2.28,0,0,0,0,4.56Z"/><path class="cls-1" d="M109.23,118.4h0a1.63,1.63,0,0,1,.82,2.15h0a1.87,1.87,0,0,0-.17.75,1.83,1.83,0,1,0,2.93-1.44h0a1.64,1.64,0,0,1-.3-2.28h0a2.73,2.73,0,1,0-3.27.81Z"/><path class="cls-1" d="M97.61,205.71a3.07,3.07,0,0,0-1.41.35v0a2.81,2.81,0,0,1-3.78-1.24h0a2,2,0,1,0-1.8,2.92,1.89,1.89,0,0,0,.53-.08h0a2.81,2.81,0,0,1,3.45,2v0a3.11,3.11,0,1,0,3-3.91Z"/><path class="cls-1" d="M141.23,175.14a3.92,3.92,0,1,0,0-7.83h-.1a2,2,0,0,1-1.94-2.79h0a2.14,2.14,0,0,0,.15-.76,2,2,0,1,0-2.46,2h0a2,2,0,0,1,1.2,3.18l0,0a3.91,3.91,0,0,0,3.14,6.24Z"/><path class="cls-1" d="M139.3,152.52a2,2,0,0,0-1.46.63h0a3,3,0,0,1-4.26.09h0a2.73,2.73,0,1,0,.32,3.57h0a3,3,0,0,1,4.21-.66h0a2,2,0,1,0,1.19-3.65Z"/><path class="cls-1" d="M83.22,124.45a2.85,2.85,0,0,0,0-.41h0a2.4,2.4,0,0,1,2-2.73h0a3.43,3.43,0,1,0-3.94-3.39,3.66,3.66,0,0,0,.16,1l0,0a2.39,2.39,0,0,1-1.62,3h0a2.68,2.68,0,1,0,3.43,2.57Z"/></svg>