<?xml version="1.0" encoding="utf-8"?>
<!-- Generator: Adobe Illustrator 16.0.0, SVG Export Plug-In . SVG Version: 6.00 Build 0)  -->
<!DOCTYPE svg PUBLIC "-//W3C//DTD SVG 1.1//EN" "http://www.w3.org/Graphics/SVG/1.1/DTD/svg11.dtd">
<svg version="1.1" id="Layer_1" xmlns="http://www.w3.org/2000/svg" xmlns:xlink="http://www.w3.org/1999/xlink" x="0px" y="0px"
	 width="337.898px" height="687.553px" viewBox="0 0 337.898 687.553" enable-background="new 0 0 337.898 687.553"
	 xml:space="preserve">
<rect fill="#FFFFFF" stroke="#000000" stroke-miterlimit="10" width="337.898" height="687.553"/>
<g>
	<path fill="#FFFFFF" d="M40.348,105.828c0,0.973-0.795,1.768-1.768,1.768H3.093c-0.972,0-1.768-0.795-1.768-1.768V80.132
		c0-0.973,0.795-1.768,1.768-1.768h35.487c0.972,0,1.768,0.795,1.768,1.768V105.828z"/>
	
		<path fill="none" stroke="#D1D2D3" stroke-width="2.6516" stroke-linecap="round" stroke-linejoin="round" stroke-miterlimit="10" d="
		M40.348,105.828c0,0.973-0.795,1.768-1.768,1.768H3.093c-0.972,0-1.768-0.795-1.768-1.768V80.132c0-0.973,0.795-1.768,1.768-1.768
		h35.487c0.972,0,1.768,0.795,1.768,1.768V105.828z"/>
</g>
<g>
	<path fill="#FFFFFF" d="M40.348,190.678c0,0.972-0.795,1.768-1.768,1.768H3.217c-0.972,0-1.768-0.796-1.768-1.768v-48.229
		c0-0.973,0.795-1.768,1.768-1.768h35.363c0.972,0,1.768,0.795,1.768,1.768V190.678z"/>
	
		<path fill="none" stroke="#D1D2D3" stroke-width="2.6516" stroke-linecap="round" stroke-linejoin="round" stroke-miterlimit="10" d="
		M40.348,190.678c0,0.972-0.795,1.768-1.768,1.768H3.217c-0.972,0-1.768-0.796-1.768-1.768v-48.229c0-0.973,0.795-1.768,1.768-1.768
		h35.363c0.972,0,1.768,0.795,1.768,1.768V190.678z"/>
</g>
<g>
	<path fill="#FFFFFF" d="M336.572,189.794c0,1.458-1.193,2.651-2.65,2.651h-33.588c-1.457,0-2.65-1.193-2.65-2.651v-46.449
		c0-1.458,1.193-2.651,2.65-2.651h33.588c1.457,0,2.65,1.193,2.65,2.651V189.794z"/>
	
		<path fill="none" stroke="#D1D2D3" stroke-width="2.6516" stroke-linecap="round" stroke-linejoin="round" stroke-miterlimit="10" d="
		M336.572,189.794c0,1.458-1.193,2.651-2.65,2.651h-33.588c-1.457,0-2.65-1.193-2.65-2.651v-46.449c0-1.458,1.193-2.651,2.65-2.651
		h33.588c1.457,0,2.65,1.193,2.65,2.651V189.794z"/>
</g>
<g>
	<path fill="#FFFFFF" d="M40.481,254.568c0,0.973-0.795,1.768-1.768,1.768H3.35c-0.972,0-1.768-0.795-1.768-1.768v-48.229
		c0-0.972,0.795-1.768,1.768-1.768h35.363c0.972,0,1.768,0.796,1.768,1.768V254.568z"/>
	
		<path fill="none" stroke="#D1D2D3" stroke-width="2.6516" stroke-linecap="round" stroke-linejoin="round" stroke-miterlimit="10" d="
		M40.481,254.568c0,0.973-0.795,1.768-1.768,1.768H3.35c-0.972,0-1.768-0.795-1.768-1.768v-48.229c0-0.972,0.795-1.768,1.768-1.768
		h35.363c0.972,0,1.768,0.796,1.768,1.768V254.568z"/>
</g>
<circle fill="#F2F2F2" stroke="#DCDBDB" stroke-width="1.3258" stroke-miterlimit="10" cx="113.533" cy="38.514" r="5.843"/>
<g>
	<path fill="#FFFFFF" stroke="#D1D2D3" stroke-width="2.6516" stroke-miterlimit="10" d="M331.379,640.384
		c0,25.319-20.525,45.843-45.846,45.843H51.964c-25.319,0-45.844-20.523-45.844-45.843V47.17c0-25.319,20.525-45.845,45.844-45.845
		h233.569c25.32,0,45.846,20.525,45.846,45.845V640.384z"/>
	<g>
		<path fill="#F2F2F2" d="M320,605.348c0,1.464-1.188,2.651-2.651,2.651H18.651c-1.464,0-2.651-1.188-2.651-2.651V74.651
			C16,73.187,17.187,72,18.651,72h298.697c1.464,0,2.651,1.187,2.651,2.651V605.348z"/>
		<path fill="none" stroke="#DCDBDB" stroke-width="2" stroke-miterlimit="10" d="M320,605.348c0,1.464-1.188,2.651-2.651,2.651
			H18.651c-1.464,0-2.651-1.188-2.651-2.651V74.651C16,73.187,17.187,72,18.651,72h298.697c1.464,0,2.651,1.187,2.651,2.651V605.348
			z"/>
	</g>
	<circle fill="#F2F2F2" stroke="#DCDBDB" stroke-width="1.3258" stroke-miterlimit="10" cx="167.943" cy="15.207" r="3.571"/>
	<circle fill="#D2D3D4" cx="167.944" cy="647.69" r="26.613"/>
	<circle fill="#FFFFFF" cx="167.944" cy="647.69" r="23.294"/>
	<path fill="#E5E5E5" stroke="#DCDBDB" stroke-width="2" stroke-miterlimit="10" d="M194,38.5c0,1.381-1.119,2.5-2.5,2.5h-48
		c-1.381,0-2.5-1.119-2.5-2.5l0,0c0-1.381,1.119-2.5,2.5-2.5h48C192.881,36,194,37.119,194,38.5L194,38.5z"/>
</g>
<image overflow="visible" width="372" height="654" xlink:href="../../../chat-screen.png"  transform="matrix(0.8109 0 0 0.8109 18.7939 74.894)">
</image>
</svg>
